<svg viewBox="50 250 1000 372.17" xmlns="http://www.w3.org/2000/svg">
  <path d="M405.537 622.112a433.331 433.331 0 0 0-12.09-.14 664.39 664.39 0 0 1-11.797-.064l-11.227-.185c-9.655-.16-20.003-.929-21.141-1.572-1.277-.722 4.18-.757 13.588-.087 3.473.247 13.851-.065 28.3-.851 22.146-1.205 22.818-1.209 22.864-.146.027.602.436 1.078.91 1.057.473-.021.877.323.896.763.047 1.086-2.9 1.436-10.303 1.225zm49.85-5.714c-1.125-1.241.187-1.605 1.391-.386.907.918.938 1.096.197 1.128-.484.021-1.199-.313-1.588-.742zm62.239-3.624c-1.144-.346-1.144-.355-.025-1.018.62-.367 2.275-.878 3.677-1.135 2.856-.523 8.16-2.206 9.993-3.171.843-.444 1.532-.447 2.3-.01.65.37.742.547.226.435-.479-.104-1.116.12-1.416.498-.473.597-4.33 1.976-11.615 4.154-1.093.327-2.507.438-3.14.246zm-16.014.31c-.22-.201-.41-.633-.425-.96-.016-.36.253-.337.683.057.39.358.582.79.426.96-.156.17-.464.145-.684-.057zm-42.396.849c-.137-.122-2.644-.262-5.572-.31-2.927-.048-5.831-.333-6.454-.632-.824-.396-1.187-.348-1.336.175-.148.519-.484.463-1.206-.199-.55-.504-1.006-1.036-1.012-1.183-.022-.495 3.093-1.28 6.544-1.649l7.445-.797c6.026-.646 10.138-1.24 11.722-1.693.78-.224 3.67-.788 6.418-1.254 2.748-.466 4.988-1.06 4.977-1.32-.012-.26-.216-.494-.455-.52-.238-.026-1.178-.101-2.087-.167-2.485-.182-2.457-.561.08-1.105 1.864-.399 2.5-.28 3.52.653 1 .917 1.964 1.108 4.942.978 2.034-.089 3.843-.419 4.02-.734.175-.315 1.627-.804 3.226-1.088 2.135-.378 2.967-.797 3.136-1.578.174-.81.472-.945 1.256-.57.565.272 1.64.365 2.39.207.75-.158 2.347-.477 3.549-.71 1.201-.234 2.653-.702 3.225-1.041.691-.41 1.561-.444 2.59-.104 1.226.406 2.093.23 4.171-.842 2.813-1.453 2.996-1.512 6.9-2.24 1.413-.263 3.666-.898 5.007-1.41 1.341-.513 3.86-1.135 5.598-1.382 1.739-.247 4.595-1.188 6.349-2.091 1.753-.903 3.368-1.673 3.588-1.71.22-.038.675-.37 1.012-.737.45-.492-.019-.89-1.775-1.505-2.894-1.014-3.763-1.01-4.546.023-.574.756-1.73.816-6.226.323-1.327-.145-1.772-.445-1.567-1.057.157-.47.71-.893 1.227-.94.595-.056.673-.182.211-.346-.401-.142-.74-.504-.754-.805-.015-.334.375-.363 1.004-.074.565.26 1.345.344 1.734.185.388-.159.724.12.746.62.022.5.148.905.28.9.132-.01.699.142 1.26.33.596.2.866.117.651-.2-.202-.297-.143-.927.132-1.398.426-.73.583-.741 1.052-.08.72 1.018 2.37.286 2.323-1.03-.028-.81.076-.862.504-.247.297.426 1.32.77 2.275.763.955-.01 1.636.1 1.513.235-.122.135.313.587.967 1.004.655.417 1.067.978.917 1.246-.15.268.142.626.648.795 1.507.504 3.013.266 3.235-.512.115-.403 1.338-.843 2.738-.984 6.24-.63 6.802-.765 7.487-1.793.65-.976 6.297-2.492 10.538-2.829.783-.062 1.176-.38.993-.802-.167-.384-.117-.659.11-.61.935.201 5.829-1.057 6.117-1.572.171-.305.78-.576 1.355-.6.575-.026 1.333-.427 1.687-.892.353-.466 1.653-1.063 2.889-1.328 1.859-.398 2.237-.71 2.19-1.81-.05-1.12-.516-1.416-2.991-1.897-1.613-.313-3.079-.41-3.257-.216-.178.194.042.448.488.564 4.474 1.162 3.705 1.391-3.486 1.037-13.889-.683-17.878-1.352-17.95-3.008-.043-.967.913-1.042 1.342-.105.248.543.443.515.847-.121.346-.544.895-.683 1.609-.407 1.267.489 1.098.445 3.696.958 2.774.547 5.902.328 7.321-.514.65-.384 2.084-.738 3.187-.787 1.104-.048 2.378-.492 2.83-.986.463-.505 1.85-.944 3.163-1.001 1.86-.081 2.329-.311 2.293-1.127-.06-1.379-3.256-3.003-5.978-3.038-2.31-.03-2.657.299-1.468 1.388 1.476 1.353.052 1.196-2.512-.276-2.078-1.195-3.224-1.474-5.192-1.266-1.71.18-3.132-.067-4.405-.766-2.101-1.156-4.791-1.227-11.191-.294-3.55.518-4.853.469-7.055-.264-1.723-.573-3.515-.753-4.947-.497-1.37.245-2.861.115-3.825-.332-.868-.404-2.144-.71-2.834-.68-.69.03-1.56-.224-1.934-.567-.393-.36-1.11-.417-1.703-.135-1.315.625-3.8.85-4.194.38-.167-.199-2.377-.409-4.91-.466-2.535-.057-7.068-.532-10.075-1.055-3.007-.522-5.55-.947-5.65-.942-.102 0-.203-.401-.225-.901-.021-.5-.358-.788-.747-.64-.389.15-.697.638-.685 1.086.012.472-.458.775-1.12.722-.627-.051-2.436-.125-4.02-.165-1.584-.04-3.673-.429-4.641-.864-.968-.436-3.313-.763-5.21-.728-1.897.035-4.889-.283-6.648-.705-4.848-1.165-7.615-1.583-9.99-1.507-1.185.038-2.166-.19-2.18-.505-.015-.335 1.89-.658 4.57-.775 5.042-.22 5.94-1.009 2.077-1.828-1.357-.288-3.36-.886-4.449-1.33-1.16-.471-2.75-.646-3.834-.421-1.02.211-2.123.137-2.453-.165-.33-.302-2.553-.512-4.942-.468-4.502.084-7.024-.642-2.86-.824 1.298-.057 2.511-.373 2.696-.705.42-.751-3.253-2.147-5.406-2.053-.946.04-1.898-.36-2.323-.978-.5-.73-1.73-1.13-4.038-1.317-1.987-.16-4.859-.988-7.155-2.06-2.11-.986-4.397-1.768-5.081-1.738-1.108.048-3.382-.6-6.94-1.98-1.89-.733-5.328-1.315-9.274-1.57-1.571-.103-3.744-.571-13.65-2.945-1.759-.421-4.86-.797-6.89-.835-2.03-.038-5.08-.295-6.777-.57-1.697-.277-3.295-.36-3.552-.185-.257.175-1.209-.027-2.115-.447-.905-.421-2.324-.716-3.151-.656-.828.06-4.29.094-7.692.074-3.403-.019-6.177.174-6.166.43.01.256-1.015.407-2.28.336-1.893-.106-2.232.025-1.92.745.21.481.74.86 1.18.84.44-.019.812.224.826.54a.577.577 0 0 1-.55.599c-1.058.046-.548.877 1.186 1.932 1.218.741 1.71 1.474 1.69 2.516-.026 1.35.162 1.461 2.332 1.373 1.299-.053 2.733.175 3.187.508 1.671 1.223 4.64 2.315 6.777 2.492 1.207.1 3.365.316 4.796.48 1.432.165 2.842.221 3.136.125.293-.096 1.599.159 2.901.565 3.32 1.035 6.967 1.663 11.34 1.951 2.062.136 4.92.688 6.351 1.226 2.02.76 4.04.922 9.046.724 3.544-.14 6.912-.424 7.483-.63 1.323-.475 2.787.333 2.271 1.255-.236.422-1.008.59-1.925.422l-1.532-.283 1.476 1.062c.812.584 1.314 1.239 1.116 1.455-.199.217-2.769.572-5.711.789-7.46.55-7.358.528-7.313 1.561.028.642-.314.852-1.107.681-.631-.136-2.114.016-3.294.338-1.467.4-3.065.368-5.052-.097-4.682-1.099-12.446-1.7-13.075-1.015-.366.4-.05.702.945.906.822.168 1.506.589 1.521.935.03.683-.947.594-6.931-.63-7.662-1.565-15.102-2.626-15.924-2.269-1.383.602-.923 1.428 1.115 2.003 1.052.297 2.337.994 2.855 1.549.519.555 2.549 1.277 4.51 1.604 3.497.584 3.816.833 3.698 2.879-.035.601.331.992.906.967.719-.03.878-.404.627-1.466-.264-1.115-.1-1.434.756-1.471.601-.026 1.67.445 2.376 1.047.705.602 1.706 1.076 2.223 1.054.517-.023 1.575.578 2.351 1.336.777.757 1.75 1.362 2.163 1.344.412-.018 1.705.816 2.871 1.854 1.166 1.038 2.642 2.028 3.28 2.2.636.172 1.02.559.852.86-.492.879-2.714.737-5.203-.331-3.626-1.557-7.218-2.215-8.037-1.473-.385.349-.867.482-1.07.295-.39-.356-3.935-1-7.365-1.337-4.882-.48-11.07-1.8-15.68-3.347-2.734-.916-11.967-2.098-12.975-1.66-.44.192-1.418.037-2.171-.344-3.485-1.762-5.312-.588-4.62 2.968.53 2.72.398 2.848-1.89 1.804-1.567-.716-6.966-2.3-8.744-2.564-2.185-.326-7.977-1.854-8.527-2.25-.327-.234-2.107-.637-3.956-.895-1.85-.257-3.578-.589-3.842-.737-.264-.147-2.387-.174-4.716-.06-2.33.115-4.963.234-5.851.264-.888.031-2.073-.424-2.633-1.01-1.305-1.365-9.17-3.336-11.263-2.821-1.147.282-1.747.121-2.16-.577-.624-1.053-5.517-2.51-6.404-1.907-.301.205-2.532-.164-4.958-.82-3.578-.966-4.405-1.035-4.375-.365.027.633-.437.759-1.985.538-1.51-.216-2.093-.07-2.31.581-.237.706-.748.787-2.721.43-2.66-.482-6.31.048-9.135 1.323-.997.45-2.321 1.027-2.943 1.282-1.13.463-1.13.463.057 1.301 1.147.81 1.136.83-.343.555-.841-.156-2.774.044-4.296.444-1.52.4-3.535.892-4.476 1.092-1.654.352-2.635.749-6.22 2.512-.929.458-2.715 1.045-3.97 1.305-5.81 1.204-12.829 4.694-17.24 8.571-.933.82-2.446 1.374-4.248 1.555-3.382.34-10.062 2.955-16.895 6.616-2.778 1.487-5.863 2.74-6.857 2.783-.994.043-2.08.437-2.412.876-.333.439-2.455 1.48-4.716 2.315-6.116 2.256-9.377 3.59-13.265 5.428-1.924.91-4.599 1.924-5.943 2.255-1.345.33-5.263 1.289-8.707 2.13-5.994 1.462-8.256 2.044-13.94 3.586-1.407.382-7.142.97-12.745 1.309-9.66.582-10.188.558-10.233-.47-.072-1.644 4.776-3.17 7.875-2.477.44.098.88-.214.977-.693.098-.479.045-.554-.117-.168-.223.531-.647.56-1.738.12-1.786-.722-.882-1.536 1.852-1.669 1.939-.094 2.335.36 1.301 1.49-.44.48.763.714 4.43.859 5.22.206 9.624-.728 21.93-4.65 2.34-.747 5.406-1.71 6.81-2.141 6.749-2.071 8.522-2.844 9.22-4.02 1.036-1.74 6.164-3.73 10.282-3.986 6.64-.414 7.19-.548 8.49-2.08.697-.821 1.79-1.516 2.427-1.544.639-.028 1.553-.71 2.033-1.518.48-.807 1.573-1.667 2.428-1.911 1.796-.513 2.953-1.389 2.917-2.209-.03-.71-7.197.197-13.16 1.666-2.349.578-5.824 1.875-7.724 2.882-1.9 1.006-3.693 1.84-3.983 1.853-.29.013-1.547.572-2.794 1.242-2.1 1.13-4.746 1.265-4.79.244-.011-.24.77-.63 1.736-.867s2.495-1.007 3.398-1.712c.903-.704 2.467-1.438 3.476-1.632 1.01-.194 2.532-.688 3.384-1.098 1.817-.874 2.038-2.787.314-2.712-1.267.055-1.604-.836-.488-1.29.389-.159.498-.493.243-.743s-2.048.189-3.985.975c-1.937.786-6.197 2.428-9.466 3.649-3.27 1.22-7.6 2.848-9.624 3.616-2.023.768-4.96 1.712-6.525 2.097-1.565.386-4.252 1.12-5.97 1.631-5.885 1.753-10.967 3.134-12.233 3.325-1.524.23-3.842 2.14-4.309 3.551-.21.636-.995 1.078-2.076 1.17-.956.082-1.93.209-2.163.285-3.174 1.024-3.58 1.265-3.283 1.946.443 1.021.08 1.2-3.744 1.846-2.811.475-3.29.421-3.325-.373-.028-.648.48-.95 1.683-1.003.947-.04 1.711-.333 1.698-.649-.014-.316-.22-.585-.458-.598-2.61-.144-4.86-1.058-4.208-1.71.132-.13 1.912-.481 3.956-.778 4.78-.695 11.984-2.929 15.767-4.89 1.632-.845 5.836-2.4 9.342-3.453 6.71-2.017 15.232-4.956 17.134-5.91.619-.31 2.023-.778 3.119-1.04 1.096-.26 2.243-.679 2.548-.93.673-.55 7.889-3.231 8.81-3.271 1.065-.046 4.481-2.01 4.457-2.562-.032-.725-4.267-.445-6.14.406-.868.395-2.592 1.22-3.831 1.834-7.947 3.938-11.172 5.198-12.942 5.056l-1.54-.122 1.375-2.218c1.019-1.643 1.779-2.236 2.934-2.29.857-.036 2.19-.432 2.961-.873.772-.441 2.94-1.2 4.817-1.685 6.193-1.603 7.673-2.176 7.639-2.962-.07-1.613-2-1.262-10.29 1.872-4.692 1.774-9.432 3.265-10.534 3.313-1.863.08-1.96 0-1.401-1.163 1.075-2.238-1.974-2.558-5.803-.609-1.98 1.008-1.706 1.842.644 1.955 2.487.12 3.519.906 2.034 1.55-.595.258-1.486 1.014-1.98 1.68-.804 1.085-1.101 1.146-2.878.59-3.519-1.102-7.407-1.156-12.316-.172-2.641.53-4.962.817-5.157.638-.195-.18.082-1.146.616-2.148 1.045-1.958 2.673-2.677 8.905-3.933 4.494-.906 7.163-1.905 7.13-2.67-.027-.61-6.457.05-8.3.85-.469.205-.866.086-.88-.264-.016-.35.29-.65.678-.667.389-.017 1.982-.58 3.542-1.253a9284.08 9284.08 0 0 1 6.944-2.99c4.282-1.841 5-3.049 1.725-2.906-1.574.07-2.016-.19-2.507-1.473-.327-.856-.884-1.543-1.236-1.528-.471.02-.48-.15-.03-.64.62-.677 2.098-.272 1.688.464-.529.948 4.345.416 6.739-.736 2.827-1.361 3.372-2.478 1.16-2.382-1.089.048-1.491-.323-1.861-1.714-.461-1.735-.53-1.765-3.01-1.315-1.395.254-2.411.237-2.257-.039.4-.714 6.25-2.475 10.176-3.062 4.27-.639 6.84-3.075 3.025-2.868-7.215.393-13.811 1.18-14.105 1.686-.558.96-2.655 1.535-4.34 1.19-1.455-.299-1.483-.367-.598-1.436.512-.617 1.536-1.148 2.277-1.18.74-.032 1.335-.33 1.32-.663-.014-.332.797-1.018 1.804-1.525 1.006-.507 2.208-1.154 2.67-1.436 2.487-1.521 3.452-1.958 4.42-2 .587-.026 1.802-.444 2.7-.93.897-.485 4.08-1.157 7.071-1.492 7.614-.852 13.354-2.474 14.32-4.045.251-.408 1.052-.395 2.444.04 1.139.357 2.325.476 2.636.264.311-.212.738.011.948.495.21.484.608.726.883.54.275-.188.528.302.562 1.089.058 1.329.188 1.387 1.841.834 2.418-.809 2.533-1.04 1.204-2.412-.828-.854-.953-1.268-.445-1.47 1.241-.496.69-1.877-.875-2.198-1.641-.337-8.516.458-9.448 1.092-.316.215-3.46.61-6.987.877s-7.958.657-9.848.867c-1.89.21-6.399.7-10.021 1.087-9.38 1.003-12.585 1.668-12.545 2.602.012.274-1.85.601-4.14.729-7.167.399-8.644.753-9.735 2.334-.923 1.338-1.185 1.412-3.41.962-1.326-.268-3.047-.936-3.826-1.484-.779-.548-1.963-.99-2.632-.98-1.161.016-1.157-.01.094-.576 1.8-.815 5.797-1.045 7.563-.436 1.815.625 4.923.066 5.76-1.038.346-.455 1.178-.853 1.85-.883 1.404-.064 6.157-3.34 5.595-3.854-.206-.189.36-.532 1.258-.764.897-.231 3.676-1.036 6.175-1.789 2.499-.752 5.535-1.617 6.747-1.922 1.211-.304 2.372-.855 2.578-1.223.206-.368.915-.799 1.577-.956.661-.158 1.766-.62 2.454-1.029l1.253-.742-1.422-.708c-.783-.39-2.788-.659-4.457-.597-1.669.062-3.881-.2-4.916-.58-1.036-.38-2.396-.582-3.022-.447-3.412.734-9.658.861-9.913.203-.15-.39-.753-.687-1.34-.661-.587.026-1.24-.21-1.453-.521-.212-.313-.62-.41-.906-.215-.286.195-.533.072-.548-.272-.015-.345.4-.812.92-1.038.847-.368.828-.452-.179-.797-1.592-.545-14.496.012-14.848.64-.303.544-6.17 1.729-13.331 2.693-3.413.46-4.138.73-3.96 1.48.132.55 1.444 1.228 3.29 1.698 1.688.43 3.53 1.14 4.092 1.577.562.438 1.528.674 2.148.525 1.444-.347 8.92.717 9.336 1.33.174.255-.021.5-.434.544-1.856.197-7.582.17-8.716-.042-.69-.13-2.504-.266-4.032-.305-1.54-.04-3.266-.476-3.874-.98-.982-.813-1.146-.813-1.556 0-.398.792-.557.768-1.209-.181-.661-.963-.576-1.145.716-1.53 2.658-.792.203-2.037-4.123-2.091-3.8-.048-4.95-.3-4.984-1.09-.033-.744 7.557-2.244 14.546-2.874 3.783-.342 6.998-.825 7.147-1.074.148-.25 1.177-.468 2.287-.484 1.11-.017 2.894-.517 3.964-1.11 1.575-.873 3.613-1.158 10.715-1.5 6.893-.33 8.763-.584 8.737-1.185-.047-1.087-1.379-1.302-7.243-1.165-8.374.196-14.82 1.447-17.053 3.31-1.566 1.305-2.01 1.447-2.579.82-1.002-1.106.365-2.354 4.423-4.037 3.135-1.3 5.03-2.682 3.23-2.354-.424.077-2.711.186-5.082.243l-4.31.103 1.792-1.78c.985-.978 1.775-2.166 1.754-2.64-.054-1.25-3.464-2.316-9.757-3.05-3.034-.353-5.724-.758-5.979-.9-.254-.143-2.104-.323-4.112-.402-2.007-.078-4.435-.34-5.395-.583-.96-.243-3.567-.654-5.794-.913-6.163-.718-6.73-.851-6.367-1.5.296-.528 2.405-.504 6.725.078.55.074 1.146-.126 1.324-.445.521-.93-.797-1.967-3.308-2.602-2.84-.717-2.952-1.223-.495-2.234 2.5-1.03 3.606-1.028 4.054 0 .205.47 1.036 1.075 1.847 1.343.81.269 1.486.753 1.5 1.077.034.779 1.603.692 1.83-.101.124-.437.656-.46 1.807-.08.897.298 2.19.516 2.87.487 1.215-.053 1.217-.068.074-.757-.641-.386-2.083-.952-3.204-1.258-5.528-1.508-6.707-2.07-6.56-3.129.264-1.92.91-1.997 6.434-.773 3.011.668 6.186 1.184 7.054 1.147.869-.037 1.59.162 1.602.443.03.684 3.516 1.143 7.398.974 1.864-.081 3.724.197 4.534.679 1.06.63 2.68.714 7.098.368 6.51-.51 7.944-1.268 5.332-2.822-1.423-.847-2.773-.93-9.436-.581-4.277.224-8.673.627-9.769.895-1.649.404-2.125.29-2.76-.656-.684-1.02-.613-1.184.654-1.505.781-.198 2.107-.536 2.946-.751.839-.216 4.386-.506 7.883-.645 8.846-.352 9.827-1.288 4.062-3.875-2.62-1.176-3.702-1.317-8.224-1.07-2.864.158-7.023.201-9.243.098-2.22-.103-5.734-.078-7.81.057-2.689.174-3.985.012-4.507-.565-.606-.668-.458-.915.846-1.414l1.58-.604-2.05-.837c-2.918-1.192-6.966-1.463-9.563-.641-1.226.388-3.387.887-4.801 1.109-1.414.222-3.292.55-4.172.727-1.053.213-1.535.091-1.409-.357.105-.374.723-.783 1.373-.908.649-.125 1.293-.751 1.431-1.391.213-.988.56-1.12 2.295-.872 1.734.247 2.247.053 3.379-1.28 1.157-1.364 1.64-1.537 3.638-1.307 1.443.167 2.44.022 2.668-.387.54-.966 2.91-.9 3.821.105.475.523 1.34.745 2.154.553.748-.177 2.412-.133 3.699.097 2.528.453 4.206-.375 3.598-1.776-.181-.416-.07-.768.245-.782.316-.014.74.356.943.822.228.527 1.118.815 2.35.76 2.39-.103 2.05-.946-.545-1.348-1.657-.257-1.773-.39-1.042-1.187.512-.559 2.006-.973 3.95-1.095 1.72-.108 3.423-.454 3.784-.77.36-.317 1.518-.66 2.574-.765l1.919-.189-2.366-3.895c-3.687-6.073-5.123-7.564-7.26-7.537-1.013.013-2.495-.138-3.295-.335-1.44-.353-1.437-.361.347-.855 1.691-.47 2.854-1.884 1.934-2.355-1.467-.749-4.644-.651-6.096.187-1.615.934-2.892.891-5.34-.178-1.019-.445-1.603-.298-2.933.74-.914.712-1.896 1.305-2.184 1.318-.614.027-2.619-3.57-2.672-4.794a.855.855 0 0 0-.898-.804c-.474.02-.87-.163-.881-.409-.01-.245 1.019-.392 2.287-.327 1.432.074 2.296-.121 2.28-.515-.016-.35.167-.613.405-.586 1.131.129 1.365-.202.677-.96-.815-.9-2.055-1.118-1.47-.259.196.289-.125.51-.713.491-.994-.03-.981-.176.185-2.067.69-1.118 1.245-2.256 1.233-2.528-.012-.271.443-.514 1.012-.539 2.406-.105 3.127-2.782.874-3.244-.787-.162-1.714-.954-2.093-1.79-1.543-3.402-2.96-4.858-5.451-5.604-1.388-.416-2.43-1.019-2.315-1.34.252-.705 2.558-.753 6.845-.143 1.752.249 3.296.336 3.432.193.136-.143.21-1.143.162-2.222-.112-2.571-2.803-5.034-4.837-4.428-1.073.32-1.801-.014-3.378-1.546-1.818-1.767-2.16-1.89-3.579-1.278-1.79.771-2.768.22-2.525-1.422.125-.846.678-1.097 2.598-1.181 1.952-.085 2.357-.275 2.027-.951-.664-1.362-.77-3.647-.207-4.474.374-.55-.196-1.414-2.033-3.076l-2.554-2.31 1.523-.252c.838-.138 1.638-.595 1.778-1.014.24-.72-1.016-4.777-2.645-8.544-.403-.932-.68-1.89-.615-2.13.065-.241-.14-.426-.456-.412a.569.569 0 0 1-.599-.534c-.046-1.054-5.736-8.971-6.426-8.941-.379.016-1.162-.45-1.74-1.035-1.01-1.022-1.003-1.054.172-.801.674.145 1.375.485 1.559.755.445.654 2.57.539 2.54-.138-.013-.293.424-.67.97-.839.8-.247.76-.309-.212-.32-1.465-.017-3.182-1.648-3.245-3.081-.025-.577-.714-1.85-1.53-2.83l-1.486-1.781 1.377-.702c.757-.386 1.366-.965 1.352-1.288-.036-.823 1.888-.816 2.796.01.605.55.664.477.297-.372-.306-.71-.15-1.247.47-1.631.51-.315.911-.948.891-1.406-.036-.83 1.078-1.27 1.15-.453.117 1.327 2.798 3.165 5.438 3.728 3.731.796 4.955.083 3.449-2.011-.532-.739-.795-1.351-.584-1.36.21-.01-.293-.829-1.117-1.821-1.145-1.379-1.603-2.718-1.937-5.67-.336-2.963-.26-3.872.324-3.897.42-.018.933.218 1.142.525.652.96 2.876.505 3.574-.731.948-1.675 2.129-1.524 4.184.537 1.495 1.498 1.874 1.646 2.314.906.289-.488.368-2.417.176-4.288-.43-4.187.27-5.143 3.967-5.422 3.636-.274 5.025-.874 5.333-2.303.144-.67-.166-1.812-.69-2.54-.885-1.23-.876-1.328.118-1.389 1.453-.088 2.546-1.119 4.025-3.795 1.368-2.476 1.24-2.76-1.918-4.28-2.36-1.137-2.689-2.506-.64-2.66 2.974-.224 3.435-.42 3.39-1.44-.054-1.241-11.145-10.891-14.287-12.43-2.564-1.257-5.767-3.485-5.041-3.507 1.144-.036 5.965 1.432 9.263 2.82 1.934.814 4.033 1.464 4.665 1.444.862-.028 1.182.369 1.28 1.588.083 1.055.895 2.328 2.308 3.623 2.163 1.982 2.193 1.99 3.774.96 1.644-1.07 2.948-.663 3.018.943.055 1.264 1.861 2.448 3.152 2.065.68-.201 2.007-.46 2.948-.572 2.376-.285 2.705-2.24.36-2.137-1.152.05-2.319-.557-3.87-2.013-2.946-2.764-2.992-4.014-.154-4.15 1.844-.087 4.866-1.288 3.252-1.292-.317 0-.133-.285.408-.633.541-.347 1.259-.478 1.595-.29.336.188.911.07 1.279-.262.367-.332 1.954-.794 3.526-1.026 1.572-.232 2.922-.443 3-.468.078-.026.12-.564.092-1.196-.043-.98.332-1.165 2.575-1.263 1.483-.065 2.96-.479 3.393-.952.422-.461 2.359-1.094 4.303-1.406 4.122-.661 7.374-2.042 7.129-3.028-.095-.38.387-.802 1.07-.938.683-.135 1.535-.631 1.892-1.103.358-.471 1.136-.878 1.729-.904 1.044-.046 1.043-.079-.016-1.05-1.799-1.648-3.122-1.856-3.407-.535-.148.686-.522 1-.92.773-1.249-.717-6.134-.328-6.098.484.024.56-1.14.796-4.545.922-2.518.093-4.837.346-5.154.561-.699.475-.77-.24-.135-1.346.278-.485 1.427-.837 2.87-.88 2.03-.06 2.294-.196 1.686-.868-.397-.438-1.422-.765-2.279-.728-2.015.088-2.444-.353-1.75-1.799.375-.78.365-1.283-.031-1.505-.616-.344-.716-.606-.779-2.04-.048-1.1-2.124-1.455-4.616-.788-1.427.383-2.042.912-2.235 1.923-.205 1.079-.715 1.465-2.248 1.703-1.09.17-2.189.526-2.44.793-.252.267-1.35.254-2.44-.03-1.419-.368-2.589-.3-4.114.24-1.172.414-3.648.96-5.5 1.213-2.671.365-3.6.268-4.486-.466-1.091-.904-1.092-.952-.032-2.03.613-.623 1.937-1.14 3.048-1.188 1.08-.047 2.894-.523 4.031-1.057 1.137-.534 2.337-.82 2.667-.636.78.437 3.997-1.062 3.583-1.67-.7-1.03 5.331-2.863 9.109-2.767 2.27.058 6.26-1.579 6.218-2.55-.02-.47.979-.954 2.608-1.26 1.452-.273 3.16-.803 3.794-1.18.634-.375 1.622-.703 2.196-.729 1.003-.044 4.099-2.523 4.067-3.256-.009-.196-.911-.686-2.006-1.088-1.668-.613-3.359-2.724-2.7-3.37.104-.102 1.62.12 3.37.493 1.797.384 5.058.525 7.494.325l4.312-.354-.08-1.84c-.062-1.407-.424-1.975-1.544-2.42-.805-.318-2.128-.975-2.94-1.459-.813-.484-2.107-.941-2.877-1.017-.77-.075-1.95-.408-2.622-.74-1.189-.588-1.18-.62.333-1.243 1.885-.776 1.968-1.47.211-1.76-1.796-.297-7.096-.631-10.368-.654-1.872-.013-3.154-.395-4.118-1.225-.77-.663-1.736-1.191-2.144-1.173-1.08.047-6.47-2.223-6.493-2.734-.036-.83 2.317-.53 2.696.343.21.484.744.723 1.186.53.496-.215.662-.096.435.31-.224.4-.06.535.416.343.432-.175 1.525.016 2.43.424.903.408 2.076.592 2.606.408.53-.183 3.675-.505 6.988-.713 7.02-.442 7.77-.636 6.761-1.748-.388-.429-.547-.953-.352-1.166.195-.212 3-.572 6.232-.8 3.233-.227 6.064-.436 6.29-.465.226-.028.26-.4.075-.825-.596-1.37 1.536-1.706 3.297-.52 1.487 1.002 2.392 1.073 8.98.699 4.03-.229 8.984-.436 11.01-.46 2.505-.03 3.822-.29 4.113-.808.34-.61.579-.626 1.171-.082.41.375 1.145.656 1.634.624.582-.037.31-.45-.788-1.197-.922-.627-1.928-1.723-2.236-2.437-.424-.984-1.086-1.317-2.748-1.381-2.622-.102-2.774-1.011-.307-1.836 1.844-.618 6.39.118 6.43 1.04.01.258 1.239 1.618 2.729 3.023 2.586 2.438 4.025 3.06 4.62 1.995.354-.632 23.236-2.018 33.631-2.036 4.275-.01 14.658-1.504 15.643-2.255 2.286-1.74 16.765-.431 21.743 1.966.843.406 1.572 1.317 1.71 2.135.132.785.558 1.646.946 1.913 1.504 1.034 5.443 1.61 7.138 1.042 1.18-.395 2.149-.351 3.135.14.785.391 2.753.663 4.373.603 1.62-.059 3.9.243 5.067.672 1.167.429 3.741.856 5.721.95 1.98.094 4.39.47 5.356.838.965.368 2.931.972 4.37 1.343 2.206.57 2.67.941 2.983 2.385.322 1.493.636 1.72 2.484 1.794 1.163.046 2.44.443 2.839.883.398.44 1.071.784 1.495.765.424-.019 1.07.472 1.436 1.088.382.645 1.252 1.097 2.046 1.062.76-.033 1.575.224 1.81.57.47.692 8.583 4.155 9.626 4.11.356-.015 2.063.567 3.793 1.295 2.48 1.043 3.239 1.675 3.586 2.981.583 2.192 2.61 4.494 3.91 4.437.571-.025 1.194.457 1.384 1.072.19.614 1.256 1.503 2.37 1.976 1.113.473 2.498 1.587 3.077 2.477.58.889 1.83 1.977 2.78 2.416.95.44 1.742 1.151 1.76 1.58.02.43.7 1.176 1.511 1.66.907.538 1.5 1.418 1.538 2.277.034.77.472 1.716.975 2.102 2.604 2 5.113 4.642 5.008 5.273-.165.998 1.13 2.81 3.3 4.619 2.5 2.086 2.56 2.738.53 5.796-1.032 1.554-1.029 1.608.417 6.023.802 2.45 1.699 4.87 1.992 5.379.294.508.58 2.228.638 3.822.12 3.364.49 4.1 2.023 4.033 1.437-.063 1.452.618.036 1.59-1.243.854-1.375 3.192-.32 5.64.488 1.133.459 1.946-.117 3.237-.96 2.156-.495 3.297 1.477 3.628.841.141 2.757.573 4.258.96 1.5.387 2.96.693 3.246.68.68-.03 1.737-2.684 1.67-4.197-.043-1.003.093-1.083.856-.504 1.309.994 1.459.477.47-1.614-.89-1.882-2.437-2.343-3.6-1.073-1.398 1.525-1.973-.062-1.896-5.231.078-5.253.286-6.27 1.294-6.315.316-.014.426.24.245.565-.182.324.052.573.518.553.467-.02 1.352-.936 1.966-2.034.614-1.099 1.64-2.159 2.28-2.356.997-.308 1.095-.65.688-2.397-.637-2.733.72-2.813 3.018-.177 1.967 2.256 3.1 2.344 6.769.526 2.94-1.457 3.53-2.444 2.577-4.314-.435-.855-.5-2.216-.197-4.193.394-2.581.275-3.252-1.011-5.674-3.283-6.184-3.256-6.12-2.253-5.36.938.712 2.1.339 2.056-.66-.014-.31-1.249-1.729-2.744-3.155-2.529-2.412-2.63-2.612-1.44-2.85 1.208-.24 2.627.85 4.005 3.079.451.729.679.708 1.824-.172 1.83-1.405 3.338-1.364 3.402.093.069 1.582.907 2.916 3.084 4.91 1.051.964 1.832 2.259 1.868 3.101.076 1.747 1.012 2.391 2.074 1.428 1.23-1.114 4.277.046 4.382 1.67.014.232-.798.814-1.805 1.293-1.008.48-2.31 1.457-2.894 2.173-1.054 1.292-1.053 1.303.18 1.568.691.15 1.344.812 1.471 1.494.136.726.714 1.273 1.416 1.343.937.093 1.219.56 1.338 2.223.277 3.836 3.89 5.129 7.49 2.68 1.388-.943 2.162-1.127 3.24-.77.778.257 2.928.341 4.778.186 3.176-.266 3.473-.422 5.35-2.803 1.092-1.387 2.632-2.987 3.42-3.556 4.606-3.324 7.584-5.736 8.74-7.079 1.78-2.07 2.53-1.953 2.633.412.067 1.545-.227 2.167-1.317 2.782-5.55 3.133-12.2 10.518-12.074 13.409.034.761-.216 1.396-.554 1.41-.339.016-.976.42-1.416.901-.44.48-1.193.743-1.672.582-1.116-.373-3.838 2.548-3.372 3.62.204.469 1.503.884 3.13 1 1.53.11 4.603.38 6.827.6 9.059.898 12.866 1.236 15.884 1.41 4.463.256 5.869.53 5.56 1.081-.147.263-1.772.35-3.611.194-5.793-.493-14.225-.372-15.61.224-1.1.473-1.203.717-.589 1.394.892.984 2.429 1.002 3.312.037.489-.533.704-.508.905.105 1.239 3.787 1.52 4.21 2.887 4.334.788.072 1.657.327 1.93.568.275.24 1.946-.022 3.715-.584 3.612-1.147 5.603-1.255 6.772-.368.437.331 2.371.511 4.3.4 2.154-.124 4.194.116 5.29.623 1.409.653 2.726.702 6.26.233 2.462-.327 5.812-.47 7.443-.317 2.534.236 2.932.437 2.73 1.377-.2.928.083 1.086 1.817 1.01 1.13-.049 2.549.32 3.153.821.958.794 1.442.806 3.789.088 5.8-1.772 7.756-2.04 9.574-1.304 1.554.628 7.837 1.934 11.031 2.292.636.071 2.175-.278 3.419-.777 2.759-1.106 7.305-1.59 25.485-2.706 7.733-.475 14.701-.984 15.486-1.13.785-.147 2.119.033 2.965.398.846.365 1.704.483 1.907.262.203-.221 2.488-.526 5.078-.676 10.963-.637 10.826-.611 10.568-1.978-.207-1.099.064-1.275 2.343-1.523 2.738-.297 5.198.458 5.249 1.612.033.755 2.263 1.44 3.017.928.863-.588.422-1.315-.883-1.455-1.27-.137-1.273-.156-.18-.819.617-.373 5.12-1.036 10.005-1.473 4.886-.437 9.527-.893 10.313-1.012a69.46 69.46 0 0 1 3.25-.386c1.002-.093 2.183-.564 2.625-1.046.663-.725 1.44-.8 4.48-.432 3.37.406 17.644-.45 22.014-1.322 3.69-.735 13.715-1.594 13.33-1.142-.225.263-1.574.485-3 .494-1.424.01-2.579.275-2.565.594.014.318-.844.616-1.906.663-1.063.046-3.312.422-4.998.836-1.687.413-3.836.925-4.776 1.136-.94.211-2.094.481-2.563.6-.47.119-1.708.273-2.752.343-1.054.07-1.737.365-1.534.662.416.612 8.167-.1 11.19-1.028 1.626-.5 12.72-2.131 16.007-2.354 11.73-.798 23.129-1.9 24.8-2.397 1.182-.352 5.431-.877 9.442-1.166 4.012-.289 8.579-.742 10.15-1.007l5.282-.894c1.628-.276 2.415-.692 2.39-1.263-.021-.493.39-.8.976-.727.683.084.996-.248.962-1.023-.035-.802-.37-1.08-1.108-.92-.635.138-.977-.056-.854-.483.354-1.241 5.022-2.444 12.005-3.093 7.965-.74 7.92-.731 11.423-2.43 1.497-.727 3.928-1.383 5.402-1.459 1.474-.075 4.104-.544 5.846-1.042 2.942-.84 8.019-.843 8.935 0 .191.176-.895.555-2.414.842-1.52.287-3.613.913-4.65 1.39-1.039.478-2.833.89-3.988.917-1.155.026-3.38.396-4.944.82-1.563.426-5.024 1.1-7.69 1.5-2.665.399-4.906.939-4.98 1.2-.074.26-1.624.467-3.445.458-4.16-.02-5.246.633-4.145 2.492.633 1.067 1.227 1.298 3.024 1.174 1.23-.085 2.41-.344 2.623-.576.213-.233 1.249-.46 2.302-.506 1.052-.046 1.903-.329 1.89-.628-.015-.342.573-.366 1.58-.064.881.264 2.374.365 3.318.224 2.459-.368 6.532-1.936 6.507-2.505-.012-.266.56-.505 1.271-.531 1.072-.04 1.15.064.458.602-.6.466 1.153.476 6.24.032 4.108-.358 7.403-.914 7.857-1.325.429-.389 3.164-.941 6.077-1.227 3.48-.342 6.058-.923 7.512-1.694 1.335-.708 3.482-1.23 5.408-1.316 1.84-.083 3.908-.568 4.877-1.146.925-.551 3.236-1.116 5.136-1.256 1.9-.14 3.727-.44 4.062-.667.643-.437 1.35-.583 11.329-2.34 3.455-.607 8.252-1.464 10.661-1.903 2.41-.44 9.32-2.289 15.356-4.11 6.036-1.821 11.744-3.487 12.684-3.702.94-.214 3.248-.733 5.128-1.153 1.88-.42 4.06-.91 4.843-1.09.783-.18 3.278-.655 5.543-1.055 3.778-.668 10.958-2.937 22.545-7.127 2.473-.894 6.29-2.575 8.484-3.736 6.603-3.493 7.053-3.634 7.114-2.235.048 1.092.277 1.156 2.556.712 1.377-.268 4.454-1.338 6.837-2.377 2.384-1.04 4.666-1.904 5.07-1.922.406-.018 1.311-.575 2.012-1.238.7-.664 1.816-1.232 2.478-1.263 1.637-.076 3.696-1.651 6.58-5.033 1.724-2.02 2.862-2.855 3.958-2.902 1.728-.075 1.81.077.983 1.8-.938 1.953-1.054 4.417-.205 4.344 2.307-.196 2.762.076 2.833 1.7.06 1.406.258 1.611 1.251 1.305.649-.2 1.435-.817 1.748-1.37.445-.786 1.032-.94 2.704-.709 2.427.335 4.085-.216 5.757-1.916.635-.646 1.467-1.07 1.849-.943.381.128 1.789-.839 3.128-2.148 1.88-1.839 2.665-2.27 3.448-1.893 1.82.874 4.089-.805 9.075-6.717.58-.687 1.266-1.258 1.527-1.27.699-.03.67 2.141-.034 2.62-1.23.836-4.337 6.886-3.97 7.73.336.772.524.76 1.746-.12 2.022-1.455 3.121-1.314 3.196.412.036.81-.195 2.013-.512 2.673-.838 1.745.26 2.595 2.124 1.646.782-.399 1.43-.52 1.442-.27.032.735 7.073-.29 8.274-1.204.604-.46 1.562-.856 2.127-.88 1.178-.052 2.996-1.092 4.732-2.707.74-.687 1.636-.995 2.344-.803 1.438.388 4.103-.921 4.056-1.993-.02-.442.256-.64.611-.442.356.2.569 1.123.473 2.053-.095.93.055 1.818.333 1.974.875.49 3.93-.577 3.493-1.22-.243-.357-.13-.444.28-.215.394.221 1.393-.386 2.346-1.426 1.522-1.66 3.868-2.137 3.015-.612-.206.368-.02.492.448.3.44-.182 2.179-.884 3.865-1.562 2.493-1.002 3.322-1.7 4.436-3.737 1.266-2.316 2.779-3.369 2.84-1.977.014.325 2.002-.538 4.419-1.919 5.004-2.859 5.48-2.977 5.943-1.475.33 1.07-.39 2.367-1.34 2.408-.806.035-8.42 5.88-9.843 7.556-.73.859-1.554 1.572-1.832 1.584-.278.012-1.298.832-2.266 1.822-.968.99-2.061 1.815-2.43 1.832-.368.018-.747.241-.841.496-.094.256-1.567 1.124-3.272 1.929-3.12 1.473-6.152 4.046-6.104 5.18.014.335-1.105 1.395-2.487 2.355-1.381.96-2.502 1.979-2.49 2.266.013.287-.412.54-.944.564-.533.023-1.48.56-2.106 1.194-.626.633-2.655 1.498-4.509 1.92-1.854.424-3.766 1.124-4.247 1.556-1.521 1.366-8.03 4.659-12.15 6.146-4.66 1.683-5.363 2.198-5.01 3.676.144.606.019 1.113-.28 1.126-.297.013-.522.441-.5.952.046 1.044.41.96 5.127-1.177 3.892-1.763 6.8-2.375 6.841-1.438.038.872 4.164.069 6.518-1.27 1.527-.868 10.7-4.647 11.348-4.675.16-.01-.643.888-1.782 1.99-1.864 1.8-4.71 3.769-9.246 6.393-1.274.738-1.525 1.238-1.323 2.639.178 1.241-.064 1.925-.859 2.426-2.114 1.331-2.531 2.362-2.046 5.053.255 1.413.592 2.758.749 2.99.444.656 2.464-.769 2.423-1.71-.02-.463.157-.85.394-.86.237-.012 1.153-.699 2.037-1.528 1.477-1.387 2.225-1.765 2.795-1.416.12.074 1.136-1.07 2.258-2.543s2.274-2.841 2.559-3.04c.285-.198.923-1.17 1.42-2.16 1.287-2.572 3.821-6.662 4.938-7.97.556-.652.85-1.77.703-2.68-.223-1.385.031-1.676 2.267-2.592 1.913-.783 2.525-.858 2.549-.311.017.396-.342 1.058-.799 1.472-.456.414-.811 1.18-.789 1.703.023.523-.335 1.543-.796 2.266-.462.723-.67 1.308-.465 1.299.206-.01-.247 1.16-1.008 2.597-.9 1.703-1.161 2.737-.75 2.967.348.195.936-.102 1.307-.659.967-1.45 2.87-1 3.117.737.15 1.06-.251 1.74-1.57 2.653-1.565 1.085-3.124 4.11-2.441 4.735.139.127 1.051-.037 2.028-.363 2.557-.855 3.805.91 3.122 4.414-.101.518.326.91 1.08.993 1.276.14 4.113-2.566 4.056-3.869-.034-.772 1.535-1.572 2.273-1.159.28.156.02 1.851-.577 3.767-.68 2.18-.872 3.669-.517 3.978.312.271 2.124.544 4.025.605 2.858.092 3.746-.111 5.127-1.174 1.522-1.171 3-1.519 7.956-1.87 1.003-.071 2.023.279 2.482.853.429.535.767.683.752.328-.03-.697.887-1.114 3.856-1.751 1.518-.326 1.966-.202 2.218.615.558 1.81 4.139 2.324 7.828 1.125 3.19-1.037 5.445-.946 4.807.193-.182.327-.934.62-1.67.653-.922.04-1.3.37-1.214 1.06.096.773-.398 1.065-2.166 1.283-1.259.155-2.524.534-2.811.842-.287.308-1.087.584-1.777.614-.694.03-1.635.695-2.106 1.487-.469.787-1.325 1.605-1.904 1.817-.68.249-.982.838-.854 1.663l.265 1.707c.19 1.224 6.934-.43 6.88-1.687-.013-.265.32-.497.736-.515 1.253-.055 5.301-4.193 6.212-6.35.467-1.107 1.208-2.03 1.646-2.048.438-.02.79-.229.78-.466-.023-.671 3.373-2.636 3.975-2.3.783.438.706 1.163-.396 3.723l-.984 2.286 1.718.3c.945.164 3.77.026 6.28-.306 3.632-.482 5.327-1.053 8.318-2.803 2.066-1.21 3.878-2.387 4.026-2.616.355-.55 2.791-1.967 2.806-1.631.039.903-.72 2.112-1.345 2.14-.407.017-.87.426-1.032.907-.161.482-.818.9-1.46.927-.654.028-1.15.43-1.129.912a.855.855 0 0 1-.803.899c-.463.02-1.691.85-2.729 1.845-1.038.994-2.181 1.82-2.54 1.837-.36.016-1.591.678-2.737 1.473-1.146.795-2.655 1.655-3.354 1.91-.699.256-1.582.793-1.962 1.194-.38.401-2.15 1.543-3.934 2.537-2.06 1.147-2.983 1.953-2.529 2.207.393.22 1.615-.106 2.715-.725 3.13-1.759 5.69-2.288 5.738-1.186.022.5-.201.918-.496.93-.294.014-.662.494-.817 1.068-.264.979-1.54 1.73-10.204 6.008-3.245 1.602-3.983 2.42-4.878 5.413-.863 2.883-1.124 4.33-.77 4.266 1.943-.354-.134 2.028-3.532 4.054-1.788 1.066-4.036 5.143-4.747 8.61-.174.848-.925 1.98-1.669 2.515-1.101.792-1.294 1.348-1.04 2.995.259 1.673.098 2.115-.942 2.563-2.198.947-7.422 7.103-8.796 10.364-1.36 3.23-3.293 4.971-4.915 4.429-1.234-.413-1.218-1.958.045-4.247.61-1.107.807-2.027.475-2.214-.708-.395-5.275.363-8.118 1.348-2.366.82-2.827 2.308-.686 2.215.755-.033 1.995.401 2.756.965 1.183.875 1.28 1.163.66 1.978-.398.525-.92.845-1.16.71-.835-.467-6.705 1.847-8.006 3.157-.721.726-2.444 1.83-3.827 2.453-1.384.623-2.843 1.645-3.242 2.271-.4.627-1.084 1.155-1.521 1.174-.437.019-.967.341-1.176.716-.256.458-.124.516.405.177.433-.277.22.177-.473 1.009-.935 1.122-1.06 1.58-.486 1.771.426.143.861.94.967 1.773.142 1.124-.169 1.696-1.21 2.227-.772.393-1.394.918-1.383 1.167.01.248-.6 1.204-1.357 2.124-.757.92-1.816 2.209-2.352 2.865-.537.657-1.629 2.148-2.426 3.314l-1.449 2.12 1.603 1.179 1.604 1.179 3.587-4.01c1.973-2.204 3.83-4.55 4.127-5.211.297-.662 1.228-1.57 2.07-2.02.84-.45 1.52-1.02 1.51-1.268-.027-.608 2.579-1.9 3.95-1.96.745-.033 1.009.237.811.828-.161.482-.028.864.296.85 1.213-.053 2.374-.828 2.342-1.563-.019-.42.476-.948 1.1-1.176.622-.228 1.116-.785 1.096-1.238-.02-.452.205-.833.5-.846.762-.033 2.787-3.307 3.008-4.866.103-.723.869-1.915 1.702-2.65.832-.734 1.356-1.48 1.163-1.656-.518-.475 2.348-3.844 3.307-3.886.666-.029.65.171-.084 1.057-.498.601-.71 1.272-.473 1.49.238.218.011.256-.5.085-.664-.223-1.02.122-1.242 1.2-.17.833-.172 1.716-.005 1.965.17.248-.792 1.704-2.136 3.235-1.344 1.53-2.805 3.639-3.246 4.684-1.159 2.749-1.832 3.883-4.413 7.433-1.269 1.745-2.291 3.524-2.273 3.954.019.43-.28 1.002-.664 1.272-.385.27-1.01 1.167-1.39 1.993-.38.826-1.558 2.018-2.617 2.65-1.059.631-1.909 1.526-1.888 1.989.03.69-.127.717-.875.15-1.104-.838-4.884.282-6.455 1.911-1.356 1.407-2.84 2.443-4.657 3.253-1.24.552-1.429.882-.96 1.673.412.694.3 1.577-.378 2.984-.529 1.099-1.103 1.875-1.277 1.724-.541-.471-2.639 1.969-2.593 3.017.024.548-.531 1.184-1.233 1.413-.702.229-2.008 1.453-2.902 2.72-2.284 3.237-5.967 5.657-4.748 3.12.313-.653.398-1.44.189-1.749-.21-.308-.167-.518.096-.467.85.167 3.546-1.543 3.21-2.036-.178-.263.08-.495.572-.516.492-.021.879-.418.858-.881-.068-1.556 1.613-4.748 2.817-5.35.657-.33 1.644-1.46 2.193-2.512l.999-1.913-1.69.074c-2.12.093-5.26 1.314-5.228 2.035.012.299-.303.484-.702.41-.758-.14-5.62 1.522-6.094 2.082-.859 1.017-9.557 4.61-11.869 4.904-1.76.223-3.411 1.066-3.07 1.567.193.285.078.53-.256.545-1.159.05-1.466.177-1.773.726-.184.329-.866.373-1.687.11-.844-.272-1.992-.18-2.965.237-1.772.759-1.986 1.309-.678 1.747.482.16.892.66.911 1.11.02.45.43.95.912 1.111.482.162.888.574.903.918.041.948-5.365 3.491-10.148 4.773-2.346.63-5.488 1.816-6.98 2.638-1.494.823-3.18 1.516-3.747 1.54-.567.025-1.34.452-1.718.95-.491.648-1.607.909-3.925.919-3.448.014-4.635.464-4.58 1.736.052 1.19-2.593 2.94-6.786 4.49-4.251 1.573-9.032 4.538-8.696 5.393.124.313 1.231.467 2.462.341 1.23-.125 1.855-.07 1.39.123-3.365 1.389-5.167 2.538-5.891 3.757-.462.777-1.154 1.376-1.537 1.332-.384-.045-1.412.25-2.285.655-.873.406-1.822.747-2.109.76-1.558.068-5.689 2.963-6.241 4.374-.344.878-.834 1.479-1.09 1.336-.255-.143-.453.01-.438.33.014.325-.336.47-.779.322-.496-.167-.909.243-1.08 1.072-.151.737-.857 1.625-1.567 1.972-.727.356-1.269 1.133-1.24 1.78.067 1.56-2.118 2.581-5.085 2.377-2.742-.189-3.7.678-2.235 2.021 1.252 1.147.681 2.024-1.082 1.662-1.017-.208-1.406-.054-1.38.55.062 1.4-2.605 4.088-4.004 4.037-2.096-.077-2.523.088-2.584 1a572.29 572.29 0 0 1-.117 1.705c-.033.462-.28.717-.551.566-.27-.152-.474.128-.453.62a.899.899 0 0 1-.856.934c-.492.022-.75.253-.572.514.177.26-.3.843-1.06 1.294-.761.45-1.375 1.018-1.365 1.26.011.244-.873.337-1.963.208-1.432-.168-2.42.103-3.553.978-1.903 1.466-8.105 3.101-8.147 2.147-.012-.272-.926-.455-2.031-.407-1.628.07-2 .306-1.96 1.236.027.632-.209 1.16-.525 1.174-.315.014-.551.541-.524 1.173.028.632.281 1.139.563 1.126.282-.012.696.399.92.913.522 1.203-1.6 3.72-3.199 3.791-.684.031-1.649.808-2.265 1.824-.59.973-1.504 1.789-2.03 1.812-.527.023-1.036.241-1.13.483-.095.241-1.06.885-2.144 1.431a388.272 388.272 0 0 0-5.625 2.932c-2.01 1.067-4.885 2.14-6.387 2.385-2.813.457-8.512 3.054-9.13 4.16-.192.343-.859.645-1.482.672-.623.027-1.263.441-1.423.92-.16.478-1.294 1.186-2.52 1.575-1.226.388-2.092.906-1.925 1.152.493.726 9.52-.248 13.21-1.425 6.552-2.09 12.254-4.308 14.03-5.459.985-.638 3.858-1.51 6.385-1.937 2.526-.427 5.288-1.076 6.137-1.442.849-.366 2.113-.805 2.81-.976 2.178-.534 9.008-3.436 9.37-3.98.784-1.179 5.185-3.321 6.982-3.4 1.062-.045 2.415-.485 3.008-.975s1.498-.919 2.012-.951c.514-.032 1.218-.433 1.565-.89.347-.458 1.923-1.318 3.503-1.912 1.58-.594 4.417-2.105 6.305-3.356 3.95-2.62 13.896-8.216 15.041-8.463 2.275-.491 5.466-2.043 6.68-3.247.758-.753 2.895-2.216 4.749-3.252 1.853-1.036 5.503-3.423 8.11-5.305 2.608-1.882 5.033-3.434 5.39-3.45.356-.016.98-.465 1.385-1 .405-.534 2.285-1.795 4.177-2.803 1.893-1.007 4.532-2.926 5.866-4.264 2.443-2.451 14.438-11.472 15.304-11.51.256-.011 1.362-1.07 2.458-2.353 1.23-1.441 3.056-2.744 4.776-3.41 1.53-.591 3.526-1.844 4.434-2.783.909-.939 2.165-1.822 2.791-1.963.627-.14 1.127-.554 1.111-.918-.063-1.448.906-1.532 2.257-.197l1.424 1.407-1.92 1.752a99.837 99.837 0 0 0-3.8 3.703c-1.034 1.074-2.037 1.959-2.229 1.967-.743.032-2.39 2.754-2.358 3.898.04 1.49-1.595 3.18-3.142 3.247-.637.028-1.583.563-2.102 1.19-.52.626-1.687 1.485-2.596 1.909-.908.423-1.635 1.112-1.617 1.532.042.969-3.185 4.303-4.68 4.836-.623.222-1.568.82-2.1 1.33-.531.51-.975.726-.985.482-.011-.245-.877.27-1.926 1.145-1.048.875-2.063 1.597-2.256 1.605-.193.01-1.896 1.119-3.785 2.467-1.89 1.348-3.732 2.464-4.094 2.48-1.003.044-4.205 1.93-4.182 2.464.012.258-.682.678-1.541.933-.86.256-4.35 1.99-7.759 3.853-3.408 1.864-6.654 3.41-7.213 3.434-.56.024-1.56.679-2.223 1.455-.663.776-2.215 2.012-3.449 2.746-3.447 2.05-4.348 2.745-5.45 4.2-.56.74-1.221 1.23-1.471 1.09-.25-.14-1.291.422-2.313 1.247-1.022.825-2.172 1.514-2.556 1.53-.383.018-2.03 1.197-3.657 2.622-1.629 1.425-3.593 2.946-4.365 3.38-.772.435-2.538 1.506-3.924 2.38-4.355 2.748-8.807 5.182-9.536 5.213-.386.017-1.42.591-2.298 1.276-.879.686-2.946 1.707-4.593 2.27-1.648.564-3.37 1.37-3.826 1.791-1.508 1.394-8.688 3.667-13.045 4.13-2.676.284-4.63.794-5.2 1.357-.502.495-1.52 1.008-2.26 1.139-.74.13-1.729.387-2.195.57-4.486 1.76-13.395 3.893-16.903 4.046-1.322.058-3.018.37-3.768.693-.75.323-4.15.883-7.555 1.245-3.404.36-6.591.89-7.082 1.175-2.509 1.457-6.014 2.555-8.508 2.664-1.535.067-3.719.558-4.854 1.091-2.338 1.1-8.996 2.918-12.84 3.507l-2.573.395 2.035-1.245c1.176-.72 2.614-1.145 3.408-1.01 1.352.231 1.355.221.184-.655-1.295-.969-4.313-.654-8.1.845-1.772.701-1.897.88-1.058 1.516 1.536 1.166 1.164 1.605-2 2.362-7.152 1.71-8.84 1.791-11.08.538-2.125-1.189-3.097-1.18-8.599.072-.94.214-2.308.5-3.04.636-.732.137-1.492.526-1.688.866-.197.34-1.384.831-2.638 1.092-2.588.539-2.633.542-8.903.676-2.537.054-4.752.25-4.923.438-.171.187-1.272.05-2.445-.304-2.793-.842-6.35-.169-5.524 1.046 1.272 1.872 9.027 3.015 8.244 1.216-.187-.432.139-.786.795-.865.612-.073 1.272.234 1.467.682.194.448.754.797 1.242.775.76-.033.749.131-.077 1.127-.949 1.146-.897 1.162 3.081.976 2.226-.104 4.576.065 5.222.375.646.31 3.102.48 5.458.378 3.384-.148 4.348-.382 4.593-1.115.27-.803 1.253-.925 7.358-.907 12.913.038 14.867.262 16.39 1.875l1.36 1.44-4.095.781c-2.252.43-4.842.617-5.757.417-2.266-.497-19.732.84-21.994 1.682-1.936.722-3.874.978-17.896 2.368-4.884.483-10.19 1.332-11.791 1.885-1.75.604-3.233.82-3.716.543-1.306-.75-4.916-.373-5.645.589-.435.573-1.18.783-2.103.594-1.442-.296-4.166.898-4.126 1.808.027.632 2.466 1.438 4.952 1.637 2.252.18 7.88 2.351 7.91 3.052.012.262-2.245.46-5.015.44-19.793-.147-25.45.212-25.39 1.61.048 1.102-4.97 1.473-11.183.827-2.861-.298-6.107-.513-7.213-.48-1.106.035-6.537.024-12.068-.025-10.237-.09-16.375.487-15.703 1.475.216.318-.435.534-1.566.52-3.812-.046-4.504.145-4.077 1.128.247.569.142.85-.274.73-.371-.105-.709-.45-.75-.764-.075-.58-5.112-1.737-7.215-1.657-1.082.041-1.088.086-.1.77.66.457.923 1.102.71 1.737-.276.827-.77.96-2.71.733-4.696-.551-8.607-.455-9.768.24-.65.388-2.342.831-3.76.983-3.274.352-8.87 1.1-8.866 1.186 0 .036-.638.21-1.421.389-.784.178-1.5.578-1.592.89-.092.311-1.373.622-2.846.691-2.951.139-4.244.754-3.929 1.87.113.4-.147.875-.58 1.054-.462.191-.638.064-.428-.312.42-.75-1.801-1.964-2.6-1.421-.5.34-.887-1.234-.736-2.996.075-.876-.057-.873-4.307.077-3.775.843-8.193 2.567-8.166 3.186.04.915-3.138 1.893-7.83 2.409-2.742.302-6.004.963-7.248 1.47-1.244.507-2.775 1.02-3.402 1.143-.628.122-2.027.694-3.11 1.27-1.448.772-4.841 1.333-12.852 2.124-5.987.592-11.907 1.393-13.156 1.781-1.249.389-3.935 1.135-5.97 1.659-5.88 1.515-6.821 1.83-7.13 2.38-.16.287-1.257.562-2.439.614-1.181.052-2.418.389-2.749.75-.35.381-2.07.637-4.117.61-1.934-.024-3.507.148-3.496.386.02.444-2.465.722-2.91.326zm96.908-21.839c.743-.536.738-.661-.05-1.13-.978-.584-3.666-.62-4.182-.059-.18.198-.173.715.016 1.15.395.909 2.976.933 4.216.04zm104.306-9.393c1.735-.131 3.616-.04 4.18.2.644.276 1.016.211 1-.173-.015-.337-.476-.763-1.025-.947-.549-.183-1.55-.898-2.227-1.588-1.008-1.029-2.213-1.323-6.712-1.64-3.015-.214-6.708-.538-8.205-.722-1.498-.183-2.58-.124-2.406.133.175.257-.731.512-2.013.568-1.283.056-2.321.342-2.308.635.051 1.187 1.894 2.125 4.048 2.061 1.256-.038 3.103.312 4.105.776 1.002.464 2.077.67 2.39.458.31-.212.889-.146 1.283.146.995.738 2.874 1.058 3.888.663.466-.182 2.268-.438 4.002-.57zm35.564-15.685c.65-.461.477-.58-.776-.532-.931.035-1.453.297-1.234.62.472.694.938.673 2.01-.088zm-95.888 2.063c-.422-.148-.916-.106-1.099.093-.182.2.163.32.767.269.668-.057.798-.199.332-.362zm14.221-2.345c.666-.728-.403-.861-4.663-.584-2.264.147-4.098-.175-6.553-1.15-2.306-.917-3.624-1.165-4.073-.767-.365.323-1.164.703-1.775.844-.99.229-.932.363.537 1.236 1.12.667 3.146 1.004 6.337 1.055 2.58.041 4.792.169 4.917.283.445.408 4.743-.34 5.273-.917zm-24.345-1.205c-.763-.38-2.034-.665-2.824-.632-1.352.06-1.372.105-.34.818.602.416 1.873.7 2.824.632l1.73-.125-1.39-.693zm144.677-9.05c-.037-.855-1.621-1.4-2.774-.955-.39.15-.698.492-.686.759.018.418.594.593 3.06.931.24.033.42-.298.4-.735zm-243.488-2.515c-.013-.287.242-.373.567-.191.324.181.578.068.564-.253-.026-.595-1.38-.829-6.957-1.199-2.953-.196-3.105-.147-2.19.702 1.557 1.446 8.071 2.21 8.016.94zm-115.168 4.022c-.226-.333-.672-.428-.99-.21-.376.254-.305.548.202.831.947.53 1.353.21.788-.621zm105.622-5.21c-.209-.308-.638-.548-.954-.534-.316.014-.403.276-.194.583.209.308.638.548.954.534.316-.014.403-.276.194-.584zM191.493 563.17c.167-.3 1.069-.747 2.004-.996.935-.248 1.688-.72 1.674-1.047-.016-.363-.637-.414-1.588-.132-.86.255-2.396.64-3.415.854-2.177.459-2.486 2.019-.382 1.927.771-.034 1.54-.306 1.707-.606zm-33.61.497c-.005-.124-.398-.209-.871-.188-.474.021-.85.288-.838.594.014.306.406.39.872.188.466-.202.842-.47.837-.594zm23.208-1.55c.992-.82 1.003-.973.134-1.77-.757-.694-1.194-.728-2.139-.168-1.173.695-1.498 1.85-.722 2.56.62.57 1.542.359 2.727-.622zm39.653-2.856c1.001-.835 2.143-1.532 2.538-1.549 1.386-.06 5.57-2.655 5.188-3.217-.245-.36-.542-.288-.812.195-.327.585-.621.615-1.262.128-1.574-1.194-12.707 3.41-13.286 5.495-.145.52.657.69 2.806.597 2.324-.101 3.422-.476 4.828-1.649zm-35.316.284c-.421-.148-.916-.106-1.098.093-.183.2.162.32.767.269.667-.057.798-.199.331-.362zm221.392-10.538c-1.06-1.453-4.232-2.31-10.533-2.843-2.801-.237-7.561-.959-10.577-1.604-6.256-1.337-6.052-1.315-6.023-.64.025.553 6.106 2.869 7.387 2.813.434-.019.798.15.808.377.04.907 3.333 1.435 9.149 1.467 2.7.015 4.51.313 5.081.835.488.447 1.93.79 3.204.762 2.195-.047 2.275-.11 1.504-1.167zm-38.375.991c-.808-.384-2.6-.792-3.985-.907-2.222-.186-2.383-.126-1.382.512.986.629 2.765.945 5.972 1.061.475.017.203-.282-.605-.666zm10.583-1.411c-2.64-1.111-7.29-1.291-5.207-.201 1.423.744 4.195 1.305 6.115 1.238 1.22-.043 1.084-.199-.908-1.037zm-145.102 4.058c-.014-.316-.527-.552-1.14-.526-.613.027-1.263.314-1.445.639-.187.334.307.562 1.14.525.808-.035 1.458-.322 1.445-.638zm-16.794-2.466c-.006-.14-.414-.236-.906-.214-.492.02-.721.294-.51.607.352.516 1.443.213 1.416-.393zm154.68-8.076c-.875-.734-3.761-1.152-3.735-.54.025.57 1.292.969 3.18.998.67.01.894-.174.555-.458zm-136.29 1.907c.161-.287 1.23-.741 2.375-1.008 1.144-.267 2.41-.844 2.812-1.283 1.3-1.419-.838-1.52-3.25-.155-1.205.683-2.54 1.256-2.965 1.275-.426.019-1.26.435-1.853.926-1.02.844-.98.888.756.83 1.008-.034 1.965-.297 2.125-.585zm-63.297-1.096c2.235-.876 2.213-.881-1.743-.39-4.706.586-5.431.801-5.396 1.605.031.722 3.86.07 7.139-1.215zm-7.827-1.367c-.006-.14-.27-.242-.585-.228-.316.014-.563.298-.548.633.014.334.278.437.585.228.307-.209.554-.494.548-.633zm13.088-.036c.702-.222 1.267-.631 1.255-.91-.037-.844-2.705-.452-3.43.504-.765 1.008-.119 1.129 2.175.406zm-10.813-.573c-.02-.456.656-1.2 1.503-1.652.847-.452 1.606-1.276 1.688-1.831.124-.837-.285-.99-2.397-.898-1.4.06-3.714.323-5.141.583-2.145.39-2.63.71-2.797 1.848-.168 1.15.046 1.38 1.302 1.398 2.703.04 2.892.079 3.643.767 1.007.923 2.243.802 2.199-.215zm-14.396-.267c-.014-.315-.542-.551-1.174-.524-.631.028-1.137.309-1.123.625.014.315.542.551 1.174.524.631-.028 1.137-.309 1.123-.625zm6.32-.214c-.032-.726-1.616-1.167-2.621-.73-1.435.623-.895 1.398.92 1.318.948-.04 1.713-.306 1.7-.588zm32.559-2.437c1.34-.25 2.58-.708 2.755-1.02.456-.816-7.11.418-9.202 1.5-1.673.867-1.65.875 1.15.43 1.572-.25 3.955-.66 5.297-.91zm-16.346-1.783c-.209-.308-.752-.543-1.207-.523-.455.02-.816.294-.802.61.013.316.557.551 1.207.523.65-.028 1.011-.303.802-.61zm3.158-1.178c-.366-.105-1.095 0-1.62.224-.804.35-.82.489-.105.89.527.294 1.14.209 1.62-.225.531-.482.564-.758.105-.89zm18.597-2.024c-.191-.28-.028-.633.363-.783.391-.15.042-.371-.776-.491-.818-.12-1.979-.01-2.579.244-1.01.429-.982.503.371.999 1.853.678 3.071.693 2.621.032zm8.788-2.287c-.014-.312-.427-.394-.918-.18-.491.213-1.146.399-1.454.412-.309.014-.407.253-.217.531.436.642 2.622 0 2.59-.763zm-41.357-3.301c3.475-.536 5.821-1.245 7.458-2.255 1.314-.81 2.976-1.586 3.694-1.723 1.778-.34 2.017-1.609.358-1.897-4.008-.697-5.156-.604-4.792.39.523 1.43-2.441 2.43-7.876 2.658-4.353.182-11.162 2.26-11.113 3.392.056 1.277.422 1.26 12.271-.565zm18.34-3.334c-.013-.315-.997-.612-2.185-.658-1.683-.066-2.153.122-2.121.846.031.725.516.87 2.186.659 1.18-.15 2.135-.53 2.12-.847zm2.31-3.121c.143-.501-.503-.697-2.07-.629-1.795.078-2.352-.141-2.628-1.036-.256-.827-.834-1.114-2.127-1.058-1.805.079-2.037.428-1.343 2.025.255.586 1.109.865 2.48.81 1.152-.045 2.492.156 2.98.446 1.116.664 2.437.392 2.708-.558zm652.764-29.619c.449-.573.74-1.243.648-1.488-.284-.752 1.41-1.604 3.38-1.7 1.152-.054 2.23-.547 2.804-1.281.514-.655 1.272-1.206 1.685-1.224.414-.018.89-.447 1.06-.954.17-.506.93-1.188 1.689-1.515.76-.328 1.258-.912 1.11-1.3-.37-.954-3.434-.425-4.253.735-.409.579-1.202.842-2.13.706-.934-.137-1.909.19-2.646.889-.643.608-1.711 1.301-2.375 1.54-1.445.522-4.434 3.79-4.556 4.982-.204 1.986 2.187 2.393 3.584.61zM162.444 519c.542-.724.418-.792-.774-.421-.78.243-1.742.46-2.137.48-.394.023-.706.295-.692.608.037.848 2.86.326 3.603-.667zm-39.948-13.077c-.734-.81-3.42-.927-3.386-.148.037.855.705 1.137 2.4 1.015 1.327-.096 1.526-.271.986-.867zm-25.08-9.462c-1.164-.682-2.494-.624-2.01.088.208.307.945.53 1.637.495 1.023-.052 1.092-.161.372-.583zm-9.847-1.36c-2.125-.492-2.89-.452-2.864.15.026.598 2.888.975 3.755.495.306-.17-.095-.46-.89-.644zm12.977-1.254c.71-.775-.592-1.153-3.122-.907-.838.08-1.155.392-.929.912.347.798 3.318.794 4.05-.01zm4.522-.022c-.21-.307-1.203-.492-2.21-.411l-1.83.148 1.743.363c2.525.527 2.717.518 2.297-.1zm26.353-9.205a.577.577 0 0 0-.6-.549.577.577 0 0 0-.549.6.577.577 0 0 0 .6.549.577.577 0 0 0 .549-.6zm-34.931-9.387c.665-.074.599-.274-.293-.89-1.272-.877-5.926-.869-7.195.014-.625.435-.42.632.9.866.94.166 1.971.365 2.291.44.32.076 1.224.031 2.01-.098.785-.13 1.814-.279 2.287-.331zm7.464-.347c.46-.326.707-.614.548-.638-.16-.024-1.523-.115-3.03-.202-2.22-.128-2.732.013-2.7.741.045 1.036 3.763 1.107 5.182.1zm782.17-54.21c-.195-.285-.099-.693.214-.906.852-.579.639-1.472-.341-1.429-.536.023-.838.58-.799 1.473.035.79.337 1.424.671 1.41.334-.016.449-.261.254-.547zm62.427-4.2c.361-1.08-.12-1.059-1.93.084l-1.4.883 1.518-.046c.835-.025 1.65-.44 1.812-.921zm-2.573-5.993c.885-.45 1.722-.522 2.359-.202 2.404 1.212 7.98-1.889 10-5.56l1.007-1.832-2.894.471c-1.747.285-3.374.96-4.105 1.703-.666.677-1.664 1.251-2.218 1.275-.553.024-1.157.314-1.341.644-.185.33-.546.481-.804.337-.257-.144-1.434.67-2.614 1.807-2.166 2.087-1.916 2.644.61 1.357zM92.653 443.468c.073-.06-.218-.55-.647-1.086-.529-.66-1.886-1.031-4.21-1.15-3.293-.168-3.394-.134-2.554.875 1.733 2.08 2.565 2.405 4.95 1.933 1.28-.253 2.388-.51 2.461-.572zm-8.647-32.843c-.647-.593-1.845-.088-1.808.761.03.677 2.002.953 2.236.313.102-.281-.09-.764-.428-1.074zm-.789-2.251c-.034-.775-1.342-2.936-2.021-3.338-1.948-1.154-3.567 1.699-1.855 3.267 1.472 1.35 3.934 1.395 3.876.071zm-4.068-6.167c-.976-1.702-2.024-1.602-1.946.186.045 1.032.77 1.514 2.186 1.453.489-.021.42-.488-.24-1.64zm831.734-39.898c-.02-.474-.296-.85-.612-.837-.316.014-.557.413-.536.887.02.473.296.85.611.836.316-.014.558-.413.537-.886zm-392.6-4.574c1.095-.327 3.276-.788 4.848-1.024s3.13-.81 3.46-1.275c.705-.992 2.114-1.147 3.664-.403 1.029.494 8.965-.565 9.624-1.285.137-.149-.118-.675-.565-1.168-.725-.8-2.288-.795-14.32.046-7.429.518-14.922 1.146-16.652 1.393-3.018.433-7.364 2.175-7.345 2.945.004.203 1.513.702 3.35 1.109 3.605.797 10.723.625 13.936-.337zm31.455-4.417c1.47-.283 2.834-1.089 2.55-1.506-.818-1.204-10.658.302-10.6 1.622.028.645 2.876.882 5.197.434l2.853-.55zM83.122 369.497c-.147-4.372-.674-7.02-1.39-6.988-.32.014-.41.277-.202.584.21.307.005.575-.454.595-.92.04-1.683 1.619-.905 1.872.27.088.657 1.059.86 2.158 1.068 5.772 2.259 6.785 2.09 1.779zM658.44 345.77c1.395-.673 2.03-.692 3.631-.108 1.575.574 2.713.549 6.036-.133 2.252-.462 7.16-1.085 10.907-1.384 3.747-.298 7.222-.784 7.72-1.078.5-.295 4.267-.692 8.373-.883 4.106-.191 8.614-.696 10.02-1.123 1.405-.426 4.106-1.04 6-1.362 1.895-.323 3.942-.88 4.55-1.238.606-.359 3.091-1.075 5.521-1.591 2.713-.577 4.406-1.213 4.387-1.646-.036-.842-11.579.066-12.08.951-.166.295-3.64.79-7.719 1.101-7.607.58-20.225 2.245-21 2.772-.24.162-4.047.57-8.462.908-4.415.338-8.593.848-9.284 1.133-.692.285-2.795.648-4.674.807-1.879.158-4.108.685-4.955 1.17-.846.486-1.94.9-2.429.922-1.065.046-1.144.986-.113 1.35 1.144.405 1.756.307 3.571-.568zm-86.02-.058a.577.577 0 0 0-.599-.55.577.577 0 0 0-.549.6.577.577 0 0 0 .6.55.577.577 0 0 0 .549-.6zm19.178-.634c4.439-.72 1.834-1.407-3.407-.898-2.529.246-5.706.542-7.06.66-1.41.122-2.15.387-1.73.62.87.488 8.27.255 12.197-.382zm5.23-.43c.183-.33-.257-.56-.997-.524-1.066.054-1.152.169-.44.586 1.1.644 1.04.647 1.436-.063zm-174.154 2.314c2.982-1.655 3.17-2.913.417-2.793-1.908.083-5.4 2.524-5.348 3.737.04.914 2.398.463 4.93-.944zm310.252-13.374c.607-.422.507-.609-.464-.871-1.318-.356-2.38.085-2.34.973.029.677 1.776.613 2.804-.102zm210.038-10.132c.532-.845 1.398-2.048 1.924-2.673.527-.626.952-1.267.945-1.425-.028-.64-3.14-.096-3.952.69-.72.698-3.593 1.533-5.963 1.734-.289.025-.355.201-.147.392.208.19.141.84-.149 1.445-.574 1.194.07 1.45 1.027.407.427-.466.827-.408 1.418.204 1.324 1.37 3.793.98 4.897-.774zm-531.384 22.99c1.106-1.003 1.096-2.398-.017-2.35-1.067.048-3.707 1.383-3.686 1.865.03.68 1.326 1.574 2.074 1.43.41-.078 1.142-.504 1.63-.945zM82.848 358.843c-.49-.45-.657-.377-.628.269.05 1.142.855 1.88 1.103 1.012.106-.369-.108-.945-.475-1.281zm620.168-26.594a.865.865 0 0 0-.898-.824c-.897.04-1.11.73-.42 1.361.689.632 1.358.36 1.318-.537zm233.965-17.971c-.014-.316.384-.592.884-.614 1.346-.059.58-1.433-.88-1.584-1.011-.104-1.243.159-1.192 1.347.036.811.323 1.464.639 1.45a.577.577 0 0 0 .55-.599zm-819.636 32.294c-.014-.316-.298-.563-.633-.548-.334.015-.437.278-.228.585.209.307.494.554.633.548.14-.01.242-.27.228-.585zm230.7-11.438c.066-.947-.222-1.863-.668-2.12-1.208-.693-1.651-.526-1.602.603.025.569-.23 1.334-.566 1.701-.869.948.033 1.988 1.489 1.716.88-.165 1.263-.706 1.347-1.9zm25.419-.276c-.356-.6-.91-1.238-1.233-1.418-.83-.465-.665 1.098.2 1.892 1.12 1.025 1.75.736 1.033-.474zm-260.268 9.175c-1.46-.93-2.213-.467-1.149.708.404.446 1.109.648 1.566.45.667-.29.585-.52-.417-1.158zm14.644-9.565c1.28 1.171 3.214.66 8.504-2.246 2.815-1.547 5.413-2.833 5.773-2.86.965-.068 2.522-2.665 2.03-3.387-.232-.342-1.128-.718-1.992-.836-.863-.118-1.84-.365-2.169-.55-.33-.184-.589-.09-.576.208.034.778-3.156 1.533-6.834 1.618-2.313.053-3.337.332-3.815 1.04-.898 1.33-8.766 3.043-10.83 2.36-1.066-.354-1.706-.303-2.122.168-.434.492-.05 1.064 1.415 2.109 2.29 1.632 8.886 3.22 9.49 2.285.246-.38.648-.348 1.126.09zm207.423-10.484c1.567-1.845 1.619-2.13.677-3.718-.876-1.48-.515-1.795 2.644-2.306 3.415-.554 4.032-1.604 2.847-4.844-2.32-6.342-5.31-10.786-10.461-15.543-5.293-4.89-7.444-6.598-8.259-6.562-.263.012-.969-.476-1.568-1.083-.6-.606-1.335-1.092-1.636-1.08-.3.014-1.52-.672-2.71-1.523-1.917-1.37-4.811-2.959-9.516-5.22-.808-.389-1.77-.695-2.136-.681-.367.014-2.316-.669-4.332-1.517-2.016-.848-3.887-1.391-4.157-1.207-.27.184-.814.095-1.209-.198-.394-.292-2.352-.91-4.35-1.374-1.998-.463-3.643-1.075-3.655-1.36-.014-.31-.421-.291-1.005.044-.54.31-1.373.502-1.851.425-2.812-.448-8.969-1.693-12.494-2.526-6.76-1.596-11.598-1.934-23.601-1.648-7.768.185-12.306.045-14.116-.437-3.923-1.044-7.007-1.219-9.49-.537-2.817.774-3.377 1.404-2.368 2.664.726.908 2.114.967 14.557.622 7.565-.21 14.923-.305 16.351-.212 13.215.856 20.522 1.822 23.212 3.067 1.526.707 1.73.983 1.041 1.41-.487.3-1.703.326-2.816.06-3.367-.81-8.447-.942-8.844-.231-.5.894 1.678 1.526 7.993 2.32 2.935.368 6.392 1.122 7.682 1.675 1.29.553 4.979 2.073 8.197 3.377 3.22 1.304 6.527 2.938 7.35 3.632.825.694 3.086 2.045 5.027 3.002 1.94.958 4.499 2.632 5.686 3.722 1.186 1.09 3.972 3.565 6.19 5.5 2.217 1.937 4.451 4.105 4.965 4.819 1.078 1.498 2.097 1.612 3.06.341 1.226-1.613 1.684-.984 1.837 2.522.135 3.099.298 3.517 1.565 4.03.778.314 1.569 1.07 1.757 1.679.188.61.884 1.225 1.547 1.368 1.229.265 1.448.706 1.323 2.663-.08 1.26 2.534 6.552 3.223 6.522.249-.01 1.078-.756 1.843-1.656zm-216.476 3.554c.945-.56 1.042-.898.514-1.79-.92-1.55-3.4-1.336-3.948.341-.243.741-.205 1.388.086 1.484.285.094.389.4.232.679-.358.642 1.576.198 3.116-.714zm4.694-2.738c.185-.555-.195-.783-1.23-.738-1.413.062-1.435.108-.385.808.613.409 1.166.74 1.23.738.064 0 .237-.367.385-.808zm171.748-10.239c.209-.373-.06-.973-.6-1.332-.538-.359-.993-.979-1.01-1.377-.025-.56.205-.555 1.007.019.91.652.95.638.316-.107-.398-.468-1.794-1.393-3.103-2.055l-2.38-1.204-1.38 1.505c-.759.828-1.37 1.735-1.357 2.015.012.28 1.011.934 2.22 1.452 1.21.518 2.596 1.13 3.08 1.361 1.306.62 2.776.494 3.207-.277zm641.491-30.167c.65-.965 1.171-2.023 1.157-2.352-.051-1.172-1.865-.488-3.534 1.332-1.365 1.49-1.533 1.945-.86 2.33 1.37.787 1.994.535 3.237-1.31zM300.957 311.63c.3-1.049-.878-.78-1.233.281-.19.569-.05.826.363.668.37-.142.761-.569.87-.95zm-2.275-1.676c.443-.92.203-1.341-1.38-2.42-2.664-1.816-9.716-5.21-10.734-5.166-1.341.06-.932 1.08.83 2.071.892.502 2.029 1.343 2.527 1.868 1.613 1.703 5.104 3.153 5.79 2.404.453-.493.632-.261.682.88.08 1.825 1.476 2.047 2.285.363zm-16.857-.226c.169-.503-.038-1.497-.46-2.209-.6-1.01-1.432-1.343-3.808-1.517-3.048-.224-6.602.706-6.558 1.717.013.291.615.74 1.338.995 1.076.38 6.974 1.645 8.73 1.871.249.032.59-.353.758-.857zm-153.586 2.987c.918-.452.782-.522-.736-.38-1.024.094-1.853.376-1.842.625.025.574 1.127.469 2.578-.245zm141.356-8.457c-1.542-.845-6.277-1.147-6.244-.398.015.349-.43.508-.991.355-.646-.177-.765-.113-.324.176.383.25 2.463.445 4.622.432 2.86-.017 3.657-.17 2.937-.565zm-120.932-30.166c-1.268-1.244-5.23-3.455-6.124-3.417-.735.032-.138 1.36 1.408 3.134 1.39 1.594 2.039 1.894 3.92 1.812l2.253-.098-1.457-1.43zm368.009 332.355c.566-.387 1.84-.854 2.831-1.039.991-.184 2.744-.745 3.895-1.247 1.305-.568 2.232-.706 2.463-.367.204.3.034.599-.378.665-.411.066-1.034.162-1.385.213-.35.05-.982.398-1.404.772-.423.374-2.182.91-3.91 1.193-2.481.405-2.926.365-2.112-.19zm21.052-.883c-.014-.316.347-.59.803-.61.455-.02.998.215 1.207.522.21.307-.152.582-.802.61-.65.028-1.194-.207-1.208-.522zm5.924-5.356c-.597-.659-.498-.732.591-.438.928.25 1.398.086 1.615-.563.35-1.048 1.227-1.194 2.507-.417.762.463.73.64-.228 1.258-1.573 1.016-3.642 1.09-4.485.16zm-97.615 4.105c.373-.41.828-.606 1.013-.437.184.169-.12.504-.677.744-.805.348-.874.284-.336-.307zm209.412-17.19c-1.277-.449-1.343-.586-.525-1.095 1.29-.802 4.577.236 3.381 1.068-.976.679-.997.679-2.856.026zm-211.884 8.765c-.565-.316-.549-.49.071-.76.443-.192 1.135-.164 1.538.06.565.317.549.49-.071.76-.443.193-1.135.165-1.538-.06zm6.712-.125c.388-.176 1.034-.205 1.436-.063.401.142.084.287-.706.321-.79.034-1.118-.082-.73-.258zm-10.801-.299c-.764-.447-.752-.526.085-.57.534-.029 1.141.2 1.35.508.481.707-.279.74-1.435.063zm39.531-1.741c-1.22-.643-1.099-2.46.185-2.769 1.002-.241 3.418 2.016 2.986 2.789-.342.612-1.99.602-3.171-.02zm-13.275.22c-.56-.131-1.032-.59-1.051-1.02-.044-1.01 1.878-1.705 3.504-1.266.7.19 2.047.35 2.993.355 2.305.015 2.813 1.372.552 1.47-.935.042-2.438.215-3.34.387-.902.172-2.098.206-2.658.074zm-42.984.553-2.027-.308 2.098-.54c1.561-.402 2.446-.32 3.45.321l1.353.862-1.424-.014c-.782-.01-2.335-.152-3.45-.322zm265-11.623c-.223-.328-.288-.725-.144-.882.144-.157.433.107.64.586.433.995.11 1.187-.496.296zm3.46-.35-2.901-.574 2.437-.373c2.405-.368 5.17.373 4.425 1.185-.447.487-.238.5-3.96-.238zm10.348-.214c-.21-.308.022-.577.515-.598.492-.021.907.22.92.535.014.316-.218.585-.515.598-.297.013-.711-.228-.92-.535zm-188.17 6.003c2.114-1.174 10.842-2.053 10.884-1.095.02.458-3.577.98-5.575.808-.397-.034-.71.208-.695.538.015.35-1.351.65-3.277.72l-3.303.121 1.966-1.092zm-124.803 4.698c.373-.41.828-.606 1.013-.437.184.169-.12.504-.677.744-.805.348-.874.284-.336-.307zm156.508-10.23c.367-.656-1.294-1.07-3.843-.96-1.237.054-2.26-.16-2.275-.476-.014-.316.297-.621.69-.679.393-.057 1.29-.19 1.993-.295.704-.106 1.974.131 2.822.525.849.395 1.901.702 2.339.682 1.357-.059.917.962-.567 1.313-.773.183-1.295.134-1.159-.11zm-439.91 17.516c-.793-.247-.248-.565 1.964-1.147 4.278-1.126 9.149-1.702 8.778-1.038-.168.3-.954.574-1.745.608-.792.034-1.92.347-2.505.694-1.377.816-5.084 1.32-6.492.883zm448.81-23.672c-.223-.328-.288-.725-.144-.882.144-.157.433.106.64.586.433.995.11 1.187-.496.296zm-449.967 18.51c-.01-.243.573-.867 1.297-1.388 1.104-.794 1.652-.847 3.401-.33 1.874.554 1.982.688 1.066 1.317-1.13.776-5.734 1.096-5.764.4zm313.544-14.772c-.634-.375-.337-.618 1.195-.975 2.4-.56 4.172-.388 4.207.408.032.748-4.32 1.205-5.402.567zm115.448-10.288c-1.274-.195-3.47-.595-4.88-.89-2-.419-2.655-.374-2.977.202-.322.575-.652.55-1.493-.111-1.661-1.309-3.218-1.72-5.571-1.474-1.455.152-2.271-.043-2.513-.601-.505-1.161-2.958-1.543-4.242-.661-.862.592-1.528.578-3.318-.066-3.645-1.312-8.605-2.39-10.593-2.304-1.02.044-2.384-.174-3.032-.485-1.257-.604-6.23-1.753-9.355-2.161-3.437-.45-3.01-1.196.587-1.027 2.203.103 3.794-.087 4.26-.51.827-.75 2.995-.373 5.908 1.024.97.464 2.668.813 3.774.774 1.106-.039 3.056.147 4.333.413 3.7.77 3.86.776 6.164.25 1.206-.276 2.322-.311 2.48-.08.501.738 5.411.996 6.515.341.582-.344 1.3-.433 1.596-.197.296.237 1.85.835 3.455 1.33 1.603.496 3.45 1.2 4.104 1.567.653.367 2.097.823 3.209 1.013 1.11.19 2.686.771 3.5 1.29.813.519 2.392 1.095 3.508 1.28 1.115.185 2.425.54 2.91.79 1.11.57-5.082.787-8.33.292zm-374.186 15.225c-.03-.671.398-.941 2.38-1.508 2.156-.615 2.017.45-.172 1.321-2.16.86-2.178.862-2.208.187zm271.258-13.806-2.328-.601 1.758-.71c1.536-.62 1.976-.548 3.478.574 1.493 1.116 1.567 1.289.569 1.312-.632.015-2.197-.244-3.477-.575zm21.172-.704c-.69-.244-1.422-.689-1.626-.989-.204-.3-.881-.388-1.505-.195-.68.21-1.148.067-1.166-.356-.02-.459.578-.644 1.703-.53.954.099 1.725-.014 1.715-.249-.03-.678 5.183-1.79 7.461-1.591 1.416.124 2.35-.12 2.946-.772 1.498-1.635 3.816-1.236 4.673.804.326.777.113 1.143-.842 1.443l-1.28.401 1.408.275c1.66.324 2.33 1.485.83 1.44-.568-.017-1.294-.175-1.613-.352-.771-.427-4.118-.09-4.629.468-.551.601-6.523.752-8.075.203zm2.057-.956c-.83-.916-2.348-1.067-2.311-.23.02.472 1.055.882 2.56 1.015.277.025.165-.329-.249-.785zm-11.6.802c-2.13-.098-3.16-.372-2.91-.772.214-.341 1.01-.687 1.768-.768.76-.08 1.58-.493 1.822-.915.339-.59.45-.601.48-.05.022.395.53.696 1.128.67 1.057-.046 2.207 1.422 1.41 1.799-.22.103-1.883.12-3.697.036zm28.267-1.241c-.032-.726 1.142-.778 2.297-.1.69.404.537.536-.693.596-.869.044-1.59-.18-1.604-.496zm-42.036-.777-2.04-.63 2.448-.1c1.347-.053 2.582.095 2.744.333.556.817-1.109 1.026-3.152.397zm11.438-1.595c-.026-.606 1.065-.909 1.416-.393.212.313-.017.586-.51.607-.492.021-.9-.075-.906-.214zm-336.79 10.302c-2.787-.766-2.928-.874-1.3-.998 1.005-.076 2.491.08 3.303.35 1.806.598 4.927-.498 4.875-1.711-.029-.647.446-.766 2.134-.538 1.193.16 2.567.483 3.052.717 1.02.492.901.559-3.37 1.891-3.804 1.187-5.251 1.235-8.694.289zm305.14-13.284c-1.347-1.962.436-4.263 2.405-3.104.562.331.713 1.59.447 3.712-.113.901-2.107.476-2.852-.608zm-230.404 10.123c-.013-.282.38-.687.87-.9 1.543-.671 2.062-.473 1.206.46-.912.996-2.042 1.235-2.076.44zm647.224-29.369c-1.212-.716-.312-1.782 1.575-1.864 1.453-.063 2.817.735 2.272 1.33-.545.595-3.137.954-3.847.534zm-423.386 16.669c-.014-.316.218-.585.515-.598.297-.013.711.228.92.535.21.308-.023.577-.515.598-.492.022-.907-.22-.92-.535zm443.574-20.496c1.212-.686 2.73-1.261 3.375-1.279 1.118-.03 1.112.022-.135 1.157-.767.698-2.16 1.226-3.375 1.279l-2.067.09 2.202-1.247zm-395.124 16.637c-2.237-.49-4.7-.877-5.475-.86-3.106.065-.14-1.09 3.853-1.5 4.128-.426 4.26-.398 6.39 1.393 2.107 1.773 2.13 1.83.736 1.844-.791.01-3.268-.386-5.504-.877zm-334.55 15.076c-.479-1.267-.5-4.537-.032-4.855.346-.235.462-.148.267.2-.195.35.349.761 1.246.945 1.456.299 1.509.394.62 1.105-.535.428-.96 1.058-.945 1.399.024.56-.998 1.626-1.157 1.206zm716.151-31.762c-.711-.459-.628-.528.417-.346.717.125 1.293-.023 1.28-.328-.013-.305.241-.406.565-.224.325.181.58.099.568-.183-.012-.282.3-.549.693-.593.857-.097 2.966-.67 4.405-1.197.572-.209 1.236-.09 1.477.264.604.887-.886 1.801-1.802 1.106-.757-.574-2.129-.058-1.664.626.142.21-.427.42-1.265.467-.838.047-2.032.288-2.655.534-.622.246-1.53.19-2.019-.126zm-2.893-.386c-.014-.316.362-.59.836-.611.474-.021.873.22.886.536.014.316-.362.591-.836.612-.474.021-.873-.22-.886-.537zm-725.036 30.52c-.19-.281-1.386-.64-2.657-.798-1.729-.215-2.323-.557-2.358-1.357-.084-1.916 1.655-2.385 3.667-.988 2.253 1.564 5.017 2.217 4.972 1.175-.018-.403.127-.586.322-.407.195.178.208.868.028 1.533-.23.853-.81 1.229-1.976 1.28-.908.04-1.807-.158-1.997-.438zm334.314-14.423c-.21-.193-.262-.568-.114-.833.333-.595 1.975-.1 2.006.605.026.589-1.32.751-1.892.228zm21.274-1.428c-1.44-.46-2.732-.504-3.837-.135-1.376.46-1.72.376-1.987-.487-.381-1.235.817-1.934 1.789-1.044.373.342 1.72.502 2.991.354 2.191-.255 4.01.437 4.06 1.544.027.644-.362.614-3.016-.232zM122.18 569.58c-1.035-.335-1.06-.427-.22-.814.52-.24 1.495-.375 2.166-.3 1.139.127 1.154.182.221.814-.55.373-1.523.508-2.167.3zm729.044-31.662c-.013-.302.502-.712 1.144-.91.743-.23 1.097-.112.973.322-.239.838-2.084 1.35-2.117.588zm-420.197 17.508c-.568-.835.002-1.008 1.813-.552 1.852.466 1.837.545-.16.854-.72.111-1.464-.024-1.653-.302zm34.493-1.985c-.222-.328-.282-.73-.131-.895.438-.478 4.442.246 4.467.808.031.726-3.848.804-4.336.087zm388.51-17.337c-.043-1.863 7.24-5.3 7.32-3.455.034.765-1.24 1.895-2.187 1.94-.49.021-1.614.46-2.498.972-1.773 1.025-2.62 1.2-2.634.543zm-413.032 15.206c-4.914-1.065-5.142-1.178-3.67-1.821.702-.306 1.864-.38 2.582-.166.719.216 1.95.314 2.737.219 1.749-.212 4.818 1.113 4.383 1.891-.42.751-2.165.716-6.032-.123zm-329.075 13.952c-.083-1.913 3.61-3.711 7.507-3.655 2.174.031.786 1.908-2.078 2.808-1.56.491-3.412 1.081-4.114 1.312-.926.304-1.287.177-1.315-.465zm155.349-6.59c-.21-.307.008-.575.481-.596.474-.02 1.033.214 1.242.522.209.307-.008.575-.482.596-.474.02-1.032-.214-1.241-.521zm-179.776 5.78c-.213-.491-.413-1.466-.443-2.167-.03-.7-.356-1.549-.723-1.885-1.454-1.332.081-1.806 5.89-1.82 10.039-.025 13.125-.357 20.18-2.173 9.712-2.499 9.958-2.545 9.987-1.882.014.327-.93.946-2.098 1.375-1.168.429-3.09 1.762-4.27 2.964-1.181 1.2-1.995 1.88-1.808 1.51.717-1.422-5.633-1.315-7.386.125-.67.55-3.42 1.14-10.232 2.192-2.813.434-5.684 1.199-6.379 1.699-1.612 1.16-2.234 1.174-2.718.062zm761.978-33.997c-.635-.216-1.898-.274-2.806-.128-2.857.46-.736-1.374 2.315-2.002 3.19-.656 2.663-.51 5.78-1.6 1.403-.491 2.746-.855 2.986-.81.24.045.425-.148.413-.43-.038-.86 1.775-1.428 5.52-1.731 1.963-.159 3.886-.573 4.275-.92.388-.348 1.789-.974 3.112-1.39 1.324-.417 3.016-1.422 3.76-2.234.745-.812 1.722-1.493 2.171-1.513.45-.02 1.138-.458 1.53-.976.428-.562 1.27-.859 2.098-.738.925.136 1.48-.111 1.676-.746.702-2.278 9.96-10.288 11.994-10.377.484-.02 1.071-.384 1.306-.807.534-.962 4.615-3.12 5.085-2.688.41.375-2.606 3.326-3.445 3.371-.315.017-1.486.975-2.601 2.128-1.116 1.154-2.295 2.109-2.62 2.123-.327.014-1.363.847-2.303 1.85-.94 1.003-2.443 2.004-3.339 2.224-.895.22-1.738.729-1.873 1.13-.286.857-5.747 5.107-10.933 8.511-2 1.313-4.174 2.913-4.832 3.556-.88.86-2.007 1.196-4.26 1.272-1.968.066-4.308.663-6.545 1.668-3.496 1.572-6.316 1.99-8.464 1.257zm-403.518 16.72c-1.142-.286-2.755-.927-3.583-1.425-.828-.497-2.584-.958-3.902-1.023-3.202-.158-4.46-1.266-1.58-1.392 1.159-.05 2.251-.25 2.428-.443.178-.194 1.227.154 2.331.772 1.547.865 2.526 1.017 4.256.663 1.236-.254 2.276-.265 2.31-.025.035.24.163.85.285 1.355.391 1.625-.35 2.067-2.545 1.518zM130.35 559.04c-.953-.097-2.104-.457-2.557-.8-.667-.504-.512-.71.816-1.091a56.745 56.745 0 0 0 2.858-.906c.93-.333 1.324-.155 1.654.747.238.651.788 1.169 1.222 1.15.434-.02.96.217 1.17.524.383.564-1.774.721-5.163.376zm8.086-.424c-.522-.767 1.548-1.964 2.717-1.573.931.312 1.323 1.311.533 1.36-.237.016-.976.199-1.643.41-.668.21-1.39.121-1.607-.197zm-60.552-8.647c-.02-.47.663-1.02 1.529-1.228.861-.207 2.797-.832 4.302-1.39 1.505-.557 4.452-1.233 6.55-1.502 2.097-.269 4.8-.886 6.006-1.372 1.206-.485 3.775-.958 5.71-1.05 1.933-.092 4.667-.488 6.074-.88 1.883-.525 3.13-.553 4.723-.106 2.72.762 2.343 1.574-.803 1.726-5.976.289-28.125 4.371-30.969 5.708-2.414 1.134-3.076 1.154-3.122.094zm-9.538-3.191c-.333-.5.702-1.538 1.845-1.85.582-.158.522.132-.211 1.017-1.145 1.38-1.237 1.428-1.634.833zm-2.544-.38c.182-.2.676-.242 1.098-.094.466.163.336.306-.332.362-.604.051-.949-.07-.766-.269zm59.59-3.49c-1.97-.637-1.34-.995 1.067-.61 1.262.203 1.705.464 1.177.693-.465.202-1.476.164-2.244-.084zm-8.254-11.89c-.444-1.021.572-1.845 1.372-1.112.364.334.285.786-.217 1.24-.619.562-.868.534-1.155-.128zm7.307-1.086c.185-.202 1.08-.452 1.99-.555.91-.103 2.96-.425 4.555-.716 2.43-.443 2.91-.381 2.942.376.033.757-.77.935-4.892 1.084-2.713.098-4.78.013-4.595-.189zm783.572-35.419c-.013-.297.228-.71.536-.92.307-.209.576.023.597.515.022.493-.219.907-.535.92-.316.015-.585-.217-.598-.515zm3.896-3.385c1.438-1.67 2.203-1.905 2.256-.69.041.957-.583 1.466-2.302 1.876-1.216.29-1.215.28.046-1.186zm-783.621 33.904c.181-.324.702-.606 1.157-.625.455-.02.839.222.853.538.013.316-.507.597-1.158.626-.65.028-1.034-.214-.852-.539zm-9.286.01c.581-.633 3.782-.873 3.808-.284.012.284-.925.558-2.084.609-1.158.05-1.934-.095-1.724-.325zm795.7-35.45c-.027-.643 1.76-2.064 4.051-3.222 2.828-1.43 2.858-1.405.991.827-.885 1.058-1.601 2.108-1.592 2.332.01.224-.758.42-1.707.434-.949.014-1.733-.153-1.742-.372zm-784.629 30.207c-.013-.306.37-.424.852-.263.481.161.88.394.885.519.005.124-.378.242-.851.263-.474.02-.873-.213-.886-.519zm791.614-35.112c-.212-.313.016-.586.51-.607 1.008-.044 1.171.294.396.82-.286.196-.694.099-.906-.213zm3.456-2.258c-.724-.663-.48-1.19.72-1.561.856-.264 1.132-.114 1.032.559-.154 1.027-1.12 1.58-1.752 1.002zM127.22 516.676c.183-.199.677-.24 1.099-.093.466.164.336.306-.332.363-.604.05-.95-.07-.767-.27zm-61.728-19.974c-.44-.647 1.056-.712 3.159-.138 1.307.357 1.24.412-.662.547-1.164.082-2.288-.102-2.497-.41zm-15.077-4.905c-.86-.787-.365-1.326 1.281-1.398 1.149-.05 1.736.212 1.76.786.039.87-2.257 1.331-3.041.612zm4.153-1.523c.46-.327 1.354-.617 1.985-.645.951-.04 1.005.052.312.544-.46.327-1.354.617-1.986.645-.951.04-1.005-.052-.311-.544zm886.642-41.166c-.675-.745-.398-1.512.562-1.554.282-.012.364.243.182.567-.181.324-.056.578.279.563.334-.015.619.232.633.548.035.817-.864.75-1.656-.124zm-854.9 9.188c-1.41-1.343-1.594-1.767-.96-2.222.432-.31 1.242-.475 1.8-.366.558.108 1.15-.044 1.314-.338.403-.721 2.367-.766 2.843-.065.602.884-.163 2.927-1.043 2.789-.436-.068-1.112.322-1.501.868-.646.906-.861.848-2.452-.666zM67.18 403.419c-.21-.307-.107-.57.228-.585.334-.015.62.232.633.548.014.315-.089.579-.228.585-.14.01-.424-.24-.633-.548zm-.62-38.926c.1-.701-.118-1.383-.486-1.516-.483-.174-.479-.261.013-.316 1.001-.11 1.28.608.754 1.936-.434 1.095-.452 1.088-.281-.104zm298.793-17.353c-.075-1.71-.008-1.78.9-.947.54.494.843 1.313.673 1.82-.53 1.587-1.489 1.055-1.573-.873zm280.587-10.963c.181-.324 1.413-.633 2.737-.686 1.766-.071 2.184.062 1.57.498-1.119.794-4.734.952-4.307.188zm7.16-.755c-.013-.284.299-.554.692-.6.394-.048 1.323-.3 2.067-.562 1.022-.36 1.295-.277 1.12.341-.25.894-3.843 1.654-3.88.82zm-139.005 5.354c-.014-.316.362-.591.836-.612.474-.02.873.221.886.537.014.316-.362.591-.836.612-.474.02-.873-.221-.886-.537zm4.883-.163c-1.554-.28-1.411-.37 1.341-.837 3.23-.547 4.758-.264 3.459.64-.857.597-2.261.655-4.8.197zm142.144-5.927c-.006-.14.24-.425.548-.634.307-.208.57-.106.585.229.015.334-.232.62-.548.633-.315.014-.579-.09-.585-.228zM525.52 338.9c-.005-.124.385-.397.867-.607.502-.218.737-.132.55.203-.314.56-1.397.87-1.417.404zm7.739-1.222c-.445-.654.056-.94 2.221-1.267 3.597-.543 5.73-.537 5.755.016.014.316-.546.611-1.245.656-.698.045-1.443.272-1.656.504-.57.623-4.664.696-5.075.09zM61.745 356.185c-.223-.512-.036-.858.477-.88.928-.041 1.179.847.39 1.384-.275.187-.665-.04-.867-.504zm495.768-22.48a.577.577 0 0 1 .55-.6.576.576 0 0 1 .598.55.577.577 0 0 1-.549.599.576.576 0 0 1-.6-.55zm34.62-3.552c-.67-.427-1.916-.804-2.77-.837-.852-.033-1.558-.246-1.568-.471-.033-.767 3.813-1.652 10.48-2.411 2.487-.283 4.677-.54 4.866-.57 2.167-.345 2.13.66-.04 1.089-.69.136-1.496.51-1.79.83-.293.32-1.257.614-2.141.652-.885.04-1.596.357-1.58.707.017.394-.531.522-1.437.336-1.026-.21-1.553-.034-1.762.59-.36 1.078-.68 1.09-2.258.085zm15.425-4.336c.324-.375 2.172-.852 4.105-1.06 1.933-.209 3.713-.506 3.954-.66.686-.44 21.56-1.32 21.17-.893-.507.551-.946.605-12.16 1.488-5.623.443-11.896 1.03-13.941 1.306-2.771.372-3.568.326-3.128-.181zm-538.3 23.021c-1.618-.239-1.723-1.01-.202-1.48.756-.233 1.358.01 1.778.719.35.589.43 1.044.18 1.012-.25-.032-1.04-.145-1.757-.25zm605.088-26.88c-.569-.628-.555-.803.066-.823.434-.015 1.143.178 1.576.427.64.367.627.521-.066.823-.469.204-1.178.012-1.575-.427zm-313.535 13.42c-.696-.39-.736-.64-.192-1.233.53-.579.841-.598 1.4-.085.46.42.53.867.194 1.233-.323.353-.865.386-1.402.085zm276.798-12.097c-.01-.227 1.02-.473 2.29-.546 1.269-.073 2.173.108 2.008.402-.349.624-4.271.756-4.298.144zm8.612-.425c-.012-.275.926-.54 2.084-.591 2.485-.108 2.33.383-.253.799-.995.16-1.819.066-1.83-.208zm-3.028-.174c.388-.176 1.034-.204 1.436-.063.401.142.084.287-.706.321-.79.034-1.118-.082-.73-.258zm44.35-2.217c-.025-.574 4.889-1.482 5.667-1.047 1.5.839.453 1.452-2.485 1.458-1.74 0-3.172-.182-3.182-.41zM61.15 344.31c-1.552-.788-3.43-2.532-4.773-4.43-1.232-1.741-.51-2.116 1.044-.542.565.572 1.746 1.151 2.625 1.288.974.15 1.892.822 2.347 1.717 1.306 2.563.971 3.093-1.243 1.967zm44.908-35.845c-.102-.853.112-1.108.748-.895.49.164 1.258.282 1.706.262.448-.02.831.352.852.826.024.56-.523.886-1.563.931-1.211.053-1.636-.22-1.743-1.124zm9.198-3.228c-.215-.316.245-.586 1.056-.622.79-.034 1.606.19 1.815.496.215.316-.245.586-1.056.622-.79.034-1.606-.189-1.815-.496zm873.155-38.655c-.014-.316.089-.58.228-.586.14-.01.424.24.633.548.21.307.107.57-.228.585-.334.015-.62-.232-.633-.547zm-616.047 22.873c-1.173-1.121-1.583-1.942-1.336-2.675.3-.887.595-.699 1.85 1.18 2.296 3.44 2.104 4-.514 1.495zm-253.977 11.81c-.403-.142-.604-.49-.446-.772.346-.619 1.992-.153 2.024.572.024.553-.42.61-1.578.2zm232.443-30.428c-.454-.668.596-1.396 1.382-.957.66.369.283 1.42-.522 1.455-.278.012-.665-.212-.86-.498zm-42.723-2.78c-.209-.306-.106-.57.229-.584.334-.015.62.231.633.547.014.316-.089.58-.228.586-.14.01-.425-.24-.634-.548zm-2.607-.427c-.015-.334.232-.62.547-.633.316-.014.58.089.586.228.006.14-.24.424-.548.633-.307.21-.57.107-.585-.228zm-1.358-.358c-.22-.201-.412-.633-.426-.96-.016-.36.253-.337.683.057.39.358.582.79.426.96-.156.17-.464.145-.683-.057zm-174.441 6.38c1.39-.95 3.961-1.514 3.99-.875.013.322-.201.595-.478.607-.276.012-1.368.206-2.426.432-1.313.28-1.658.228-1.086-.163zm-20.205-1.535c-6.825-.157-5.253-1.2 2.441-1.619 3.921-.213 6.955-.626 7.15-.972.57-1.011 2.547-1.132 3.944-.241l1.326.845-1.32.783c-1.465.868-6.95 1.355-13.54 1.204zm-5.251-7.203c-.557-.508-.241-1.188.568-1.224.474-.02.868-.361.876-.757.011-.572.08-.574.336-.01.178.39.553.552.834.361.28-.19.533.158.56.774.036.845-.319 1.118-1.437 1.104-.818-.01-1.6-.121-1.737-.247zm.297-4.436c.182-.2.676-.241 1.098-.093.466.163.336.305-.332.362-.604.052-.949-.07-.766-.269z" style="fill:#000"/>
</svg>
