<svg viewBox="50 250 1024 304.414" xmlns="http://www.w3.org/2000/svg">
  <path d="M102.884 554.059c0-.216.453-.892 1.007-1.504.956-1.057.944-1.16-.246-2.088-1.337-1.044-1.84-4.057-1.064-6.375.521-1.557 1.365-1.68 2.343-.343.399.545 1.108.817 1.619.621.718-.276.9-1.277.864-4.77-.06-6.039-.765-6.993-4.854-6.57-3.273.337-4.543-.542-2.833-1.961 1.135-.942 2.767-4.441 2.37-5.083-.173-.28-1.444-.846-2.824-1.257-1.38-.411-3.113-.983-3.85-1.27-2.912-1.136-5.507-.089-5.168 2.085.184 1.176 2.672 3.324 3.359 2.899.393-.243.552-.19.36.12-.189.306-.113.93.168 1.384.313.506.255 1.139-.149 1.625-.48.578-.487 1.075-.026 1.813.924 1.48-.997 2.478-5.453 2.835-2.79.224-3.854.083-4.54-.602-1.49-1.492-4.956-3.447-5.505-3.108-.284.176-.417.917-.296 1.646.17 1.017-.328 1.702-2.12 2.927-1.288.88-2.348 2.061-2.355 2.626-.03 2.329-3.438 4.792-5.145 3.72-.61-.383-.404-.928.928-2.468 1.463-1.692 1.73-2.521 1.848-5.77.091-2.517.456-4.146 1.084-4.842.977-1.084 1.386-2.29 1.376-4.057-.003-.562.175-1.023.396-1.024.22 0 1.279-.825 2.35-1.83 2.134-2 1.79-2.81-1.2-2.828-1.118-.006-1.495-.25-1.274-.825.373-.972-.692-1.797-1.22-.944-.453.735-1.464.781-1.464.067 0-.289.946-1.084 2.102-1.766 3.418-2.017 7.76-5.935 7.456-6.729-.156-.405-.904-1.068-1.664-1.475-.796-.426-1.25-1.082-1.071-1.548.208-.543.016-.695-.585-.465-.493.19-1.036.71-1.207 1.156-.436 1.135-4.13 2.576-6.388 2.49-1.037-.038-2.433.222-3.1.58-1.09.583-3.834.468-4.925-.206-.23-.142-.183-1.302.104-2.578.653-2.907.432-4.419-.871-5.94-1.238-1.446-.888-1.993.723-1.132.648.347 1.761.631 2.473.631 1.368 0 8.392-3.11 8.907-3.943.412-.666-.28-1.607-1.517-2.063-.644-.238-1.021-.988-1.021-2.034 0-2.127 1.299-3.93 2.5-3.47 1.135.436 2.419-1.003 1.96-2.197-.234-.61-1.164-.883-3.014-.883h-2.677l.178-3.064c.16-2.757.322-3.084 1.622-3.267.795-.112 1.794-.703 2.222-1.313.446-.638 1.467-1.11 2.397-1.11 2.208 0 2.51-.473 1.162-1.82-.627-.628-.98-1.399-.785-1.715.195-.316-.542-.95-1.639-1.408-1.506-.629-2.223-1.447-2.931-3.343-1.585-4.242-1.732-5.45-.76-6.256.872-.724 4.1-.587 6.331.269 1.714.658 1.215-1.418-.792-3.293-.997-.93-2.063-1.693-2.369-1.693-.306 0-.394-.262-.195-.583.198-.321.039-.584-.355-.584-.393 0-.573-.142-.4-.315.174-.174 1.277.25 2.45.943 2.156 1.272 6.448 1.676 7.425.699.53-.53-1.528-4.856-2.625-5.518-2.852-1.721-2.91-1.891-1.3-3.806 1.655-1.966 1.882-3.076.84-4.117-.51-.51-.51-.874-.001-1.487.832-1.003-.556-2.39-2.961-2.962-1.047-.249-1.722-.878-1.96-1.83-.265-1.055-.757-1.45-1.808-1.45-1.912 0-1.497-1.198.825-2.381 2.314-1.179 1.813-1.998-2.054-3.36-4.029-1.419-5.357-2.683-5.085-4.837.148-1.163-.158-2.057-.959-2.802-1.171-1.092-1.17-1.097.478-1.441 1.84-.384 5.387-.786 11.707-1.326 3.043-.26 4.47-.15 5.127.395.745.619 1.499.614 4.159-.024 3.672-.88 4.513-2 2.592-3.448-1.162-.877-1.205-1.065-.395-1.738 1.256-1.042.967-3.519-.64-5.49-.74-.908-1.345-2.009-1.345-2.448 0-.438-.476-1.14-1.057-1.56-2.675-1.93-1.112-2.621 2.516-1.113 3.427 1.424 4.809 1.456 5.233.12.41-1.29-.069-3.563-.75-3.563-.341 0-.418-1.988-.175-4.504.103-1.065 1.66-.252 2 1.043.208.799.806 1.127 2.052 1.127.966 0 2.239.18 2.826.4.921.346.964.272.31-.534-.646-.794-.58-.992.437-1.315.659-.21 1.198-.638 1.198-.953 0-.315.722-1.234 1.605-2.043 1.069-.98 1.363-1.57.88-1.77-.55-.226-.514-.509.146-1.169.479-.478.9-1.573.938-2.433.11-2.536.166-2.69 1.53-4.158.72-.772 1.455-1.87 1.636-2.44.18-.568.675-.9 1.098-.738.424.162.927-.114 1.12-.614.22-.576 1.075-.908 2.338-.908 1.65 0 2.111-.292 2.698-1.71.39-.94 1.078-1.85 1.53-2.024.452-.173.822-.873.822-1.554 0-.682.521-1.903 1.16-2.714.637-.81 1.039-1.667.892-1.904-.146-.237.373-.309 1.153-.16.84.161 1.803-.112 2.359-.667.516-.517 1.403-.94 1.97-.94 1.155 0 2.387-2.249 2.387-4.355 0-1.787.983-2.106 3.427-1.113 1.082.44 2.02.8 2.083.8.345 0 3.828-3.377 3.828-3.711 0-.218-.657-.232-1.46-.03-1.017.255-1.461.126-1.467-.427-.007-.622-.126-.608-.552.066-.464.733-.602.708-.939-.171-.217-.567-.24-1.185-.052-1.373.189-.19.095-.807-.208-1.374-.446-.833-.27-1.1.92-1.4.809-.202 1.313-.624 1.12-.935-.192-.312.176-.567.818-.567 1.3 0 2.252-1.092 1.457-1.67-.863-.627-.853-1.831.015-1.831 1.388 0 4.953-3.583 5.642-5.67.359-1.089.503-2.577.32-3.308-.255-1.012.079-1.633 1.403-2.612 1.111-.822 1.737-1.804 1.737-2.726 0-1.012.32-1.441 1.077-1.441.592 0 1.528-.5 2.08-1.11.552-.61 1.883-1.274 2.958-1.476 1.486-.279 2.097-.781 2.557-2.1.333-.954.883-1.734 1.223-1.734.34 0 1.04-1.05 1.553-2.335.908-2.268 1.013-2.334 3.727-2.334 2.264 0 3.13-.314 4.57-1.66.977-.912 3.236-2.118 5.02-2.68 1.785-.561 3.393-1.259 3.573-1.55.18-.291 1.105-.53 2.056-.53 1.278 0 1.902-.38 2.394-1.459.365-.802.953-1.459 1.306-1.459.353 0 .97-.525 1.37-1.167.401-.642 1.09-1.167 1.531-1.167.994 0 1.556-1.926.876-3-.62-.98-.679-2.414-.083-2.064.24.142 1.029.035 1.75-.238 1.534-.58 1.898-3.452.439-3.452-.967 0-1.2-1.482-.318-2.027.307-.19.41-.73.23-1.202-.181-.47-.023-.856.351-.856.375 0 .493-.303.264-.674-.229-.37-.162-.517.148-.325.662.409 4.869-3.173 4.869-4.144 0-.584-2.731-2.373-3.502-2.293-.75.077-4.669-1.605-4.669-2.005 0-.248.723-.36 1.605-.25.883.112 1.277.086.876-.057-.402-.142-.73-.606-.73-1.03 0-1.016 1.838-1.697 2.35-.87.22.356 1.45.789 2.735.96 2.862.385 5.294-1.189 4.087-2.643-.611-.737-.313-.787 2.21-.371 6.08 1.002 11.347-.438 11.397-3.117.016-.854.13-.834.876.152.47.623.857.9.857.618 0-.284.378-.005.84.618.463.623.703 1.702.533 2.398-.213.872.048 1.456.843 1.881 1.32.706 5.215.712 6.593.01.58-.295 1.412-.138 2.201.415 1.524 1.068 6.278 1.634 6.788.808.2-.322.07-.586-.287-.586-1.458 0-4.423-2.639-4.197-3.736.126-.611-.193-1.346-.707-1.634-1.23-.689-1.184-1.459.13-2.162.724-.387 1.983-.317 3.939.22 1.58.433 2.48.833 1.999.887-.555.062-.623.2-.186.379.832.339 4.271-1.352 4.271-2.1 0-.292.722-.38 1.605-.195s2.393.402 3.356.483c.963.081 1.919.176 2.125.21.206.034.537.71.736 1.504.441 1.755 1.657 2.457 4.726 2.728l2.334.206.013-2.334c.007-1.284-.24-2.513-.55-2.73-.36-.252-.34-.888.052-1.751.436-.96.43-1.649-.02-2.36-1.104-1.745.2-2.158 4.18-1.324 2.02.424 4.039 1.074 4.485 1.445 1.414 1.173 8.473-.582 8.473-2.106 0-.472-.786-1.305-1.747-1.852-.961-.547-1.75-1.206-1.751-1.466-.002-.26-.248-.321-.547-.137-.299.185-.732.031-.962-.341-.292-.472.044-.59 1.106-.387.84.16 1.6.105 1.692-.123.285-.712 4.543-1.282 4.543-.61 0 .887 2.197 2.945 3.142 2.945.444 0 .945.526 1.113 1.168.167.642.751 1.167 1.297 1.167.665 0 .876.304.638.923-.194.508-.354 1.164-.354 1.459 0 .295-.544.536-1.209.536-1.79 0-3.174 1.563-2.308 2.608.377.453 1.01.699 1.41.546.399-.153 1.439.092 2.312.545 1.472.763 1.5.845.4 1.133-1.771.463-1.437 2.036.708 3.345 2.272 1.385 3.614 1.507 3.145.285-.259-.674.129-.875 1.688-.875 1.365 0 2.025-.272 2.025-.833 0-1.484 2.891-3.281 4.591-2.855 1.65.414 4.746 3.184 4.746 4.245 0 .39 1.101.626 2.772.595 1.525-.029 5.984-.017 9.909.025 6.204.068 13.581-.753 13.581-1.51 0-.138-.525-.776-1.167-1.418-.642-.642-1.167-1.43-1.167-1.751 0-.88 1.908-.7 3.359.316 1.21.847 1.384.79 3.03-1.022.961-1.056 1.755-2.117 1.764-2.358.01-.24.296-.438.636-.438s.467.245.282.544c-.185.298-.041.725.32.948.464.287.424.551-.137.907-1.355.858 1.467.613 3.706-.322 3.116-1.302 3.696-2.32 1.968-3.452-1.627-1.066-1.81-3.156-.268-3.062.55.033 1.51.646 2.13 1.363.62.716 1.282 1.149 1.47.962.187-.188.926.07 1.642.571l1.303.912-1.595.607c-.877.333-1.84.606-2.14.606-.3 0-.545.627-.545 1.393 0 1.193.355 1.444 2.48 1.752 1.364.198 3.189.162 4.054-.08 1.792-.5 7.136-5.41 8.722-8.012 1.043-1.713 1.04-1.748-.242-2.46-1.275-.708-1.268-.723.38-.743 2.022-.025 6.946-4.51 7.984-7.274 1.715-4.562 2.54-5.606 4.921-6.225 3.176-.825 5.55-1.879 5.55-2.463 0-1.331 5.128-4.778 8.17-5.492 3.514-.824 4.667-.731 4.678.375.006.61.155.698.437.259.25-.389 2.1-.674 4.44-.686 3.112-.016 4.269.22 5.166 1.056.843.786 1.694.99 3.138.756 1.09-.177 3.537-.015 5.439.359 3.348.659 3.584.62 7.428-1.196 3.003-1.419 4.91-1.912 7.827-2.025 2.974-.115 3.855.037 3.855.663 0 .446-.26.65-.578.454-.356-.22-.434.182-.202 1.047.206.772.38 1.864.383 2.426.013 1.585 2.832 1.35 3.492-.292.29-.722.544-1.022.565-.665.02.356 1.458.794 3.194.973 1.737.18 3.836.77 4.664 1.313 1.602 1.05 2.992 4.867 2.483 6.817-.34 1.3 1.122 2.108 2.08 1.15.45-.45.97-.454 1.792-.014.763.409 3.07.465 6.768.166 3.085-.249 8.384-.441 11.775-.426l6.166.026 4.444 2.698c3.569 2.166 4.97 2.698 7.111 2.698 1.823 0 2.621-.231 2.522-.73-.187-.935 1.877-.61 3.11.49.543.486 2.171.823 3.972.823 3.354 0 8.366 1.07 7.976 1.703-.404.652 7.942.614 10.474-.048 3.624-.947 10.612-4.449 11.784-5.904.58-.72 1.814-1.899 2.741-2.617 1.576-1.222 1.733-1.241 2.421-.3.634.866.5 1.15-.956 2.035-1.446.88-1.965 1.874-1.791 3.434.039.353-10.92 5.935-13.028 6.636-.64.213-4.053.522-7.583.687-3.53.165-6.535.416-6.676.557-.754.754 1.473 1.593 4.302 1.62 2.123.022 3.03.23 2.65.609-.316.317-.575.76-.575.986 0 .737 3.17 1.475 4.906 1.141l1.696-.325-1.404-.7c-.773-.384-1.93-.833-2.572-.997-.642-.164.146-.163 1.75 0 1.606.165 3.81.58 4.9.925 2.371.748 9.922.15 10.939-.866.223-.224.953-.415 1.621-.425.669-.01 1.726-.404 2.349-.875.623-.471 1.542-.859 2.043-.86.5 0 1.643-.387 2.54-.855 1.398-.73 1.677-.733 1.948-.028.38.992-1.436 3.642-2.819 4.11-.545.186-2.046.379-3.336.43-1.29.052-2.054.275-1.697.495.358.221.489.822.292 1.336-.28.727-1.22.934-4.248.934-2.77 0-4.412.316-5.708 1.097-1.001.603-2.82 1.416-4.041 1.807-2.003.64-2.204.886-2.043 2.492.267 2.663 1.514 3.154 5.773 2.275 1.987-.41 4.24-1.156 5.004-1.658.935-.612 2.145-.81 3.696-.601 1.268.17 3.234.1 4.368-.156 3.419-.771 2.858.353-.729 1.46-1.839.568-3.606 1.23-3.927 1.472-.32.243-2.29.902-4.377 1.466-5.1 1.378-5.603 2.019-1.583 2.019 6.054 0 22.124-5.035 24.437-7.657.533-.603 1.53-1.097 2.216-1.097 1.79 0 10.53-5.181 10.53-6.242 0-.577.33-.76.944-.524.52.2 2.292-.061 3.94-.579 4.05-1.272 6.614-.605 8.134 2.115.617 1.106 1.683 2.572 2.369 3.258.685.687 1.72 1.939 2.298 2.783 1.741 2.537 4.602 3.348 11.787 3.34 4.248-.006 8.343.395 12.107 1.185 6.01 1.26 8.012 1.192 13.28-.454 3.945-1.232 8.766-1.404 14.036-.5 2.2.377 4.866.557 5.924.399 3.782-.563 7.444-.192 7.283.738-.058.335-.894 1.043-1.856 1.574-.963.531-1.62 1.075-1.46 1.21.409.339-1.53 2.201-2.292 2.201-.344 0-.625.254-.625.564 0 .837-2.175 1.844-4.102 1.9-.932.026-1.577.238-1.433.47.487.788-8.16.497-11.208-.377-1.666-.477-4.018-1.54-5.228-2.36-2.068-1.404-2.48-1.47-6.893-1.088-2.582.224-6.014.748-7.628 1.167-4.14 1.073-10.275 1.048-13.552-.055-3.8-1.279-8.619-4.294-9.679-6.057-1.22-2.03-6.19-7.144-8.119-8.355-2.413-1.515-4.3-.707-8.898 3.81-3.199 3.142-3.9 4.122-3.24 4.53.659.407.407.75-1.155 1.58-2.856 1.518-5.997 4.684-5.478 5.523.3.486.113.576-.614.297-2.277-.874-3.534 2.152-1.669 4.016.539.539 1.014 1.543 1.057 2.23.042.688.276 1.842.519 2.564.333.991.217 1.313-.473 1.313-.504 0-.915-.306-.915-.68 0-.375-.187-.495-.415-.266-.228.228.363 1.041 1.313 1.807 1.558 1.255 1.652 1.517.958 2.657-.884 1.453-.984 1.288 1.552 2.578 1.958.996 3.983.84 3.307-.254-.24-.388.166-.385 1.2.008 1.527.58 4.944-.119 6.354-1.3.305-.256 1.404-.465 2.442-.465 1.039 0 2.627-.295 3.531-.656 1.792-.717 6.683-.714 7.174.005.168.246 1.565.793 3.105 1.217 2.266.623 3.063.63 4.178.032 1.153-.617 1.6-.583 2.728.208.743.52 2.112.946 3.043.946 1.497 0 1.601.11.904.95-.71.856-.544.926 1.692.712 1.879-.179 2.41-.05 2.186.532-.162.423.094.918.57 1.1.477.183.866.698.866 1.145 0 .85 2.174 1.075 4.453.464 1.175-.315 1.196-.43.377-2.071-.894-1.793-.52-3.175.445-1.648.299.472.547.621.552.332.006-.29.5.038 1.099.73 1.472 1.697 3.201 1.58 6.818-.46 8.158-4.605 21.272-5.841 21.272-2.006 0 .468.61.804 1.46.804.857 0 1.458-.335 1.458-.813 0-.944 1.587-1.72 1.86-.91.1.3.84.553 1.642.562 8.33.096 12.292-.175 16.97-1.162 8.428-1.779 19.771-1.272 22.277.995.846.766 2.227.906 7.594.77 3.607-.093 7.74-.19 9.185-.215 2.473-.043 9.164 1.078 11.088 1.86.482.195 9.148.387 19.26.426 19.437.075 37.053.569 37.847 1.06.261.161 4.13.269 8.597.24 4.467-.03 22.172-.106 39.345-.169 33.627-.122 37.096-.175 36.708-.564-.14-.14-5.108-.672-11.04-1.184-5.932-.512-11.837-1.03-13.12-1.15-1.285-.12-8.638-.283-16.342-.362-7.703-.08-14.794-.311-15.757-.516-1.71-.364-1.688-.389.988-1.08 1.506-.388 4.133-.711 5.836-.717 1.704-.006 5.461-.401 8.35-.88 5.353-.886 14.661-.823 32.682.222 7.78.45 19.072.378 28.888-.188 5.55-.32 11.57-.548 31.223-1.185 14.764-.479 35.427-1.409 40.268-1.812 4.15-.346 4.627.132 1.272 1.276-1.18.403-1.922 1.084-2.039 1.872-.155 1.05-.713 1.3-3.647 1.632-1.905.215-3.464.596-3.464.845 0 .25-1.379.648-3.064.886-1.685.237-2.67.556-2.189.708.482.152 1.32.836 1.865 1.52.916 1.15 1.454 1.23 7.295 1.077 3.468-.092 9.589-.354 13.6-.584 4.013-.23 9.266-.213 11.673.037 2.54.265 5.479.218 7.003-.111 1.445-.312 4.99-.969 7.879-1.46 2.889-.49 6.96-1.186 9.046-1.546 2.086-.36 4.318-.631 4.96-.603 2.093.093 6.908-1.247 11.655-3.242 4.652-1.956 6.493-2.406 5.897-1.442-.174.282-1.23.945-2.344 1.474-3.45 1.637-2.153 2.537 3.791 2.632 5.903.094 7.183.408 6.707 1.65-.23.596-.058.76.55.526 1.088-.418 1.173.559.105 1.2-.735.442-2.899 4.29-2.581 4.59.082.078 1.613.323 3.404.544l3.255.403 2.457-2.935c1.448-1.729 3.268-3.202 4.43-3.586 1.086-.358 2.313-1.06 2.728-1.56.63-.759.57-1.043-.36-1.723-1.833-1.34.042-2.248 4.222-2.042.723.036 1.313.428 1.313.873 0 1.056 2.527 2.693 4.156 2.693 1.211 0 1.226-.057.29-1.09-.939-1.039-.894-1.133.932-1.974 1.054-.485 2.95-1.066 4.212-1.29 1.625-.288 2.056-.554 1.478-.91-.623-.386-.427-.652.83-1.13 1.094-.416 1.533-.915 1.311-1.492-.388-1.013-.302-1.034 1.49-.359 1.661.627 3.977-.16 3.977-1.35 0-.908 2.812-2.66 4.27-2.66.453 0 1.451-.485 2.217-1.079.765-.593 2.114-1.254 2.996-1.47.883-.215 1.605-.65 1.605-.964 0-.315.657-.573 1.46-.573.802 0 1.458.203 1.458.451 0 .518-3.13 2.198-5.183 2.783-2.398.683-.106 1.442 3.195 1.058 1.887-.22 3.466-.08 4.326.38 1.353.723 1.353.725.17 1.674-1.727 1.383-2.075 3.454-.704 4.188.613.328 1.114.98 1.114 1.45 0 1.057-2.494 1.126-6.274.174-2.044-.514-2.761-.516-2.931-.007-.124.371-.919 1.466-1.768 2.433-1.204 1.372-2.026 1.758-3.747 1.758-1.375 0-2.15.256-2.058.682.08.375-.458.996-1.196 1.38l-1.34.7 1.432 1.702c3.518 4.181 1.39 5.409-4.35 2.51-3.302-1.666-7.948-4.453-8.699-5.218-.348-.355-1.448-.664-3.73-1.046-1.568-.263-1.661-.176-1.31 1.223.276 1.098.1 1.669-.646 2.103-.918.535-.888.599.288.615 1.767.024 1.67.969-.146 1.424-1.136.285-1.459.74-1.459 2.055 0 1.537-.223 1.723-2.48 2.074-3.894.606-4.565.904-4.393 1.95.136.825-.438.99-3.684 1.055-3.32.068-4.055.29-5.385 1.618-1.874 1.875-2.964 3.812-2.438 4.336.459.457 3.986.645 17.796.947 5.618.122 10.953.506 11.856.853.904.347 1.889.63 2.189.63 1.41 0 .328 1.074-1.351 1.341-1.043.166-2.947.56-4.231.876-1.284.316-8.349.738-15.7.938-11.747.32-13.454.486-14.104 1.375-.407.557-.666 1.087-.575 1.178.342.341 3.057.79 6.11 1.01 3.654.264 5.354 1.442 4.159 2.882-.549.661-.566.905-.061.905.379 0 .527.263.329.584-.199.32-1.118.583-2.043.583-1.39 0-1.66.227-1.56 1.313.242 2.644 1.1 3.267 4.934 3.586 2.013.167 3.873.435 4.133.596.436.27 5.024.36 12.92.254 1.764-.024 3.997.018 4.96.093.963.075 3.064.044 4.668-.07 1.653-.115 2.922.043 2.927.368.01.314.218.9.473 1.301.558.88-.346.938-2.95.191-1.033-.296-1.854-.362-1.824-.146.266 1.932-.279 2.958-1.936 3.644-1.018.422-1.568.861-1.222.977.44.146.452.848.042 2.333-.496 1.795-.425 2.242.458 2.888.949.693.887.764-.671.767-.944 0-2.675.27-3.848.595-3.619 1.006-6.972 1.099-7.315.204-.176-.458-1.096-.786-2.142-.765-1.623.032-1.69.095-.58.543.688.278 1.411.763 1.606 1.077.484.784-.209 2.427-1.026 2.433-.56.005-2.395 2.972-1.974 3.194.077.04.783.343 1.569.671 1.29.54 1.176.606-1.167.68-4.9.152-9.23.809-10.249 1.553-.716.524-1.031 1.592-1.06 3.595-.032 2.145-.314 3.01-1.142 3.496-1.599.94-.598 1.284 5 1.725 3.44.27 5.117.19 5.395-.26.498-.806 3.054-.862 3.54-.077.573.928 2.932.27 2.841-.792-.05-.605.373-.954 1.168-.96.686-.005 1.628-.249 2.093-.543.677-.428.531-.677-.73-1.252-.866-.395-1.574-1.054-1.574-1.465 0-.571 1-.666 4.231-.402 2.327.19 4.385.58 4.573.866.188.286 1.107.726 2.042.978 1.114.3 1.71.845 1.728 1.58.014.618.382 1.837.815 2.71.915 1.843.103 3.373-1.789 3.373-.602 0-1.095.394-1.095.876 0 .481.262.875.583.875.985 0 .647 3.265-.437 4.233-.562.5-2.176 1.219-3.587 1.594-4.323 1.152-7.294 3.66-7.898 6.666l-.34 1.696-13.566-.346c-11.032-.28-13.837-.193-15.024.472-.913.512-3.267.825-6.288.838-4.606.02-4.855.088-5.384 1.48-.305.802-.94 1.459-1.41 1.459-1.36 0-1.781 1.275-.687 2.075.616.45 2.136.636 3.957.484 2.344-.196 3.112-.033 3.71.786.627.857 1.74 1.045 6.556 1.111 6.458.089 10.051 1.232 10.051 3.197 0 1.067-.84 1.39-3.098 1.194-.58-.05-.903.154-.718.454.322.52-.703.718-7.75 1.496-1.707.188-4.333.829-5.836 1.423l-2.732 1.081 2.334.368c5.993.944 12.031 2.143 13.388 2.659 2.036.774 1.883 1.566-.274 1.416-6.9-.477-25.775-.862-26.772-.546-.674.214-1.508.918-1.854 1.565-.503.939-.415 1.338.438 1.984.934.708.301.823-5.06.92-3.37.06-6.522.049-7.003-.026-.482-.075-4.842-.148-9.69-.162-6.251-.019-9.9.248-12.548.915-5.144 1.297-9.628 3.068-9.277 3.664.16.273-.375.574-1.19.669-.814.095-1.827.727-2.25 1.404l-.77 1.232 6.045-.392c3.324-.215 8.276-.912 11.004-1.548 9.56-2.229 11.679-2.521 13.036-1.801 1.321.7 8.623.648 8.192-.058-.45-.738 5.795-.772 12.913-.07 3.852.379 7.791.688 8.754.686 1.73-.004 1.723-.017-.584-1.052-1.283-.576-2.571-.91-2.862-.742-.29.168-.36.035-.157-.295.348-.562 2.117-.851 10.462-1.71 3.832-.393 7.124.59 6.594 1.97-.177.461-.322 1.212-.322 1.667a.837.837 0 0 1-.84.828c-1.662 0-1.536 1.207.286 2.74 1.848 1.555 1.85 1.563.53 2.052-.73.27-2.808.446-4.619.391-1.811-.054-4.275.226-5.476.622-1.85.61-2.123.911-1.795 1.98.213.693.436 1.32.496 1.393.06.073 1.903.387 4.097.698 2.194.31 4.266.842 4.605 1.18.782.783.346.823-9.55.87-7.068.034-8.015.16-9.098 1.205-1.83 1.766-2.187 3.21-.794 3.21.631 0 1.148.306 1.148.68 0 .375-.159.522-.354.327-.365-.365-1.2.206-3.175 2.167-.635.63-1.14.824-1.14.437 0-.381-.278-.693-.617-.693-.34 0-.456.262-.258.583.199.321.084.584-.254.584-.372 0-.49-.785-.298-1.991.189-1.192.049-2.157-.351-2.403-.869-.537-3.474.862-3.474 1.866 0 .427-.553.777-1.23.777-.83 0-1.124.273-.907.84.22.575-.327 1.056-1.727 1.518-2.146.708-3.78 3.07-2.8 4.05.296.297 3.362.722 6.811.945 3.45.223 6.273.584 6.273.802 0 .218.786.282 1.747.14.96-.14 2.73-.072 3.93.154 2.03.38 2.098.457.965 1.087-.67.372-1.104 1.005-.964 1.407.175.499-.436.73-1.933.73-4.44 0-1.002.948 3.988 1.1 2.13.065 3.22 1.234 1.15 1.234-.57 0-1.503.544-2.073 1.21-.908 1.06-1.487 1.17-4.653.889-1.989-.177-6.702-.485-10.474-.684-5.984-.317-6.857-.247-6.857.549 0 1.881-2.116 2.241-6.117 1.041-3.197-.96-3.867-1.007-4.44-.317-.455.55-1.963.813-4.64.813-5.587 0-6.479.472-3.452 1.828 1.34.6 3.042 1.09 3.782 1.09.741 0 1.434.227 1.542.504.235.608 6.322 1.249 6.322.665 0-.226 1.616-.459 3.59-.518 1.975-.06 3.76-.213 3.967-.34.208-.129.71-.028 1.118.224.437.27-.687.607-2.739.822-3.778.395-6.665 1.437-6.175 2.23.17.274-.117.498-.637.498-.519 0-.8.234-.623.52.177.286-.595.692-1.716.902-1.219.228-2.038.723-2.038 1.231 0 .683-1.077.849-5.51.849-3.084 0-5.67.26-5.874.59-.235.381-3.191.458-8.35.215l-7.987-.374-6.42 2.47c-3.53 1.359-8.856 3.276-11.835 4.26-7.458 2.466-6.446 3.14 3.503 2.334 6.048-.489 17.756-.608 19.713-.2.16.033-.089.302-.555.596-1.02.645-6.183 1.075-17.537 1.461-13.393.456-16.924 1-16.924 2.61 0 1.202-2.128 1.426-19.77 2.084-10.905.407-22.112 1.312-28.845 2.33-3.146.474-5.903.821-6.128.77-.415-.094-8.307.584-11.496.989-2.177.276-21.887.448-39.685.346-7.383-.042-14.08.048-14.882.2-7.707 1.46-39.31 2.721-46.688 1.863a384.99 384.99 0 0 1-4.67-.583c-4.036-.531-23.419-1.211-30.93-1.085-3.691.062-8.454.399-10.583.748-7.395 1.214-49.871.527-56.328-.911-1.74-.388-10.825 1.134-12.167 2.038-.321.216-2.816.432-5.545.48-2.728.048-6.445.247-8.26.443-2.996.323-3.336.243-3.687-.863-.47-1.482-2.735-1.619-5.234-.316-1.79.933-5.81.631-13.611-1.023-2.416-.512-3.377-.488-4.503.115-1.573.842-1.43 1.547.485 2.392.863.38-.438.481-4.175.322-3.754-.159-5.647-.012-6.137.478-.576.577-9.13 1.633-12.654 1.563-4.17-.083-14.963-1.358-17.683-2.089-1.86-.5-4.29-.909-5.398-.909-1.569 0-5.752 1.682-8.412 3.383-.148.095.067.711.479 1.37 1.018 1.63.583 1.875-2.516 1.41-1.735-.26-2.653-.689-2.653-1.238 0-.585-.681-.84-2.245-.84-1.235 0-3.053-.403-4.041-.896-1.934-.964-6.98-.865-7.638.151-.206.317-1.557.727-3 .911-1.445.184-3.284.482-4.086.664-4.438 1-8.438.462-14.212-1.914l-5.75-2.367-3.005 1.213a232.482 232.482 0 0 1-5.63 2.176c-1.444.53-2.889 1.121-3.21 1.312-.32.192-1.568.666-2.772 1.054-2.295.74-2.906 1.72-1.167 1.87.562.05 1.372.117 1.801.15.429.035 1.085.454 1.46.933.455.585 1.7.864 3.784.849 1.708-.013 3.217.156 3.352.376 1.13 1.828-15.083 1.121-26.321-1.147-4.803-.97-10.603-1.91-12.888-2.09-5.214-.411-10.275-1.356-10.697-1.997-1.315-1.998-8.007-2.715-9.841-1.055-.66.596-2.064.975-3.616.975-1.397 0-3.346.242-4.331.539-3.446 1.036-7.7 1.541-9.699 1.152-4.01-.782-10.873-1.062-11.468-.467-.96.96-3.77-.013-3.4-1.178.535-1.688-2.306-2.244-6.99-1.367-2.246.42-4.172 1.02-4.28 1.334-.106.314-.662.57-1.234.57s-1.69.512-2.484 1.137c-1.272 1-1.884 1.073-5.125.615-3.194-.451-3.99-.363-6.003.664-2.447 1.249-2.535 1.242-7.145-.515-4.947-1.887-6.528-2.007-9.523-.726-1.498.641-3.774 1.146-5.058 1.122-2.13-.04-4.992-.06-11.81-.084-3.747-.014-4.992.526-6.416 2.778-1.548 2.45-1.228 2.696 3.656 2.812 1.754.042 3.19.273 3.19.514 0 .24-.197.447-.438.46-.795.04-5.073.586-7.003.895-1.104.176-1.897.648-1.897 1.13 0 1.282-4.243 2.13-10.135 2.024-13.81-.249-42.914.497-45.015 1.152-.963.301-3.327.725-5.253.944-1.925.218-3.794.629-4.151.913-.358.285-2.49.58-4.74.658l-4.088.14 1.383 1.285c.761.707 1.383 1.517 1.383 1.8 0 1.279-4.934 2.033-15.078 2.304-9.963.266-10.683.358-10.426 1.341.198.757-.16 1.184-1.262 1.507-2.286.672-2.391.64-3.177-.942-.652-1.31-1.127-1.476-4.688-1.632-3.745-.164-4.122-.059-6.891 1.93-2.876 2.066-5.637 2.562-5.295.951.09-.421-.37-.905-1.021-1.075-.651-.17-1.184-.542-1.184-.825 0-.629-4.698-.621-10.213.016-2.247.26-4.348.27-4.67.024-.781-.602-10.993.064-10.38.677.264.264 1.526.725 2.804 1.024 2.132.499 2.18.55.574.61-4.04.154-5.766 1.431-2.903 2.15 1.882.472 2.978 2.304 1.677 2.803-1.68.645-3.735.377-3.735-.486 0-.937-2.006-1.77-2.913-1.21-1.22.755-.615 3.014 1.004 3.752 1.421.648 1.482.786.57 1.297-.56.314-.86.829-.666 1.144.67 1.083-1.051 2.273-3.286 2.273-1.615 0-2.47.344-3.102 1.245-.742 1.06-.991 1.125-1.67.438-.44-.444-.973-1.267-1.186-1.829-.524-1.385-3.99-1.57-5.544-.297-.931.763-8.67.182-9.774-.735-.976-.81-2.882.083-3.788 1.775-.34.635-1.002 1.154-1.472 1.154s-.855.52-.855 1.156c0 .747-.517 1.286-1.459 1.522-.802.202-1.459.706-1.459 1.122 0 .415-.827 1.043-1.838 1.395-2.157.752-2.247.762-2.247.25zm10.248-9.803c.816-.618.898-.862.291-.875-1.289-.029 1.18-1.729 2.544-1.751 1.73-.029.89-.4-1.858-.821-2.448-.375-2.488-.354-2.366 1.248.068.897-.074 1.951-.317 2.343-.603.976.33.897 1.706-.144zm12.95.489c.723-.194 1.314-.673 1.314-1.066 0-.856-2.33-1.993-3.356-1.639-.401.139-.73.53-.73.869 0 .339-.46.965-1.02 1.391-.923.7-.851.777.729.786.963.006 2.341-.147 3.063-.341zm.995-4.258c.205-.332 1.063-.332 2.22 0 1.036.297 1.945.54 2.02.54.587 0 1.912-3.812 1.589-4.575-.226-.533-.441-2.085-.479-3.449-.053-1.922-.292-2.48-1.063-2.48-.548 0-1.651-.299-2.453-.664-2.105-.96-5.822.797-5.283 2.496.276.869.059 1.25-.849 1.487-1.577.412-1.546 1.012.094 1.812l1.313.64-1.33.397c-1.03.307-1.243.676-.948 1.637.209.682.413 1.268.454 1.3 1.564 1.276 4.165 1.75 4.715.86zm-37.032-8.156c2.012-1.457 2.297-3.128.49-2.875-.844.118-1.311-.082-1.224-.525.175-.885-3.159-2.694-3.612-1.96-.18.29-.166.946.03 1.457.2.52.057.928-.325.928-.374 0-.518.262-.32.583.199.321.086.584-.25.584-.753 0-.553 2.46.25 3.07.809.614 3.216 0 4.961-1.262zm22.76-5.018c1.44-.823 1.426-.834-1.002-.855-1.954-.016-2.393.16-2.127.855.415 1.08 1.24 1.08 3.13 0zm-27.783-2.966c.662-1.725.405-2.56-.667-2.165-2.029.749-2.629 3.088-.792 3.088.608 0 1.264-.415 1.459-.923zm-3.731-1.703c0-.481-.263-.875-.584-.875-.32 0-.583.394-.583.875 0 .482.262.876.583.876.321 0 .584-.394.584-.876zm192.005-5.485c5.03-.088 5.588-.327 6.167-2.632.264-1.054.21-1.554-.148-1.334-.313.194-4.62.624-9.568.956-4.949.331-9.392.694-9.873.807-.482.113-1.851.407-3.044.652-1.192.246-2.463.803-2.824 1.238-.548.66.628.758 7.128.59 4.282-.11 9.755-.235 12.162-.277zm15.541-.022c.041-.02.411-.849.823-1.842.618-1.492.61-1.889-.048-2.295-.437-.27-1.068-.323-1.401-.116-.334.206-1.66.386-2.946.399-1.974.02-2.368.23-2.526 1.34-.112.787.18 1.456.726 1.666.502.192.758.6.569.907-.253.409 3.942.356 4.803-.06zm-190.879-7.313c1.48-1.12 3.186-1.114 4.801.018 1.677 1.174 5.01.897 5.263-.438.105-.554-.465-1.41-1.302-1.96-1.672-1.095-5.587-1.669-5.587-.819a.561.561 0 0 1-.565.554c-.31 0-.41-.405-.22-.9.19-.494.116-.857-.164-.806-2.374.434-3.124-1.58-.936-2.51l1.594-.678-1.523-.21c-1.586-.219-3.272-2.503-2.623-3.553.205-.332 1.545-.483 3.01-.34 2.736.269 5.152-.547 4.795-1.618-.112-.338-1.507-.687-3.1-.776-1.591-.09-3.684-.34-4.649-.559-2.018-.456-3.67.677-5.008 3.434-.453.933-1.218 1.877-1.699 2.098-.481.22-1.463.704-2.18 1.075-.718.37-2.032.676-2.919.678-.887.002-2.4.525-3.363 1.163-.963.638-1.454 1.161-1.09 1.164.362.002 1.48.843 2.483 1.869 1.492 1.525 2.702 2.047 6.635 2.86 6.144 1.27 6.97 1.294 8.347.254zm283.42-1.944c.364-.364-.021-1.108-1.082-2.092-1.798-1.667-2.28-1.828-2.826-.944-.199.321-1.512.584-2.918.584-3.12 0-3.885.96-1.99 2.496 1.16.94 2.003 1.086 4.83.83 1.882-.17 3.676-.564 3.987-.874zm3.97-1.212c0-.28.854-.687 1.897-.903 1.808-.374 1.844-.432.764-1.24-1.731-1.295-3.407-1.114-2.953.32.26.814.105 1.166-.51 1.166-.484 0-1.042.263-1.24.584-.199.321.18.584.84.584.661 0 1.202-.23 1.202-.511zm88.275-.444c.886-.17 1.479-.52 1.319-.78-.161-.26.625-.644 1.745-.854 1.12-.21 2.038-.602 2.038-.871 0-.958-2.618-1.158-3.926-.3-.73.478-1.327.738-1.327.578 0-.16-.722-.024-1.605.302l-1.604.593 1.604-1.405c.883-.773 1.605-1.638 1.605-1.924 0-.666-2.858-1.928-4.377-1.933-.642-.002-1.982-.166-2.977-.366-1.316-.264-2.62.047-4.774 1.139-3.713 1.881-3.978 2.319-2.004 3.314.872.44 2.026 1.237 2.566 1.771.784.777 1.486.876 3.501.497 1.387-.26 2.98-.652 3.542-.87.596-.23 1.022-.127 1.022.25 0 .356-.394.646-.876.646-.481 0-.875.284-.875.63 0 .398.7.494 1.897.26 1.043-.203 2.62-.508 3.506-.677zm-366.07-1.088c.86-.492 1.1-.84.584-.847-1.502-.021-3.502.668-3.502 1.207 0 .75 1.245.596 2.918-.36zm319.073-.542c2.748-.553 8.312-2.991 8.32-3.647.011-.909-6.327-3.258-7.952-2.948-.885.17-1.18.005-.97-.54.535-1.394-1.972-1.204-5.507.416-1.361.623-2.74 1.133-3.064 1.133a.589.589 0 0 0-.59.584c0 .32-.657.583-1.46.583-.802 0-1.458.263-1.458.584 0 .321.262.584.583.584.321 0 .584.262.584.583 0 .321-.772.584-1.716.584-1.777 0-2.816.822-1.819 1.438.313.194 2.435.448 4.716.564 2.28.117 4.327.394 4.547.615.362.363 2.144.199 5.786-.533zm9.788-2.084c.198-.321-.034-.584-.515-.584-.482 0-1.038.263-1.236.584-.199.32.033.583.514.583.482 0 1.038-.262 1.237-.583zM414 499.394c1.796-.854 3.462-1.553 3.701-1.553.24 0 1.103-.525 1.92-1.167l1.483-1.167-2.85-.12c-1.568-.067-4.033-.17-5.477-.23-1.445-.06-4.15-.531-6.01-1.047-5.682-1.574-7.828-.945-7.748 2.272.036 1.478-.161 1.73-1.27 1.612-.722-.077-1.313.12-1.313.437 0 .318.59.585 1.313.594.722.009 2.757.53 4.523 1.157 4.072 1.448 7.51 1.217 11.728-.788zm27.373 1.365c.682-.44.521-.568-.73-.575-.882-.005-1.604.254-1.604.575 0 .738 1.192.738 2.334 0zm84.83-.558c.387-.387.231-.97-.465-1.739-.576-.636-1.227-2.021-1.447-3.077-.347-1.67-.624-1.912-2.12-1.854-2.427.094-8.61 1.407-9.306 1.976-.321.263-1.934.21-3.583-.118-2.69-.534-3.122-.473-4.183.588-1.395 1.395-1.106 1.864 1.151 1.864 1.081 0 1.654-.303 1.654-.875 0-.482.394-.876.875-.876.5 0 .876.525.876 1.222 0 1.136.215 1.194 3.064.82 2.746-.36 2.949-.314 1.954.44-1.222.926-.874 1.339 1.885 2.236 1.921.625 8.85.189 9.645-.607zm-419.235-1.286c0-.653-.755-.618-2.714.127-1.224.465-1.426.739-.821 1.112.859.531 3.535-.408 3.535-1.24zm384.76.315c3.763-1.89 3.788-1.914 2.736-2.579-.628-.397-.31-.552 1.184-.576 1.124-.019 2.916-.5 3.984-1.068 2.707-1.444 1.41-2.299-3.254-2.147-2.006.066-3.648.057-3.648-.019s.854-.713 1.897-1.417c1.043-.703 1.371-1.112.73-.908-3.002.952-11.896 4.664-12.851 5.363-1.591 1.163-.513 1.73 1.638.86 7.2-2.909 7.419-2.962 7.419-1.814 0 .587.328 1.2.73 1.362.4.162-.069.315-1.044.34-2.21.058-8.046 2.074-8.312 2.872-.186.558 1.38.973 4.414 1.173.733.048 2.703-.601 4.377-1.442zm48.414-1.561c1.843-.768 3.178-1.568 2.967-1.779-.21-.21-1.6-.383-3.087-.383-1.488 0-2.954-.25-3.259-.554-.305-.305-1.612-.723-2.904-.93-1.85-.295-2.652-.13-3.774.78-1.155.934-1.291 1.315-.72 2.004.388.467.533 1.022.322 1.234-.211.21.069.384.623.384.613 0 .844.263.59.674-.681 1.103 5.433.156 9.242-1.43zm-7.882.1c.396-.4.866-.579 1.046-.399.18.18-.144.506-.72.725-.831.317-.898.25-.326-.326zm46.636-2.726c1.237-.656 3.104-1.54 4.147-1.966 2.565-1.046 2.4-1.862-.292-1.439-4.83.76-6.994.978-11.494 1.156-2.806.11-5.406.556-6.45 1.104l-1.75.918 2.182.41c1.201.225 2.58.257 3.063.071.56-.214.88.004.88.6 0 .794.57.89 3.732.637 2.1-.168 4.715-.82 5.982-1.491zm126.266-.073c10.874-.806 50.739-1.335 59.077-.784 4.622.306 8.886.211 13.131-.29 3.458-.41 7.993-.773 10.08-.807 7.206-.12 18.975-1.202 21.301-1.959 3.08-1.002 11.807-1.656 20.138-1.509 3.693.065 8.026-.184 9.63-.553 4.044-.932 11.96-1.345 11.96-.625 0 .317.46.49 1.021.382.562-.108 2.773-.363 4.913-.567 7.22-.69 23.305-3.23 24.3-3.84.706-.43-.683-.521-4.847-.315-3.21.158-11.351.444-18.092.634-11.406.322-15.325.605-28.305 2.044-13.821 1.532-17.213 1.612-46.104 1.093-14.97-.269-23.48.265-24.767 1.552-1.372 1.372-32.815 1.666-46.433.433-18.023-1.631-42.02-1.042-42.02 1.032 0 .292-.722.566-1.604.61-1.284.064-1.354.128-.352.325.69.134 1.377.716 1.528 1.292.335 1.28 2.742 1.702 12.392 2.172 3.852.188 7.063.394 7.135.459.221.198 7.635-.165 15.918-.779zm-598.668-.446c-.421-.168-.924-.147-1.118.046-.194.194.15.332.766.307.68-.028.818-.166.352-.353zm553.085-.512c.14-.14-.722-.256-1.918-.256s-2.023.244-1.839.543c.313.506 3.184.286 3.757-.287zm-47.936-.402c-.284-.866-3.943-1.352-3.943-.523 0 .706 1.03 1.146 2.82 1.206.843.029 1.271-.232 1.123-.683zm41.42.304c-1.212-.127-3.05-.125-4.086.005-1.036.128-.046.232 2.202.23 2.246-.004 3.094-.109 1.883-.235zm-557.183-1.52c.615-.259.543-.328-.243-.233-.616.075-1.227.53-1.358 1.011-.153.563-.067.647.243.234.266-.353.877-.808 1.358-1.011zm536.826.466c7.367-.169 9.707-1.04 4.454-1.657-3.568-.419-9.32-1.953-14.09-3.756-2.254-.853-3.618-1.03-5.42-.7-2.928.536-3.332.881-2.375 2.034.608.733.577.89-.174.89-.502 0-1.075-.263-1.273-.584-.527-.852-3.977-.713-5.24.21-.986.721-.822.835 1.77 1.223 1.932.29 3.298.906 4.225 1.906 1.334 1.44 1.498 1.467 6.435 1.032 2.786-.246 8.046-.515 11.688-.598zm-72.861-.837c0-.31-.394-.414-.876-.229-.481.185-.875.44-.875.565 0 .126.394.23.875.23.482 0 .876-.255.876-.566zm43.583-.135c1.066-.386 1.938-.89 1.938-1.123 0-.232-3.433-.426-7.629-.43-6.464-.007-7.525.115-6.952.806.43.517 2.202.888 4.856 1.015 2.3.11 4.556.253 5.014.317.46.064 1.707-.2 2.773-.585zm-218.518-2.02c-.402-.162-1.058-.162-1.46 0-.4.162-.072.294.73.294.802 0 1.13-.132.73-.294zm106.653-4.376c0-.668-1.01-.616-2.39.123-1.654.885-.79 1.815.952 1.022.79-.36 1.438-.876 1.438-1.145zm53.248-1.216c1.89-.665 1.894-.672.444-1.064-1.386-.376-5.174-.196-8.025.38-.722.145-1.313.688-1.313 1.205 0 .803.507.882 3.496.544 1.922-.218 4.352-.697 5.398-1.065zm41.004-5.11c.198-.321-.18-.584-.841-.584-.66 0-1.202.263-1.202.584 0 .32.379.583.841.583.463 0 1.004-.262 1.202-.583zm276.336-4.117c18.751-1.443 21.038-2.531 4.375-2.083-15.204.41-20.716.966-20.716 2.092 0 .606 4.046 1.082 6.712.79.963-.107 5.296-.466 9.63-.8zm106.325-7.37c-.421-.169-.924-.148-1.118.046-.194.194.15.332.766.306.68-.028.818-.166.352-.352zm-405.514-17.217c2.737-1.403 2.13-2.02-1.108-1.125-1.18.326-2.837.457-3.682.292-.91-.177-2.014.068-2.704.601-1.012.78-1.05.983-.292 1.516 1.184.832 4.83.23 7.786-1.284zm5.783 1.244c1.203-.335 2.188-.858 2.188-1.164 0-1.182-6.266-.165-7.85 1.274-.774.705 2.992.631 5.662-.11zm169.301-1.643c1.023-.403 1.026-.467.057-1.272-1.519-1.262-17.768-1.624-17.768-.395 0 1.134 3.187 1.616 8.082 1.223 2.838-.228 3.647-.145 3.007.31-.662.47-.091.615 2.334.59 1.766-.017 3.695-.223 4.288-.456zm-158.319-2.186c2.202-.654 4.558-.862 7.714-.68 4.764.276 4.97-.005 1.356-1.847-1.9-.97-2.685-1.045-5.8-.557-1.98.31-4.39.796-5.353 1.078-.962.283-2.742.681-3.955.885-2.395.403-2.507 1.477-.127 1.216.8-.088 1.456.066 1.456.343 0 .73 1.131.625 4.71-.438zm199.078-2.375c-.421-.169-.924-.148-1.118.046-.194.194.15.332.766.306.68-.028.818-.166.352-.352zm4.56-.31c0-.252-.672-.459-1.494-.459-.821 0-1.341.246-1.156.547.402.649 2.65.575 2.65-.087zm-695.926-1.4c-.264-2.412-2.124-3.207-4.107-1.757-1.034.756-.961.877 1.201 2.017 2.97 1.566 3.106 1.554 2.906-.26zm711.935.865c8.334-1.04 8.056-1.772-.544-1.433-7.7.303-8.906.44-12.547 1.422-3.102.837 6.407.844 13.091.01zm68.577-3.77c.842-.886.644-.932-2.59-.611-1.926.19-5.53.52-8.01.73-2.8.239-4.37.607-4.144.973.232.376 2.803.458 7.098.228 5.146-.276 6.949-.587 7.646-1.32zm6.164-.823c-.198-.32-.87-.583-1.493-.583-.624 0-1.133.262-1.133.583 0 .321.672.584 1.493.584.847 0 1.338-.253 1.133-.584zm-273.864-2.409c-.76-.723-7.141-1.281-7.141-.625 0 .332.328.731.73.889 1.119.438 6.9.201 6.411-.264zm65.226-.527c0-1.015-1.633-1.302-4.53-.798l-2.765.482 3.21.364c1.765.2 3.406.407 3.647.459.24.052.438-.176.438-.507zm-152.337-.543c1.036-.655.717-.795-3.957-1.736-2.476-.498-3.412-.456-4.668.209-1.17.618-1.348.91-.696 1.14 2.616.92 8.116 1.15 9.321.387zm389.426-.653c5.354-.727 6.771-1.325 4.869-2.055-.452-.174-3.79.097-7.418.601-3.628.505-7.822.918-9.32.918-1.79 0-2.991.321-3.503.938-.708.853-.305.912 4.451.654 2.877-.155 7.791-.63 10.92-1.056zm41.29.093c0-.988-.372-1.102-3.1-.95-6.802.378-7.245 2.046-.548 2.062 3.212.008 3.648-.124 3.648-1.112zm7.707.387c-1.403-.45-2.104-.434-2.597.06-.511.51-.044.66 1.922.615l2.597-.06-1.922-.615zm-346.982-.75c.481-1.255.006-1.553-1.773-1.107-1.754.44-1.999 1.215-.506 1.605 1.761.46 1.924.425 2.279-.498zm114.171-.078c.264-.163 2.927-.271 5.919-.24 4.259.045 5.601-.14 6.191-.85.68-.818-.283-.872-9.701-.543-6.868.24-11.219.654-12.682 1.207-1.225.464-2.43.718-2.676.565-.247-.153-1.215-.046-2.15.238-1.075.326 1.304.406 6.46.218 4.487-.164 8.375-.432 8.64-.595zm-62.613-.544c0-.125-.919-.228-2.042-.228-1.124 0-2.043.21-2.043.466 0 .257.92.36 2.043.228 1.123-.13 2.042-.34 2.042-.466zm106.07-.073c-1.525-.12-4.02-.12-5.544 0-1.525.12-.277.218 2.772.218 3.05 0 4.297-.098 2.772-.218zm-64.371-.705c-.305-.302-2.459-.68-4.786-.841-3.43-.236-4.231-.132-4.231.55 0 .664 1.007.841 4.785.841 2.997 0 4.579-.206 4.232-.55zm-175.476-.523c.57-.362.477-.712-.396-1.503-1.207-1.092-2.195-.977-5.763.673-1.722.797-2.016.793-2.931-.035-.674-.61-1.304-.744-1.863-.398-.737.455-.735.558.013.8.473.152 1.253.408 1.735.568 1.444.482 8.406.402 9.205-.105zm148.367-.094c0-.321-.54-.584-1.201-.584s-1.04.263-.841.584c.198.32.739.583 1.201.583.463 0 .841-.262.841-.583zm116.586-.838c.606-.606-4.814-.32-5.701.301-.64.448-.035.534 2.248.32 1.718-.16 3.272-.44 3.453-.62zm-132.927-1.022c2.087-.32 4.188-.67 4.67-.776a51.825 51.825 0 0 1 1.166-.247c.16-.029-.062-.278-.495-.552-1.31-.83-10.951-.801-12.293.037l-1.192.744 1.207.646c1.557.834 2.357.85 6.937.148zm-60.986-2.196c3.31-1.583 3.406-1.686 1.75-1.877-.962-.111-2.67.12-3.793.514-1.123.394-3.167.998-4.54 1.344-1.374.345-2.344.878-2.154 1.184.687 1.112 5.245.504 8.737-1.165zm-514.45-2.652c.595-.716.486-1.066-.608-1.952-1.303-1.055-3.398-1.161-6.913-.352l-1.397.322 1.333.934c1.286.9 3.941 1.736 5.912 1.86.523.033 1.276-.333 1.674-.812zm40.004-6.093c-.211-.342-1.091-.592-1.955-.554-1.21.052-1.303.132-.403.348.642.154 1.412.514 1.712.798.691.657 1.155.232.646-.592zm816.586.107c.171-.519-.614-.73-2.726-.73-2.781 0-3.531.41-2.55 1.39.676.677 5.015.134 5.276-.66zm-802.311-6.062c0-1.3-3.443-4.736-4.384-4.375-.4.154-1 .005-1.334-.328-.79-.79-5.577-.724-5.846.08-.113.34-.578.618-1.032.618-1.104 0-1.05 2.035.099 3.789.885 1.35 1.182 1.409 6.711 1.313 5.027-.088 5.786-.231 5.786-1.097zm475.903-15.637c.467-.754-1.994-2.374-3.606-2.374-1.5 0-1.579.194-.725 1.789.634 1.185 3.704 1.6 4.331.585zm70.641-1.499c0-.32-.722-.667-1.605-.768-1.17-.135-1.605.073-1.605.768 0 .695.434.903 1.605.768.883-.101 1.605-.447 1.605-.768zm-56.649-1.395c.523-.846-2.568-2.515-4.658-2.515-1.064 0-2.918.324-4.119.72-2.033.672-2.11.777-1.095 1.518 1.228.899 9.347 1.126 9.872.277zm333.131-12.389a7.158 7.158 0 0 0-3.793 0c-1.661.48-1.425.548 1.896.548 3.322 0 3.558-.068 1.897-.548zm27.867-2.265c0-.32-.51-.584-1.133-.584s-1.295.263-1.493.584c-.205.331.286.584 1.133.584.821 0 1.493-.263 1.493-.584zm-404-19.043c2.077-.556 1.575-1.581-.565-1.153-2.241.448-3.583 1.525-1.885 1.513.626-.005 1.729-.167 2.45-.36zm-92.646-1.383c0-.321-.394-.584-.876-.584h-1.313c-.24 0-.525.263-.632.584-.107.32.484.584 1.313.584.83 0 1.508-.263 1.508-.584zm519.335-1.368c1.266-1.023 4.74-1.035 4.74-.017 0 .984 2.97.643 6.336-.728 1.078-.438 2.194-.652 2.48-.475.287.177.522.045.522-.296 0-.34.394-.618.876-.618.486 0 .875-.518.875-1.167 0-1.323.098-1.313-13.569-1.405-8.237-.055-9.113.214-6.893 2.114.804.689 1.212.769 1.412.276.156-.381.303-.233.329.328.025.562-.348 1.022-.83 1.022-.497 0-.875.524-.875 1.213 0 1.064.235 1.164 1.897.808 1.043-.223 2.258-.698 2.7-1.055zm-319.312-1.916c1.708-.458 1.107-1.383-.903-1.391-.864-.005-2.884-.416-4.489-.917-7.481-2.334-21.084-.946-14.21 1.45 2.342.816 6.63.821 9.254.01 2.83-.875 5.887-.732 6.944.325.974.974 1.45 1.047 3.404.523zm63.58-.286c-1.45-.844-19.567-1.453-18.782-.632.84.879 3.087 1.1 11.964 1.179 5.788.05 7.597-.094 6.818-.547zm-120.626-.453c.799-.222 1.193-.555.875-.74-.318-.185-1.628-.005-2.912.401-1.757.556-1.974.739-.875.74.802 0 2.112-.178 2.912-.4zm-472.72-1.23c.265 0 .344-.525.176-1.167-.224-.857-.016-1.17.784-1.18.6-.007 1.746-.527 2.549-1.154.802-.628 1.787-1.147 2.188-1.154.401-.007.73-.232.73-.498 0-.267.656-.837 1.459-1.266.802-.43 1.459-1.105 1.459-1.5 0-.866 3.03-2.002 5.34-2.002 1.242 0 1.663-.279 1.663-1.105 0-1.414-1.633-2.053-2.795-1.093-.715.589-.946.591-1.142.01-.135-.402-.88-.73-1.656-.73-.776 0-1.44.328-1.478.73-.037.4-.128.992-.203 1.313-.074.32-.175.977-.224 1.459-.067.657-.992.91-3.716 1.016-2.873.111-3.897.414-4.933 1.459-.718.725-1.713 1.657-2.21 2.07-1.28 1.068-1.117 2.416.359 2.962 1.079.4 1.121.52.292.838-.533.205-.97.671-.97 1.036 0 .367.415.506.924.31.507-.194 1.14-.354 1.404-.354zm837.138.23c2.557-.981.054-1.397-8.414-1.397-6.149 0-9.338.21-9.338.615 0 .38 1.45.567 3.799.491 2.089-.068 3.97.05 4.182.261.483.483 8.527.507 9.771.03zm-416.353-1.284c0-.26-1.03-.926-2.29-1.482-1.26-.556-3.558-2.18-5.107-3.608-2.965-2.734-3.65-2.985-5.482-2.005-1.107.593-1.104.641.148 2.335 1.088 1.471 1.67 1.73 3.906 1.73 2.416 0 2.537.066 1.495.831-1.1.808-1.09.847.327 1.375.802.3 1.853.692 2.334.873 1.36.512 4.669.477 4.669-.05zm138.897-1.272c1.347-.083 1.37-.129.292-.592-1.617-.695-18.475-.695-19.55 0-.628.406.033.583 2.334.626 1.765.033 4.523.235 6.128.449 1.605.213 4.362.212 6.128 0 1.765-.215 3.866-.431 4.668-.48zm63.176.773c-.402-.162-1.058-.162-1.46 0-.4.162-.072.294.73.294.802 0 1.13-.132.73-.294zm26.804.018c2.014-.333 2.113-.447 1.589-1.825-.307-.809-.486-1.527-.397-1.595 1.34-1.031 3.367-1.256 9.42-1.043 3.896.136 7.45.366 7.896.51 1.336.432.19 1.038-2.734 1.447-1.511.211 4.818.419 14.066.462 11.12.051 16.69-.12 16.45-.508-.199-.322-.964-.434-1.701-.25-.82.206-2.08-.114-3.25-.825-1.051-.64-2.244-1.034-2.651-.878-.407.156-.94-.038-1.182-.43-.33-.535.06-.621 1.546-.342 1.472.276 1.73.22.997-.213-.556-.328-2.078-.411-3.466-.19-2.113.339-2.288.466-1.198.87.703.259 1.257.808 1.231 1.22-.036.586-.11.59-.34.019-.162-.401-.776-.73-1.364-.73-.589 0-1.169-.294-1.289-.654-.127-.381-2.039-.738-4.571-.853-2.395-.11-6.192-.32-8.439-.47-15.146-1.01-23.38-1.068-25.498-.181-1.938.813-2.228.813-2.9.005-.629-.759-1.792-.836-7.475-.498-10.134.603-29.19.46-37.02-.277-7.709-.726-10.41-.46-9.048.895.533.53 2.741.923 6.304 1.121 3.015.167 5.588.41 5.717.539.129.129-.697.409-1.836.622-2.018.379-2.802 1.205-1.34 1.412 6.14.87 8.938 1.064 12.11.841 2.086-.147 5.238-.275 7.003-.285 7.677-.044 8.747.097 9.765 1.286.93 1.085 1.717 1.167 11.228 1.16 5.627-.004 11.196-.166 12.377-.36zm-195.863-1.448c.616-.997-1.008-1.724-2.959-1.324-2.243.46-2.724.758-2.309 1.43.473.765 4.783.678 5.268-.106zm-15.98-1.598c2.096.125 8.738-1.262 10.379-2.167 1.33-.734.987-.786-3.485-.527-2.729.159-5.749.523-6.712.811-.963.288-2.473.683-3.356.879-1.1.243-1.604.724-1.604 1.526 0 1.108.092 1.123 1.714.284.944-.487 2.322-.85 3.064-.806zm35.952-.277c2.57-1.057 3.05-1.481 2.862-2.534-.204-1.147-.085-1.208 1.29-.656 1.82.73 6.455.62 7.415-.176.378-.314.912-.51 1.187-.435 1.23.336 3.125-.84 3.125-1.94 0-1.09-.238-1.15-3.064-.763-1.685.23-3.72.691-4.523 1.024-.802.333-1.721.541-2.042.462-.321-.079-2.291-.28-4.377-.447-2.087-.167-4.043-.539-4.348-.826-.933-.88-3.408-.637-3.05.298.467 1.214-1.713 3.012-2.679 2.21-1.349-1.119-9.21-1.027-12.684.149l-2.626.888 2.334-.285a79.915 79.915 0 0 0 4.184-.634c1.53-.289 2.083-.074 3.21 1.25 1.795 2.108 6.529 4.196 8.864 3.91 1.009-.124 3.224-.797 4.922-1.495zm28.84 1.295c-1.044-.916-4.7-1.689-7.99-1.689-3.863 0-4.73.342-3.778 1.49.412.496 2.415.697 6.39.642 3.186-.044 5.605-.243 5.378-.443zm236.238.03c1.444-.207 2.232-.447 1.75-.533-.481-.086-1.072-.126-1.313-.088-.24.038-.372-.259-.291-.66.08-.401-.18-.665-.577-.586-.432.086-.666-.383-.583-1.167.13-1.24-.097-1.32-4.168-1.484-4.141-.166-4.294-.125-3.982 1.067.243.929.107 1.157-.539.91-.474-.183-.72-.102-.547.18.488.79-1.256 1.957-3.642 2.437-2.682.54 10.08.47 13.892-.076zm-6.566-3.273c.401-.161 1.058-.161 1.46 0 .4.162.072.295-.73.295-.803 0-1.131-.133-.73-.295zm-379.087 2.906c-.42-.168-.924-.148-1.118.046-.194.194.15.332.766.307.68-.028.818-.166.352-.353zm72.17-.485c.663-.664-.89-1.45-2.865-1.45-2.407 0-3.32 1.387-1.278 1.943.975.265 3.71-.06 4.142-.493zm318.151.335c0-.689-1.138-1.425-1.556-1.007-.418.418.319 1.556 1.007 1.556a.55.55 0 0 0 .55-.55zm6.712-.618c-.198-.321-.105-.584.209-.584.313 0 .678.326.81.724.17.511.564.402 1.336-.37.602-.601 1.184-.824 1.294-.494.236.706 2.479.243 2.479-.511 0-.284-1.03-.516-2.287-.516-1.258 0-2.768-.173-3.356-.385-.588-.211-.874-.17-.636.092.592.653-.708 2.123-1.464 1.655-.353-.218-.434-.093-.192.299.23.37.81.673 1.292.673s.713-.262.515-.583zm20.134.02c1.445-.021 3.02-.297 3.502-.613 1.561-1.025-.548-1.729-4.368-1.458-1.921.137-5.018.304-6.883.37-1.864.068-3.528.347-3.697.62-.168.273-.548.347-.843.164-.295-.182-.384.067-.197.553.276.72 1.23.84 5.1.643 2.618-.132 5.942-.258 7.386-.28zm46.105-1.5c3.49-.436 7.403-1.816 6.816-2.404-.202-.202-4.025-.024-8.497.396-6.573.617-8.069.921-7.812 1.59.467 1.218 2.509 1.794 4.52 1.275.97-.25 3.208-.636 4.973-.856zm-119.785-.056c2.462-.66 1.322-1.39-1.75-1.122-1.686.147-3.261.28-3.502.295-.24.016-.438.29-.438.612 0 .639 3.601.775 5.69.216zm137.147-.034c-.562-.147-1.48-.147-2.043 0-.561.147-.102.267 1.022.267 1.123 0 1.583-.12 1.021-.267zm-88.562-1.349c0-1.205-1.946-1.684-2.592-.638-.18.291.198.392.84.224.813-.212 1.169-.018 1.169.638 0 .52.131.944.292.944.16 0 .291-.526.291-1.168zm-208.083-.651c.323-.301-1.498-.496-4.378-.468-4.672.045-4.84.09-3.18.856 1.817.84 6.495.6 7.558-.388zm42.048-.187c-5.31-3.191-5.645-3.291-10.683-3.192-3.19.063-4.97.34-5.147.8-.188.49-1.902.67-5.643.595-6.334-.127-7.654.177-5.214 1.203 2.257.95 6.788 1.307 7.043.557.11-.32 1.948-.882 4.085-1.247 3.354-.572 4.087-.533 5.346.286 2.558 1.663 4.86 2.28 8.754 2.34l3.794.06-2.335-1.402zm139.335 1.036c-.4-.162-1.057-.162-1.459 0-.4.161-.073.294.73.294.802 0 1.13-.133.73-.294zm6.274-.198c0-.32-.853-.565-1.896-.542-1.59.034-1.708.122-.73.542 1.612.693 2.626.693 2.626 0zm4.085.125c0-.253-.787-.52-1.75-.593-.963-.074-1.751.133-1.751.46 0 .325.788.592 1.75.592.964 0 1.751-.207 1.751-.46zm11.964-.125c.201-.325-.235-.58-.987-.574-1.084.007-1.176.12-.472.574 1.086.702 1.026.702 1.46 0zm-220.784-.982c-.421-.168-.925-.148-1.119.046-.194.194.151.332.766.307.68-.028.818-.167.353-.353zm232.718-.577c.143-.125-.579-.164-1.605-.085-1.027.078-1.867.354-1.867.613 0 .432 2.87-.005 3.472-.528zm-369.244-.337c.309-.923 4.522-.978 4.522-.059 0 .378.893.671 2.043.671 2.542 0 2.58-.49.146-1.884-1.044-.597-2.46-1.591-3.146-2.21-1.937-1.744-4.843-1.214-6.208 1.131-.602 1.035-.927 2.15-.723 2.48.522.846 3.073.748 3.366-.13zm43.15.33c-.422-.168-.925-.147-1.12.047-.193.193.152.331.767.306.68-.028.818-.166.352-.353zm82.871 0c-.421-.168-.925-.147-1.119.047-.194.193.151.331.766.306.68-.028.819-.166.353-.353zm273.23-1.647c2.129-1.11 2.658-1.095 3.997.117 1.032.934 1.07.929.676-.096-.288-.752-.206-.955.267-.662.376.232.683.174.683-.128 0-.876-2.14-1.204-6.026-.924-7.716.557-10.362 1.215-8.234 2.048 1.94.76 6.89.556 8.636-.355zm33.45-.05c3.052-.315 4.372-1.211 4.672-3.172.235-1.542-1.41-1.698-4.697-.447-1.74.663-3.095.88-3.502.56-1.952-1.53-6.566-1.145-9.525.795l-1.54 1.009 1.28.684c.703.377 1.139.825.968.996-.34.34 7.535.069 12.343-.426zm-419.89-.752c.423-.604 1.292-1.23 1.93-1.391.945-.24.885-.307-.327-.362-.818-.037-1.842.26-2.274.662-.463.43-.633.457-.414.065.224-.401-.261-.791-1.228-.986-.88-.177-2.359-.506-3.288-.733l-1.689-.41 1.323 1.322c1.28 1.28 3.966 2.92 4.794 2.927.223 0 .75-.49 1.174-1.094zm112.08-.456c-.402-.162-1.059-.162-1.46 0s-.073.294.73.294c.802 0 1.13-.132.73-.294zm317.334-.49c-.353-.705-4.143-.416-4.961.379-.38.369.436.504 2.334.386 1.699-.105 2.796-.425 2.627-.764zm-341.833-.366c-.363-.362-2.582-.772-4.932-.91-3.945-.233-4.186-.183-3.14.658 1.382 1.111 9.174 1.354 8.072.252zm-145.001-1.883 1.35-.75-2.257-1.564c-2.231-1.546-3.922-1.867-6.372-1.21-1.19.32-1.204.392-.256 1.34 2.96 2.96 5.046 3.565 7.535 2.184zm425.555-6.466c4.146-.526 11.427-1.263 14.153-1.433 1.082-.068 1.159-.186.437-.675-1.075-.729-23.953-.154-26.614.669-2.65.819-3.813 1.002-9.138 1.44-2.644.216-4.94.518-5.1.67-.337.318 23.202-.283 26.262-.671zm-329.25-.348c.907-.016.907-.056 0-.584-1.079-.63-2.822-.18-2.822.727 0 .32.415.424.923.23a6.697 6.697 0 0 1 1.896-.373zm118.278-.534c.32-.232 6.23-.47 13.13-.528 6.902-.058 13.04-.261 13.642-.45.602-.19 1.283-.04 1.514.333.316.512 2.422.528 8.535.065 4.464-.338 8.773-.607 9.575-.598 1.35.015 1.381.075.42.804-.907.689-.924.832-.132 1.135 1.012.389 19.553-.063 23.628-.576 2.393-.3 2.521-.396 1.514-1.133-1.659-1.213-6.947-2.602-11.014-2.895-17.763-1.276-33.008-1.638-38.635-.918-10.006 1.281-24.103 1.501-29.829.466-9.326-1.685-33.806-2.419-37.578-1.126-3.271 1.122-6.95 1.003-12.107-.393-2.647-.717-5.384-1.219-6.082-1.116-1.915.282-1.973 1.554-.09 1.943.906.187 2.595.59 3.753.896 4.371 1.153 10.032 1.289 13.718.329 5.275-1.374 14.055-1.697 17.525-.644 1.559.473 3.403.863 4.099.866.695.005 1.352.259 1.459.567.176.508 4.508 1.012 9.824 1.142 1.298.032 2.677.596 3.786 1.55 1.6 1.376 2.03 1.466 5.252 1.1 1.93-.218 3.772-.587 4.093-.819zm116.428-.077c4.334-.345 9.717-.643 11.964-.663 5.485-.047 7.72-.94 2.627-1.05-2.087-.045-4.32-.192-4.961-.326-3.683-.771-27.477.064-44.938 1.577-.641.056 2.379.39 6.712.742 8.868.721 17.04.641 28.596-.28zM644.578 331.7c-.42-.169-.924-.148-1.118.046-.194.194.15.332.766.306.68-.028.818-.166.352-.352zm-1.276-2.11c0-1.377-1.367-2.16-3.764-2.157l-2.364.005 1.75 1.435c1.886 1.545 4.378 1.954 4.378.718zm319.657-.23c-.567-.148-1.355-.138-1.75.021-.396.16.069.281 1.032.27.963-.013 1.286-.143.718-.291zm6.951-.763c.474 0 .722-.227.55-.505-.411-.666-3.258-.11-3.258.635 0 .318.415.42.923.224.507-.195 1.31-.354 1.785-.354zm-474.86-1.728c1.293-.818.424-1.273-2.644-1.383-1.667-.06-2.856.172-3.001.586-.384 1.087 4.17 1.73 5.645.797zm5.567-.616c.201-.326.617-.438.924-.249.306.19 1.404.15 2.44-.089 1.855-.428 1.861-.44.423-.86-1.606-.47-5.836-.687-5.836-.3 0 .135.16.66.355 1.168.404 1.054 1.156 1.2 1.694.33zm475.847-2.775c.202-.32 1.445-.704 2.764-.855 1.318-.15 2.665-.44 2.993-.642.907-.561 1.28-2.613.527-2.9-1.88-.718-13.796 1.963-13.796 3.104 0 .273-.59.687-1.313.92-1.13.363-.947.513 1.313 1.076 2.744.682 6.882.295 7.512-.703zm-465.64.096c0-.126-.394-.23-.875-.23-.482 0-.876.255-.876.566 0 .31.394.414.876.23.481-.186.875-.44.875-.566zm370.292-2.557c.204-.331-.03-.429-.55-.23-1.01.388-1.195.807-.356.807.302 0 .71-.26.906-.577zm23.056-.029c.482-.096-1.356-.34-4.085-.539-5.951-.436-17.508-.041-17.508.598 0 .413 19.512.36 21.594-.059zm-385.178-1.145c0-.321-.41-.584-.91-.584s-.747.263-.549.584c.199.32.608.583.91.583.302 0 .55-.262.55-.583zm469.408-1.435c-.167-1.88.906-3.231 2.602-3.275.871-.023 2.11-.267 2.752-.543.915-.393.656-.51-1.202-.542-1.303-.023-2.878.344-3.502.816-.623.47-1.551.865-2.063.875-.512.01-1.402.539-1.978 1.175-.872.964-.92 1.308-.286 2.072 1.095 1.32 3.807.894 3.677-.578zm-521.822.453c-.422-.17-.925-.148-1.12.045-.193.194.152.332.767.307.68-.028.818-.166.352-.353zm47.746-1.236c0-.825-1.37-1.867-2.452-1.867-1.03 0-1.43 1.176-.661 1.945.55.55 3.113.485 3.113-.078zm96.294-.639c1.777-.494 1.82-1.306.115-2.156-.7-.35-1.79-1.103-2.422-1.674-.876-.793-1.671-.948-3.36-.654-5.688.99-7.044 2.833-2.312 3.142 1.907.124 2.727.431 2.727 1.02 0 .908 2.579 1.066 5.252.322zm-152.781-1.31c-2.623-1.205-4.792-1.018-4.792.413 0 .641.848.824 3.648.787l3.647-.05-2.503-1.15zm66.202-.356c-.89-3.19-1.089-3.648-1.584-3.648-.781 0-.671 2.148.18 3.51.894 1.432 1.79 1.52 1.404.138zm306.598.797c0-.123-.526-.36-1.168-.529-.642-.167-1.167-.067-1.167.224 0 .291.525.53 1.167.53s1.168-.102 1.168-.225zm-179.503-1.818c-.025-.321-1.164-.997-2.531-1.502-2.068-.764-2.945-.802-5.208-.228-3.699.938-4.02 2.467-.569 2.716 3.615.26 8.36-.303 8.308-.986zm-198.089-.876c-1.15-.743-3.501-.743-3.501 0 0 .321.984.58 2.188.575 1.628-.006 1.964-.154 1.313-.575zm10.505-1.056c0-.26-.354-.955-.786-1.547-.545-.745-.914-.869-1.202-.403-.582.942-2.097.84-2.097-.141 0-1.019-1.27-1.522-3.841-1.522-2.062 0-2.335.31-1.473 1.672.758 1.196 9.4 2.98 9.4 1.941zm32.282-3.325c2.225-1.11 3.373-1.096 1.893.023-1.447 1.094-.842 1.088 1.807-.019 2.65-1.107 3.703-1.108 3.703-.005 0 .588.428.792 1.313.627.722-.134 1.773-.264 2.335-.288 1.745-.074 1.12-1.066-.876-1.392-3.792-.618-5.976-1.337-5.725-1.885.605-1.316-2.606-2.085-7.455-1.785-5.107.315-6.12.028-10.312-2.924-5.187-3.652-21.633-8.468-22.75-6.662-.203.33-.157.6.103.601.26 0 1.523.671 2.807 1.488 2.467 1.568 2.03 1.561-3.344-.054-2.796-.84-3.631-.886-5.106-.275-2.065.856-2.186 1.406-.605 2.76 1.245 1.066 5.79 2.6 6.466 2.183.39-.24 2.227-.037 13.094 1.45 12.898 1.766 14.728 2.352 10.651 3.408-1.043.27-1.976.908-2.074 1.417-.14.723.815 1.12 4.376 1.821 4.922.97 6.983.865 9.7-.49zm-53.155-2.155c.177-.532 1.041-.555 3.574-.095 1.838.333 3.453.424 3.59.202.332-.537-5.753-3.492-7.191-3.492-.622 0-1.944.162-2.938.361-1.629.326-1.742.484-1.153 1.605 1.097 2.085 3.607 2.95 4.118 1.419zm12.703-2.218c0-.32-.541-.584-1.202-.584-.66 0-1.04.263-.841.584.198.321.74.584 1.202.584.462 0 .84-.263.84-.584zm-190.839-2.334c0-.321-.247-.584-.549-.584-.302 0-.711.263-.91.584-.198.32.05.583.55.583s.91-.262.91-.583zm165.137-2.224c.357-.786.518-1.561.356-1.723-.563-.563-4.71-.426-4.613.153.054.321.185.978.292 1.46.13.583-.341.936-1.41 1.06-1.497.172-1.995.69-1.317 1.368.16.159 1.583.023 3.165-.3 2.169-.445 3.036-.94 3.527-2.018zm8.777 2.295c0-.99-1.707-1.914-2.86-1.549-1.709.543-.846 2.061 1.172 2.061.928 0 1.688-.23 1.688-.512zm-228.189-2.697c1.906-.734 1.823-1.022-.292-1.022-2.503 0-3.21.225-3.21 1.022 0 1.048.78 1.048 3.502 0zm24.037-1.275c-.42-.168-.924-.147-1.118.046-.194.194.15.332.766.307.68-.028.818-.166.352-.353zm40.678-1.092c1.198-1.197-5.109-1.861-10.002-1.052-2.316.383-2.87 1.118-1.167 1.548 1.343.338 10.752-.08 11.169-.496zm36.092-.08c-.568-.148-1.356-.139-1.751.021-.395.16.07.28 1.032.269.963-.012 1.286-.143.719-.29zm120.962-1.118c0-.99-.828-1.035-2.505-.137-1.231.658-1.234.685-.108 1.086 1.461.52 2.613.102 2.613-.949zm-93.084.457c1.488-.264 2.334-.728 2.334-1.28 0-.7-1.019-.868-5.364-.88-2.95-.008-5.555-.205-5.788-.437-.232-.233-1.58-.423-2.994-.423-2.139 0-2.537.172-2.366 1.021.155.769.672.976 2.09.838 1.142-.112 2.242.175 2.796.729.982.982 5.108 1.174 9.292.432zm-34.032-1.085c-.42-.168-.924-.147-1.118.046-.194.194.15.332.766.307.68-.028.818-.166.352-.353zm9.812-.127c0-.784-3.241-1.767-4.629-1.404-1.352.353-1.582 1.098-.477 1.544 1.272.513 5.106.408 5.106-.14zm114.144-.326 1.642-.852-2.596-1.178c-1.428-.647-2.925-1.183-3.326-1.19-.887-.016-.947 1.408-.126 2.943.72 1.347 2.17 1.438 4.406.277zm-45.65-2.698c2.756-1.316 4.057-1.656 4.842-1.265.59.294 2.058.587 3.262.65 1.865.1 2.189-.063 2.189-1.098 0-2.898-2.717-5.816-3.794-4.075-.198.321-1.114.584-2.035.584s-2.086.41-2.588.913c-.502.502-1.374.855-1.938.784-.564-.07-1.813.183-2.776.564-.963.38-2.08.807-2.48.948-.402.14-.73 1.052-.73 2.025 0 2.318 1.145 2.312 6.049-.03zm14.962-1.668c0-.792-1.03-1.312-1.403-.709-.35.564.156 1.258.916 1.258.268 0 .486-.247.486-.549zm17.752.195c1.537-.59 1.036-1.397-.866-1.397-.984 0-2.298-.271-2.918-.604-.854-.457-1.13-.414-1.13.175 0 1.803 2.527 2.742 4.914 1.826zm-160.754-2.418c-.02-.457-4.067-2.524-4.067-2.076 0 .14.272.764.605 1.385.571 1.068 3.503 1.654 3.462.691zm10.524-.792c0-.286-.263-.52-.584-.52-.321 0-.584.277-.584.617 0 .34-.303.43-.673.202-.408-.252-.516-.161-.274.232.443.715 2.115.296 2.115-.53zm-8.645.248c-.421-.169-.925-.148-1.119.046-.194.193.151.331.766.306.68-.028.818-.166.353-.352zm157.463-.185c0-.321-.46-.58-1.02-.575-.874.008-.895.091-.147.575 1.102.711 1.167.711 1.167 0zm35.814-.359c4.043-.668 4.455-.845 4.455-1.919 0-.636-.546-1.233-1.313-1.437-1.692-.45-9.192 1.894-9.192 2.872 0 .991 1.145 1.423 2.84 1.072.76-.157 2.204-.422 3.21-.588zm-119.852-.072c0-.13-.378-.613-.839-1.074-.84-.842-1.876-.167-1.264.824.3.484 2.103.699 2.103.25zm-100.38-1.355c0-.34-.263-.455-.584-.257-.32.198-.583.477-.583.618 0 .142.262.257.583.257.321 0 .584-.278.584-.618zm229.225-2.841c-.243-1.26-1.931-1.165-1.83.104.044.561-.153 1.021-.438 1.021-.286 0-.52.257-.52.571 0 .345.587.304 1.483-.104.845-.385 1.406-1.069 1.305-1.592zm-202.38.536c0-.92-3.176-1.6-4.671-1.001l-1.456.584 1.926.435c1.06.24 2.07.58 2.246.755.423.423 1.956-.182 1.956-.773zm10.972-2.446c1.05-1.05.846-2.093-.495-2.518a2.216 2.216 0 0 0-2.89 2.123c0 1.268 2.25 1.53 3.385.395zm209.922.117c-.198-.321-.623-.584-.944-.584-.32 0-.421.263-.223.584.199.321.623.584.944.584.321 0 .422-.263.223-.584zm-221.477-1.75c0-.322-.51-.584-1.133-.584s-1.295.262-1.493.583c-.205.331.285.584 1.132.584.822 0 1.494-.263 1.494-.584zm5.398.196c-.401-.162-1.058-.162-1.459 0s-.073.295.73.295c.802 0 1.13-.133.73-.295zm207.868-3.048c.176-.285-.268-.675-.987-.868-1.924-.516-2.182-.455-2.182.51 0 .951 2.619 1.247 3.169.358zm-6.807-1.238c.179-.94-5.27-3.249-6.245-2.646-.288.178-1.193.07-2.011-.242-2.168-.824-2.502.326-.41 1.408.958.495 2.298.9 2.98.9.68 0 1.645.408 2.143.907 1.097 1.096 3.311.892 3.543-.326zm18.808-.726c0-.24-1.047-.437-2.33-.437-1.285 0-2.335.236-2.335.525 0 .289 1.049.486 2.331.438 1.282-.048 2.333-.285 2.334-.525zm-78.127-1.337c3.937-1.386 6.931-2.784 6.931-3.235 0-1.526-5.177-1.433-8.298.148-3.705 1.877-4.09 2.248-3.31 3.189.845 1.018 1.541 1.003 4.677-.102zm-33.483-4.137c.722-.193 1.313-.652 1.313-1.02 0-.366.656-1.375 1.459-2.24 1.738-1.875 1.858-2.792.363-2.792-1.24 0-2.607 1.356-1.989 1.974.224.224-.182.561-.903.75-.721.188-1.702 1.097-2.178 2.02-.936 1.808-.65 2 1.935 1.308zm26.572-8.161c.532-.532-1.34-3.143-2.254-3.143-.678 0-1.996 1.681-1.996 2.547 0 .257 1.457.649 3.259.875.348.044.794-.082.99-.28zm5.36-2.376c2.277-1.086 2.462-1.46 1.227-2.485-.596-.495-1.421-.532-2.879-.13-1.123.311-2.154.453-2.29.317-.137-.137-.592.165-1.012.67-.649.783-.575.969.5 1.25.696.182 1.264.563 1.264.846 0 .762.882.633 3.19-.468zm-346.77 261.89c-.046-.623.358-1.27.898-1.438.54-.169.26-.221-.623-.117-.882.105-1.604-.069-1.604-.385 0-.325-.742-.428-1.698-.236-1.247.249-1.795.087-2.062-.609-.2-.52-.096-1.215.23-1.542.964-.963 2.804-1.006 3.162-.073.182.474.88.863 1.55.863.672 0 1.059.262.86.583-.198.321.049.617.55.657 1.688.135 1.978.217 2.457.696.494.495-1.958 2.697-3.029 2.72-.332.007-.643-.497-.69-1.12zm27.013-117.752c-.317-.832-.25-.9.327-.327.398.396.578.867.398 1.046-.18.18-.506-.144-.725-.72zm952.743-21.692-1.41-.394 1.64-1.075c1.538-1.008 1.763-1.016 3.63-.126 1.094.522 1.83 1.21 1.633 1.528-.397.64-3.312.677-5.493.067zm2.286-18.749c-.481-.31-1.451-.569-2.155-.574-.99-.007-1.225-.29-1.04-1.255.132-.685.343-1.348.468-1.474.432-.432 5.082 2.367 4.89 2.944-.285.853-1.17 1-2.163.36zm23.212-10.945c-.368-1.407.912-2.631 1.81-1.732.845.844.852 2.757.01 2.757-.361 0-.489-.45-.29-1.022.334-.956.305-.956-.45.014-.769.99-.816.988-1.08-.017zm-930.519-5.881c-.529-.847-.497-1.07.152-1.07.45 0 .82.481.82 1.07 0 .588-.069 1.07-.152 1.07-.084 0-.452-.482-.82-1.07zm890.81-6.006c.396-.399.867-.578 1.047-.399.18.18-.144.506-.72.726-.832.316-.899.25-.327-.327zm31.379-10.277c-.642-.16-1.864-.786-2.716-1.39-.852-.605-1.936-1.1-2.41-1.1-.472 0-1.186-.394-1.586-.875-.4-.482-1.263-.876-1.919-.876-.656 0-1.04-.153-.853-.34.187-.187 1.872-.146 3.745.091 1.872.237 3.076.544 2.675.68-1.02.35-.913 1.32.146 1.32.481 0 .875.263.875.584 0 .32.591.587 1.313.591 2.06.013 3.958.658 3.607 1.226-.338.546-.973.566-2.877.09zm-5.06-8.319c-2.14-.164-4.065-.473-4.278-.686-.212-.214-.096-.93.258-1.592.832-1.555 4.123-2.47 5.161-1.436.413.411.676.866.584 1.01-.092.146.466.813 1.24 1.484s1.299 1.288 1.167 1.37c-.132.082-1.99.015-4.131-.15zm22.688-5.626c-.202-.202-1.743-.815-3.424-1.363-2.75-.897-3.057-1.166-3.057-2.68 0-1.443.287-1.746 2.013-2.129 2.456-.545 4.807-.09 4.488.867-.13.388.771 1.702 2 2.92 1.23 1.217 2.237 2.334 2.237 2.482 0 .41-3.838.322-4.257-.097zm-493.382-2.24c-1.028-.354-2.057-.832-2.286-1.061-.23-.23-.833-.414-1.342-.409-.81.008-.815.08-.048.575.481.311.613.565.292.565-.748 0-2.889-2.3-3.38-3.629-.443-1.199.482-1.383 1.162-.231.494.836 2.985 2.381 3.969 2.462.32.026 1.493.437 2.605.912 2.45 1.048 1.65 1.72-.972.816zm-403.456-3.535c-.406-.49-.592-1.036-.413-1.215.446-.446 2.76.845 2.76 1.541 0 .875-1.526.663-2.347-.326zm408.972-2.441c-2.96-.327-2.787-1.339.227-1.339 1.527 0 2.664-.338 3.09-.92.604-.828.818-.803 2.106.241.789.64 1.254 1.343 1.035 1.564-.529.53-3.732.755-6.458.454zm476.366-1.144c0-.535-.174-.8-.386-.587-.212.211-.76-.15-1.216-.802-.554-.791-1.205-1.069-1.95-.832-1.004.318-1.101.085-.952-2.282.167-2.66 1.002-4.526 1.002-2.238 0 .724.842 1.876 2.037 2.788 1.12.855 1.904 1.768 1.742 2.03-.162.263.235.645.882.85 1.521.483 1.528 2.046.01 2.046-.7 0-1.168-.39-1.168-.973zm-889.995-1.973c0-.336.786-1.058 1.747-1.605.96-.546 1.749-1.428 1.75-1.96.004-.829.521-.921 3.652-.652 6.071.523 6.503 2.418.635 2.787-1.425.09-3.058.586-3.629 1.102-1.154 1.045-4.155 1.282-4.155.328zm424.357-.744c-1.17-.68-1.236-.858-.424-1.17.527-.201 2.112-.208 3.524-.015 1.412.194 3.322.089 4.245-.233 1.45-.506 1.689-.437 1.76.51.05.67-.3 1.098-.903 1.101-.541.005-2.298.141-3.903.307-1.913.198-3.393.026-4.3-.5zm325.667-3.645c-.979-.504-1.144-.805-.584-1.06.43-.197-.072-.272-1.115-.168-1.232.123-1.897-.066-1.897-.542 0-.402-.46-.829-1.02-.948-.563-.12.214-.227 1.724-.238 1.51-.01 2.613.196 2.45.46-.163.264.111.323.61.132.498-.191.905-.61.905-.932 0-.332.63-.426 1.46-.218.958.24 1.458.122 1.458-.345 0-.554.156-.556.7-.012.902.902 2.424.922 1.87.025-.282-.455-.037-.576.75-.37.74.194 1.408-.082 1.83-.756.862-1.382.412-1.604-3.58-1.765-2.37-.096-3.32-.365-3.32-.94 0-.743 3.25-2.323 4.21-2.046.23.066 1.805-.254 3.502-.71 1.696-.457 2.624-.848 2.063-.869-.562-.021-1.022-.26-1.022-.53s1.727-.548 3.837-.616c5.367-.174 7.688-.525 9.8-1.482 1.006-.456 3.422-.999 5.368-1.207 4.412-.471 5.654-1.141 4.194-2.26-.562-.431-1.022-.89-1.022-1.018 0-.129 1.51-.1 3.356.064 4.537.404 10.73-.286 12.971-1.445 2.1-1.086 6.026-1.639 5.491-.773-.32.518 2.41.344 6.779-.432 1.134-.202.971.005-.73.921-1.203.65-2.188 1.428-2.188 1.73 0 .302 1.322.725 2.937.94 3.251.43 3.268.8.08 1.738-1.178.346-2.076.937-1.995 1.313.098.458-.913.684-3.053.684-1.758 0-4.188.374-5.398.831-1.21.457-3.513 1.025-5.118 1.263-1.605.237-3.18.487-3.502.555-.32.069-2.16.448-4.085.844-1.926.395-3.784.947-4.13 1.226-.345.28-1.527.634-2.626.788-9.234 1.294-11.479 1.693-12.45 2.21-1.072.572-1.074.617-.05 1.19 1.533.859 10.19.618 14.136-.394 1.853-.474 6.257-1.422 9.788-2.107 3.531-.684 7.715-1.617 9.298-2.074 1.583-.457 3.015-.83 3.182-.83.168 0-1.495 1.182-3.694 2.626s-4.55 2.63-5.225 2.634c-1.685.01-8.212 2.1-9.827 3.145-.726.47-2.896 1.009-4.822 1.196-1.926.188-4.946.492-6.712.677-6.627.692-24.176.62-25.585-.105zm104.371-2.576v-1.032c0-.24.328-.438.73-.438.4 0 .926-.262 1.167-.583.289-.386.586-.374.875.034.24.34 1.028 1.02 1.749 1.512 1.264.863 1.207.899-1.605.998-1.658.059-2.916-.153-2.916-.49zm-316.363-3.229c-.75-.75-3.266-1.324-6.936-1.584-1.048-.075-3.12-1.934-3.266-2.932-.06-.413.557-.752 1.425-.783 1.97-.07 6.295-.697 11.453-1.66 4.353-.813 21.579-.802 26.103.016 1.372.249 3.413.522 4.536.609 3.774.29 5.843.898 5.427 1.593-.224.374.01.333.539-.095.77-.624 1.067-.619 1.673.03.432.462 1.48.686 2.531.54l1.794-.25-1.344 1.191c-1.33 1.177-4.896 1.429-6.47.456-.356-.22-.95-.214-1.32.014-.37.229-3.067.454-5.994.501-2.927.047-5.627.274-6 .505-1.142.705-11.262 1.004-11.262.332 0-.33-.437-.164-.97.37-.632.632-1.517.862-2.53.66-.858-.172-2.29.067-3.182.53-2.11 1.094-5.09 1.074-6.207-.043zm210.293-.67c-.96-.387-.944-2.531.018-2.531.412 0 .803.656.869 1.459.066.802.058 1.438-.018 1.413a30.61 30.61 0 0 1-.869-.34zm-157.184-.433c-.133-.13-1.556-.376-3.16-.548-1.606-.171-3.55-.545-4.322-.831-1.348-.5-1.307-.56 1.033-1.495 2.603-1.042 4.96-1.185 9.854-.597 2.906.35 4.346 1.373 1.93 1.373-.622 0-1.294.262-1.493.583-.198.321-.017.588.404.593.555.006.524.163-.112.574-.87.563-3.67.799-4.134.348zm122.606-.952c0-1.032.163-1.1 1.246-.52.995.532 1.083.77.437 1.178-1.257.797-1.683.63-1.683-.658zm9.337.604c0-.32.41-.583.91-.583s.748.263.55.583c-.2.321-.609.584-.91.584-.303 0-.55-.263-.55-.584zm5.107.188c-1.48-.396-1.253-1.174.437-1.498.803-.153 1.46-.072 1.46.18s2.21.412 4.91.357c3.6-.075 4.766.074 4.363.559-.542.653-9.086.96-11.17.402zm16.34-.022c-1.494-.226-2.364-1.916-.986-1.916.34 0 .455.262.257.583-.198.321.034.584.515.584s1.038-.263 1.236-.584c.198-.32.64-.583.981-.583.424 0 .415.248-.029.783-.357.43-.477.956-.266 1.167.211.211.275.345.141.297-.134-.048-.965-.197-1.848-.331zm-260.296-.822c.396-.399.867-.578 1.046-.398.18.18-.144.506-.72.725-.831.317-.898.25-.326-.327zm216.089.073c-.526-.34-.598-.57-.18-.575.382-.005.857.254 1.055.575.448.724.246.724-.875 0zm3.064.124c-2.219-.347-1.453-1.146.854-.892 1.192.132 2.253.325 2.357.43.35.348-1.88.67-3.211.462zm4.23-.124c-.198-.321-.081-.584.258-.584.34 0 .618.263.618.584 0 .32-.116.583-.257.583-.142 0-.42-.262-.618-.583zm1.46.134c0-.326.394-.744.875-.929.482-.185.876-.245.876-.134 0 .111-.394.53-.876.929-.504.419-.875.475-.875.134zm145.9-.058c0-.323-1.181-.766-2.626-.982-1.444-.217-2.626-.575-2.626-.796 0-.552 5.233-1.552 6.892-1.317 1.885.267 1.61 3.222-.326 3.497-.722.103-1.313-.078-1.313-.402zm-367.957-.653c-.205-.331.03-.429.549-.23 1.011.388 1.196.807.357.807-.302 0-.71-.26-.906-.577zm209.636-.18c-.167-.434.159-.79.766-.835.58-.044 1.2.297 1.376.756.208.54-.063.836-.766.836-.597 0-1.217-.34-1.376-.756zM842 290.05c-.208-.336-.815-.565-1.348-.508-1.398.15-4.733-.694-5.101-1.29-.38-.613.188-.678 4.707-.535 3.487.111 4.544.685 3.977 2.162-.358.931-1.702 1.034-2.236.171zm7.55-.191c-.572-1.493-.192-1.561 3.18-.573 3.456 1.013 3.824 1.57.55.831-1.343-.303-2.352-.255-2.737.13-.423.424-.726.305-.992-.388zm-155.477-.038c0-.142.263-.42.584-.618.32-.199.584-.083.584.257s-.263.618-.584.618c-.321 0-.584-.116-.584-.257zm151.445-.91c-.198-.321-.083-.584.258-.584.34 0 .618.263.618.584 0 .32-.116.583-.258.583-.141 0-.42-.262-.618-.583zm28.305-.607c0-.377-.394-.534-.875-.35-.545.21-.876-.004-.876-.562 0-1.01 2.85-.966 3.692.058.314.38.587.329.78-.148.163-.403.537-.584.83-.403.774.478.655 1.233-.195 1.24-.401.004-1.32.195-2.043.428-.856.275-1.313.184-1.313-.263zm-705.87-.565c-.2-.323.058-.75.574-.947 1.117-.429 1.74.043 1.203.913-.485.784-1.304.8-1.778.034zm698.98.105c-1.762-.25-1.35-1.379.702-1.928 1.23-.329 1.544-.245 1.315.35-.208.544.134.735 1.12.627.866-.095 1.419.145 1.419.616 0 .74-1.123.822-4.557.335zm-578.165-5.925c-.205-.332.038-.76.54-.953.501-.193.912-.863.912-1.49 0-.626.267-.974.593-.772.326.201.42.647.208.99-.212.342.19 1.057.895 1.589 1.275.962 1.272.966-.747 1.102-1.116.075-2.196-.135-2.401-.466zm752.277-.8c-1.017-.744-.989-.812.484-1.182.875-.22 2.13-.088 2.851.297 1.254.671 1.257.702.134 1.14-1.695.663-2.271.62-3.47-.256zm-759.319-1.597c-.222-.36-1.435-1.116-2.695-1.68l-2.29-1.025 2.216-.366c1.22-.202 3.16-.37 4.312-.373 1.164-.005 3.703-.81 5.71-1.813 2.446-1.222 3.844-1.625 4.324-1.247 1.553 1.222 10.604 1.695 17.927.938 4.67-.483 11.677-.577 12.343-.165.757.468-2.016.933-8.55 1.432-6.272.48-6.98.697-6.027 1.846.662.797.416.855-2.157.516-1.598-.21-3.803-.118-4.902.207-1.27.375-2.24.387-2.667.033-.37-.306-2.622-.568-5.006-.582-2.385-.014-5.972-.07-7.97-.125-3.96-.108-4.783.228-3.716 1.514.436.525.482.969.124 1.19-.315.195-.754.06-.976-.3zm653.186-1.777c-.262-1.003-.66-1.183-2.135-.967-.996.146-1.916.097-2.044-.109-.127-.206-1.727-.21-3.555-.009-2.771.305-18.641.277-27.384-.048a133.731 133.731 0 0 0-4.961-.066c-5.16.042-6.39-.05-6.136-.462.142-.23 1.095-.441 2.119-.47 1.023-.03 2.017-.283 2.209-.565.424-.621 5.31-.619 4.926.005-.393.637 1.879.203 2.807-.536 1.201-.957 3.797-1.285 17.612-2.225 7.007-.477 15.017-1.296 17.8-1.818 2.782-.523 5.584-1.017 6.226-1.098 7.175-.905 12.614-2.07 19.505-4.178.455-.139 1.026.068 1.269.46.69 1.117-1.853 3.39-3.806 3.402-.939.006-3.565.912-5.836 2.014-2.27 1.102-5.441 2.161-7.046 2.353-3.864.462-6.903.991-7.435 1.294-.758.432.975 1.815 2.024 1.615.555-.105 1.155.045 1.334.334.189.306.886.312 1.666.016 1.379-.525 3.297.118 2.262.757-.684.423-4.045.959-8.101 1.291-2.666.219-3.033.11-3.32-.987zm1.68.127c-.182-.294 0-.667.403-.83.442-.178.327-.313-.289-.34-.561-.026-1.02.347-1.02.828 0 .482.277.876.617.876.34 0 .47-.24.288-.534zm13.16-1.267c-.768-.307-1.236-.72-1.04-.916.637-.637 3.314-.7 3.314-.078 0 .378.308.348.823-.08.573-.475.94-.494 1.208-.062a.74.74 0 0 0 1.018.23c.39-.241.464-.118.192.322-.243.393-.8.576-1.239.408-.438-.169-.953-.055-1.142.252-.421.68-1.295.66-3.133-.075zM522.9 275.154c.383-.178.565-.668.404-1.087-.185-.482.311-.88 1.346-1.078.901-.173 1.701-.253 1.778-.178.416.407-1.511 2.025-2.766 2.322-.802.19-1.145.2-.762.021zm350.082-.194c-.18-.291.199-.392.841-.224 1.363.356 1.535.753.327.753-.462 0-.988-.238-1.168-.53zm5.785-7.562c-.766-.766-.1-1.684 1.22-1.684 1.094 0 1.402.236 1.153.884-.251.656-.146.731.404.293.897-.716 3.23-1.188 9.788-1.977 5.87-.707 4.501-.644 13.131-.599 3.852.02 7.458.031 8.013.024.556-.007 1.162-.259 1.348-.56.426-.688 6.122-.702 7.204-.016.467.295 1.575.281 2.626-.034 2.325-.696 4.585-1.008 8.239-1.135 1.605-.056 5.938-.49 9.63-.965 8.482-1.092 10.518-1.225 10.174-.668-.151.244-1.65.841-3.328 1.325-3.04.877-5.146 1.21-11.808 1.865-1.925.19-4.552.566-5.836.837-1.283.27-4.583.51-7.332.533-2.75.023-6.209.267-7.688.544-1.48.276-2.987.318-3.351.093-.364-.225-1.843-.02-3.286.455-1.81.596-3.022.694-3.906.314-.706-.302-2.858-.443-4.784-.313-1.926.13-6.39.34-9.921.466-3.531.126-7.544.311-8.918.411-1.374.1-2.621.058-2.772-.093zm-462.488-16.42c0-.322.116-.584.258-.584.141 0 .42.262.618.583.198.321.082.584-.258.584s-.618-.263-.618-.584z" style="fill:#000"/>
</svg>
