<svg viewBox="50 250 1000 454.549" xmlns="http://www.w3.org/2000/svg">
  <path d="M256.92 703.274c-.762-1.161-.75-1.527.121-4.118.586-1.74 1.297-2.89 1.835-2.963.7-.095.8.167.493 1.3-.21.78-.199 2.25.027 3.263.412 1.847-.171 3.793-1.137 3.793-.278 0-.88-.574-1.34-1.275zm-33.591-3.782c-.157-.158-.855-.373-1.55-.48-.784-.12-1.327-.616-1.433-1.311-.202-1.324 1.466-5.533 1.808-4.563.165.466.524.512 1.195.153 1.308-.7 1.638-.219 1.638 2.388 0 2.089-1.025 4.445-1.658 3.813zm24.242-1.592c.046-1.304 2.007-5.788 2.067-4.726.022.387.254.57.517.408.777-.48.994 2.745.274 4.09-.874 1.634-2.913 1.797-2.858.228zm26.758-7.087c-.856-1.032-.188-3.256 1.077-3.587 1.376-.36 1.647-.022 1.647 2.052 0 1.933-1.63 2.852-2.724 1.535zm-1.42-14.189c-.655-.263-1.34-1.072-1.523-1.8-.183-.727-1.132-2.05-2.11-2.94-1.748-1.59-1.783-1.598-2.092-.445-.173.645-.318 1.822-.322 2.616-.01 1.542-.786 2.42-1.344 1.517-.185-.3-.625-.542-.976-.537-.384.005-.318.216.166.528.715.463.715.519 0 .506-1.256-.022-3.023-3.278-3.426-6.31-.376-2.84.01-3.642 2.499-5.2.472-.295.934-1.14 1.026-1.878.211-1.677-1.427-1.9-3.105-.421-.913.804-1.403.888-2.58.44-1.087-.413-1.356-.395-1.067.074.272.44.082.502-.64.207-2.037-.831-2.633-.61-2.813 1.042-.097.885-.385 1.826-.641 2.09-.265.273-.343.01-.18-.61.156-.6-.02-1.278-.39-1.508-.475-.293-.574-.153-.332.476.188.492.109.894-.177.894s-.52-.612-.52-1.36c0-1.502-1.106-2.188-2.55-1.581-.516.217-1.49.432-2.164.478-1.051.072-1.182-.113-.92-1.305.168-.763.895-2.554 1.616-3.979.722-1.425 1.2-2.772 1.062-2.995-.138-.223-.399-1.34-.58-2.48-.18-1.142-.439-2.257-.575-2.479-.364-.593-3.287-.49-3.67.13-.321.52-3.92-.66-4.546-1.493-1.152-1.53-2.114-1.778-3.711-.952-2.198 1.137-2.503 1.084-4.444-.771-.927-.886-2.193-1.614-2.813-1.619-1.9-.013-5.756-1.356-5.308-1.847.233-.254.01-.313-.503-.131-1.142.41-1.947-.872-1.621-2.578.285-1.49 2.664-3.844 4.157-4.113.82-.147 1.1-.663 1.184-2.182.061-1.094.51-2.599.999-3.344 1.096-1.673.656-3.84-.878-4.327-1.276-.405-5.331 1.997-5.331 3.157 0 .857-1.893 2.66-2.958 2.815-1.365.2-1.532-1.925-.257-3.282 1.22-1.298 1.065-2.581-.25-2.077-.41.158-1.199.044-1.753-.253-.818-.437-1.39-.18-3.027 1.366l-2.02 1.904 1.2 1.278c1.375 1.463 1.28 1.495-2.004.667-3.278-.825-4.14 0-2.037 1.946 1.257 1.165 1.387 1.5.74 1.909-1.321.835-5.727.623-6.078-.293-.176-.46-.977-.805-1.864-.805-.855 0-2.13-.442-2.835-.982-1.886-1.448-3.199-1.8-4.055-1.09-1.22 1.013-1.789-.115-1.809-3.593-.034-5.968.261-7.404 2.055-10.008.956-1.388 1.979-2.672 2.273-2.854.935-.577.368-3.526-.8-4.16-1.66-.901-5.606-1.592-8.68-1.52-2.01.047-2.843-.156-3.07-.747-.427-1.113-1.416-1.024-1.427.128-.013 1.502-.8 2.347-2.346 2.517-1.692.185-3.55-1.8-3.55-3.797 0-.698-.241-1.27-.537-1.27-.295 0-.536.363-.536.806 0 .443-.333.805-.74.805-.406 0-1.052.377-1.435.839-.632.76-.74.76-1.166 0-.259-.462-1.024-.84-1.702-.84-.678 0-1.652-.463-2.165-1.03-.89-.983-.882-1.058.165-1.618 1.553-.831.867-2.076-1.467-2.662-6.151-1.545-10.988-1.094-12.893 1.202-.628.758-2.752 1.288-2.752.687 0-.11.353-1.201.785-2.425.873-2.473.623-3.818-.708-3.808-1.192.009-5.595 5.116-7.733 8.968-2.193 3.952-5.823 8.668-6.702 8.708-.92.042-.847-.462.406-2.801.593-1.106 1.19-2.882 1.326-3.947.266-2.083 1.501-3.376 3.251-3.403.656-.01 1.496-.714 2.103-1.762.556-.96 1.568-2.42 2.25-3.246.681-.826 1.635-2.336 2.118-3.355.484-1.019 1.053-1.853 1.266-1.853.49 0 .613-.924.793-5.904.08-2.214.434-5.213.786-6.664.395-1.628.446-2.76.133-2.953-.982-.607-.865-1.063.692-2.688.864-.902 1.443-1.768 1.286-1.925-.157-.157.11-2.03.595-4.162.674-2.97 1.117-3.922 1.895-4.072 1.44-.277 2.934-2.249 2.955-3.898.01-.772.743-2.314 1.628-3.429 1.433-1.803 1.85-2.66 1.5-3.086-.06-.074.274-.86.742-1.745.468-.885 1.423-2.923 2.123-4.528.699-1.605 1.935-3.837 2.747-4.96.812-1.124 1.476-2.37 1.476-2.77 0-.4.484-1.163 1.074-1.698.59-.534 1.073-1.211 1.073-1.504 0-.293.846-1.564 1.88-2.825 1.033-1.261 1.878-2.414 1.878-2.562 0-.148 1.219-2.039 2.709-4.202 2.766-4.015 3.07-5.576 1.413-7.274-.868-.89-7.166.57-8.709 2.018-.615.578-1.535 1.051-2.045 1.051-.97 0-4.103 2.078-4.103 2.722 0 .205-1.975 2.439-4.387 4.965-4.133 4.326-6.955 8.405-8.793 12.71-.441 1.034-1.035 2.242-1.318 2.684-.653 1.019-2.298 4.446-2.362 4.92-.12.884-.956 1.15-1.393.445-1.224-1.982 1.4-9.09 6.371-17.26.678-1.113.975-2.103.685-2.282-.856-.53-.048-2.352 1.183-2.672.636-.165 1.759-1.212 2.494-2.326.735-1.115 1.483-2.148 1.661-2.295.179-.148 1.63-1.966 3.226-4.04 1.595-2.075 3.207-4.128 3.582-4.563 2.004-2.327 2.808-3.413 2.808-3.792 0-.232.725-1.215 1.61-2.185.886-.97 1.61-1.968 1.61-2.218 0-.668 1.145-1.646 2.765-2.362.925-.409 1.656-1.347 2.09-2.678.366-1.127.994-2.525 1.395-3.107.942-1.37.921-1.894-.076-1.894-.443 0-.805-.138-.805-.307 0-.168.362-.669.805-1.111.495-.496.805-1.812.805-3.42 0-1.437.26-2.775.58-2.972.32-.197.438-.926.264-1.62-.348-1.388 1.136-2.615 2.52-2.084.936.36 2.234-1.098 1.72-1.93-.448-.724-4.092-.175-4.632.698-.237.385-1.246.191-3.053-.586-1.483-.638-3.17-1.16-3.746-1.16-1.38 0-3.84 2.11-2.91 2.495.942.39.281 1.262-.957 1.262-.75 0-.932.251-.678.94.19.516.533 1.066.76 1.221.227.155.199.63-.063 1.054-.367.594-.824.65-1.985.243-1.79-.626-2.371-2.693-.868-3.082.75-.194.777-.266.118-.314-1.555-.113-2.592-4.356-1.065-4.356.21 0 1.665-.958 3.234-2.128 2.242-1.673 3.06-2.017 3.824-1.608.65.348 1.424.314 2.344-.105 1.95-.889 1.892-3.233-.103-4.231-.812-.406-1.891-1.081-2.398-1.5-.507-.419-1.412-.633-2.011-.477-.982.257-1.062.091-.808-1.677.155-1.079.342-2.445.416-3.036.074-.59.33-1.386.568-1.768.244-.39.158-1.026-.197-1.454-.51-.615-.361-.827.786-1.115 2.13-.534 1.49-1.975-1.268-2.85-2.328-.737-2.34-.752-1.069-1.457.706-.39 1.707-.72 2.223-.73.968-.02 1.363-1.093.403-1.093a.538.538 0 0 1-.537-.536c0-.296.966-.537 2.147-.537 1.57 0 2.147-.22 2.147-.822 0-1.057-1.002-1.422-4.16-1.517-3.44-.103-3.375-1.296.134-2.451 4.591-1.512 6.978-2.902 6.978-4.064 0-1.485-5.018-2.314-6.012-.993-.355.471-1.02.713-1.477.538-1.217-.468-1.015.584.243 1.257 1.125.603 1.486 2.147.501 2.147-1.244 0-2.72-1.184-2.428-1.947.195-.507.081-.654-.315-.41-.987.61-7.42.69-7.42.092 0-.293-.362-.387-.805-.207l-1.541.625c-.405.164-1.155-.12-1.666-.631-.752-.752-1.124-.81-1.941-.3-.556.347-1.799.616-2.762.597-1.7-.033-1.713-.05-.423-.564.868-.346 1.11-.665.7-.92-.414-.255-.459-.66-.13-1.18.863-1.365.575-1.983-1.355-2.898-2.021-.96-3.567-2.992-2.276-2.992.397 0 1.187-.34 1.757-.757 1.012-.74 1.013-.78.028-1.868-.825-.912-.885-1.26-.33-1.927.528-.636.531-.816.017-.816-.372 0-.522-.358-.345-.82.227-.592-.137-.911-1.304-1.145-1.982-.396-2.978-1.928-1.858-2.858.943-.782 4.31.158 5.004 1.396.261.467.807.646 1.343.44.497-.19.77-.562.606-.826-.163-.264.586-1 1.664-1.637 1.747-1.03 1.927-1.338 1.652-2.818l-.31-1.662 1.063 1.266c1.25 1.489 2.47 1.22 3.203-.705.34-.896.786-1.24 1.334-1.03.591.227.83-.04.85-.95l.028-1.265.843 1.208c.463.664 1.162 1.208 1.554 1.208.967 0 3.622-2.515 3.037-2.877-.257-.159-3.349-.455-6.87-.658-4.588-.265-6.968-.654-8.395-1.37-1.095-.55-2.303-1.007-2.684-1.016-.38-.01-1.9-.611-3.376-1.337-2.915-1.435-6.254-1.708-8.687-.712-1.05.43-9.392.665-27.276.772-24.313.145-31.674.54-34.078 1.826-.5.268-2.053.643-3.449.832-3.246.44-4.749-.664-4.308-3.165.702-3.986 2.853-4.501 16.07-3.852 3.838.188 7.727.578 8.642.866 2.266.711 33.999.682 38.057-.036 1.771-.313 5.636-.703 8.588-.867 4.636-.258 5.807-.14 8.588.864 7.567 2.733 12.406 3.235 17.735 1.842 1.76-.46 3.935-.7 4.834-.533 1.775.33 6.734-.922 8.741-2.206.689-.44 1.534-.693 1.88-.562.344.131 1.196.027 1.892-.231 1.012-.377 1.198-.735.932-1.794-.26-1.038-.156-1.257.48-1.012.446.17.812.527.812.79 0 .733 1.483.571 2.244-.244.717-.768 2.587-.568 2.587.276 0 .275 1.164.448 2.587.383 1.423-.065 2.817.024 3.098.198.28.173 2.076.13 3.988-.098 1.913-.227 4.202-.199 5.088.064 8.529 2.526 18.517 3.298 20.727 1.602 2.204-1.69 3.037-1.758 4.156-.335.783.996 1.542 1.316 3.106 1.31 3.017-.013 3.58-.549 3.226-3.073-.164-1.178-.724-3.033-1.243-4.122-1.26-2.641-.56-3.801 2.292-3.801h2.089l-.194 4.965c-.169 4.326-.08 4.965.688 4.965.485 0 1.015-.348 1.178-.772.163-.425 1.017-.931 1.899-1.125 1.436-.315 1.586-.539 1.446-2.162-.203-2.36 2.022-6.105 3.64-6.125 1.646-.02 2.126.954 2.043 4.145-.08 3.041.498 3.62 1.475 1.476.336-.738.93-1.341 1.318-1.341.389 0 1.127-.665 1.641-1.477 1.551-2.45 3.06-3.872 4.118-3.882.792-.007.924.244.631 1.199-.204.664-.507 2.39-.675 3.834l-.304 2.627 1.552-.375c.853-.206 1.851-.767 2.217-1.246 1.2-1.57 1.363-.244.2 1.636-1.522 2.464-1.447 2.693.745 2.282 1.57-.295 2.106-.126 3.262 1.03.76.76 2.39 1.734 3.623 2.162 2.039.71 2.302.697 2.925-.139.377-.505.634-1.792.571-2.86-.128-2.176 2.112-6.549 3.825-7.465 1.47-.787 3.239-.673 3.239.208 0 .49.376.656 1.073.474.617-.161 1.074-.016 1.074.34 0 .92-2.251 3.799-2.97 3.799-.962 0-3.31 2.28-3.71 3.603-.196.653-.08 1.705.258 2.338.51.953.908 1.086 2.311.773.933-.207 2.015-.394 2.406-.415.433-.023.603-.444.437-1.08-.301-1.151 1.733-3.555 3.122-3.69.456-.044 1.118-.104 1.47-.134.444-.037.597.897.498 3.033-.089 1.928.073 3.086.433 3.086.317 0 .576.33.576.734 0 .576.807.676 3.757.465 3.729-.267 3.758-.259 3.758 1.083 0 .864-.504 1.682-1.395 2.266l-1.394.914 1.196.838c1.07.75 1.46.754 3.68.044 1.366-.437 2.784-.694 3.15-.572.81.27.892 3.151.105 3.638-.606.374-.158 5.016.559 5.795.589.641 4.834-.75 4.834-1.583 0-1.083 1.981-1.892 4.183-1.71 1.678.14 1.971.348 1.87 1.33-.11 1.06.109 1.155 2.463 1.07 2.073-.075 2.976-.437 4.567-1.835 1.091-.958 2.398-1.733 2.905-1.723 1.455.028 3.172 1.772 3.582 3.639.367 1.669.448 1.71 3.312 1.71 1.615 0 3.588-.328 4.386-.73.797-.4 2.536-.87 3.865-1.044 4.392-.573 6.327-1.715 6.973-4.114.808-2.998 3.35-4.847 6.666-4.847 2.816 0 3.956.468 5.916 2.428 1.541 1.54 3.082 1.705 4.13.441.406-.488 1.574-1.238 2.597-1.665 1.817-.76 1.893-.74 3.355.896 1.007 1.128 1.495 2.263 1.495 3.477 0 1.554.212 1.846 1.53 2.11.842.168 2.046.171 2.676.007 1.757-.46 3.861.23 3.508 1.15-.364.948 1.618 3.862 2.906 4.27.512.163 1.17.822 1.462 1.464.293.643.895 1.332 1.337 1.531 2.856 1.283 2.953 1.417 2.953 4.082 0 3.193 1.674 5.863 3.996 6.373 2.586.568 3.09 1.65 1.664 3.577l-1.218 1.647 1.092 1.092c.952.952 2.167 1.158 9.484 1.607 7.164.44 8.525.398 9.3-.281 3.278-2.87 8.866-3.907 15.134-2.807 3.759.66 4.738 1.04 5.56 2.165.55.75 1.878 1.845 2.953 2.433 1.075.587 2.679 1.486 3.564 1.998 3.997 2.307 10.09 3.616 20.666 4.439 10.435.811 15.925 1.491 19.592 2.426 1.771.451 4.196 1.004 5.387 1.227 1.192.224 2.492.608 2.89.854.397.246 3.287.623 6.422.839 7.213.496 9.724 1.544 9.724 4.057 0 1.621.135 1.738 2.38 2.075 1.31.197 11.636.062 22.948-.299 11.311-.36 24.31-.675 28.886-.698 9.869-.05 33.407.349 33.876.575.18.087 6.581.297 14.224.466 7.643.169 15.225.394 16.849.5 1.623.106 7.735.343 13.58.528 9.858.312 10.617.27 10.467-.586-.226-1.29 2.279-1.724 6.863-1.19 2.041.239 9.388.703 16.325 1.031 17.025.807 19.38 1.029 20.258 1.906.414.414 1.52.764 2.46.778.938.014 6.536.266 12.44.56 5.905.295 11.46.544 12.346.555 1.513.018 8.08.594 14.762 1.294 1.623.17 5.906.449 9.516.62 5.761.272 6.606.203 6.902-.567.43-1.122 1.268-1.119 2.092.007.561.768 1.81.87 9.427.775 8.373-.106 8.82-.058 9.635 1.023.934 1.238 1.31 1.268 14.18 1.13 5.768-.062 6.47-.176 7.156-1.155.72-1.028 1.272-1.08 10.513-.985 8.818.09 9.958-.003 11.9-.979 4.039-2.03 17.261-2.389 35.257-.955 6.921.551 10.467.632 11.44.262 2.099-.798 5.243-.651 7.222.336 1.257.627 2.508.783 4.436.555 2.465-.292 2.817-.187 4.274 1.27 1.526 1.526 1.77 1.586 6.248 1.535 4.72-.053 7.355.333 8.523 1.251.395.31.984.314 1.53.01.488-.275 2.006-.318 3.382-.098 1.373.22 5.58.698 9.35 1.064 5.99.582 6.972.564 7.784-.145.782-.682 1.818-.733 6.565-.324 3.1.267 6.844.49 8.32.494 1.476.004 4.254.467 6.173 1.027 1.919.56 5.421 1.256 7.783 1.546 5.443.668 8.967 1.35 9.875 1.912.391.242 1.784 1.435 3.095 2.652 2.789 2.588 3.618 2.893 8.066 2.964 3.635.059 4.508.666 3.136 2.181-.587.65-.697 1.108-.32 1.34 1.128.698.535 1.302-1.442 1.466-1.854.153-2.07.349-2.745 2.478-.67 2.12-.648 2.373.269 3.045.55.403 1.616.61 2.37.46 1.025-.204 1.827.154 3.187 1.424 1.304 1.218 1.627 1.814 1.144 2.112-.748.463-3.25.134-4.112-.54-.557-.436-3.309.609-2.943 1.117.106.148-.083.785-.421 1.417-.541 1.01-.44 1.216.848 1.722.805.315 4.54.689 8.3.829 3.761.14 7.082.406 7.381.59.912.565.607 1.347-.526 1.347-1.29 0-5.372 1.707-5.372 2.247 0 .211-1.905.255-4.234.097-2.656-.18-4.363-.08-4.579.27-.56.906 5.108 2.115 11.766 2.509 1.771.104 5.394.32 8.051.48 2.657.159 7.971.447 11.81.64 6.903.348 6.993.37 8.453 1.982.812.896 1.476 2.073 1.476 2.615 0 1.362 2.97 3.042 6.119 3.461 1.527.204 3.076.798 3.696 1.418 1.73 1.73 4.712 2.215 21.948 3.566 6.777.532 12.53 1.18 12.786 1.442 1.074 1.1 1.058 3.173-.035 4.469-1.066 1.264-1.321 1.306-7.322 1.191-5.343-.101-6.128-.01-5.58.65.351.424 1.222.916 1.935 1.095.714.18 1.947.927 2.74 1.663l1.444 1.337h-1.837c-1.816 0-1.835.025-1.635 2.124.184 1.931.071 2.156-1.25 2.487-.839.211-2.785-.006-4.608-.513-1.736-.482-3.836-.877-4.667-.877-1.465 0-2.8.825-2.8 1.73 0 .618 2.544 1.542 5.077 1.846 2.584.311 2.77.417 3.128 1.783.264 1.01.027 1.083-3.558 1.09-4.73.01-6.36.762-2.973 1.37 1.294.232 2.909.36 3.59.285.68-.075 1.827.25 2.55.723.72.473 1.311.75 1.311.616s.785.004 1.745.306c.96.302 3.675.879 6.034 1.282 3.647.623 4.491.974 5.636 2.34.74.884 2.01 1.766 2.823 1.96.811.193 1.476.548 1.476.788 0 .542-2.788 1.175-5.635 1.28-1.182.043-2.707.39-3.39.77-.683.38-1.975.615-2.873.52-.897-.093-1.663-.05-1.703.098-.098.368 1.8 3.072 3.268 4.652 1.784 1.922 1.51 2.257-1.61 1.965-6.39-.598-6.876-.532-8.188 1.113-.938 1.177-1.553 1.48-2.6 1.28-.82-.157-1.976.136-2.874.728-1.854 1.222-4.545 1.267-7.877.132-2.84-.968-3.632-.702-2.3.77.49.542.892 1.338.892 1.77 0 .46 2.234 1.883 5.401 3.441 2.971 1.462 5.737 3.028 6.146 3.48 1.046 1.156.252 2.122-2.054 2.496-1.567.254-2.742-.067-5.86-1.601-4.38-2.155-18.465-6.348-21.347-6.355-1.033-.002-2.926.137-4.207.311-1.82.247-2.659.081-3.84-.76-1.717-1.222-5.87-1.504-5.97-.405-.124 1.339.165 2.829.644 3.328 1.078 1.12.331 1.435-3.132 1.323-3.793-.123-4.214-.03-3.847.852.429 1.03 6.25 5.635 7.125 5.635.485 0 .882.232.882.516 0 .285 1.025 1.502 2.277 2.706 1.877 1.803 2.137 2.28 1.477 2.708-1.584 1.027-3.13 1.12-4.743.286-2.117-1.094-2.033-1.118-2.688.762-.709 2.031-2.07 2.075-5.717.185-8.057-4.176-7.742-4.06-8.638-3.164-.458.457-.594.831-.303.831.488 0 4.379 4.9 4.379 5.513 0 .832-3.961 2.042-5.527 1.688-.946-.213-2.686-.457-3.867-.542a48.781 48.781 0 0 1-4.172-.514c-1.216-.216-2.663-.096-3.623.302-1.302.54-1.764.525-2.486-.074-.488-.405-.944-.616-1.014-.468-.184.393-6.687-3.346-6.687-3.845 0-.447-4.395-2.596-5.31-2.596-.295 0-1.673-.604-3.061-1.342-3.665-1.949-6.625-1.83-8.81.356-1.234 1.234-2.431 1.813-4.385 2.122-3.495.553-4.54 1.353-3.407 2.606.45.498.819 1.292.819 1.766 0 .997-1.696.853-4.965-.421-2.22-.865-2.442-.762-1.144.536.478.478.725 1.012.55 1.188-.487.487-6.393-2.228-9.506-4.37-3.205-2.205-5.083-2.525-4.629-.789.207.793.081 1.035-.436.837-.4-.154-1.65-.433-2.779-.62-1.128-.188-3.259-.849-4.735-1.468-1.986-.833-4.068-1.164-8.01-1.274-2.93-.081-6.013-.432-6.852-.78-.999-.413-3.6-.546-7.53-.384-3.303.136-7.09.044-8.416-.203-1.517-.284-2.612-.25-2.951.09-.78.78-3.657.663-5.81-.237-1.334-.557-4.649-.822-11.74-.94-9.416-.155-9.959-.107-11.493 1-1.2.865-3.048 1.327-7.246 1.81-3.1.355-6.635.98-7.855 1.387-1.22.407-4.964.873-8.32 1.037-3.355.163-6.705.41-7.443.55-.738.14-3.941.478-7.118.75-3.177.272-5.956.605-6.175.74-2.307 1.426-47.419 1.3-66.149-.184-3.395-.269-8.347-.645-11.004-.836-6.615-.475-8.566-.637-12.614-1.052l-3.489-.357 1.61 1.155 1.611 1.156-4.174-.275c-2.606-.172-4.054-.082-3.854.24a.6.6 0 0 0 .819.208c.275-.17.5-.093.5.17 0 .268-5.504.466-12.48.45-6.864-.016-15.862.28-19.995.656-9.605.876-19.295 1.483-35.427 2.22-14.704.671-15.15.716-18.787 1.884-2.381.764-7.553.852-45.894.781-59.31-.11-70.454-.371-86.42-2.03a519.084 519.084 0 0 0-9.661-.9c-2.51-.203-4.708-.457-4.887-.564-.641-.385-13.663-.376-14.88.01-.729.232-1.131.69-.971 1.108.371.969-.764 1.319-3.233.998-1.712-.223-9.725-.25-20.85-.071-1.18.018-4.803.005-8.05-.031-3.248-.036-6.69.044-7.65.178-1.952.271-2.2-.078-.805-1.136.856-.65.812-.715-.498-.73-.791-.01-1.818-.397-2.282-.861-.487-.488-.843-.588-.843-.237 0 .334-.225.468-.5.298-.275-.17-.655-.057-.845.25-.59.955-4.15.427-4.434-.656-.138-.527-.593-.959-1.01-.959-.418 0-.88-.315-1.029-.701-.148-.386-1.223-.758-2.39-.826-1.832-.108-2.074.006-1.78.835.485 1.375 2.39 3.376 3.212 3.376.916 0 2.527 2.475 2.08 3.197-.19.308-.68.56-1.087.56-1.452 0-1.398 1.142.208 4.44.896 1.84 1.61 3.464 1.585 3.612-.024.148.575 1.375 1.33 2.727.79 1.417 1.35 3.238 1.319 4.295-.03 1.009-.154 1.54-.275 1.18-.361-1.074-5.788-3.91-9.53-4.98l-3.496-1-.604 1.128c-.483.902-.43 1.254.261 1.76.954.697.637 1.41-.442.996-.38-.147-1.179.58-1.808 1.647-1.024 1.735-1.345 1.909-3.528 1.909-1.321 0-2.552.242-2.735.539-.408.66-2.912.12-4.067-.88-2.305-1.994-3.4-.283-3.229 5.044.084 2.607-.078 3.432-.723 3.679-.456.175-.729.483-.604.684.4.65-2.093.405-2.648-.26-.585-.7-6.577-2.912-7.819-2.886-.423.01.318.968 1.646 2.131 2.808 2.459 2.184 2.738-1.643.737-2.917-1.525-7.482-2.356-7.482-1.362 0 .323.504.858 1.12 1.187 1.617.865.99 1.122-1.155.472-1.014-.307-3.51-.618-5.549-.69-3.132-.11-3.992.065-5.56 1.128-1.788 1.214-2.03 1.239-6.874.699-6.827-.761-6.777-.766-6.576.626.108.747.665 1.301 1.508 1.499 2.54.595.075 1.165-3.422.79-3.154-.337-3.418-.282-3.692.765-.162.62-.17 1.603-.019 2.183.237.906.597 1.011 2.536.746 2.056-.282 2.39-.156 3.7 1.401.966 1.149 1.44 2.334 1.44 3.605 0 1.877-.018 1.891-2.014 1.63-1.107-.145-2.556-.44-3.22-.656-1.04-.337-1.208-.2-1.208.978 0 .753-.24 2.001-.534 2.773-.293.772-.622 5.03-.73 9.461-.111 4.55-.438 8.299-.751 8.612-.931.93-2.496.259-3.047-1.308-.357-1.015-.318-2.245.123-3.894.355-1.326.645-3.362.645-4.524 0-2.625-1.016-7.574-1.739-8.473-.297-.369-.33-.675-.072-.68.258-.004.14-.215-.26-.468-.6-.381-.57-.7.17-1.83.553-.844.832-2.155.727-3.422-.156-1.903-.28-2.042-1.688-1.893-1.139.121-1.589-.103-1.796-.895-.152-.581-.928-1.327-1.724-1.657-2.079-.86-5.34.568-6.14 2.691-.329.868-.966 1.588-1.418 1.6-.455.012-.14.392.705.85 1.294.7 6.256 5.408 6.256 5.934 0 .652-3.403-.06-5.593-1.172-3.079-1.562-5.704-1.858-4.591-.517.94 1.134-.714 2.356-3.235 2.39-1.033.013-2.228.246-2.656.516-.5.317-1.432.218-2.615-.276-1.984-.83-3.497-1.05-2.455-.358.326.217.76 1.3.963 2.408.227 1.234.673 2.013 1.151 2.013.43 0 .781.483.781 1.073 0 .597.358 1.074.805 1.074.443 0 .805.362.805.805 0 .495-.503.805-1.308.805-1.026 0-1.633.604-2.818 2.803-.83 1.542-2.334 3.356-3.342 4.031-1.007.676-2.094 1.75-2.415 2.388-.703 1.398-1.28 1.593-2.849.964zm-5.614-13.851c.114-.774-.112-1.166-.671-1.166-.549 0-.843.485-.843 1.387 0 1.681 1.26 1.497 1.514-.221zm12.32-7.17c-.333-.996-1.488-1.161-1.488-.213 0 .467.382.85.85.85.467 0 .754-.287.637-.638zm-23.355-13.207c-.07-.652.083-1.186.34-1.186.64 0 1.062-2.46.562-3.27-.311-.504-.854-.445-2.326.254-1.55.736-1.825 1.088-1.424 1.83.272.504.64 1.598.815 2.43.396 1.87 2.235 1.818 2.033-.058zm83.829-5.96c.34-.55-.906-1.13-2.425-1.13-.566 0-1.03.362-1.03.805 0 .888 2.936 1.164 3.455.324zm9.965-3.074c0-.183-.665-1.379-1.476-2.657-1.4-2.205-2.66-3.251-3.23-2.682-.533.533.46 2.028 1.531 2.308.768.2 1.033.603.852 1.292a1.373 1.373 0 0 0 .628 1.52c1.037.606 1.695.69 1.695.22zm141.17-29.4c0-.116-.362-.35-.805-.52-.443-.17-.805-.075-.805.211s.362.52.805.52c.443 0 .805-.095.805-.211zm3.885-.169c-.667-.128-1.633-.123-2.147.011-.513.134.033.24 1.214.234 1.181-.006 1.601-.116.933-.245zm196.33-.14c0-.286-.362-.38-.805-.21-.443.169-.806.403-.806.519 0 .116.363.211.806.211.442 0 .805-.234.805-.52zm-203.294-.395c-.66-.127-1.868-.13-2.684-.007-.816.124-.276.228 1.2.232 1.477.004 2.144-.097 1.484-.224zm-100.132-1.583c.357-1.07-3.167-2.007-6.98-1.856-1.306.052-1.425.19-.938 1.1.794 1.484 7.463 2.12 7.918.756zM889.17 491.877c-.144-.234-.746-.425-1.336-.425-.59 0-.934.226-.763.502.17.277.772.468 1.336.425.565-.042.908-.268.763-.502zm-19.203-2.879c5.565-1.618 2.413-2.184-3.406-.612-1.255.339-2.282.805-2.282 1.036 0 .675 2.563.485 5.688-.424zm-471.477-2.825c.315-.315.312-.623-.01-.82-.717-.443-7.635.257-7.635.773 0 .958 6.688 1 7.64.047zm15.44-1.163c0-.295-.966-.536-2.147-.536-1.18 0-2.147.241-2.147.536 0 .296.966.537 2.147.537 1.181 0 2.147-.241 2.147-.537zm-1.85-2.637c-.167-.27-1.985-1.151-4.042-1.958-3.078-1.207-3.883-1.346-4.56-.785-1.986 1.649-.792 2.502 4.011 2.864l3.655.275c.682.052 1.103-.127.936-.396zm-19.71-.619c1.007-.04-4.562-1.67-5.815-1.701-2.796-.072-3.757.186-3.757 1.006 0 .75.475.837 3.22.588 1.846-.168 3.358-.07 3.543.23.178.288.68.385 1.118.218a6.367 6.367 0 0 1 1.69-.34zm39.274.067c0-.277-.242-.654-.537-.836-.295-.183-.537-.796-.537-1.364 0-1.12 2.16-1.976 3.264-1.293.353.218 1.605.478 2.783.578 1.177.1 2.426.418 2.776.708.978.812 21.402 2.484 21.64 1.771.127-.381 1.614-.492 4.323-.321 3.808.24 4.049.195 3.091-.578-1.247-1.007-1.476-2.777-.468-3.613.838-.695 7.727-.278 10.062.61.795.302 4.237.55 7.649.55 5.453 0 6.122-.098 5.535-.806-.368-.443-1.108-.805-1.644-.805-.537 0-1.143-.27-1.346-.598-.216-.35-1.192-.488-2.351-.332-1.15.154-2.53-.038-3.286-.457-.717-.397-2.458-.73-3.87-.741-1.411-.01-3.948-.464-5.636-1.009-3.86-1.244-17.067-1.59-21.114-.552-2.233.572-3.024.547-5.178-.165-1.398-.462-3.63-.781-4.958-.709-1.445.08-3.397-.28-4.86-.894-2.42-1.016-2.468-1.015-4.83.057-3.046 1.381-4.56 1.374-8.651-.042-2.763-.956-3.598-1.045-5.006-.537-2.396.867-4.124.762-6.873-.416-2.566-1.1-4.128-2.833-4.141-4.594-.022-2.903-.46-2.977-13.396-2.263-7.345.406-9.244.73-7.634 1.303.386.137 1.281.829 1.989 1.537 1.596 1.597 2.115 1.596 4.922-.01 2.937-1.679 3.442-1.069.92 1.11-1.928 1.667-1.966 1.767-1.14 3.026.513.784 1.562 1.42 2.635 1.597.98.161 3.391 1.041 5.358 1.955 1.966.913 3.964 1.66 4.438 1.66.967 0 5.363 2.169 8.634 4.26 1.186.757 2.636 1.664 3.221 2.016 1.29.774 14.216.954 14.216.197zm-5.596-4.196c-.788-.788-.124-1.203 1.928-1.203 1.23 0 2.108.128 1.951.285-.512.513-3.563 1.235-3.879.918zm-44.029-12.423c.28-.267.993-.609 1.584-.76.59-.152-.115-.236-1.568-.187-1.569.053-2.732.362-2.863.76-.257.782 2.062.934 2.847.187zm-7.628-10.88c.669-1.061.102-2.591-.96-2.591-.446 0-.96.59-1.14 1.311-.582 2.317.882 3.21 2.1 1.28zm-1.214-6.724c.733-1.93.43-1.975-1.641-.246-1.08.902-1.645 1.758-1.41 2.138.578.935 2.407-.2 3.05-1.892zm-195.693-.162c-.183-.295-.861-.533-1.508-.528-.956.007-1.026.105-.371.528 1.057.684 2.301.684 1.879 0zm3.489-11.341c2.71-1.644 3.66-3.38 1.668-3.05-.559.092-1.516-.284-2.126-.836-.916-.828-1.561-.935-3.681-.609-2.194.337-2.394.462-1.363.852 1.253.474 1.387.837 1.224 3.31-.08 1.215.123 1.475 1.15 1.474.687-.001 2.094-.515 3.128-1.141zm38.009-5.089-.167-2.624-5.1-.584c-5.752-.659-6.43-.564-6.062.843.19.729.97 1.093 2.907 1.36 1.456.2 3.042.763 3.526 1.25 1.85 1.867 4.152 3.29 4.599 2.842.255-.254.388-1.644.297-3.087zm-13.855-3.4c0-.714-2.21-2.177-3.29-2.177-.77 0-.812.196-.282 1.338.44.949 1.049 1.339 2.096 1.342.812.002 1.476-.224 1.476-.503zm-31.4-.567c-.183-.295-.741-.533-1.24-.528-.782.007-.797.08-.103.528 1.052.68 1.762.68 1.342 0zm71.762 241.815c.144-.296-.182-.96-.726-1.476-.544-.517-.988-.693-.988-.39 0 .301-.604.153-1.342-.33-.738-.484-1.342-.627-1.342-.318 0 .31-.544.732-1.208.94-.664.207-1.357.609-1.54.892-.19.296-1.22-.038-2.415-.782-1.146-.714-2.506-1.455-3.023-1.645-.517-.19-.94-.717-.94-1.169 0-.452-.24-.822-.536-.822-.295 0-.537-.255-.537-.568 0-.313.208-.44.461-.283.403.248.433-.96.066-2.638-.25-1.143.071-1.793 1.782-3.607 1.458-1.546 2.293-1.943 4.721-2.247 3.087-.385 5.871.482 6.216 1.937 1.074 4.53 1.171 6.538.344 7.143-.745.545-.62.683.89.985 1.648.33 1.736.46 1.412 2.08-.19.95-.618 1.976-.95 2.28-.374.342-.506.349-.344.017zm-40.899-2.2c0-.956 1.17-4.758 2.843-9.236.705-1.888 1.303-2.755 1.777-2.573.393.15.88.006 1.082-.322.239-.386.121-.443-.334-.162s-.573.224-.334-.162c.367-.594 1.959-.303 1.929.354-.01.19-.485 2.035-1.058 4.102-.573 2.067-1.05 4.274-1.058 4.906-.021 1.553-1.574 3.228-3.37 3.636-1.145.26-1.477.138-1.477-.542zm1.342-.753c-.182-.295-.438-.536-.568-.536-.13 0-.237.241-.237.536 0 .296.256.537.569.537.312 0 .419-.241.236-.537zm17.302-10.35c.365-3.128.705-4.19 1.233-3.864.286.177.52.066.52-.247 0-.312-.34-.568-.754-.568-.513 0-.656-.378-.447-1.18.294-1.124.327-1.13.717-.133.295.751.439.819.515.24.058-.444.308.76.556 2.675.468 3.624.214 4.383-1.557 4.653-.816.124-.95-.147-.783-1.576zm-96.184-6.79c-.397-.641.613-1.278 1.328-.836.6.371.206 1.337-.545 1.337-.26 0-.613-.225-.783-.5zm42.114-4.81c0-.263.382-.626.849-.805 1.313-.504 1.486-.394.761.48-.74.892-1.61 1.068-1.61.325zm16.103-1.936c.367-.443.789-.805.936-.805.148 0-.032.362-.4.805-.367.443-.788.805-.936.805-.148 0 .032-.362.4-.805zm-11.01-.814c-.29-.469-.52-1.396-1-4.017-.054-.295-.286-.838-.517-1.207-.274-.44-.084-.693.552-.735 6.382-.416 6.838-.407 5.932.115-.52.299-1.178.398-1.465.221-.287-.177-1.025-.052-1.64.277-.819.438-.97.78-.561 1.272.389.47.376.855-.043 1.275-.444.444-.3.522.55.3 1.308-.342 1.349-.232.626 1.668-.53 1.393-1.815 1.832-2.434.831zm603.748-5.146c.178-.179.641-.198 1.029-.043.428.172.3.299-.324.325-.566.023-.883-.104-.705-.282zm-688.546-1.277c-.186-.3.04-.546.5-.546.943 0 1.081.322.337.782-.275.17-.652.064-.837-.236zm302.27-5.645c-.17-.443-.075-.805.21-.805.287 0 .52.362.52.805 0 .443-.095.805-.21.805-.117 0-.35-.362-.52-.805zm-210.269-1.202c-1.154-3.036.488-6.343 3.413-6.873 1.183-.215 1.391-.015 1.7 1.634.211 1.124.666 1.878 1.134 1.878 1.102 0 1.02.183-1.186 2.64-2.384 2.655-4.225 2.917-5.06.72zm-92.05-1.82c-.46-.746.433-1.85 2.894-3.568 2.924-2.044 10.265-5.701 10.657-5.31.396.396-.844 2.506-1.472 2.506-.298 0-1.703 1.087-3.123 2.416-1.42 1.328-2.827 2.415-3.126 2.415-.298 0-1.141.471-1.873 1.047-1.273 1.001-3.473 1.277-3.956.495zm17.606-2.163c.115-.343 1-1.047 1.967-1.566.967-.519 2.162-1.277 2.655-1.685 1.223-1.01 6.273-3.642 6.991-3.642 1.46 0-.313 1.559-4.5 3.958-2.511 1.44-4.696 2.828-4.856 3.087-.436.706-2.496.567-2.257-.152zm282.76-13.31c0-.281.89-.397 1.977-.258 2.777.355 2.917.771.26.771-1.23 0-2.237-.23-2.237-.512zm-339.417-.382c-.197-.196-.358-1.006-.358-1.798 0-1.263.4-1.598 3.27-2.728 1.797-.709 3.496-1.711 3.775-2.228.28-.517 1.119-.94 1.866-.94 1.714 0 2.583-.47 6.94-3.77 3.299-2.496 5.694-3.317 6.39-2.189.662 1.07-.469 3.87-2.308 5.716-2.333 2.343-5.565 4.094-8.077 4.376-1.007.114-3.325 1.042-5.15 2.063-3.122 1.745-5.532 2.314-6.348 1.498zm645.52-4.26c.179-.179.642-.198 1.03-.043.427.172.3.299-.325.325-.566.023-.883-.104-.705-.282zm-607.667-2.412c.242-.743 4.65-2.505 6.475-2.589 2.867-.131-1.218 2.449-4.796 3.03-1.501.243-1.87.147-1.678-.441zm42.504-4.496c-.438-1.142-.18-1.34 2.275-1.738l2.07-.336-.857 1.298c-1.032 1.561-3.017 2.003-3.488.776zm-2.347-5.607c0-.455 3.251-2.727 3.902-2.727.158 0-.39.724-1.218 1.61-1.48 1.584-2.684 2.086-2.684 1.117zm-60.48-22.204c-.155-.25-.198-.52-.094-.597 2.92-2.21 5.824-2.672 5.824-.925 0 1.653-4.853 2.942-5.73 1.522zm51.892-33.06c0-.555.383-1.327.851-1.715.468-.389 1.368-1.805 1.999-3.147 1.496-3.183 6.463-8.083 9.507-9.379a360.767 360.767 0 0 0 5.625-2.474c1.771-.798 4.788-1.624 6.704-1.836 1.916-.212 3.771-.624 4.123-.916.61-.506 6.472-1.603 9.285-1.738.939-.045 1.528.352 2.017 1.359 1.34 2.76-.256 3.844-8.173 5.55-7.157 1.544-10.339 2.768-12.488 4.805-1.103 1.045-2.231 1.902-2.507 1.905-.277.002-1.624.95-2.995 2.106-1.37 1.156-3.4 2.481-4.51 2.945-1.11.464-2.74 1.45-3.623 2.193-2.044 1.72-5.815 1.941-5.815.341zm16.775-20.332c-2.447-.419-1.956-4.88.555-5.038 5.499-.347 8.877 1.342 5.348 2.675-.811.306-2.2 1.01-3.086 1.564-.886.553-2.153.913-2.817.8zm6.43-10.33c.37-.59 1.133-1.074 1.699-1.074.993 0 .995.036.056 1.074-.535.59-1.299 1.073-1.698 1.073-.593 0-.603-.198-.056-1.073zm-6.565-3.238c0-.882 2.173-1.449 4.535-1.184 2.563.288 2.96.545 1.89 1.222-1.082.684-6.425.652-6.425-.038zm23.698-5.675c-.4-.45-.588-.957-.42-1.125.414-.415 3.56.923 3.56 1.514 0 .783-2.363.49-3.14-.389zm13.296.004c-.62-.748-.55-.833.563-.67.701.101 1.374.487 1.495.856.319.966-1.217.827-2.058-.186zm-26.817-7.489c-1.127-1.358.64-4.413 3.113-5.384 2.331-.916 2.57-1.052 5.49-3.131 1.652-1.177 2.347-1.411 2.811-.947.465.465.305.949-.646 1.96-1.083 1.154-1.175 1.534-.651 2.685.868 1.905.439 2.502-3.014 4.19-3.386 1.657-6.053 1.893-7.103.627zm-55.514-2.894c-.139-.224.344-.726 1.072-1.116.728-.39 1.323-.875 1.323-1.08 0-.204.556-.265 1.236-.135.68.13 2.67-.248 4.423-.84 1.753-.592 3.29-.973 3.417-.847.301.301.256.327-3.171 1.768-3.93 1.653-7.99 2.753-8.3 2.25zm825.62-2c-.618-.618-.391-1.253.447-1.253.443 0 .805.362.805.805 0 .838-.634 1.065-1.252.447zm-834.497-1.49c0-.13.242-.386.537-.568.295-.183.537-.076.537.237 0 .312-.242.568-.537.568-.295 0-.537-.107-.537-.237zm-9.29-6.042c-1.468-.383-.852-1.907.968-2.394.894-.239 2.443-.198 3.489.093 1.034.287 3.45.528 5.37.534 3.556.011 5.222.537 4.648 1.466-.321.52-12.65.776-14.475.3zm37.497-5.47c.812-.758 2.926-1.257 2.926-.69 0 .586-1.278 1.167-2.567 1.167-.53 0-.67-.185-.359-.477zm4.321-1.588c1.004-1.172 3.972-1.634 3.972-.619 0 .295-.18.568-.402.605-.222.038-.886.132-1.476.21-.59.078-1.526.325-2.079.55-.977.4-.978.38-.015-.746zm354.772-6.71c-.817-.597-.858-.805-.237-1.192.991-.618 2.68-.865 3.573-.522.544.209.576.533.136 1.356-.67 1.25-2.055 1.394-3.472.358zm-309.603-.72c-.516-.135-.939-.478-.939-.762 0-.311.427-.288 1.074.058.59.316 1.073.687 1.073.824 0 .137-.06.222-.134.187-.074-.034-.557-.172-1.074-.307zm-20.531-4.411c-2.31-.274-2.709-.497-2.865-1.6-.41-2.898 2.936-2.94 5.972-.074 2.53 2.389 2.601 2.35-3.107 1.674zm314.547.135-2.282-.485c-.853-.182-1.207-.643-1.207-1.57 0-1.59 1.385-2.424 4.025-2.424 3.775 0 5.355 2.229 2.833 3.995-1.212.85-1.468.886-3.37.484zm-291.466-1.259c.183-.295.921-.536 1.642-.536.72 0 1.31.241 1.31.536 0 .296-.739.537-1.642.537-.958 0-1.503-.224-1.31-.537zm279.416-10.97c-.522-.629-.34-.927.981-1.61 1.728-.894 3.606-1.099 3.996-.436.13.221.032.946-.22 1.61-.35.927-.881 1.208-2.286 1.208-1.007 0-2.119-.348-2.471-.772zm-6.724-.949c-.582-.338-1.911-.8-2.952-1.025-1.04-.226-3.22-.883-4.844-1.459-1.624-.576-4.213-1.175-5.753-1.33-1.54-.157-3.03-.427-3.31-.6-.94-.58-18.012-.707-20.552-.152-4.272.932-7.113-1.174-6.543-4.851.156-1.007-.06-1.208-1.3-1.208-.818 0-2.052-.395-2.742-.879-1.083-.758-1.218-1.206-.985-3.274.165-1.46-.01-2.935-.445-3.775-.5-.965-.556-1.678-.184-2.372.483-.902.346-.968-1.506-.72-1.12.15-3.245.386-4.721.523s-4.081.416-5.79.62c-2.664.317-3.208.228-3.831-.625-.842-1.151-.627-2.003 1.09-4.33l1.242-1.68-2.303-.645c-2.729-.764-6.987-.128-10.16 1.518-1.45.751-2.458.937-3.49.643-.797-.227-4.032-.355-7.187-.283-6.081.138-6.44.265-10.81 3.84-1.67 1.366-3.85 1.584-6.011.6-1.091-.498-1.638-.498-2.434 0-.564.352-1.387.64-1.827.64-.66 0-.693-.237-.19-1.342.397-.87 1.05-1.341 1.857-1.341.916 0 1.339-.391 1.596-1.477.744-3.13 1.95-3.69 8.77-4.076 1.96-.11 3.55-.462 3.667-.81.113-.339.54-.615.949-.615.44 0 .617.328.434.805-.46 1.198 1.578 1.022 3.101-.269 1.173-.993 1.197-1.116.328-1.637-1.238-.742-1.193-1.946.1-2.638 1.304-.698 5.769-.729 6.193-.042.175.282.68.374 1.125.203.445-.17 1.826.057 3.07.506 3.987 1.44 7.297 2.02 9.504 1.668 1.904-.305 2.15-.513 2.15-1.82 0-.812-.386-1.796-.857-2.187-.783-.65-.78-.739.03-1.023.49-.172 2.989-.087 5.555.188 3.338.358 5.563.315 7.82-.15 2.937-.608 8.953-.498 15.23.276 2.13.262 2.281.195 2.281-1.01 0-.711.484-1.73 1.075-2.265.937-.848 2.163-.98 9.528-1.023 8.643-.05 10.34-.355 9.258-1.66-.432-.52-1.786-.649-5.082-.483-4.342.218-4.531.178-5.61-1.194-1.495-1.9-1.412-2.987.493-6.458.886-1.614 1.61-3.12 1.61-3.345 0-.226-.702-.308-1.561-.182-.86.126-1.968.002-2.464-.275-.737-.413-.329-.777 2.222-1.985 2.452-1.16 3.328-1.352 4.067-.89 1.465.914 3.377.696 4.469-.51 1.538-1.7 3.91-2.529 8.28-2.892 2.262-.188 4.585-.712 5.334-1.203.738-.483 2.89-.976 4.849-1.11 3.378-.23 4.574.041 7.429 1.687 1.012.583 2.032.58 5.904-.02 4.993-.772 9.498-1.93 12.318-3.164 2.695-1.181 8.751-2.454 11.418-2.4l4.831.097c1.329.028 5.073-.463 8.32-1.09 3.248-.628 7.233-1.15 8.857-1.16 1.624-.01 3.918-.235 5.1-.5 1.18-.263 3.837-.632 5.904-.82 5.584-.505 7.31-.837 8.546-1.643 2.843-1.854 9.01-2.138 11.227-.516.816.596.9 1.081.524 2.987-.623 3.148-2.435 3.756-9.323 3.131-5.003-.454-6.407-.355-18.489 1.304-3.247.446-7.399.956-9.225 1.133-1.826.177-4.363.707-5.636 1.176-1.473.543-4.854.95-9.294 1.117-4.58.173-7.38.518-8.147 1.001-.644.406-2.214.89-3.49 1.076-3.755.549-8.05 1.818-10.638 3.143-1.329.68-3.606 1.39-5.06 1.577-1.455.187-3.025.676-3.49 1.086-.83.734-3.317 2.1-7.007 3.849-1.028.487-3.806 1.017-6.173 1.177-3.328.226-4.788.596-6.439 1.635-3.01 1.894-3.834 2.785-3.033 3.28.353.218.488.8.299 1.291-.291.759-.07.846 1.458.578.99-.174 2.59-.555 3.555-.848.965-.292 3.53-.61 5.7-.704 3.131-.137 4.402-.46 6.153-1.565 1.213-.767 2.8-1.393 3.524-1.393.725 0 1.877-.211 2.56-.469 1.812-.682 3.281.08 4.48 2.325 1.046 1.956 1.046 1.985.015 2.744-.633.466-2.319.767-4.297.767-1.79 0-4.1.26-5.131.577-1.031.318-4.05.557-6.706.531-3.82-.037-5.237.171-6.771.995-1.067.573-2.879 1.199-4.026 1.39-1.147.192-2.448.474-2.89.629-.444.154-3.1.332-5.905.396-5.907.134-8.688.908-9.899 2.756-.663 1.011-1.33 1.315-2.89 1.315-1.117 0-3.282.623-4.812 1.386-4.122 2.054-7.09 1.051-7.09-2.394 0-.954-.293-1.056-2.55-.89-1.403.102-3.154.42-3.892.705-.738.286-2.102.684-3.03.886-.93.202-2.118.84-2.641 1.419-.913 1.009-.91 1.084.079 1.837.68.518 1.88.713 3.529.574 2.162-.183 2.538-.063 2.787.889.268 1.027.55 1.076 4.21.733 5.076-.476 9.752-1.322 12.78-2.315 1.328-.435 3.985-1.005 5.904-1.265 1.92-.26 4.569-.629 5.888-.819 1.32-.19 3.295-.91 4.39-1.601 1.767-1.116 2.703-1.268 8.336-1.354 4.773-.073 7.054-.356 9.202-1.144 1.57-.576 3.319-.926 3.885-.778.586.153 1.663-.229 2.499-.887 1.4-1.102 2.056-1.16 14.096-1.249 8.835-.065 14.24-.36 17.995-.981 4.876-.807 7.48-1.191 14.762-2.18 3.074-.416 4.986 1.06 4.727 3.652-.268 2.673-1.05 2.832-10.455 2.13-6.027-.45-9.59-.474-12.254-.082-6.707.985-12.143 1.194-14.294.55-1.635-.49-2.686-.451-5.161.19-1.71.443-3.643.666-4.296.495-.714-.187-1.92.122-3.03.777-3.894 2.298-19.698 7.155-23.776 7.308-1.257.047-2.691.486-3.255.997-1.344 1.216-4.037 1.71-5.386.987-.812-.435-1.685-.39-3.42.175-3.908 1.272-8.626 1.912-11.546 1.565-1.525-.182-3.457-.157-4.294.054l-1.52.384 1.341.688c.738.379 2.24.85 3.336 1.048 2.419.437 2.955 1.148 1.816 2.407-1.42 1.57-1.089 3.099.753 3.467 1.474.295 2.325 1.422 1.073 1.422-1.35 0-.26.97 2.818 2.506 4.971 2.482 6.285 2.783 15.969 3.666 4.871.444 9.823 1.061 11.004 1.372 1.18.31 4.04.78 6.352 1.041 2.314.263 4.79.86 5.502 1.326 3.396 2.225-.759 6.003-4.326 3.935zm-354.012-3.11c0-.295.241-.537.536-.537.296 0 .537.242.537.537a.538.538 0 0 1-.537.537.538.538 0 0 1-.536-.537zm62.265-1.617c0-.291.604-.53 1.342-.53.738 0 1.342.189 1.342.42 0 .23-.604.47-1.342.53-.738.061-1.342-.128-1.342-.42zm295.591-2.74c-.535-.311-3.796-.697-7.246-.857-6.162-.287-9.762-1.134-9.762-2.298 0-.324.624-1.212 1.386-1.975 1.302-1.302 1.605-1.365 4.965-1.036 6.25.61 12.674 1.654 13.59 2.206 1.176.708 1.441 2.567.524 3.672-.839 1.011-2.042 1.112-3.457.289zm-13.521-8.53c-.184-.297.053-.689.528-.87 1.027-.395 1.6.04 1.106.839-.445.72-1.2.736-1.634.032zm-106.95-3.578c-1.41-.984-1.563-2.07-.358-2.533 1.362-.523 2.393-.381 3.215.44.963.964.957 1.114-.077 2.148-1.022 1.022-1.241 1.018-2.78-.055zm-192.224-14.21c-1.52-.562-1.804-1.334-.845-2.293 1.751-1.751 5.932-.537 5.52 1.602-.213 1.104-2.605 1.458-4.675.692zm17.34-1.246c-.572-.433-.786-.796-.473-.805.313-.01 1.037.337 1.61.77.573.434.787.797.474.806-.313.009-1.037-.338-1.61-.771zm119.729-2.974c-.587-.949.305-2.68 1.38-2.68 1.297 0 1.454 2.41.189 2.896-1.114.427-1.177.419-1.57-.216zm10.258-4.692c.176-1.107.546-2.437.823-2.955.588-1.102-.466-5.23-1.336-5.23-.305 0-.088-.342.482-.758.57-.417 1.263-.617 1.541-.446.278.172 1.67.26 3.093.195 2.735-.125 3.443.703 1.782 2.082-.443.367-.806.878-.806 1.134 0 .257-.664 1.133-1.476 1.948-.812.814-1.554 1.934-1.65 2.488-.358 2.083-1.168 3.555-1.957 3.555-.641 0-.747-.43-.496-2.013zm80.434.913c-1.127-1.246-.52-3.433 1.165-4.2 1.608-.733 3.94-.77 5.031-.08.703.445.677.745-.212 2.396-1.412 2.622-4.45 3.578-5.984 1.884zm-37.334-1.916c-.47-.568-.519-1.231-.162-2.244.596-1.698 2.182-2.216 2.472-.81.544 2.639-.981 4.655-2.31 3.054zm60.574.021c-.627-.63-.474-2.381.268-3.087.955-.908 5.241-1.935 6.33-1.517 1.21.466.522 2.386-1.279 3.566-1.528 1.001-4.734 1.627-5.32 1.038zm-135.132-2.373c0-.295.242-.537.537-.537.295 0 .537.242.537.537a.538.538 0 0 1-.537.537.538.538 0 0 1-.537-.537zm24.908-1.157c-.302-.49 1.207-2.008 2.033-2.046.736-.034 1.08 1.163.5 1.742-.792.792-2.132.953-2.533.304zm-149.84-.272c-.37-.149-.672-.708-.672-1.242 0-1.006 1.006-1.623 2.645-1.623 1.187 0 2.948 1.885 2.476 2.65-.357.577-3.212.715-4.45.215zm251.34-.182c-.182-.296.347-.795 1.177-1.11.83-.314 1.991-1.01 2.582-1.549.738-.672 2.329-1.086 5.099-1.325 5.797-.5 7.272-.826 10.25-2.262 2.644-1.276 4.904-1.295 5.675-.048.547.884-1.908 2.537-3.773 2.54-.927.002-2.348.35-3.158.772-.81.423-2.38.761-3.489.752-1.109-.01-3.919.61-6.244 1.375-4.395 1.447-7.547 1.78-8.118.855zm-106.412-3.898c-2.73-1.546-4.964-3.108-4.965-3.47 0-.364-.96-1.15-2.13-1.747-2.495-1.273-3.755-3.11-2.623-3.827 1.151-.73 1.442-.602 3.807 1.67 1.23 1.182 2.548 2.148 2.932 2.148.383 0 .697.208.697.462s1.45 1.235 3.224 2.18c1.974 1.053 3.535 2.32 4.025 3.269 1.489 2.878 1.273 2.848-4.967-.685zm22.718-13.75c-.16-.259.067-1.19.505-2.067.64-1.283.675-1.954.181-3.42-.337-1.003-.874-2.155-1.193-2.56-.518-.659-1.314-2.09-4.431-7.96-.751-1.415-.79-1.867-.223-2.55 1.854-2.235 3.776.18 3.78 4.75 0 1.276.468 2.966 1.11 4.018 1.098 1.801 1.132 1.813 4.292 1.527 2.87-.26 3.185-.189 3.185.73 0 .56-.483 1.319-1.074 1.688-.59.368-1.073.974-1.073 1.346 0 .372-.195.676-.434.676s-1.145.96-2.013 2.135c-1.623 2.193-2.107 2.506-2.612 1.688zm-31.487-.924c-.387-.466-2.286-1.96-4.22-3.32-1.935-1.36-4.312-3.15-5.282-3.979-.97-.828-2.621-1.864-3.668-2.301-1.047-.438-2.566-1.464-3.376-2.28-2.345-2.366-5.536-5.152-7.477-6.528-1.765-1.252-1.777-1.288-.767-2.297 1.339-1.34 2.973-.747 6.075 2.204 1.262 1.201 2.512 2.184 2.776 2.184.265 0 .356.203.203.45-.153.248.723 1.154 1.946 2.013 1.223.86 3.196 2.598 4.386 3.863 1.19 1.265 3.235 2.836 4.546 3.49 2.533 1.263 5.436 4.005 6.078 5.74.501 1.355-.308 1.86-1.22.76zm2.906-2.858c-6.136-4.71-9.457-9.206-6.752-9.143.517.012 2.63 1.581 4.697 3.487 2.066 1.906 4.017 3.466 4.334 3.467.318.001 1.155.617 1.861 1.368.99 1.054 1.156 1.568.726 2.25-.885 1.403-1.357 1.264-4.866-1.429zm64.868-.304c.095-1.137.475-2.168.844-2.289.995-.327.847 2.812-.173 3.658-.745.619-.823.46-.67-1.369zm-149.854-3.436c0-.327-.454-.594-1.008-.594s-1.32-.377-1.703-.838c-.394-.475-1.412-.8-2.348-.751-2.585.137-2.878.04-2.799-.93.041-.499-.414-1.163-1.011-1.475-.62-.325-1.005-.974-.899-1.513.136-.69-.263-1.035-1.483-1.279-1.534-.307-1.603-.408-.841-1.25.749-.827.738-.994-.115-1.738-.52-.453-1.482-1.102-2.14-1.441-1.19-.616-1.19-.623-.134-1.68 1.554-1.554 1.32-2.885-.683-3.882-1.484-.738-1.568-.873-.562-.902.897-.026 1.316-.517 1.734-2.031.36-1.304.369-2.18.025-2.523-.912-.912-.573-1.513.682-1.206 1.692.413 3.112-.768 2.721-2.264-.264-1.01-.113-1.18.965-1.083.703.063 1.762.073 2.352.023.9-.077.943-.178.269-.62-1.51-.992.552-1.613 4.16-1.252 3.334.332 3.354.326 3.354-1.05 0-1.706.722-2.21 2.104-1.471.698.374 1.164.382 1.385.025.585-.947 1.743-.577 2.094.67.331 1.178.358 1.182 1.13.173.767-1.003 1.607-.816 1.607.357 0 .316.455.641 1.01.723.555.081 1.268.406 1.583.722.316.316 1.468.574 2.561.574 1.704 0 2.145.269 3.103 1.891 1.412 2.393 2.278 2.716 4.424 1.645.945-.471 1.86-.702 2.033-.513.174.19.01.454-.365.587-1.108.396-2.334 1.835-2.122 2.49.108.336 1.025 1.006 2.037 1.492 1.012.485 1.719 1.081 1.571 1.326-.148.244.336.75 1.074 1.123s1.16.712.939.754c-.221.04-.644.135-.94.209-.295.074-.899.164-1.341.201-1.176.098-.984 1.844.289 2.64.602.375.96.9.796 1.165-.164.265-.053.634.248.82.772.476.677 2.18-.16 2.874-.388.322-1.657.659-2.818.748-1.434.11-2.113.417-2.113.956 0 1.124-.807 1.582-2.804 1.591-1.345.006-1.897.337-2.476 1.485-.41.811-.642 1.765-.515 2.12.17.475-.207.518-1.44.164-1.472-.422-1.741-.327-2.252.794-.495 1.085-.731 1.18-1.602.64-.807-.5-1.118-.477-1.481.108-.253.407-.702.59-.998.407-.552-.34-4.481.292-6.158.991-.565.236-.94.155-.94-.202zm177.402-3.25c.59-.243 1.692-1.133 2.449-1.98 1.936-2.164 3.989-3.615 8.018-5.667 1.717-.874 6.314-4.12 6.539-4.616.24-.534 5.788-3.212 7.492-3.617.828-.197 1.573-.086 1.791.266.693 1.12-1.213 2.965-4.367 4.226-1.724.69-3.498 1.473-3.94 1.742-.443.268-3.1 1.679-5.905 3.135-2.804 1.456-6.273 3.631-7.707 4.834-1.67 1.399-3.119 2.174-4.026 2.152-1.262-.03-1.3-.083-.344-.475zm-38.578-10.36c-.517-1.93-.387-8.898.172-9.243.935-.578 3.784-6.738 3.801-8.219.02-1.598 1.09-3.338 2.055-3.338.717 0 .748 1.635.123 6.44-.32 2.46-.972 4.322-2.21 6.31-1.14 1.828-1.733 3.433-1.687 4.563.163 3.965-1.455 6.468-2.254 3.486zm-65.767-7.953c-1.863-.833-4.35-3.289-4.35-4.293 0-1.213-4.12-7.103-5.447-7.79-.843-.436-1.532-.998-1.532-1.25s-.73-.76-1.624-1.13c-1.526-.633-4.33-3.75-3.377-3.754.241-.001-.35-.483-1.313-1.07-.963-.587-2.157-1.918-2.652-2.957-.602-1.263-1.883-2.465-3.865-3.627a453.55 453.55 0 0 1-5.17-3.08c-1.212-.738-3.001-1.825-3.976-2.415-.974-.59-3.151-2.07-4.838-3.289-1.687-1.218-3.65-2.517-4.363-2.887-.713-.369-1.78-1.223-2.37-1.898-.59-.675-3.336-2.395-6.1-3.823-3.663-1.89-6.213-3.724-9.394-6.75-2.401-2.285-5.044-4.7-5.873-5.368a879.288 879.288 0 0 1-3.22-2.61 54.412 54.412 0 0 0-3.668-2.684c-1.848-1.217-8.243-6.547-11.221-9.352-.751-.708-2.131-1.84-3.066-2.515-.935-.676-3.141-2.361-4.903-3.745-1.762-1.384-3.885-2.87-4.718-3.3-.832-.432-2.151-1.474-2.93-2.315-2.698-2.915-7.717-7.525-9.587-8.804-1.034-.707-2.12-1.477-2.416-1.71a230.09 230.09 0 0 0-3.006-2.26c-2.764-2.053-4.219-4.725-3.337-6.13 1.432-2.283 6.36-2.06 8.705.393.767.802 2.66 2.777 4.205 4.388 1.544 1.612 3.718 3.651 4.83 4.532 1.112.88 4.104 3.658 6.65 6.172 6.87 6.789 7.591 7.405 9.124 7.79.772.193 1.915 1.043 2.54 1.888.625.846 1.723 1.854 2.441 2.241 3.488 1.883 10.705 7.582 14.643 11.564 2.414 2.441 4.632 4.439 4.929 4.439.296 0 .677.437.847.971.486 1.532 4.649 5.465 6.169 5.828 1.997.477 3.838 1.49 5.672 3.118.886.786 2.82 2.218 4.298 3.18 1.478.964 3.41 2.527 4.294 3.475.884.947 3.237 2.609 5.23 3.692 1.993 1.083 3.623 2.134 3.623 2.336 0 .202 1.63 1.018 3.624 1.813 2.39.954 4.82 2.51 7.144 4.57 1.937 1.718 4.417 3.497 5.51 3.954 1.093.457 2.127 1.193 2.296 1.635.17.443 1.147 1.3 2.171 1.904 1.024.604 1.715 1.337 1.535 1.629-.188.303.028.393.505.21.458-.176.833-.052.833.275 0 .326.377.594.837.594.46 0 .705.213.543.475-.305.494 3.63 1.672 5.589 1.672.619 0 2.072.483 3.23 1.073 1.157.59 2.593 1.074 3.19 1.074.598 0 1.866.696 2.819 1.547 1.578 1.41 1.75 1.876 1.932 5.234.198 3.632.173 3.713-1.724 5.536-2.449 2.355-6.705 3.043-9.918 1.604zm116.106-10.432c-.534-2.127.173-3.97 1.666-4.344.734-.184 1.334-.565 1.334-.845s.242-.361.537-.179c.295.183.537.574.537.869 0 .295-.258.377-.573.183-.315-.195-.518-.028-.452.37.115.694-.082 1.39-1.155 4.08-.635 1.593-1.476 1.534-1.894-.134zm4.23-5.366c-1.485-1.048-1.09-2.204.89-2.6 1.032-.206 1.683-.78 2.045-1.804.292-.826 1.447-2.468 2.566-3.647 1.12-1.18 3.488-3.834 5.265-5.898 1.776-2.064 3.666-4.22 4.199-4.793.533-.573 1.097-1.443 1.253-1.934.355-1.118 2.648-2.388 3.435-1.902.323.2.588.726.588 1.169 0 1.091-3.224 5.036-4.116 5.036-.393 0-.715.23-.715.512 0 .282-1.477 1.707-3.281 3.167-2.565 2.075-3.546 3.307-4.494 5.64-.667 1.641-1.11 3.087-.985 3.213.125.125-.69.792-1.813 1.482s-2.403 1.691-2.846 2.225c-.738.89-.904.9-1.99.134zM183.33 326.261c-1.654-2.292-.567-4.57 1.293-2.711.718.718.89 4.187.208 4.187-.24 0-.915-.665-1.501-1.476z" style="fill:#000"/>
</svg>
