<svg viewBox="50 300 1000 186.586" xmlns="http://www.w3.org/2000/svg">
  <path d="M897.787 485.575c-1.723-.249-1.956-1.698-.271-1.685 1.15.009 2.991 1.058 2.996 1.707 0 .34-.242.338-2.725-.021zm24.788-1.325c-.423-.675 1.526-1.662 2.533-1.283.45.17.82.633.823 1.03.005.826-2.86 1.042-3.356.253zm-20.664-1.266c.35-.144 1.051-.158 1.557-.03.506.129.22.247-.637.263-.856.017-1.27-.088-.92-.233zm-564.23 3.089c-.178-.285-.09-.519.195-.52.286-.003.665.228.844.513.178.284.09.518-.195.52-.286.002-.665-.23-.843-.513zm564.349-6.252c-.005-.405.273-.645.612-.534.943.307 1.083 1.258.185 1.264-.436.003-.795-.326-.797-.73zm46.698-1.481c-.614-.391-.503-.489.516-.453.714.024 2 .218 2.857.43 1.502.372 1.483.388-.516.453-1.141.037-2.427-.156-2.857-.43zm-4.806-.83c.356-.147.94-.151 1.297-.01.358.142.067.262-.647.266-.713.005-1.006-.11-.65-.257zm6.875-.156c0-.249.917-.606 2.041-.793 3.405-.568 3.182-1.512-.306-1.291-1.675.106-3.747-.067-4.606-.385-.858-.317-3.351-.96-5.54-1.43-2.187-.469-4.634-1.188-5.436-1.597-.802-.41-2.449-.873-3.659-1.03-3.163-.413-3.468-1.703-.407-1.724 1.434-.01 2.226.188 2.032.506-.174.286.223.557.882.602 2.217.149 2.75.228 4.576.683 2.084.519 2.512.595 3.767.669.5.03.853.344.784.698-.141.722 5.048 1.77 9.088 1.834 3.045.05 4.77 1.252 3.877 2.703-.474.771-1.243.969-3.841.986-1.787.012-3.25-.182-3.252-.43zm-10.511-.298c-.072-.07-1.456-.234-3.076-.364-1.62-.129-3.374-.496-3.898-.815-.767-.468-.498-.533 1.385-.334 4.49.475 6.76.882 6.995 1.255.21.336-1.085.574-1.406.258zm-622.884 1.9c-.198-.315-.804-.427-1.348-.25-.693.225-.91.112-.727-.376.38-1.008-2.368-2.447-3.66-1.916-1.607.661-2.33.577-2.336-.271a.78.78 0 0 1 .773-.784c.428-.003.777-.239.775-.524-.002-.285-.354-.517-.782-.514-.428.003-.78-.22-.782-.496-.002-.275-.937-.402-2.078-.28-1.14.121-2.076.003-2.077-.264-.002-.266.23-.485.515-.487.286-.002.515-.587.51-1.3-.004-.714.225-1.3.51-1.302.688-.004.657-1.926-.038-2.349-.832-.507-2.048.785-2.038 2.167.01 1.433-.759 1.627-1.472.372-.45-.793-.566-.797-1.31-.042-.714.723-.719.864-.042 1.119.426.16 1.003.88 1.282 1.599.28.719.838 1.305 1.243 1.302 1.276-.009 1.433 1.462.18 1.693-1.115.205-1.112.22.156.736 1.265.516 1.269.535.19.885-.607.197-1.304.306-1.548.24-.244-.064-.956.062-1.582.28-.821.286-1.437.101-2.21-.661l-1.072-1.058 2.12-.014c2.212-.015 2.659-1.02.686-1.547-.965-.257-1.343-1.206-1.339-3.355.001-.558-.243-1.305-.542-1.66-.299-.356-.428-.835-.288-1.067.141-.23-.07-.999-.467-1.706-.55-.977-.726-1.068-.735-.378-.016 1.15-2.086 1.262-2.094.114-.003-.445-.238-.664-.522-.485-.284.178-.519.05-.521-.286-.002-.355.431-.5 1.036-.346.571.146 1.038.082 1.037-.14-.005-.73-2.868-.98-6.007-.529-3.07.442-3.829.18-3.859-1.338-.02-1.083.99-1.297 2.537-.537 2.156 1.057 2.917.405 2.157-1.849-.333-.987-.46-2.182-.283-2.655.19-.505.067-.858-.299-.855-.777.005-3.413 2.07-3.234 2.534.073.187-.1.42-.386.517-.284.097-.52-.076-.521-.385-.002-.31-.588-.559-1.301-.554-1.318.01-1.788.798-.69 1.157.389.126.476.717.247 1.658l-.357 1.462-2.397-2.638c-2.308-2.54-3.308-2.996-5.07-2.306-1.155.452-1.03.907.774 2.813 1.583 1.671 1.809 2.99.454 2.644-.394-.1-1.416-.243-2.273-.317-1.338-.116-1.538-.324-1.419-1.48.198-1.916-1.244-1.236-1.63.768-.164.846-.71 1.695-1.214 1.887-.504.192-1.219.775-1.588 1.296-.965 1.36-4.033 1.314-4.403-.066-.207-.768-.023-1.038.71-1.043.545-.003.991.225.993.508.002.282.41.167.907-.256a38.42 38.42 0 0 1 1.89-1.49c1.31-.954.736-2.346-1.273-3.09-1.617-.597-2.156-1.902-.79-1.91 1.332-.01.7-1.636-.852-2.195-.666-.24-.826.037-.778 1.34.05 1.333-.161 1.676-1.12 1.82-.856.128-1.1.425-.886 1.083.2.615-.125 1.133-1.013 1.616-1.135.618-1.563.589-3.251-.217-1.07-.51-1.653-1.035-1.297-1.165.356-.13.644-.684.64-1.23-.004-.663.355-.998 1.075-1.003 1.416-.01 1.005-1.251-.483-1.46-1.218-.17-1.545-1.387-.49-1.824.486-.201.453-.4-.136-.805-.63-.434-.45-.607.935-.896 1.167-.243 1.546-.526 1.184-.883-.363-.358-.767-.33-1.264.088-.402.338-1.107.474-1.566.3-.46-.172-2.181.105-3.825.618-2.964.924-4.601 1.817-3.315 1.809.36-.002.499.25.309.562-.248.408-.504.41-.913.006-.312-.308-.975-.558-1.471-.555-1.097.007-1.913 1.165-1.026 1.454.415.136.465.415.144.808-.548.671-.155 3.454.486 3.45.225-.001.29.465.145 1.037-.265 1.043-1.487 1.364-2.503.657-.299-.207-.87-1.368-1.268-2.578-.398-1.21-.931-2.2-1.183-2.198-.252.001-.414-.289-.359-.646.055-.357-.084-1.066-.31-1.574-.55-1.239.978-2.948 2.329-2.604 1.164.296 1.302-.574.44-2.793-.436-1.126-.657-1.277-1.012-.694a1.19 1.19 0 0 0 .097 1.403c.398.473.356.72-.153.887-6.008 1.959-10.843 3.007-12.476 2.704-.511-.095-.928.072-.926.372.002.3.353.408.78.24.945-.37 1.015.24.138 1.197-.515.563-.515.63.002.333.728-.417.911.506.19.958-.253.16-1.714.043-3.244-.26-5.081-1.001-7.023-1.06-8.53-.258-1.295.69-1.34.799-.438 1.058 3.028.87 7.155 1.287 8.031.81 1.17-.636 3.094-.69 3.098-.087 0 .245 1.176.204 2.61-.09 1.845-.377 2.946-.365 3.763.042 1.047.52 1.058.564.117.46-.777-.085-1 .153-.888.945.122.848-.366 1.249-2.449 2.014-3.412 1.253-7.665 1.423-8.489.34-.893-1.174-2.34-1.578-2.805-.781-.536.92-3.269 1.398-4.447.778-1.347-.71-2.514.385-2.104 1.974.379 1.466-.378 1.605-2.582.474-2.03-1.041-2.931-.954-2.923.282.004.571-.227 1.04-.512 1.042-.285.002-.523-.538-.527-1.199-.007-1.088-.215-1.187-2.213-1.051-1.212.083-2.489.165-2.837.183-.347.018-.495.382-.328.809.167.427.104.798-.14.824-4.431.481-5.954.444-5.76-.14.118-.355.777-.654 1.465-.663 1.296-.017 3.576-1.267 3.572-1.957-.001-.216-.657-.39-1.456-.384-.8.005-1.703-.237-2.008-.537-.305-.301-1.403-.586-2.44-.633-1.07-.048-1.89-.356-1.894-.71-.004-.429-.49-.344-1.554.27-2.003 1.158-1.96 1.673.138 1.674h1.686l-1.29 1.016-1.29 1.016 1.943-.321c2.36-.39 2.603.45.399 1.381-1.418.598-2.125 1.571-1.138 1.565.224-.001.447.464.493 1.034.047.57-.214 1.04-.58 1.042-.366.002-1.081.47-1.589 1.038-.887.994-.886 1.047.028 1.39.563.213 1.031.108 1.15-.256.332-1.019 1.092-.694 1.015.434-.065.946-.312 1.021-2.428.734-1.296-.175-2.58-.524-2.852-.774-.273-.25-1.15-.45-1.95-.445-2.013.013-1.823-.825.354-1.56.996-.336 1.81-.827 1.809-1.09-.002-.263.522-.484 1.164-.49 1.07-.01 1.043-.075-.324-.776-.82-.421-1.815-.763-2.21-.76-.396.001-.721-.23-.723-.515-.002-.285.463-.522 1.034-.526.678-.004 1.036-.353 1.031-1.004-.008-1.269-2.669-2.181-5.312-1.822-1.06.144-2.492.05-3.185-.207-1.18-.44-1.28-.335-1.586 1.669-.297 1.942-.18 2.261 1.275 3.487 1.658 1.396 1.619 2.07-.121 2.082-.679.004-.912-.246-.716-.768.195-.517-.124-.877-.955-1.08-.742-.18-1.143-.579-.99-.983.14-.374-.007-.84-.327-1.035-.423-.258-.414-.559.034-1.107.94-1.148-.862-2.264-2.757-1.707-1.82.535-1.887-.135-.13-1.302.806-.536 2.11-.833 3.316-.754 1.15.075 2.358-.182 2.87-.613.486-.409 1.67-.68 2.63-.604 2.265.18 3.844-.35 3.838-1.285-.006-.833-1.334-1.007-1.804-.236-.172.284-.787.323-1.425.092-.63-.228-1.752-.164-2.558.146-1.692.652-2.419.184-1.485-.957.724-.884.719-.894-.79-1.708-.975-.525-.934-.6.64-1.17 1.24-.447 1.681-.922 1.676-1.802-.007-1.01-.278-1.193-1.75-1.183-.958.006-2.449-.348-3.313-.787-.864-.44-1.717-.652-1.894-.472-.178.18-.325.072-.327-.24-.005-.809-5.55-1.39-6.404-.673-.476.4-.845.409-1.23.03-.384-.38-.47-.142-.284.792.312 1.576-.57 1.768-2.38.518-1.01-.698-1.537-.73-3.361-.206-1.19.341-2.28.591-2.423.555-.143-.036-.882.176-1.644.471-1.377.535-4.385-.292-8.309-2.283-.76-.386-2.186-.696-3.168-.69-1.042.008-2.289-.417-2.99-1.017-1.35-1.155-2.407-1.268-4.445-.478-.945.367-1.596.371-2.032.014-.353-.289-1.26-.572-2.017-.63-1.447-.11-1.828-.665-.733-1.067.373-.136-.069-.646-1.043-1.203-.93-.532-1.692-1.143-1.696-1.357-.003-.214-.489-.386-1.08-.382-1.441.01-1.184-2.089.351-2.864.61-.307 1.492-.881 1.96-1.275 1.162-.978 2.328.053 1.376 1.216-1.429 1.745.664 2.39 3.631 1.12 1.29-.552 1.711-1.065 1.75-2.125.049-1.299-.064-1.374-1.61-1.073-1.037.202-1.808.092-2.048-.29-.27-.43-.047-.529.735-.33.778.198 1.12.049 1.116-.487-.004-.622-.484-.704-2.468-.424-1.354.192-2.665.552-2.912.8-.576.58-1.974.073-1.58-.573.173-.285-.26-.343-1.043-.141-.736.19-1.34.124-1.342-.147-.004-.587-2.3-1.68-3.512-1.673-1.1.007-.24.857 1.174 1.16.954.204.965.255.124.627-1.444.64-3.952-.605-3.646-1.81.204-.802-.019-.999-1.12-.991-.768.005-1.514-.348-1.691-.801-.248-.633-.786-.736-2.452-.472-1.56.247-1.926.191-1.36-.209.426-.3 1.559-.555 2.517-.566 1.373-.016 1.674-.193 1.421-.839-.176-.45-.32-.902-.321-1.004 0-.102-1.054-.335-2.34-.52-1.748-.25-2.665-.117-3.63.524-1.66 1.104-1.627 1.676.118 2.102.93.226 1.188.476.766.74-.35.22-.484.79-.298 1.265.19.486.087.866-.236.868-.316.002-.573.237-.571.523.002.285.382.516.845.513.69-.004.726.136.201.777-1.007 1.23-1.688.925-1.467-.656.26-1.857-.87-3.025-3.36-3.474-1.597-.288-1.948-.2-1.944.485.003.46-.344.839-.773.841-.428.003-.78-.204-.781-.461-.002-.257-1.055-.543-2.34-.637l-2.336-.17.013 2.014c.01 1.594-.128 1.897-.666 1.457-.374-.306-1.192-.419-1.818-.25-.67.18-1.14.067-1.142-.274-.003-.319-.471-.577-1.042-.573-.808.005-1.04-.339-1.049-1.55-.005-.872-.296-1.577-.66-1.604-.356-.026-.066-.25.646-.496 1.063-.37.895-.432-.94-.349-2.787.125-3.799-1-1.83-2.039 1.433-.756 2.892-.904 3.454-.35.58.572 4.141 1.676 5.407 1.676.642 0 1.166-.234 1.164-.52-.002-.284.355-.52.794-.523.635-.004.683-.214.234-1.04-.31-.569-.89-1.032-1.292-1.03-1.301.01-1.39-.971-.23-2.562.863-1.183 1.706-1.646 3.512-1.93 1.976-.31 2.2-.45 1.327-.832-.853-.374-1.016-.845-.868-2.511.199-2.244-.134-2.495-1.565-1.183-.89.816-.96.771-1.288-.814-.388-1.879-1.404-2.525-2.508-1.596-.544.458-1.013.471-1.809.052-1.35-.711-1.363-1.308-.045-2.245.812-.577.963-1.087.697-2.369-.186-.899-.594-1.632-.907-1.63-.314.002-.042-.37.603-.83.933-.662 1.047-.981.557-1.564-.5-.594-.313-.839 1.004-1.307.89-.318 1.477-.803 1.305-1.078-.173-.275.115-.82.64-1.209.525-.39.838-.785.695-.88a306.33 306.33 0 0 1-1.933-1.327c-1.89-1.304-5.04-1.518-6.128-.415-.596.604-.514.8.533 1.268 1.595.714 2.602 2.457 1.734 3.001-.873.548-4.649.286-5.46-.378-.37-.304-1.326-.417-2.124-.252-1.06.22-1.611.045-2.052-.65-.518-.818-4.27-1.94-5.46-1.634-.215.055-.391-.192-.393-.549-.006-.902 5.04-3.695 6.014-3.329.438.165 1.269-.036 1.846-.447.578-.41 1.413-.61 1.857-.443.506.19.673.092.449-.266-.502-.8.66-1.406 1.365-.71.85.839 4.291.678 5.04-.235.352-.43.969-.785 1.371-.788.402-.003.863-.356 1.025-.785.325-.865 3.294-1.119 3.3-.282.001.285-.438.522-.977.525-.54.003-1.527.455-2.195 1.004l-1.214.996 2.391-.286c2.75-.328 3.133.022 3.299 3.026.074 1.347-.148 2.194-.652 2.48-.632.36-.576.533.332 1.01.82.432 1.437.419 2.455-.053.905-.42 1.479-.456 1.715-.106.196.289.766.673 1.266.854.97.35 1.268 1.397.399 1.403-.996.007 1.431 1.919 2.886 2.273 1.628.398 4.907-1.052 4.9-2.166-.007-.851-1.695-1.705-3.351-1.694-.733.005-1.333-.197-1.335-.45-.002-.252-.47-.577-1.043-.722-.571-.146-1.041-.52-1.043-.832-.002-.312.463-.571 1.034-.575.57-.004 1.036-.332 1.033-.73-.002-.397.345-.86.772-1.027.427-.167.774-.661.77-1.098-.006-1.032-3.268-1.068-4.105-.045-.974 1.19-2.632 1.42-2.639.365-.007-1.09 1.563-2.637 2.684-2.645.848-.006 2.41-1.544 1.633-1.607-.81-.066-2.12-.347-3.256-.7-1.404-.434-.956-1.308.484-.942.93.236 1.021.097.714-1.092-.27-1.048-.159-1.364.483-1.368 1.618-.01.803-.823-1.38-1.376-1.868-.472-3.731-.533-6.049-.196-.257.038-.694.734-.972 1.547-.428 1.255-.732 1.446-2.015 1.267-1.223-.171-1.622.04-2.1 1.105-.515 1.151-.821 1.28-2.443 1.028-1.261-.196-2.14-.037-2.745.495-1.35 1.185-3.97 1.537-5.11.685-1.363-1.017-1.706-.933-1.365.336.265.985.137 1.06-1.287.758-.99-.211-2.3-.03-3.509.484-2.566 1.093-2.571 1.088-1.06-.92.72-.96 1.309-2.131 1.306-2.604-.008-1.071 1.206-1.127 2.075-.095.707.84 2.083 1.045 2.078.31-.002-.251-.355-.744-.786-1.097a2.026 2.026 0 0 1-.176-3.009c.736-.745 2.597-.836 3.295-.16.714.69 3.06.886 3.27.272.098-.286.385-.913.638-1.394.334-.634.102-1.293-.846-2.404-.718-.843-1.308-1.815-1.31-2.161-.003-.42-.48-.52-1.43-.297-1.338.313-1.365.286-.444-.444 1.142-.905.877-1.387-2.47-4.49-2.436-2.26-1.702-2.777 1.605-1.13 2.88 1.433 3.744 1.471 3.735.165-.009-1.367 2.313-3.138 3.664-2.794.84.213.926.382.389.765-.573.408-.57.538.02.77.599.234.6.346.004.72-1.039.651.646 2.156 2.402 2.145 1.39-.01 3.899-1.935 3.892-2.987-.006-.887 2.685-1.715 4.25-1.308 1.428.372 2.272-.377 3.14-2.787.4-1.11 1.323-1.194 1.729-.158.224.573.837.682 2.503.442 1.69-.243 2.277-.134 2.512.467.17.432 1.259.939 2.422 1.127 1.163.189 2.115.506 2.117.706.002.2.528.395 1.17.435 1.136.07 1.14.052.156-.669-.93-.681-.805-.746 1.552-.798 2.556-.057 11.102-1.43 9.49-1.525-.863-.051-1.61-1.548-1.705-3.418-.029-.57-.622-1.562-1.319-2.202-1.513-1.391-1.322-1.673 1.395-2.056 1.359-.192 2.649-.007 3.759.537 1.925.945 3.09 1.058 3.084.301-.002-.285.347-.521.775-.524.428-.003.777-.239.775-.524a.527.527 0 0 1 .527-.523c.292-.002.147.591-.322 1.318-1.008 1.562-5.906 4.031-6.639 3.347-.67-.625-1.327-.58-1.322.092.002.303.211.42.466.26.254-.16.611.089.793.553.275.703.824.782 3.3.474 2.84-.353 6.813-1.806 6.837-2.501.006-.18-.512-.462-1.15-.624-.91-.231-1.025-.432-.536-.929.49-.496.902-.488 1.903.04.702.37 1.584.552 1.96.405 1.063-.416 1.731-.347 1.592.166-.17.63.752.585 2.008-.099.999-.543.99-.588-.305-1.592-1.635-1.269-1.918-3.372-.342-2.542 1.277.672 2.457.217 2.786-1.073.267-1.05 2.944-1.507 2.95-.502.005.816 1.041.599 1.375-.288.165-.44-.08-1.216-.547-1.724-1.329-1.449-1.057-1.621 2.129-1.348l2.98.256-1.148-1.055c-.63-.58-1.463-1.053-1.848-1.05-.386.001-1.157-.34-1.714-.759-.953-.718-.922-.747.546-.509 2.176.354 4.101-.786 4.222-2.498.125-1.784 1.045-3.532 1.854-3.521.347.004 1.919.52 3.493 1.146 3.554 1.414 9.347 1.337 9.344-.123-.002-1.087 1.938-2.024 4.092-1.976 1.242.028 1.6-.16 1.44-.755-.268-.999.7-1.95 1.712-1.683.663.176.661.13-.014-.334-.625-.43-.66-.736-.177-1.528.45-.736.453-1.141.015-1.573-.437-.432-.362-.583.293-.588.595-.004.88-.428.874-1.303-.008-1.243 1.462-1.961 1.616-.79.038.286.1.699.136.919.037.22.563 1.07 1.17 1.891 1.045 1.415 1.208 1.463 3.212.94 2.181-.57 4.956-.362 4.53.338-.497.816 2.91.96 6.4.27 2.516-.496 4.5-.578 6.55-.27 1.616.242 3.153.306 3.415.141.262-.164.935-.057 1.495.238.722.38 1.442.358 2.475-.076.801-.337 1.69-.558 1.977-.49.286.068.355-.039.153-.238-.202-.2-.047-.687.345-1.084.92-.933 1.491-.927 1.138.012-.347.923.568 1.26 2.248.827 1.048-.271 1.144-.425.513-.822-1.722-1.084-3.279-1.775-3.989-1.77-.412.002-.601-.24-.42-.538.182-.298.838-.395 1.457-.215 1.114.323 1.115.317.083-.482-.574-.445-.927-.824-.784-.843.142-.018 1.805-.106 3.693-.196 2.4-.113 3.7-.43 4.312-1.051.482-.49 1.21-.892 1.619-.894.407-.003.74-.239.737-.524-.002-.286-.33-.517-.73-.514-.4.002-1.215-.81-1.811-1.805l-1.084-1.809 1.41-.07c.774-.04 1.642-.018 1.928.047 2.12.484 7.073-.027 8.488-.876 1.26-.755 1.747-.83 2.242-.342.494.488.446.625-.22.63-1.175.007-1.638.945-.9 1.821.393.47.919.575 1.473.297 1.99-.999 4.227-1.534 4.23-1.013.003.505 2.507.36 5.012-.291.615-.16 2.248-.453 3.628-.65 3.657-.523 4.43-.817 4.133-1.574-.206-.527.391-.625 2.684-.44 2.295.184 3.522-.018 5.536-.913 1.788-.794 3.9-1.208 6.832-1.34 4.785-.216 5.719-.537 4.787-1.644-.495-.588-.4-.73.489-.736 1.39-.009 1.418-.838.053-1.557-.573-.302-1.044-.917-1.047-1.366-.004-.65.359-.752 1.772-.497 1.032.186 1.916.096 2.105-.216.18-.295.021-.57-.352-.61-.374-.04.37-.244 1.653-.453l2.332-.378-2.435-.062c-1.339-.034-2.577.173-2.752.46-.174.286-.564.522-.866.524-.301.002.986-1.506 2.862-3.352 2.324-2.286 3.309-3.616 3.09-4.172-.346-.886-.21-.913 5.154-1.004 1.694-.029 3.185.202 3.387.523.198.316 1.05.832 1.893 1.146 1.22.454 1.378.67.775 1.057-.655.42-.648.487.047.49.442 0 1.061-.259 1.376-.577.417-.423 1.04-.428 2.309-.018 1.895.611 2.861.555 2.62-.153-.085-.25.435-.345 1.155-.212.948.175 1.39-.019 1.601-.701.253-.816.48-.861 1.696-.337.772.333 1.557.818 1.744 1.078.187.26.713.327 1.168.149.737-.288 1.056-2.11.941-5.377-.011-.334.287-.492.663-.35.376.141 2.009-.027 3.628-.374 2.148-.461 3.01-.9 3.195-1.622.198-.78.761-1.008 2.656-1.073 3.167-.11 4.63-.278 6.761-.777 1.285-.301 1.665-.25 1.398.189-.202.331-.133.6.152.599.286-.002.662-.238.837-.525.174-.286.784-.524 1.355-.528.654-.004.902.216.67.596-.258.424.003.5.88.253 3.378-.951 8.167-1.528 8.978-1.081.706.388.271.753-2.275 1.91-1.731.786-3.006 1.656-2.832 1.933.46.733 3.402.595 6.82-.32 1.64-.439 3.576-.795 4.3-.79 1.259.007 1.274.042.339.76-.54.414-2.17 1.146-3.622 1.628-3.984 1.321-4.246 2.01-.562 1.475 1.711-.248 4.279-.422 5.706-.387 1.428.035 3.857-.272 5.398-.683 2.591-.69 2.897-.674 4.046.218 1.165.904 1.184 1.001.316 1.56-.786.506-.71.548.5.284.784-.172 2.475-.463 3.758-.648 2.036-.293 2.332-.496 2.324-1.595-.007-1.108.195-1.242 1.675-1.109 1.188.107 1.743.452 1.884 1.172.157.797.045.9-.511.473a6.856 6.856 0 0 0-1.6-.856c-.764-.266-.816-.123-.372 1.023.333.856.34 1.549.02 1.939-.28.343-.303.913-.052 1.313.366.584.927.594 3.214.06 1.524-.356 3.47-.77 4.326-.921.856-.151 2.021-.491 2.59-.755.57-.264 1.675-.717 2.458-1.006 1.196-.442 1.422-.827 1.412-2.404-.01-1.442-.255-1.94-1.053-2.143-1.53-.389-1.282-.916.896-1.898 2.745-1.239 6.567-1.883 7.645-1.289.8.44.748.59-.49 1.414-1.051.7-1.199.99-.616 1.209.422.158 1.292.147 1.934-.025.807-.217 1.054-.128.8.29-.521.855 1.257.753 3.499-.201 1.02-.435 2.103-1.26 2.404-1.833.728-1.381 1.644-1.322 2.98.193.876.995 1.805 1.31 4.644 1.577 1.952.182 4.485.57 5.629.86 1.143.292 3.655.498 5.582.458 1.926-.039 3.504.132 3.505.38.003.498-1.528.886-5.44 1.376-2.884.362-5.96 1.328-5.955 1.872 0 .195-.489.486-1.089.648-.6.161-.986.599-.859.974.323.948 4.97 1.006 6.823.085.816-.406 1.727-.591 2.023-.41.306.186.381.076.174-.254-.226-.36.188-.705 1.081-.902.796-.177 2.386-.661 3.535-1.077 2.459-.891 3.4-.97 2.316-.193-.572.41-.237.462 1.282.199 1.162-.202 2.365-.806 2.769-1.39.416-.602 1.043-.909 1.505-.735.436.164 1.11.03 1.499-.296.388-.327 1.175-.474 1.748-.329.574.146 1.042.102 1.04-.099-.007-.976 15.579-2.147 19.452-1.461.857.151 3.426.052 5.707-.221 2.282-.273 4.617-.315 5.19-.093 1.04.403 1.04.403.003.505-.57.055-1.213.074-1.427.042-.502-.076-.482.545.044 1.36.533.826 5.218 2.21 5.563 1.641.333-.547 5.956-.612 5.96-.068 0 .221.53.652 1.174.958l1.171.555-1.296.123c-2.15.204-2.277.232-3.887.859-.854.333-3.06.752-4.901.933-3.523.345-5.019 1.076-3.427 1.675.502.189 2.233-.035 3.846-.497 1.835-.525 3.12-.659 3.43-.355.312.305.254.486-.157.489-.36.002-.519.22-.354.482.608.969 31.853-.239 35.825-1.384 1.14-.329 2.853-.535 3.808-.458 1.246.1 1.933-.146 2.434-.872.62-.9 1.426-1.027 7.306-1.162 3.635-.084 6.791-.266 7.015-.406.223-.14 2.922-.299 5.998-.352 3.076-.054 6.109-.29 6.74-.523.636-.236 1.277-.216 1.442.046.338.54 3.119.255 5.126-.523.747-.29 1.359-.357 1.36-.15.005.403 5.78.26 10.248-.255 1.928-.222 2.724-.133 2.727.305.005.364.432.505 1.04.341.7-.188 1.038-.023 1.041.508.005.586.346.698 1.344.44.868-.224 1.223-.155 1.009.197-.182.298-.871.545-1.533.55-.662.004-1.492.36-1.844.79-.371.454-1.501.79-2.684.797-1.23.008-1.914.22-1.719.53.179.285-.04.52-.485.523-.445.003-.807.243-.805.534.005.487 1.077.375 3.825-.399.534-.15 1.17.043 1.412.428.367.585.831.559 2.78-.155 1.89-.692 2.447-.73 2.896-.196.662.787 7.774.946 7.77.174 0-.278-.53-.526-1.172-.55-1.115-.042-1.11-.062.127-.44 1.065-.324 18.681-.44 45.408-.298 2.57.013 5.296-.222 6.06-.523.83-.327 1.457-.354 1.557-.068.092.264 1.977.515 4.19.556 2.212.042 4.023.21 4.024.374 0 .164 1.928.243 4.283.175 2.354-.068 5.757.2 7.562.598 1.804.397 5.076.71 7.27.697 2.194-.014 6.094.296 8.665.69 2.572.392 6.428.835 8.57.985 2.142.15 5.414.498 7.271.774 8.28 1.233 21.835 2.358 21.29 1.768-.526-.57-9.23-2.332-14.032-2.84-4.214-.447-30.945-2.756-33.233-2.87-2.02-.102-6.261-.906-6.614-1.255-.218-.214 1.097-.247 2.921-.073 4.655.445 28.092.332 29.499-.143.918-.31 1.099-.224.861.408-.262.696.476.771 5.716.587 3.309-.116 6.018-.01 6.02.235 0 .245.367.443.811.44.446-.003.678.21.518.474-.39.64 2.527 1.23 5.491 1.11 1.545-.063 2.619.169 3.026.653.5.593 2.15.734 7.888.675 3.991-.041 7.4.067 7.576.24.175.173-1.472.356-3.66.406-4.617.107-4.83.128-5.227.53-.164.167 1.026.348 2.644.402 1.618.055 3.74.427 4.714.826 2.345.961 9.702 1.903 15.194 1.946 2.426.018 4.904.3 5.505.624.602.325 3.758.715 7.012.868 9.602.452 15.826 1.11 18.221 1.925 2.475.844 7.696 1.022 7.69.263 0-.264-.412-.585-.912-.712-.853-.217-.852-.236.014-.298.508-.036 1.068.303 1.245.754.23.586.428.644.696.204.288-.474 1.071-.476 3.385-.012 1.656.332 3.785.473 4.731.312.947-.16 1.83-.116 1.965.098.384.613 5.362.652 5.732.045.182-.3.084-.543-.218-.54-.303.001-.552-.347-.555-.775-.007-1.026 1.759-1.012 2.628.021.556.662.56.892.02 1.23-.399.25.241.435 1.593.461 1.242.024 2.842.16 3.557.303.714.143 3.69.26 6.611.261 2.922.001 5.434.196 5.583.433.148.237.737.305 1.308.152.571-.154 1.384.003 1.806.349.463.379 1.696.529 3.113.377 1.291-.137 2.348-.051 2.35.191 0 .243.367.439.812.436.48-.003.657-.249.434-.603-.532-.849 2.321-.236 5.962 1.279 1.61.67 3.863 1.468 5.007 1.774 2.699.72 9.54 1.075 8.374.434-1.241-.684-1.043-1.552.313-1.368.732.099 1.145.492 1.105 1.054-.073 1.012 2.179 1.617 4.9 1.317 2.12-.234 1.502-1.394-.83-1.556-1.471-.102-2.488-.927-1.154-.936.286-.002.517-.329.514-.726-.005-.398.345-.86.772-1.027.491-.193.778.002.782.528.005.691.411.775 2.39.49 2.627-.378 5.032.003 4.59.728-.155.256.131 1.154.636 1.995.887 1.48 1.039 1.527 4.58 1.43 2.154-.059 4.174.173 4.904.563.755.403 3.753.72 7.671.812 3.538.082 6.9.396 7.474.698.802.422 1.227.362 1.84-.26.674-.682.681-.807.047-.803-.414.003-1.03-.325-1.37-.729-.52-.62-.267-.706 1.62-.556 1.23.098 2.634.187 3.12.198.49.011 1.284.848 1.78 1.874 1.358 2.813 4.302 3.465 4.362.965.007-.285.217-.2.467.188.367.571.665.494 1.546-.4 1.29-1.306 1.371-1.925.305-2.326-.462-.174-.778 0-.775.425.006.884-.87 1.217-2.44.928-1.386-.255-1.624-1.052-.285-.955.515.038.842-.238.756-.636-.084-.386.115-1.03.443-1.43.328-.4.434-.727.236-.726-.198.001.005-.367.45-.818.899-.911 1.036-2.681.297-3.833-.763-1.187-.08-1.662.97-.674 1.175 1.106 2.064 3.561 1.07 2.956-.437-.266-.526-.191-.267.222.49.78 1.265.164 2.515-1.998l.927-1.603-1.457-.05c-.91-.032-1.11-.144-.533-.298.81-.216.756-.377-.435-1.301-.9-.698-1.186-1.23-.847-1.573.282-.286.403-.796.27-1.135-.223-.57.988-1.409 2.932-2.029.444-.142 1.093-1.233 1.44-2.424.561-1.917.794-2.148 2.032-2.014.992.108 1.448.491 1.571 1.32.142.953.405 1.107 1.433.842.943-.243 1.26-.115 1.265.51.009 1.333 1.02.958 1.598-.593 1.024-2.748 2.847-2.949 5.112-.564 1.131 1.191 1.596 2.19 1.607 3.452.006.976.416 2.214.908 2.75.618.674.716 1.087.316 1.337-.318.2-.728 1.298-.911 2.44-.184 1.142-.719 2.897-1.19 3.9-.47 1.001-.864 1.869-.874 1.927-.01.059-1.007.271-2.214.473l-2.195.366.055-3.831c.087-6.039-.89-10.462-1.933-8.748-.18.295-.526.417-.769.269-.243-.148-1.099.397-1.902 1.211-1.14 1.156-1.446 1.928-1.392 3.522.094 2.76.67 4.362 1.566 4.356.409-.003.746.345.749.773.005.429-.22.78-.496.782-.275.002-.75.476-1.053 1.053-.418.794-.39 1.095.12 1.235 3.47.96 5.092 1.533 5.094 1.798 0 .173 1.881.749 4.178 1.28 3.598.831 4.075 1.067 3.448 1.703-.446.452-1.936.774-3.839.831-3.035.09-3.097.12-2.566 1.266.34.733 1 1.17 1.759 1.166.843-.006 1.216.29 1.22.97.008 1.138 1.85 1.647 3.588.991.796-.3 1.759-.128 3.133.562 1.282.643 3.658 1.11 6.71 1.32 3.644.251 4.93.546 5.61 1.287 1.277 1.394.682 1.618-2.703 1.015-3.784-.673-5.928-.667-5.923.017 0 .293.621.762 1.376 1.044 2.06.767 1.026 1.261-2.73 1.302-1.922.021-3.51.289-3.715.626-.204.335-.998.472-1.835.318-.968-.178-1.254-.41-.832-.675.41-.257.191-.398-.603-.388-.686.008-2.768-.365-4.626-.832-4.413-1.107-7.128-1.413-7.475-.842-.38.624 1.729 1.453 3.326 1.306 1.232-.113 6.427 1.09 7.537 1.745.286.169.871.36 1.3.422 1.247.184 4.76.627 7.012.885 2.475.283 7.009 1.135 9.813 1.844 1.111.281 3.215.596 4.676.7 1.46.105 3.9.323 5.422.484l2.766.293-.886-1.334c-.488-.733-1.096-1.332-1.35-1.33-.256.002-.176-.466.177-1.04.852-1.386 1.89-1.32 3.724.236.834.707 1.335 1.287 1.113 1.289-.222.001-.12.34.229.754.347.413.483.996.3 1.296-.184.303.096.54.634.537.53-.003 1.188.203 1.461.459.273.256 1.665.591 3.093.745 1.428.155 3.181.387 3.896.518 1.363.248 2.91.493 8.053 1.274 1.714.26 4.213.51 5.554.554 2.604.087 4.339.803 3.14 1.298-1.078.444 1.459 2.043 3.79 2.388 2.677.396 4.431-.52 1.928-1.008-.935-.182-1.827-.534-1.983-.782-.156-.249-.852-.305-1.547-.126-.77.199-1.265.101-1.267-.25 0-.316.243-.576.545-.578.303-.002.404-.236.226-.52-.184-.294.25-.521 1.004-.526.73-.005 1.329.2 1.33.454.006.518 1.587 1.235 1.939.879.124-.126-.153-.797-.615-1.492-1.147-1.724-.295-2.374 3.62-2.763 1.67-.166 3.122-.388 3.226-.494.403-.408-5.503-4.61-8.039-5.718-1.909-.835-2.762-1.535-3.001-2.461-.265-1.028-.95-1.484-3.324-2.216l-2.99-.922 2.947-.177 2.946-.177-.301-1.78c-.228-1.35-.097-1.86.541-2.11 1.071-.42 1.082-2.713.019-3.871-.444-.484-.943-1.784-1.11-2.888l-.303-2.009 1.342 1.548c.737.852 1.35 1.798 1.363 2.103.012.305.551 1.021 1.197 1.591.646.57 1.945 1.888 2.887 2.93.941 1.04 1.967 1.89 2.279 1.888.311-.002.452.447.311 1-.278 1.092 1.32 3.14 2.443 3.133.43-.003.668.589.64 1.591-.04 1.435-.189 1.576-1.474 1.397-1.098-.152-1.427.014-1.422.72.008 1.232.927 1.72 1.823.966.4-.338.999-.45 1.329-.249.449.274.446.462-.013.749-.397.25.052.769 1.282 1.483 1.041.605 2.058 1.1 2.26 1.098.2-.001.808.578 1.348 1.288.541.71 1.36 1.303 1.819 1.318.5.017.316.24-.458.558-.712.292-1.995.433-2.852.313-2.17-.304-3.89.46-3.881 1.727.008 1.176-.095 1.158 7.128 1.25 5.088.065 6.563-.308 5.474-1.382-.471-.465-.803-.47-1.336-.022-.536.451-.941.43-1.659-.087-2.05-1.48.33-2.22 5.076-1.58 1.84.249 1.924.332 1.175 1.17-.96 1.077-1.01 2.126-.184 3.907.579 1.248.826 1.317 4.645 1.291 3.507-.023 4.075.101 4.353.957.176.542.874 1.12 1.552 1.285.89.217 1.164.573.985 1.277-.281 1.105 2.54 3.426 3.622 2.98.502-.207.5-.272-.01-.3-.357-.02-.65-.296-.653-.612 0-.355.495-.454 1.296-.259.75.183 1.298.093 1.296-.212a.524.524 0 0 0-.523-.525c-.285.002-.47-.172-.41-.386.058-.215-.19-.916-.551-1.559-.587-1.042-.528-1.218.554-1.638.666-.258 2.345-.35 3.73-.203 1.82.192 2.415.102 2.146-.326-.204-.326-.923-.59-1.596-.585-1.561.01-2.87-.478-2.873-1.074 0-.637 4.506-.616 5.726.027.545.286 1.635 1.11 2.423 1.831 1.11 1.014 1.276 1.408.739 1.745-.53.332-.43.518.414.78 1.194.37 1.537 1.773.47 1.92-.356.05-2.68.125-5.166.169-2.847.05-4.756.319-5.159.728-.51.516-.094.645 2.04.63 3.432-.023 7.36 1.672 7.401 3.194.01.214-1.26.398-2.813.408-1.553.01-2.953.233-3.112.493-.739 1.214.483 1.995 4.036 2.58 5.976.982 6.08 1.013 6.085 1.837.01 1.238-1.334 1.444-2.885.442-.913-.589-2.466-.924-4.341-.936-1.867-.012-3.382-.337-4.198-.9-1.572-1.086-5.489-1.167-5.882-.122-.245.652 1.546 2.828 2.057 2.5.112-.072.532-.133.934-.136.593-.004.619.246.138 1.337-.53 1.203-.82 1.32-2.798 1.12-2.445-.245-3.021.49-.771.984.786.172 2.13.5 2.989.727 1.48.392 1.5.432.394.782-1.723.546-1.408 1.288.542 1.275.935-.006 2.164.302 2.73.686.565.384 2.122.81 3.46.947l2.431.25-2.963-2.151c-1.63-1.183-3.433-2.417-4.006-2.744-.949-.54-.894-.596.614-.62.91-.015 1.799-.262 1.973-.549.175-.286 1.063-.524 1.973-.527 1.471-.006 9.886 1.447 13.349 2.305l1.3.321-1.546.45c-.906.264-2.34.241-3.467-.055-3.2-.838-10.307-1.331-10.278-.712.043.944 4.794 2.739 8.173 3.089 2.268.234 3.248.555 3.251 1.063 0 .504.648.723 2.097.713 1.38-.009 2.195.25 2.396.763.167.427.768.773 1.334.77.567-.005 1.627.455 2.357 1.021l1.326 1.03-2.368.015c-1.302.01-2.675.317-3.05.686-.805.79-2.37.508-5.644-1.019-3.287-1.533-6.387-1.923-8.8-1.109-1.74.587-2.299.55-4.377-.288-1.31-.529-2.385-1.23-2.389-1.56 0-.328-.708-.837-1.566-1.13-1.223-.416-1.56-.383-1.556.156 0 .379.378.994.835 1.368.758.62.758.732 0 1.292-1.377 1.02.047 1.616 5.423 2.268 2.714.33 5.402.69 5.974.801 1.194.232 2.705.426 7.791.999 3.28.37 2.721.446-5.704.781-5.136.205-9.747.172-10.246-.073-.524-.258-1.619-.235-2.594.053-1.53.453-1.563.503-.36.538.731.02 1.784.377 2.341.793.557.415 1.856.757 2.887.759 1.716.003 1.854.113 1.635 1.303-.206 1.12-.051 1.298 1.126 1.29.75-.005 1.814-.295 2.364-.643 1.66-1.053 9.777.276 11.479 1.879.733.691 1.605 1.255 1.936 1.253.331-.002.854.459 1.162 1.025.307.566.727 1.002.933.97.205-.032.723-.023 1.152.02.957.097-3.006 1.597-4.27 1.617-.5.008-.849.277-.775.598.073.322-1.265 1.012-2.974 1.535-1.71.522-2.568.965-1.91.984.778.022 1.069.249.828.644-.245.403-.095.501.444.29.978-.382 4.547.608 4.552 1.263 0 .254-.23.321-.512.149-.296-.18-.381.029-.201.49.173.441.64.8 1.037.798.398-.002.725.242.727.545 0 .302-.184.435-.412.296-.229-.14-.754-.036-1.166.229-.618.396-.584.482.188.483.516 0 .832.178.701.393-.266.437.453.526 5.498.683 4.087.128 3.575.915-.637.98-2.61.04-2.765.105-1.811.774 1.445 1.013 2.902 2.465 2.69 2.68-.097.098-1.054-.181-2.127-.621-2.398-.983-11.525-2.922-13.241-2.813-2.157.137-1.794.507.824.84 1.383.177 2.841.424 3.24.55 1.32.415.098.897-2.144.844-2.162-.052-2.18-.038-.905.68 1.185.668 1.209.744.266.839-1.496.15-1.96.263-3.026.732-1.382.608-10.341-.07-12.374-.936-1.709-.729-1.677-.74 2.289-.786 2.321-.028 4.02-.267 4.018-.567 0-.285-.296-.531-.652-.547a971.61 971.61 0 0 0-4.802-.16c-5.836-.183-9.251-1.028-9.91-2.451-.293-.63-.858-1.071-1.257-.98-1.28.295-3.194-.396-2.816-1.016.218-.358.124-.44-.24-.212-.328.205-.598.127-.6-.176 0-.302-.413-.54-.912-.527-.723.018-.609.283.556 1.294.806.7 1.802 1.269 2.215 1.266.412-.003.75.229.753.514.005.655-1.407.695-1.644.046-.231-.634-2.992.028-4.423 1.062-.621.448-1.235 1.423-1.365 2.167-.209 1.195.016 1.441 1.932 2.115 4.57 1.608 6.302 2.345 5.57 2.372-1.674.061.78 1.529 2.752 1.646 1.09.065 2.143.397 2.34.738.2.343 2.092.75 4.253.912 5.786.436 7.684.776 10.063 1.803 1.183.51 3.904 1.065 6.046 1.233 3.385.266 8.314 1.477 8.318 2.045 0 .106-.206.73-.458 1.388-.252.657-.709 2.156-1.015 3.332l-.556 2.136-2.474-1.192c-3.081-1.484-4.651-1.582-2.25-.14 1.393.836 1.621 1.172 1.048 1.54-.522.335-.256.47.924.467.91-.002 1.823.264 2.027.59.257.409-.013.499-.875.29-.686-.165-4.05-.41-7.477-.545l-6.23-.245 2.698.865c1.573.505 2.795 1.231 2.932 1.742.15.555 1.004 1 2.33 1.216 1.151.186 2.525.659 3.054 1.05.858.634.738.683-1.117.452-1.143-.143-3.014-.572-4.158-.954-2.778-.928-6.086-1.142-6.332-.409-.108.322.261.7.82.843.565.144 1.098.798 1.2 1.47.133.894.683 1.35 2.093 1.733 2.241.61 2.277.655 1.86 2.294-.237.933-.493 1.122-.997.737-.376-.286-1.256-.342-1.973-.123-1.274.386-1.27.395.262.505 1.314.094 1.37.149.363.349-.657.13-1.516-.027-1.909-.349-.654-.535-3.292-.36-5.457.363-1.383.461 1.1 1.423 3.382 1.31 1.6-.08 1.838.004 1.04.366-.693.315.594.452 3.895.415 2.712-.03 5.281-.004 5.71.057.428.063 1.537-.06 2.463-.273 1.191-.273 1.685-.199 1.688.254 0 .364-.343.508-.803.335-.444-.167-.691-.118-.549.109.142.226-.828.71-2.156 1.075-1.77.486-2.214.785-1.663 1.12 1.02.62.633.888-1.809 1.252-1.57.233-1.76.195-.78-.157 1.25-.448 1.238-.466-.376-.505-1.281-.031-1.6.14-1.367.734.246.628-.026.715-1.44.46-1.976-.354-1.823-.348-3.56-.145-.76.09-.223.292 1.301.49l2.597.339-2.693.1c-1.481.054-2.85-.151-3.042-.457-.232-.37-1.67-.426-4.313-.166-4.39.432-7.294 1.566-6.363 2.484.406.4 1.192.351 2.784-.176 2.881-.954 3.805-.819 9.174 1.34 4.834 1.945 6.83 3.25 4.99 3.262-.566.004-1.903-.454-2.972-1.018-2.44-1.287-2.39-1.293-3.002.348-.477 1.282-.663 1.35-2.907 1.058-1.318-.172-3.064-.308-3.88-.302-.943.006-1.487-.262-1.49-.734-.007-.993-1.741-1.479-3.699-1.035-1.26.286-1.532.572-1.314 1.386.198.737.067.947-.467.746-.408-.153-.74-.028-.739.278.005.604-2.623.396-5.711-.452-1.812-.498-1.712-.546 1.672-.818.78-.063 1.675-.376 1.99-.696.423-.427-.024-.676-1.683-.936-1.242-.194-3.005-.907-3.918-1.584-1.419-1.052-2.251-1.228-5.717-1.21-4.876.023-6.38-.312-6.443-1.438-.029-.538-.14-.61-.304-.197-.141.358-.763.678-1.381.711-.618.033.163.466 1.736.96 3.302 1.038 3.85 2.289 1.054 2.405-3.829.159-4.15.237-4.145 1.015.005.435-.554 1.008-1.238 1.274-.684.265-1.396.731-1.58 1.036-.543.89-2.369.698-2.026-.214.161-.43.02-.779-.312-.777-.333.002-.459-.236-.28-.53.179-.293.133-.499-.102-.456-.235.042-.778.048-1.206.013-.692-.058-.693-.122-.005-.582.638-.427.591-.502-.262-.428-.571.05-1.972.057-3.114.015-1.494-.055-1.865-.212-1.322-.56.546-.351.288-.469-.935-.426-.93.033-1.926-.174-2.215-.458-.289-.285-1.103-.404-1.809-.264-.974.193-1.208.487-.97 1.22.275.846.1.93-1.408.68-.947-.158-2.014-.374-2.371-.48-.358-.107-.648.149-.645.568.005.419-.243.764-.545.766-.302.002-.41-.225-.24-.503.19-.313-.596-.41-2.048-.253-2.072.224-2.356.133-2.362-.758-.006-.907-.278-.982-2.6-.716-1.426.164-2.594.085-2.596-.175-.005-.664-7.883-.089-8.773.64-.554.453-.784.436-.96-.072-.187-.546-.38-.545-1.052.007-.676.555-.75.553-.417-.01.262-.441.157-.65-.293-.585-1.55.223-2.563-.036-2.236-.573.205-.337-.045-.52-.621-.455-.53.06-1.782.052-2.781-.017-1.77-.123-1.756-.136.515-.505 2.201-.357 2.23-.382.516-.451-1-.04-2.402-.203-3.116-.362-1.02-.226-1.13-.17-.517.262.692.488.691.553-.01.564-.437.007-1.256-.306-1.822-.696-.72-.496-1.73-.599-3.361-.342-1.283.202-3.152.17-4.153-.07-1-.24-3.197-.684-4.882-.984-2.767-.493-3.13-.452-3.762.423-.467.648-.525 1.14-.174 1.486.915.902.576 1.869-.635 1.814-.888-.04-.95-.11-.255-.297.502-.134.799-.427.659-.65-.14-.223-1.466-.083-2.947.312-3.567.95-7.036 1.06-9.4.298-1.06-.342-2.456-.521-3.103-.399-.967.184-.692.437 1.558 1.428 1.503.662 2.734 1.39 2.735 1.62.005.44-1.913.682-4.278.537-1.115-.068-1.426.14-1.42.953.007 1.149-.604 1.308-2.064.54-.53-.28-3-.533-5.488-.563-2.488-.03-5.247-.196-6.13-.371l-1.607-.317 1.677-.708c1.328-.56 1.554-.854 1.087-1.41-.8-.95.546-1.463 2.887-1.099 2.412.375 3.256-.678 1.676-2.09-1.981-1.77-5.876-3.748-7.364-3.738-.778.005-1.914-.253-2.524-.574-.61-.322-2.64-.62-4.512-.663-2.048-.047-4.538-.518-6.257-1.183-1.57-.607-3.722-1.099-4.782-1.091-1.06.007-3.05-.21-4.422-.48-2.478-.49-11.16-1.27-19.11-1.715l-4.153-.232 2.47.786c1.36.433 2.472.908 2.473 1.057 0 .317-5.665.202-6.618-.134-.964-.34-.794-1.15.251-1.2.777-.036.758-.106-.133-.481-1.04-.44-1.04-.44-.005-.515 1.69-.125-1.114-1.061-3.349-1.118-1.016-.027-2.667-.32-3.669-.651-1-.332-3.84-.569-6.31-.527-2.47.042-4.229-.088-3.909-.29.398-.249.34-.44-.184-.607-1.51-.477-9.678-1.852-13.754-2.314-2.285-.26-5.675-.707-7.532-.996a709.992 709.992 0 0 0-5.988-.904c-1.435-.208-2.839-.515-3.118-.681-.28-.167-2.494-.448-4.921-.623-2.428-.176-4.765-.404-5.194-.508-1.13-.274-8.314-.74-14.018-.91-4.747-.142-9.969-.55-13.241-1.033a111.38 111.38 0 0 0-4.155-.489c-1.428-.141-5.052-.682-8.052-1.2-3-.518-7.026-1.06-8.945-1.203-1.919-.143-6.009-.6-9.089-1.013-7.403-.994-8.909-1.144-14.427-1.438-2.57-.137-6.776-.457-9.346-.713a287.542 287.542 0 0 0-15.837-1.136c-1.856-.078-4.31-.408-5.454-.734-1.164-.331-7.221-.673-13.758-.775-16.861-.264-23.263-.493-23.856-.854-.288-.175-.935-.1-1.438.166-.504.266-3.25.665-6.103.887-14.075 1.092-16.137 1.203-16.861.9-.43-.178-3.348-.131-6.487.105-3.138.237-9.791.593-14.785.791-4.994.199-9.197.373-9.34.387-.142.015-2.126.12-4.409.236-2.283.116-6.251.37-8.819.566-2.567.196-7.937.51-11.932.7-10.967.52-14.63 1.105-16.076 2.571-.468.475-1.05.742-1.294.593a.531.531 0 0 0-.724.192c-.155.253 1.012.482 2.592.508 1.72.028 2.748-.152 2.561-.45-.296-.472 8.917-.303 13.225.243 1.746.222 3.89.293 22.733.757 4.651.115 8.74.383 9.086.595.346.213 2.964.333 5.818.266 3.216-.075 4.697.04 3.895.304-.712.233-5.031.498-9.598.587-11.564.226-14.186.407-16.859 1.164-2.926.829-32.113.66-32.646-.188-.888-1.416-15.485-2.028-17.7-.742-.987.573-1.078.753-.385.763.946.012 1.32 1.047.38 1.053-.294.002-1.944-.46-3.666-1.027-3.266-1.076-5.041-.875-3.308.375.916.66.909.693-.15.7-.611.004-1.309-.34-1.55-.764-.561-.988-6.582-1.665-7.108-.8-.238.39-1.312.483-3.193.275-2.15-.238-3.05-.124-3.728.475-.492.434-1.243.92-1.67 1.08-1.686.633 10.118.6 14.012-.04 1.467-.24 1.69-.17 1.17.37-.638.66-3.782 1.116-8.555 1.238-1.356.034-2.464.2-2.463.37.003.416-.541.483-6.171.763-2.968.148-5.024.483-5.251.856-.283.465-.426.461-.589-.018-.224-.657-10.047-.881-10.676-.244-.17.173 1.306.308 3.28.3 3.767-.014 11.453 1.093 12.068 1.739.197.207-4.255.243-9.893.079-10.752-.313-12.34.008-8.163 1.646 3.261 1.28 2.572 1.861-1.677 1.416-5.132-.538-9.126-.404-9.85.33-.836.848-1.43.766-1.437-.197-.004-.624-.278-.713-1.17-.382-.641.238-3.617.465-6.614.505-6.178.082-7.03.207-5.185.76.813.244-.503.399-3.51.414-5.057.024-6.151.362-4.659 1.438 1.336.963.588 1.33-2.76 1.352-1.647.011-3.65.276-4.451.589-.802.312-2.485.66-3.742.773-1.256.112-2.476.511-2.71.886-.783 1.252-.467 2.936.612 3.27 2.078.645.957 1.176-3.233 1.531-5.504.467-7.233.006-7.85-2.09-.502-1.708-1.964-2.339-3.758-1.623-1.857.742-4.89.569-4.896-.28-.006-.876-.819-1.04-1.294-.26-.181.298-1.203-.042-2.442-.813-1.784-1.11-2.334-1.23-3.38-.746-.913.424-1.88.425-3.599.004-1.667-.408-2.904-.415-4.255-.025-5.883 1.7-6.312 1.71-7.798.193-.922-.942-1.95-1.424-3.072-1.444-.928-.015-1.686.132-1.685.33.001.196-.696.671-1.55 1.056-1.775.8-2.039 1.654-.508 1.644.571-.004 1.04.258 1.042.582.002.324.486-.032 1.075-.79 1.268-1.636 2.166-1.344 1.704.554-.32 1.307-.27 1.338 1.607 1.02 1.546-.261 1.88-.178 1.658.414-.18.479.342 1.03 1.475 1.558 1.557.727 4.005 2.805 3.309 2.81-1.42.01-5.892-1.137-6.171-1.582-.254-.404-.64-.41-1.325-.02-.915.522-.917.57-.04.9.665.252.83.661.583 1.456-.188.609-.32 1.75-.292 2.536.046 1.31-.11 1.43-1.862 1.434-2.128.005-2.687-.277-3.537-1.785-.32-.569-.79-1.016-1.044-.994-.254.022-.775-.268-1.158-.645-.382-.378-.881-.57-1.109-.427-.228.143-.814-.493-1.303-1.413-.535-1.006-.794-1.234-.65-.573.187.861.033 1.047-.71.858-.742-.188-.887-.572-.66-1.746.229-1.187.104-1.503-.59-1.499-.484.003-1.22.35-1.634.77-.566.573-1.086.64-2.08.27-.73-.272-1.58-.336-1.889-.142-.354.222-.445.042-.245-.489.222-.59-.164-1.076-1.3-1.633-2.01-.986-1.977-.989-1.97.16.004.522.652 1.271 1.44 1.663 1.673.834 4.073 2.54 3.577 2.543-.187 0 .073.624.579 1.385.907 1.365.904 1.38-.24 1.088-.795-.202-1.159-.064-1.156.435.003.402-.433.733-.97.737-1.077.007-2.33-1.185-1.804-1.718.184-.187.65-.081 1.035.234 1.17.958.745-.238-.635-1.786-1.227-1.376-1.376-1.413-2.775-.704-1.38.7-1.54.669-2.406-.467-1.247-1.638-1.821-1.529-1.809.345.007 1.038.27 1.555.79 1.552.427-.003.72.243.651.548-.069.304 1.162 1.068 2.736 1.697 2.092.837 2.91 1.451 3.036 2.282.095.626.43 1.135.743 1.133.313-.002.44.128.281.288-.158.16-1.169-.069-2.245-.51-1.077-.442-2.044-.716-2.149-.61-.317.323.444 1.895.916 1.892.788-.005 4.91 4.047 4.52 4.442-.209.212-.812-.062-1.341-.609-2.27-2.346-4.31-3.826-5.267-3.82-.698.006-.929.255-.722.784.32.82-.536 1.011-3.828.859-2.022-.094-2.141.622-.375 2.238.718.656 1.307 1.388 1.309 1.627 0 .238-.28.155-.624-.185-.345-.34-1.384-.614-2.31-.607-.924.006-1.817-.206-1.983-.471-.167-.265-.966-.459-1.776-.43-1.855.065-2.663-.42-2.671-1.6-.004-.624-.66-1.116-2.016-1.512-2.585-.756-2.67-.747-2.663.278.009 1.326 3.203 3.894 4.52 3.634.843-.166 1.18.074 1.357.968.268 1.354-.436 2.284-1.736 2.293-2.28.015-7.704-3.2-11.542-6.842-.547-.52-1.143-.795-1.324-.612-.18.184-.077.494.23.69.61.391 1.979 2.685 2.013 3.374.012.237.432.727.934 1.09.502.361.914.886.916 1.165.002.28.602.776 1.334 1.104 1.596.714 1.23 1.63-.657 1.642-.745.005-1.757.378-2.248.828-.616.565-1.002.642-1.25.247zm-2.697-12.482c-.31-.957-2.684-2.017-3.707-1.656-.432.152-.442.686-.035 1.98.703 2.237 3.022 3.273 3.647 1.629.216-.57.259-1.449.095-1.953zm-3.362.115c-.002-.285.229-.664.513-.843.284-.178.518-.09.52.195.002.285-.229.665-.513.843-.284.178-.519.09-.52-.195zm24.193 2.445c-.153-.245.002-1.066.347-1.826.52-1.148.865-1.33 2.054-1.083.82.17 1.428.074 1.426-.228-.004-.605-1.645-1.208-2.678-.984-.386.084-.65-.126-.586-.465.063-.34-.348-.762-.915-.938-.566-.175-1.03-.526-1.032-.78-.001-.252-.802-.604-1.777-.78-.976-.176-2.254-.762-2.841-1.302-1.283-1.18-1.632-1.225-1.625-.216.003.486-.298.649-.829.45-.613-.231-.781-.055-.637.669.108.54.544.99.968 1 .424.01.718.292.652.626-.066.334.814.88 1.954 1.213 1.14.334 2.075.803 2.077 1.043 0 .24.532.959 1.178 1.597.647.638 1.206 1.335 1.243 1.548.142.817.217.907.75.904.303-.002.425-.204.271-.448zm4.875-1.663c-.002-.285-.251-.517-.553-.515-.303.002-.404.236-.226.52.178.285.427.516.553.516.126-.001.228-.235.226-.52zm652-7.564c-.342-.545-2.144-.572-2.467-.038-.13.215.434.41 1.254.435.82.025 1.365-.154 1.213-.397zm-775.682 4.1c.553.208.705.11.453-.292-.583-.93-1.88-.707-1.828.314.026.499.16.628.295.286.137-.341.623-.48 1.08-.308zm80.736-.208c.53-.537-.655-2.263-1.549-2.257-.673.004-.705.147-.172.78.485.576.495.775.038.778-.337.002-.467.236-.289.52.364.58 1.477.681 1.972.179zm-64.615-1.07c-.161-.158-.45.132-.64.645-.277.742-.217.8.292.289.352-.355.509-.774.348-.933zm-28.167.486c-.17-.272-.652-.36-1.07-.197-1.07.419-.942.706.311.698.588-.004.93-.23.759-.501zm724.803-5.24c-.376-.148-.823-.127-.995.047-.171.173.136.294.683.268.605-.03.727-.153.312-.316zm-718.03 3.236c-.173-.171-.294.136-.268.683.03.605.153.727.316.312.147-.376.126-.824-.048-.995zm676.928-4.015c-1.288-.444-2.459-.947-2.603-1.117-.144-.17-.553-.331-.91-.357-1.507-.11-1.733-.223-1.436-.711.176-.289-.019-.385-.443-.22-.416.164-1.502-.082-2.414-.546-2.162-1.1-2.498-.666-.96 1.236 1.295 1.601 3.683 2.266 8.77 2.441l2.337.08zm-692.422 3.994c.537-.872.476-1.109-.405-1.572-.924-.487-3.108.06-3.103.778.013 1.908 2.479 2.467 3.508.794zm780.904-4.477c-1.25-.417-6.004-.559-5.364-.16.383.24 1.863.412 3.29.385 1.427-.028 2.36-.129 2.075-.225zm16.616-.79c-.16-.158-.578.004-.928.361-.505.516-.445.575.293.289.51-.199.796-.49.635-.65zm-631.497 3.093c-.092-.575-.445-1.32-.786-1.656-.341-.336-.622-.915-.625-1.286-.006-.923-.35-.846-1.518.337-.983.996-.98 1.024.25 2.334 1.513 1.61 2.915 1.752 2.679.27zm-156.196.977c.629.03 1.283-.177 1.455-.459.178-.293-.35-.509-1.233-.503-1.905.013-3.183.484-3.179 1.17.002.296.395.35.91.128.497-.215 1.419-.366 2.047-.336zm129.711-1.549c-.172-.439-.562-.797-.866-.795-.384.002-.374.335.033 1.082.652 1.2 1.324.968.833-.287zm570.615-2.908c-.375-.147-.823-.126-.994.048-.171.173.136.294.683.268.604-.03.726-.153.311-.316zm92.926-.635c-.643-.12-1.694-.113-2.336.015-.641.128-.115.226 1.17.218 1.284-.01 1.809-.114 1.166-.233zm-802.814 2.067 1.653-.064-1.69-.53c-.93-.291-1.699-.67-1.71-.844-.01-.172-.348-.744-.752-1.27-.655-.852-.851-.874-1.798-.2-.585.415-.89.927-.676 1.137.213.21-.055.71-.596 1.112-.95.704-.94.745.268 1.187.721.264 1.76.262 2.45-.003.66-.253 1.943-.49 2.851-.525zm19.766.18c.81-.622.865-.89.315-1.543-.875-1.04-3.07-.992-4.253.093-1.342 1.23-1.175 1.648.75 1.874.928.11 1.805.227 1.948.263.143.036.701-.274 1.24-.687zm800.093-5.518c-.375-.122-.927.026-1.227.33-.382.387-.179.453.683.222.7-.188.934-.425.544-.552zm-607.251 3.74c-.006-.893-1.607-1.473-2.788-1.01-1.677.656-.835 1.778 1.322 1.763.93-.006 1.469-.283 1.466-.753zm-200.216.945c-.488-.481-.765-.48-1.246.008-.48.488-.341.625.627.619.969-.006 1.106-.146.619-.627zm740.057-4.862c2.048-.014 1.709-.3-.794-.669-1.222-.18-1.84-.098-1.642.218.379.604-2.375.06-3.124-.617-.272-.246-1.325-.473-2.338-.504l-1.843-.056 1.814-.395 1.813-.394-1.703-.057c-1.11-.037-1.81.225-2.008.753-.168.446-.638.686-1.045.532-.41-.154-.597-.05-.42.233.176.28 1.183.518 2.236.528 1.054.009 2.851.203 3.995.43 1.143.229 2.389.324 2.768.212.38-.112 1.41-.208 2.29-.214zm-589.667 3.438c-.002-.286-.412-.513-.911-.505-.776.012-.795.086-.126.512.983.626 1.042.626 1.037-.007zm37.102-.768c.175-.287.128-.546-.103-.576-3.623-.476-4.506-.278-3.442.773.54.533 3.19.386 3.545-.197zm-23.952-1.137c.161-.43.067-.779-.21-.777-.276.002-.5.354-.497.782.003.428.097.778.21.777.112-.001.335-.353.497-.782zm-138.825.73c1.094-.704.047-1.012-2.77-.815-3.414.238-3.784 1.323-.44 1.29 1.38-.014 2.825-.228 3.21-.476zm-5.641-1.058c-.003-.525-.52-.63-3.442-.704-1.098-.027-1.539.168-1.368.607.303.773 4.815.864 4.81.097zm179.04-1.201c-.003-.286-.354-.517-.782-.514-.429.003-.777.239-.775.524.002.286.353.517.782.514.428-.003.776-.239.774-.524zm597.449-3.834c-.358-.141-.942-.138-1.298.01-.356.145-.063.261.65.256.714-.005 1.005-.124.648-.266zm-749.547 4c.162-.18.002-.43-.355-.555-.358-.125-.653-.558-.655-.963-.01-1.512-1.758-.529-2.316 1.304-.36 1.181-.291 1.228 1.325.894.938-.195 1.839-.5 2-.68zm757.668-5.454c-.12-.102-.92-.337-1.777-.523-1.139-.247-1.348-.197-.777.184.704.47 3.077.784 2.554.339zm-801.347 3.59 1.182-.775-1.08-.993c-.93-.855-1.324-.91-2.835-.4-1.806.609-3.526 2.107-2.41 2.1.32-.002.584.34.587.762.006.93 2.708.52 4.556-.693zm-21.424.56c-.178-.284-.544-.515-.813-.513-.268.002-.486.236-.484.522.002.285.367.516.812.513.445-.003.663-.238.485-.522zm14.875-3.025c.768-.394 1.744-.72 2.17-.722 1.612-.01 1.314-1.047-.517-1.797-2.382-.977-2.3-.987-2.291.276.008 1.173-2.014 2.253-2.819 1.505-.745-.694-1.327-.552-1.321.322.003.428-.331.78-.743.784-.41.003-.897.25-1.08.55-.455.748 4.772.022 6.6-.918zm15.154-1.31c1.304-.57 2.37-1.174 2.37-1.344-.002-.17-.246-.156-.542.03-.297.186-.865.072-1.262-.253-.551-.451-1.091-.397-2.278.227-.856.45-1.722 1.09-1.925 1.423-.229.376-.143.463.228.23.328-.205.599-.126.6.176.006.723.05.716 2.809-.489zm777.832-4.543c-.357-.142-.941-.138-1.297.009-.356.146-.063.262.65.257.714-.005 1.005-.124.647-.266zm1.6-.835c-.133-.213.764-.417 1.994-.454 1.89-.057 2.034-.13.936-.474l-1.3-.407 1.296-.1c.714-.057.987-.224.608-.372-.378-.149-1.661.105-2.85.563-1.19.457-3.022.892-4.074.965-2.783.194-1.995.715 1.04.69 1.425-.013 2.482-.198 2.35-.41zm-789.337 4.674c.19-.504.035-.656-.466-.46-.819.32-1.027 1.222-.28 1.217.254-.002.59-.342.746-.757zm774.75-5.688c1.363-1.049 1.104-1.36-1.12-1.346-1.277.01-2.124.289-2.302.76-.494 1.314 1.936 1.73 3.423.586zm8.79-.21c-.376-.147-.824-.126-.995.048-.171.174.136.294.683.268.604-.03.726-.153.311-.316zm4.309-.712c-.179-.284-1.537-.474-3.018-.42l-2.693.095 2.337.348c3.579.531 3.72.53 3.374-.023zm-851.872 4.968c-.008-1.24-.957-1.42-1.55-.294-.475.9-.4 1.055.5 1.05.58-.005 1.053-.345 1.05-.756zm861.85-5.395c-.507-.128-1.207-.114-1.557.03-.351.145.063.25.92.233.855-.016 1.142-.134.636-.263zm-528.575-.589c-.358-.141-.942-.137-1.298.01-.355.146-.063.261.65.257.714-.005 1.005-.125.648-.267zm64.069-.928c.103-.321-.35-.73-1.004-.907-1.684-.456-9.77-.652-10.02-.243-.25.413-2.18.325-2.63-.119-.427-.422-1.775.123-1.77.715.001.256 2.162.45 4.803.432 6.555-.047 6.554-.047 6.918.532.424.676 3.463.34 3.703-.41zm-391.95.201c.35-.487 1.119-.888 1.706-.892 1.615-.011 2.706-.565 2.7-1.371-.001-.398.405-.733.904-.746.83-.02.822-.087-.085-.764-.895-.668-.908-.774-.137-1.076.471-.184.855-.527.853-.763-.005-.81-2.13-1.092-3.011-.4-.666.521-.642.406.1-.476l.981-1.165-1.62.2c-.89.11-2.231.606-2.98 1.104-.747.497-1.803.79-2.346.653-.543-.138-.985-.057-.984.181.001.238-.405.558-.903.712-.499.154-.047.216 1.003.14 1.05-.077 1.868.029 1.818.235-.05.206.378.757.952 1.225.873.711.895.804.13.569-1.262-.388-3.122.415-4.724 2.039-.741.75-1.347 1.44-1.346 1.53 0 .09 1.43.116 3.176.057 2.316-.077 3.347-.346 3.813-.992zm-1.158-1.706c.172-.173.62-.195.995-.047.415.163.293.286-.312.315-.547.027-.854-.094-.683-.268zm4.508-3.319c-.002-.268.227-.632.508-.808.293-.184.381.024.207.487-.339.901-.71 1.068-.715.321zm-4.672-.228c-.001-.126.231-.374.515-.553.285-.178.519-.077.52.226a.537.537 0 0 1-.515.553c-.285.002-.52-.1-.52-.226zm369.532 2.81c0-.214-.12-.389-.262-.388-2.066.014-2.087.023-1.294.527.85.541 1.56.478 1.556-.14zm457.98-2.944c.862-.377.748-.457-.683-.478-1.02-.014-1.586.185-1.393.492.378.603.672.6 2.076-.014zm34.233-2.853c-2.2-1.023-6.244-1.275-7.501-.468-.766.492-.775.488 2.835 1.226.572.117 2.324.212 3.894.212l2.854-.001-2.082-.969zm-878.333 5.922c-.002-.285-.367-.516-.812-.513-.445.003-.663.238-.485.522.178.284.544.515.813.514.268-.002.486-.237.484-.523zm839.673-5.314c0-.11-.579-.305-1.284-.435-.706-.13-1.159-.038-1.006.206.268.428 2.293.63 2.29.23zm-871.858 3.973c-.43-.273-1.132-.495-1.56-.492-.693.005-.692.06.003.503.43.274 1.132.495 1.56.492.692-.005.692-.06-.003-.503zm7.246-2.847c-.003-.492-1.558-.73-1.832-.28-.167.274.177.495.765.491.588-.004 1.068-.099 1.067-.211zm27.857-.3c1.726-.476.866-1.765-1.168-1.751-1.897.013-2.85.911-1.717 1.618.846.528 1.362.552 2.885.132zm840.45-6.196c-.376-.147-.824-.126-.995.048-.171.173.136.294.683.268.604-.03.726-.153.311-.316zm3.012-.542c-.005-.372-3.264-1.731-3.523-1.468-.45.455 1.37 1.617 2.521 1.61.552-.004 1.003-.068 1.002-.142zm-860.22 1.83c-.428-.237-.645-.65-.481-.919.606-.996-2.827-.685-3.884.352-.647.636-.523.777.927 1.056.92.178 1.797.521 1.949.763.151.242.724.155 1.272-.192.847-.537.88-.696.217-1.06zm4.702.954c-.007-1.078-2.139-1.207-3.362-.203l-1.245 1.022 2.305-.18c1.267-.099 2.303-.386 2.302-.639zm858.196-6.924c-2.128-1.011-2.689-1.517-2.469-2.226.416-1.34-.67-1.972-4.375-2.543-2.637-.406-3.566-.358-4.651.24l-1.356.75 1.427.01c.785.007 1.429.238 1.43.515 0 .276.332.374.732.217.493-.193.845.238 1.095 1.342.203.894.64 1.721.97 1.838.47.165 5.94.815 9.43 1.12.286.026-.72-.543-2.233-1.263zm-852.758 5.271-1.303-.733 1.397-.028c.768-.015 1.525.178 1.682.428.157.25.866.562 1.576.693.71.13 1.183.066 1.051-.145-.363-.579 2.27-1.5 5.275-1.843 1.605-.184 2.815-.093 3.016.228.185.294.614.529.954.522.371-.007.306-.21-.164-.51-.63-.4-.548-.5.416-.514.775-.01 1.07.197.832.586-.224.368-.14.46.218.236.369-.232.465-1.186.262-2.599-.253-1.76-.146-2.3.507-2.556.781-.306 2.004 1.07 1.844 2.074-.25 1.558 1.744 2.75 2.53 1.512.212-.332 1.313-1.413 2.448-2.402 1.136-.988 2.068-2.045 2.072-2.348.004-.303.613-.493 1.353-.421 1.507.144 3.169-1.283 1.924-1.652-4.634-1.374-9.422-1.567-10.259-.413-.17.235-1.667.475-3.326.533-2.72.094-3.191.286-4.786 1.95-1.132 1.182-1.72 2.269-1.633 3.02.089.765-.178 1.24-.769 1.367-.645.139-.816-.04-.597-.624.231-.615-.028-.816-1.045-.809-1.403.01-1.901 1.259-.693 1.737.389.154.285.276-.257.304-.5.026-.907.249-.905.494 0 .246-1.425.586-3.169.756-1.745.17-3.435.595-3.756.943-.453.49-.27.557.808.296.767-.186 1.54-.104 1.719.181.179.285.72.508 1.203.494.639-.017.523-.223-.425-.757zm1.534-3.384c.63-.413.562-.508-.362-.508-.625 0-1.28.234-1.454.52-.404.664.798.656 1.816-.012zm819.812-5.341c-.506-.128-1.207-.115-1.557.03-.35.144.063.249.92.233.856-.017 1.143-.135.637-.263zm4.36-1.006c-2.227-1.486-8.395-2.417-8.388-1.266.01 1.284 2.358 1.875 7.353 1.848 1.553-.008 1.738-.112 1.034-.582zm53.276-.376 1.584-.328-1.254-1.148c-1.144-1.045-1.538-1.107-4.43-.691-1.748.25-3.364.342-3.593.203-.34-.208-1.036.853-1.031 1.572 0 .194 2.731.512 5.518.643.892.042 2.335-.071 3.206-.251zm-875.393 3.596a.52.52 0 0 0-.523-.516.52.52 0 0 0-.515.523.52.52 0 0 0 .522.515.52.52 0 0 0 .516-.522zm-7.274-1.249c-.003-.519-.524-.775-1.562-.768-.896.006-1.559.286-1.56.66-.003.432-.174.39-.513-.127-.28-.426-.51-.522-.512-.213-.007.936.608 1.25 2.422 1.238 1.192-.008 1.728-.254 1.725-.79zm4.665-.793c-.002-.277-.352-.366-.78-.2-.427.168-.775.397-.775.509.001.112.352.201.78.199.428-.003.777-.232.775-.508zm-9.83-.488c1.478-.803 1.254-2.406-.392-2.807-.76-.185-1.518-.142-1.686.097-.703.995-3.11 2.208-3.415 1.721-.514-.819-3.893-.608-3.887.243.003.464.367.633.999.463.546-.147 1.423-.021 1.948.28 1.23.703 5.142.706 6.434.003zm15.007-.453c.138-.123.252-.606.252-1.074 0-.527.691-1.049 1.814-1.37.997-.287 1.929-.684 2.07-.884.142-.2.724-.482 1.294-.629.786-.202.687-.278-.41-.317-2.135-.074-9.447 3.804-8.878 4.71.258.411 3.29.068 3.858-.436zm834.906-5.62c-.125-.616-.668-.904-1.689-.896-1.828.014-2.374 1.141-.702 1.45 2.292.421 2.575.356 2.39-.555zm16.929-.303c-.344-.549-2.365-.587-3.684-.07-.828.325-.784.41.351.675 1.633.38 3.714.002 3.333-.605zm-841.07 4.408c1.715-.576 1.419-1.131-.788-1.481-3.006-.476-3.465-.39-4.184.778-.61.99-.573 1.057.399.741.588-.19 1.07-.145 1.071.101.003.512 1.779.441 3.502-.139zm830.458-5.835c-.43-.274-1.132-.495-1.56-.492-.692.005-.692.06.005.503.43.273 1.132.495 1.56.492.692-.005.691-.06-.005-.503zm-844.477 4.82c.641-.176 1.164-.527 1.163-.779-.005-.785-2.47-.485-2.78.339-.323.858-.11.916 1.617.44zm15.052-2.811c-.243-1.22-1.6-1.291-2.895-.153-1.41 1.24-1.141 1.513 1.206 1.223 1.37-.169 1.813-.45 1.69-1.07zm862.406-5.214c-.712-.711-8.861-2.087-9.374-1.583-.302.296.198.49 1.301.503.985.011 3.194.327 4.91.702 1.714.374 3.215.7 3.334.722.12.023.042-.132-.17-.344zm11.254-.536c1.079-.187 1.889-.411 1.8-.499-.089-.087-1.715-.297-3.615-.466-3.316-.296-3.443-.265-3.165.768.226.842.587 1.017 1.654.807.75-.149 2.247-.423 3.326-.61zm-897.26 4.492c-.423-1.08-1.216-.887-1.208.294.004.675.26.923.75.73a.796.796 0 0 0 .457-1.024zm902.293-6.012a.77.77 0 0 0-.766-.773c-.418.003-1.777-.333-3.02-.745-1.244-.413-3.181-.875-4.307-1.026l-2.046-.276 2.22 1.018c1.22.56 3.093 1.169 4.16 1.353 1.068.184 2.293.53 2.723.766 1.043.576 1.042.576 1.036-.317zm-874.972 4.071c-.002-.276-.353-.366-.78-.199-.427.168-.776.396-.775.508.001.113.352.202.78.2.428-.004.777-.232.775-.509zm831.364-6.114c.756-.496.623-.523-2.469-.502-.214.001-.465.237-.559.523-.216.664 2.007.649 3.028-.02zm-860.974 3.43c-.364-.433-.768-.68-.898-.548-.357.362.38 1.342 1.008 1.338.344-.002.302-.3-.11-.79zm855.51-5.469c-.572-.241-1.507-.429-2.078-.417-.834.018-.783.102.262.43 1.779.556 3.143.547 1.817-.013zm-835.795 3.013c-.002-.285.566-.522 1.263-.527.697-.005 1.41-.243 1.584-.53.355-.582-.474-.654-2.17-.186-1.14.313-2.11 1.772-1.176 1.766a.513.513 0 0 0 .499-.523zm830.573-7.964c-2.292-.854-2.64-.917-4.157-.753-1.802.195 1.81 1.516 4.162 1.522l2.076.005-2.081-.775zm-816.838 5.277c.174-.286-.164-.517-.752-.514-.587.004-1.067.241-1.065.527.002.285.34.516.752.514.411-.003.89-.24 1.065-.527zm791.597-9.316c.118-.082-.583-.116-1.558-.076-.975.04-1.36.176-.856.304.534.136.765.487.555.844-.2.337.09.267.64-.156.552-.422 1.1-.835 1.219-.916zm4.547 1.032c-.607-.599-4.1-.754-3.731-.165.184.294 1.178.53 2.208.523 1.03-.007 1.715-.168 1.523-.358zm-11.517-2.054c-.572-.121-1.274-.404-1.561-.628-.51-.397-4.03-.698-6.361-.543-1.907.127-1.318 1.117.656 1.104.999-.007 1.817.163 1.818.377 0 .214 1.46.281 3.244.15 1.784-.13 2.776-.338 2.204-.46zm79.04-.966c-.464-.458-1.158-.714-1.542-.568-.46.175-.253.448.604.802 1.802.743 1.903.717.939-.234zm-70.488-.767c0-.28-.464-.437-1.027-.347-1.547.247-1.677.651-.244.76.7.053 1.272-.133 1.27-.413zm15.046-.566c-1.002-.51-2.534-1.059-3.403-1.217-1.327-.242-1.593-.119-1.654.768-.054.794.17.992.9.796.534-.143 1.748-.083 2.697.135 2.877.66 3.379.495 1.46-.482zm28.281-.485c-.86-.696-1.784-1.272-2.05-1.28-.268-.009-.971-.448-1.564-.975-1.33-1.184-4.086-2.119-6.223-2.112-.885.003-2.758-.334-4.161-.75-2.64-.782-11.221-1.075-12.266-.42-.368.23.269.883 1.669 1.71 1.842 1.09 2.07 1.376 1.226 1.54-1.963.38-1.93 1.062.078 1.605 2.527.683 3.632.681 4.9-.008.674-.368 1.637-.383 2.949-.047 2.525.646 5.53.994 11.281 1.305 2.563.138 4.764.354 4.89.48a.862.862 0 0 0 .534.223c.166-.002-.402-.575-1.263-1.27zm-41.003-.183c.585-.593.392-.848-1.209-1.599-2.232-1.045-8.444-1.713-6.459-.694.645.331 1.173.8 1.175 1.042 0 .242.47.436 1.04.433.572-.004 1.04.21 1.042.477 0 .267.646.578 1.432.691.786.114 1.62.24 1.855.282.235.04.74-.243 1.124-.632zm-777.081 1.934c.526-.643.39-.706-.895-.412-2.49.567-2.89.757-2.593 1.23.4.638 2.747.087 3.488-.818zm767.211-6.91c.186-.305-.096-.88-.627-1.276-1.437-1.074-1.792-.901-1.121.545.643 1.387 1.206 1.623 1.748.732zm38.627-2.306c-.005-.583-4.273-.924-5.192-.415-.427.236-.659.455-.516.486.143.032.957.165 1.809.297.852.133 1.626.316 1.72.409.308.304 2.182-.364 2.18-.777zm-873.927 5.036c-.001-.112-.352-.201-.78-.198-.428.003-.777.231-.775.507.002.277.353.366.78.2.427-.168.776-.397.775-.509zm881.71-6.083c0-.163-.763-.927-1.699-1.698l-1.7-1.402 2.854-.053 2.854-.054-1.692-.722c-.93-.397-1.694-1.083-1.697-1.525-.007-1.124-1.43-.994-2.162.197-.832 1.352-1.798.906-4.715-2.176-1.683-1.779-2.273-2.732-1.851-2.997.946-.593.46-.8-4.032-1.711-5.387-1.095-8.61-1.04-9.475.16-.623.865-.759.86-2.6-.094-1.069-.554-2.214-1.35-2.545-1.768-.617-.78-.818-.732-4.365 1.06-.898.453-2.315-1.213-1.78-2.093.169-.276-.464-.529-1.412-.564-2.433-.09-4.882-.272-8.425-.625-1.69-.168-3.44-.137-3.891.07-4.24 1.94-7.055 1.742-8.616-.607-.653-.982-1.261-1.209-3.202-1.196-1.683.012-2.595-.252-3.066-.887-.514-.693-1.496-.915-4.215-.953-1.95-.028-3.897-.186-4.326-.352-2.91-1.126-5.313-1.774-5.859-1.578-3.765 1.348-3.721 1.315-2.659 2.023.55.366 2.117.963 3.484 1.326 1.366.362 2.654.945 2.863 1.293.56.939 3.526 2.311 4.972 2.301.692-.005 1.536-.346 1.875-.76.338-.413.955-.624 1.37-.467.581.218.62.451.166 1.006-.62.757.277.963 3.088.71 1.034-.092 1.162.064.858 1.044-.34 1.094-.257 1.132 1.643.743 1.1-.225 2.234-.374 2.52-.332.285.042 3.665.153 7.511.246 5.28.128 7.126.35 7.541.91.317.428 1.971.889 3.915 1.09 3.025.316 3.264.275 2.356-.403-.993-.742-.992-.76.078-1.108 1.7-.552 3.548.11 3.646 1.306.07.862-.138 1.003-1.13.76-1.363-.332-2.126.763-1.181 1.695.414.409.406.934-.028 1.904-.8 1.788-.833 1.73 1.091 2.008 4.704.681 6.103.76 6.1.346 0-.25-1.115-.879-2.474-1.397-2.426-.924-2.443-.947-.953-1.232 1.45-.276 1.476-.33.599-1.196-.506-.5-1.134-.773-1.395-.61-.261.165-.477.08-.478-.187-.006-.85 4.874-.049 6.033.991.607.545 1.31.928 1.563.852.253-.076 1.513.245 2.8.714 1.288.469 3.16.967 4.16 1.107s2.52.411 3.377.602c1.41.314 1.49.265.841-.51-.608-.727-.61-.857-.006-.854 1.027.004 1.755.64 1.76 1.537.006.515.709.869 2.084 1.047 2.306.297 5.46 1.534 5.464 2.143 0 .216-.231.394-.517.396a.534.534 0 0 0-.515.548c0 .323 1.057.489 2.598.408 1.426-.074 2.595-.269 2.596-.432zm-21.724-7.736c-2.396-1.511-2.114-2.233.382-.98 1.146.574 2.085 1.274 2.087 1.553.005.754-.584.617-2.47-.573zm11.982 6.902c-.357-.142-.941-.138-1.297.009-.356.146-.063.262.65.257.714-.005 1.005-.124.647-.266zm-20.117-.554c.18-.295-.03-.38-.49-.2-.897.35-1.059.724-.312.719.268-.002.629-.235.802-.519zm43.333-.785c0-.268-.238-.63-.525-.805-.973-.593-.536-1.792.778-2.131 1.045-.27 1.188-.483.708-1.053-.33-.393-.993-.712-1.471-.709-.48.003-1.14-.26-1.469-.584-.748-.738-3.763.397-3.756 1.415.005.368.767 1.27 1.7 2.006.933.736 1.93 1.555 2.218 1.822.685.635 1.82.66 1.817.04zm-903.791 5.557c.16-.263-.095-.86-.568-1.327-.995-.982-2.076-.29-1.57 1.005.347.886 1.673 1.086 2.138.322zm21.041-.442c.353-.431.963-.785 1.356-.788.393-.002.713-.238.711-.524-.002-.285-.335-.517-.74-.514-.406.003-.896-.694-1.09-1.55-.44-1.942-1.98-2.07-3.148-.26-1.052 1.628-.588 2.357 1.506 2.363 1.376.004 1.503.095.752.54-.946.56-1.227 1.524-.443 1.518.25 0 .744-.355 1.096-.785zm7.307-.541c.612.373.594-1.36-.024-2.322-.402-.625-.666-.605-1.79.142-.724.482-1.675.878-2.113.881-1.352.01-.873 1.006.639 1.33a72.52 72.52 0 0 1 1.949.437c.286.073.597-.068.691-.313.094-.245.386-.315.648-.155zm6.18.024c0-.235-.322-.745-.716-1.134-.608-.6-.869-.564-1.71.23-.545.515-1.33 1.069-1.744 1.23-.414.162.355.25 1.708.197 1.354-.053 2.461-.289 2.462-.523zm10.666-.384c.27-.265 1.172-.563 2.005-.662 2.043-.243 2.272-1.303.34-1.573-.855-.12-1.435-.027-1.289.206.146.233.032.425-.253.427-.286.002-.666-.23-.844-.515-.202-.321-.657-.338-1.199-.045-.48.261-2.215.65-3.855.866-1.64.215-2.98.584-2.979.818.005.811 7.297 1.243 8.074.478zm15.961-3.192c1.675-.672-.424-1.846-2.98-1.667-.802.056-.858.202-.32.842.411.488.448.775.1.777-.303.002-.698-.228-.876-.513-.444-.707-2.859-.64-2.854.08.002.324.461.457 1.041.301.57-.153.907-.066.75.194-.339.555 3.748.544 5.14-.014zm-26.391-.41c.194-.32-.549-.496-1.919-.455-1.889.056-2.034.13-.935.473 1.851.58 2.492.575 2.854-.019zm865.664-9.802c.195-1.353-1.06-2.747-2.463-2.738-1.145.008-1.264.926-.369 2.857.764 1.647 2.59 1.57 2.832-.12zm-72.523-1.429c-.12-.108-1.036-.333-2.036-.5l-1.818-.304 1.82.693c1.612.613 2.65.67 2.034.111zm87.042-1.492c-.69-.395-1.123-.387-1.53.026-.416.42-.155.57.961.55 1.342-.023 1.412-.094.57-.576zm-37.191-.72c0-.284-.251-.516-.553-.514-.303.002-.404.236-.226.52.179.284.427.516.553.515.126 0 .228-.235.226-.52zm7.953-.59c1.68-.062-2.307-1.489-4.17-1.492-1.196-.002-2.793-.235-3.551-.517-1.778-.663-2.82-.066-1.52.871.528.381 1.908.703 3.067.716 1.158.012 2.575.22 3.147.461.573.242 1.352.337 1.73.211.38-.125.963-.237 1.297-.25zm-24.062-2.415c-1.033-.658-5.713-.626-5.708.038 0 .292 1.425.506 3.246.49 2.286-.021 3.013-.177 2.462-.528zm-785.494 3.919c.449-.176.685-.528.525-.782-.474-.756-2.688-.51-3.006.334-.31.825.94 1.051 2.48.448zm726.945-5.187c-.488-.48-.765-.479-1.246.008-.48.488-.342.625.627.619.969-.006 1.106-.146.619-.627zm44.78-1.234c-.179-.285-.428-.516-.554-.516-.126.001-.227.235-.225.52 0 .286.25.518.553.516.302-.002.404-.236.225-.52zm-59.947-.636c-.43-.274-1.132-.496-1.56-.493-.692.005-.692.06.005.503.43.274 1.132.496 1.56.493.692-.005.692-.06-.005-.503zm-11.446-4.31c-.005-.783-.907-1.227-3.906-1.922-4.104-.952-6.079-1.043-6.53-.301-.355.582-.553.558-1.107-.138-.658-.826-6.65-1.885-6.645-1.175.005.503 1.428 1.807 1.97 1.804.261-.002 1.158.577 1.992 1.286 1.305 1.11 1.595 1.182 2.081.513.311-.427.666-.677.789-.556.123.122 1.736.338 3.585.482 1.848.143 4.18.454 5.18.69 2.035.48 2.597.331 2.59-.683zm-701.52 1.485c-.358-.142-.942-.138-1.298.009-.356.146-.063.262.65.257.714-.005 1.005-.125.647-.266zm664.63-7.75c-1.02-.65-1.708-.645-1.297.01.178.284.719.51 1.201.503.757-.012.77-.083.096-.512zm131.072-1.917c.12 0 .215-.351.212-.78-.005-.479-.492-.775-1.272-.77-.697.005-1.438-.263-1.646-.596-.255-.406-.096-.498.486-.279.476.18.864.083.862-.215-.007-.985-1.716-.213-1.874.846-.177 1.19 1.264 2.481 2.31 2.071.388-.151.803-.276.922-.277zm-140.688-.343c-1.72-.742-2.63-.925-4.091-.823-.804.057-.859.202-.32.842.434.517 1.537.754 3.311.714 2.655-.06 2.657-.061 1.1-.733zm43.33-.79c-.006-.41-.22-.877-.48-1.036-.796-.484-2.073.284-1.768 1.064.377.962 2.254.939 2.247-.027zm-3.107-1.825c1.097-.007 1.36-.772.455-1.323-.306-.186-.442-.643-.302-1.015.283-.754-1.442-1.374-2.58-.929-.4.157-.725.585-.722.952.005.83 1.305 1.357 2.341.95.427-.166.778-.102.78.144 0 .246-.808.707-1.799 1.025-1.538.493-1.956.435-2.855-.392-.857-.787-1.259-.858-2.146-.376-1.384.753-.702 1.458 1.562 1.615.956.067 1.86.431 2.009.81.202.516.516.42 1.255-.383.541-.59 1.443-1.075 2.002-1.078zm-118.726 1.49c-.358-.141-.942-.137-1.298.01-.356.146-.063.262.65.257.714-.005 1.005-.125.648-.266zm109.42-2.077c.03-.357.005-1.095-.058-1.64-.21-1.844-2.63-3.309-2.618-1.585.005.484-.485.781-1.292.787-1.866.012-1.56.626.945 1.898 2.615 1.327 2.95 1.387 3.023.54zm107.884-.583c-.43-.268-.666-.671-.525-.897.141-.225-.444-.459-1.3-.52-1.482-.103-1.5-.08-.387.472.645.32 1.173.779 1.175 1.02 0 .242.411.434.91.426.775-.012.794-.086.127-.5zm-158.548.015c-.178-.284-.602-.511-.942-.505-.371.007-.306.211.164.51 1.001.638 1.18.637.778-.005zm46.318-.15c-.5-.127-1.318-.121-1.816.013-.499.133-.09.238.91.23.999-.006 1.406-.115.906-.243zm-33.873-1.49c-.179-.285-.428-.517-.553-.516-.126.001-.228.235-.226.52 0 .286.251.518.553.516.303-.002.404-.236.226-.52zm-16.351-.424c.142-.152.84-.55 1.551-.884l1.293-.608-1.385-.025c-.761-.015-1.755-.166-2.207-.336-.536-.201-.822-.024-.818.508.005.514-.285.709-.775.525-.43-.162-1.188-.11-1.686.116-.71.322-.514.48.913.735 2.066.37 2.746.363 3.114-.031zm9.959.112c-.376-.148-.823-.126-.995.048-.171.173.136.294.683.268.605-.03.727-.153.312-.316zm73.591-.918c-.005-.428-.214-.777-.468-.775-.255 0-.596.354-.757.783-.18.476.005.779.468.776a.773.773 0 0 0 .757-.784zm-91.83-1.507c.468-.571.443-.742-.11-.767-.392-.017-1.823-.1-3.18-.184-1.695-.105-2.464.047-2.461.486.007 1.004.382 1.16 2.842 1.181 1.39.012 2.547-.273 2.91-.716zm40.643-.92c.372-.612-2.902-.65-3.844-.045-.557.357-.166.493 1.403.489 1.196-.004 2.295-.204 2.441-.444zm-48.738-.847c-.858-.26-2.144-.431-2.857-.381-.713.05-1.7-.079-2.19-.286-.492-.207-1.193-.254-1.558-.105-.366.15-.153.287.473.305.626.019 1.283.266 1.462.55.178.285 1.653.488 3.277.453 2.622-.057 2.778-.117 1.393-.536zm-10.032-1.273c-.375-.147-.823-.126-.994.048-.171.173.136.294.683.268.604-.03.727-.153.311-.316zm37.786-.418c-1.034-.658-3.27-.643-2.854.02.178.283 1.069.507 1.98.497 1.26-.015 1.469-.138.874-.517zm-48.552-.14c-.657-.613-9.55-2.277-9.959-1.864-.601.61.282.907 4.611 1.551 5.724.852 5.94.864 5.348.313zm-17.632-2.01c-.179-.285-.675-.515-1.103-.512-.428.003-.633.238-.454.522.178.284.674.514 1.102.511.428-.003.633-.237.455-.522zm-6.51-3.32c-.005-.768-2.063-1.539-3.762-1.41-.494.037-1.034-.15-1.2-.416-.512-.815-5.8-.556-6.122.3-.388 1.032.833 1.332 1.529.375.5-.69.712-.681 1.802.072.68.469 2.176.863 3.326.875 1.15.013 2.559.22 3.131.462.573.241 1.1.455 1.171.474.072.02.128-.31.125-.732zm-12.558-2.459c.161-.868-.04-.933-1.81-.589-2.236.435-2.774.688-2.77 1.303 0 .234.992.389 2.201.344 1.708-.063 2.239-.299 2.38-1.058zm-6.042.403c-.375-.148-.823-.126-.994.047-.171.174.136.294.683.268.604-.029.726-.153.311-.315zm-442.146-1.175c-.357-.141-.941-.137-1.297.01-.356.146-.063.261.65.257.714-.005 1.005-.125.647-.266zm8.3-.49c.07-.286-.399-.591-1.042-.678-1.232-.167-1.62.685-.511 1.12.868.341 1.4.19 1.554-.442zm387.535-2.026c0-.112-.365-.34-.809-.508-.463-.174-.67-.085-.487.208.308.49 1.299.72 1.296.3zm2.074-.329c0-.285-.251-.517-.553-.515-.303.002-.404.236-.226.52.179.285.428.516.553.516.126-.001.228-.236.226-.521zm3.929-.09c-1.335-.303-2.225-.279-2.569.07-.358.363.294.511 2.042.464l2.569-.07zm-390.05.055c-.002-.268-.412-.503-.912-.522-.5-.018.024-.348 1.163-.732 1.14-.383 1.85-.72 1.578-.749-1.06-.11.771-1.254 2.101-1.313.776-.034 1.497-.326 1.602-.648.343-1.058-1.474-1.243-3.342-.34-1.738.838-1.869.836-2.53-.056-.905-1.22-6.702-1.235-7.902-.02-1.253 1.271.058 2.428 2.078 1.834 1.356-.398 1.62-.316 1.862.58.165.616.571.931.989.767.39-.152.71-.05.712.226.002.276-.289.515-.646.53-.356.016.054.33.913.7 1.6.689 2.34.607 2.334-.257zm-3.131-2.543c-.002-.285.36-.521.806-.524.445-.003.666.229.491.515-.174.287-.537.523-.805.525-.269.002-.49-.23-.492-.516zm10.008 2.595c1.22-.098 1.149-.927-.108-1.247-1.323-.336-5.82.661-5.473 1.214.233.372 1.29.378 5.58.033zm70.83-3.226c.462-.468.332-.753-.553-1.21-.905-.467-1.47-.439-2.596.129-.792.4-1.3.948-1.13 1.22.438.698 3.553.596 4.28-.14zm18.265-2.629a.52.52 0 0 0-.522-.515.52.52 0 0 0-.516.522.52.52 0 0 0 .523.516.52.52 0 0 0 .515-.523zm-15.477-.77c-.376-.147-.823-.125-.994.048-.172.174.136.295.683.268.604-.029.726-.152.31-.315zm22.216-.344c-.002-.302-.236-.403-.52-.225-.284.178-.516.427-.515.553 0 .126.235.227.52.226.286-.002.517-.251.515-.554zm6.427-.834c.19-.507.073-.743-.305-.614-.775.264-1.194 1.446-.512 1.441.28-.002.646-.374.817-.827zm-66.38-.843c.935-.384.91-.426-.262-.426-.714 0-1.996.34-2.85.758l-1.551.759 1.814-.333c.998-.183 2.28-.524 2.85-.758zm64.362-.816c-.161-.159-.579.003-.928.36-.506.516-.446.576.292.289.51-.198.797-.49.636-.65zm36.082-.861c.52-.003 1.109-.277 1.31-.608.271-.445-.56-.5-3.197-.212-1.96.214-3.662.49-3.783.612-.12.122.073.57.43.994.574.682.862.682 2.473-.004 1.003-.427 2.248-.779 2.767-.782zm-34.282.458c-.001-.125-.235-.227-.52-.225-.286.002-.518.25-.516.553.002.302.236.404.52.226.285-.179.517-.428.516-.554zm53.681-.867c.553-.424 1.408-.647 1.9-.494.49.152 1.025.06 1.187-.206.45-.74-1.439-1.03-3.793-.584-1.163.221-2.644.307-3.29.192-.787-.141-1.389.143-1.821.861-.62 1.03-.538 1.07 2.083 1.037 1.576-.02 3.153-.36 3.734-.806zm-48.212-.68c.963-.737.947-.768-.382-.775-1.693-.009-3.024.475-3.02 1.097.005.739 2.304.521 3.402-.321zm40.446-.546c.402-.66-.285-.655-1.297.009-.668.438-.654.508.103.51.482 0 1.02-.233 1.194-.52zm-288.184 170.81c-.004-.648.51-1.32 1.286-1.68.711-.33 1.294-.477 1.295-.328 0 .149-.578.904-1.286 1.678-1.203 1.315-1.289 1.337-1.295.33zm70.06-.129c-.001-.302.23-.551.516-.553.286-.002.52.1.52.225.002.126-.23.375-.515.553-.284.179-.518.077-.52-.225zm-9.842-.958c-.407-.748-.417-1.08-.033-1.082.629-.004 1.324 1.446.899 1.877-.154.156-.544-.202-.866-.795zm113.555-.116c-.471-.122-.965-.625-1.098-1.12-.294-1.096.636-3.74.991-2.813.136.356.579.644.983.642a.741.741 0 0 1 .74.738c.003.41.514.901 1.135 1.094l1.13.35-1.252.705c-.69.388-1.37.687-1.513.665-.143-.022-.645-.14-1.116-.261zm579.127-3.817c-.154-.152-1.888-.33-3.852-.394-3.847-.128-6.693-1.137-6.7-2.377-.006-.54.672-.825 2.249-.95 1.43-.111 2.137.017 1.933.352-.378.622 4.354 2.102 6.69 2.093.876-.003 2.878.144 4.45.326 2.32.27 2.613.404 1.56.712-1.566.459-5.94.623-6.33.238zm-41.275-.277c.171-.174.619-.195.995-.048.415.163.293.287-.312.316-.547.026-.854-.094-.683-.268zm-691.266 3.784c.117-.357.951-.678 1.854-.713 1.323-.05 1.53.074 1.065.642-.738.902-3.21.963-2.919.071zm-2.21-.768c-.005-.728 1.893-1.605 4.284-1.98 2.423-.38 3.734-.057 3.217.792-.167.275-.673.238-1.203-.088-.705-.434-1.464-.308-3.317.552-2.641 1.225-2.978 1.306-2.981.724zm162.951-1.188c-.002-.302.23-.551.515-.553.286-.002.52.1.52.225.002.126-.23.375-.514.553-.285.179-.519.077-.521-.225zm-139.084.384c-.002-.286-.359-.517-.793-.514-.434.003-1.063-.585-1.398-1.307-.496-1.069-.458-1.466.203-2.135.738-.749.843-.727 1.158.244.222.685.63.956 1.135.758.524-.204.734-.043.626.479-.09.433.423 1.27 1.141 1.862l1.305 1.074-1.687.03c-.927.015-1.688-.206-1.69-.491zm79.225-.878c-.191-.189-.351-.772-.355-1.295-.005-.716.388-.954 1.586-.962 1.356-.009 1.542-.164 1.255-1.046-.38-1.174.209-1.355 1.296-.398.612.538.63.51.111-.173-.485-.64-.46-1.035.111-1.818.719-.983.744-.983 1.532.033 1.1 1.417 1.039 1.74-.454 2.433-.712.33-1.292.885-1.29 1.235.005.641-2.158 2.326-2.993 2.332-.248 0-.607-.152-.799-.34zm-109.617.001c-.193-.307-.908-.415-1.59-.239-1.036.268-1.24.126-1.246-.874-.006-.861.445-1.367 1.62-1.82 1.817-.7 2.611-.48 2.201.61-.465 1.239 1.433 1.808 3.834 1.15 2.376-.651 2.916-.466 2.427.833-.251.668-1.038.86-3.608.877-1.808.012-3.445-.23-3.638-.537zm-7.508-1.31c-.002-.271.602-1.063 1.342-1.76 1.173-1.104 1.322-1.142 1.166-.29-.187 1.019-2.502 2.91-2.508 2.05zm705.257-5.406c-.403-.245-.902-.339-1.109-.209-.207.13-.525 0-.706-.289-.181-.289-.023-.53.35-.538.501-.009.478-.137-.088-.49-1.06-.66-.344-1.228 1.018-.805.615.19.989.478.83.639-.159.16.095.569.564.907 1.002.722.216 1.44-.86.785zm136.487-1.244c0-.63 2.546-1.764 3.98-1.774 1.658-.011 1.503.832-.225 1.222-.784.176-1.95.474-2.59.661-.642.187-1.166.138-1.165-.11zm-656.26 2.103c-.19-.304-.223-.677-.071-.83.369-.375 1.385.274 1.39.886.003.663-.892.625-1.32-.056zm540.385-3.446c-1.538-.365-1.014-1.177.77-1.193.928-.01 2.97-.158 4.539-.332l2.852-.316-1.265 1.04c-1.212.995-4.475 1.375-6.896.8zm-538.555 2.46c-.002-.302.23-.55.516-.553.285-.002.52.1.52.226.001.126-.23.375-.515.553-.284.178-.519.077-.52-.225zm619.632-4.361c-.005-.42.694-1.012 1.548-1.316.855-.305 1.554-.465 1.555-.356 0 .108-.696.7-1.548 1.316-1.207.872-1.55.95-1.555.356zm-41.13-.111c-1.099-.631-1.181-1.682-.196-2.51.88-.741 3.923-1.684 3.86-1.196-.21 1.604.201 2.164 1.582 2.155 2.018-.013 3.15 1.285 1.513 1.736-1.825.502-5.747.395-6.758-.185zm-791.942 4.253c.35-.357.767-.52.928-.36.161.158-.125.45-.635.648-.738.287-.798.228-.293-.288zm811.007-5.378c-.178-.284.17-.52.775-.524.605-.004.957.227.782.514-.174.286-.523.522-.775.524-.251.001-.603-.23-.782-.514zm-816.957 5.169c.171-.174.619-.195.994-.048.415.163.293.287-.311.316-.547.026-.854-.095-.683-.268zm122.328-1.546c-.575-.567-1.046-1.228-1.048-1.47 0-.24.462-.863 1.029-1.384.567-.52 1.03-1.26 1.027-1.644-.005-.805.467-.879 1.5-.234.425.265.61.905.448 1.545-.153.6-.068 1.22.189 1.376.525.32-.928 2.834-1.64 2.84-.253 0-.93-.462-1.505-1.029zm-116.964-.642c.187-.786.588-1.594.891-1.794.336-.222.15-.495-.473-.696-2.534-.816-2.581-.887-.93-1.41 1.073-.34 1.712-.91 1.817-1.625.09-.606.449-1.045.8-.976.762.15.849-1.235.105-1.688-.643-.392-.7-1.811-.072-1.816.252 0 .574.428.715.954.202.752.615.901 1.936.698 1.567-.24 1.64-.186 1.106.83-.315.598-.541 1.272-.502 1.498.243 1.394-.2 2.248-1.313 2.536-.701.18-1.573.702-1.939 1.158-.567.707-.531.778.242.482 1.333-.51 1.109.273-.535 1.87-1.833 1.779-2.275 1.774-1.848-.021zm270.831-.91c-.428-.681.186-1.657.806-1.28.633.386.638 1.79.007 1.794-.269.002-.635-.229-.813-.513zm-126.37.157c-.002-.38.335-.694.751-.697.416-.003.878.305 1.026.685.17.431-.113.693-.751.697-.562.004-1.024-.305-1.026-.685zm630.104-4.086c-1.586-.623-1.312-2.246.416-2.456.858-.104 1.518.204 1.965.916 1.153 1.837.102 2.517-2.38 1.54zm-760.095 4.295c-1.207-.867-.958-1.752.495-1.762.713-.005 1.299.208 1.3.474.002.266.511.554 1.132.641.62.087 1.227.451 1.347.809.273.811-3.098.684-4.274-.162zm4.997-1.57c.517-.534 1.22-.754 1.757-.552 1.097.412.928.581-1.065 1.065-1.459.354-1.501.322-.692-.513zm-55.81.307c-.858-.847-.231-1.71 1.249-1.72.92-.006 1.455.207 1.272.508-.475.779-2.145 1.582-2.52 1.212zm251.884-1.845c-.002-.285.36-.521.806-.524.445-.003.666.229.492.515-.175.287-.537.523-.806.525-.268.002-.49-.23-.492-.516zm487.819-3.273c0-.286.872-.521 1.943-.524 1.447-.004 1.747.125 1.17.503-1.018.668-3.109.682-3.113.02zm-458.762 2.3c.352-.43.721-.784.82-.784.099 0 .048.35-.114.779-.161.43-.53.782-.82.784-.304.002-.256-.328.114-.78zm17.383-.377c-.835-.352-.656-.448.905-.488 1.07-.027 1.947.184 1.95.47.003.619-1.409.628-2.855.018zm457.978-3.073c-.629-.4-.547-.5.417-.513.668-.01 1.058.214.88.505-.38.626-.327.626-1.297.009zm-598.357 3.787c-.001-.126.23-.375.515-.554.284-.178.518-.076.52.226.003.302-.23.551-.515.553-.285.002-.52-.1-.52-.225zm158.799-1.3c-.004-.65 1.457-1.153 1.792-.619.152.242-.09.584-.54.76-1.084.424-1.249.406-1.252-.142zm584.205-3.798c.35-.144 1.051-.157 1.557-.03.506.129.22.247-.637.263-.856.017-1.27-.088-.92-.233zm-877.42 5.19c-.001-.285-.808-.513-1.792-.507-1.838.013-3.766-1.315-4.85-3.34-.612-1.144-5.632-2.55-7.08-1.984-1.914.75-.675-.436 1.462-1.398 1.272-.573 2.493-1.352 2.713-1.73.421-.723 2.283-1.307 5.325-1.67l1.815-.218-1.9.644c-2.615.886-2.858 1.276-1.55 2.479.622.572 1.51 1.759 1.971 2.638.767 1.458 1.015 1.574 2.832 1.318 1.488-.21 1.928-.112 1.74.388-.168.446.626.888 2.381 1.325 3.095.772 3.81 2.275.824 1.736-1.192-.216-1.817-.13-1.815.248.002.317-.463.58-1.034.583-.57.004-1.04-.226-1.041-.512zm-7.66-7.222c.372-.007.322-.189-.128-.47-.845-.527-2.125-.162-2.12.604.003.286.373.375.823.199.45-.177 1.091-.326 1.425-.333zm141.03 6.072c-.002-.542-.225-.97-.685-1.321-.261-.2.139-.366.888-.371 1.748-.012 2.069.518.8 1.322-.55.349-1.001.516-1.002.37zm599.97-4.493c-.683-.373-1.01-.824-.725-1.003.285-.178.939.134 1.453.695 1.087 1.185.97 1.234-.728.308zm-697.54 4.08a83.486 83.486 0 0 0-2.708-.46l-1.928-.301 1.072-1.088c.892-.903 1.47-1.035 3.425-.78 1.409.183 2.621.078 3.025-.262.503-.422.977-.289 1.861.524l1.187 1.091-1.147.309c-.63.17-1.018.514-.86.766.27.43-2.195.556-3.927.201zm16.86-.89c1.424-.567 2.822-1.015 3.108-.996.899.06-3.568 1.983-4.657 2.006-.571.011.126-.443 1.55-1.01zm62.02.21c0-.24-.647-.733-1.434-1.096-.79-.364-1.15-.765-.802-.894.346-.128 1.217.189 1.934.704 1.36.976 1.713 1.712.824 1.718-.285.002-.52-.192-.522-.432zm197.72-1.575c-.002-.41.326-1.023.73-1.363.601-.506.684-.424.459.46-.331 1.301-1.181 1.947-1.188.903zm-285.286 1.766c.172-.174.62-.195.995-.048.415.163.293.287-.312.316-.546.026-.854-.094-.683-.268zm237.285-1.792c-.184-.293.024-.381.487-.207.9.339 1.068.71.321.715-.268.002-.632-.227-.808-.508zm463.676-4.09c-.714-.195-2.621-.337-4.237-.315-2.005.026-2.795-.136-2.488-.513.288-.354 1.525-.424 3.455-.196 1.654.195 3.649.37 4.434.389.785.018 1.429.267 1.43.553.006.582-.685.604-2.594.083zm-698.206 4.015c.146-.24.484-.436.753-.438.269-.002.49.191.491.43.001.237-.337.434-.753.437-.415.003-.636-.19-.49-.43zm-9.406-.94c.349-1.189 2.139-3.04 2.968-3.071.214-.008.393.453.396 1.024.005.702.353 1.035 1.076 1.03 1.611-.01.757.854-1.178 1.192-.933.163-2.132.471-2.663.685-.829.334-.913.213-.599-.86zm240.728-1.305c.426-.43 1.052-.785 1.393-.787.468-.003.463.187-.021.778-.353.43-.98.785-1.393.788-.645.004-.642-.106.021-.779zm33.172.243c.171-.174.619-.195.994-.048.415.163.293.287-.311.316-.547.026-.854-.095-.683-.268zm388.936-2.637c.35-.144 1.051-.158 1.557-.03.506.129.22.247-.637.263-.856.017-1.27-.088-.92-.233zm-717.405 2.81c-.17-.431-.202-1.357-.073-2.057s-.024-1.38-.34-1.513c-.317-.133-.056-.187.58-.122 1.436.148 2.213.83.956.84-.774.004-.866.299-.57 1.82.357 1.834.013 2.477-.553 1.032zm718.433-4.374c.35-.144 1.05-.158 1.557-.03.505.129.219.247-.637.263-.857.017-1.27-.088-.92-.233zm-7.908-.974c-.992-.98-.527-1.652 1.293-1.87 1.06-.126 1.316.097 1.459 1.273.138 1.134-.038 1.428-.862 1.433-.57.004-1.42-.372-1.89-.836zm-13.353.13c-.194-.191-1.124-.528-2.068-.748-1.272-.297-.807-.372 1.799-.288 1.933.063 3.666.264 3.852.447.186.183.008.339-.397.345-.405.007-1.208.143-1.785.302s-1.207.133-1.4-.058zM69.935 454.36c-.007-1.037 1.23-2.301 2.209-2.256.84.038.912.116.267.29-.485.132-1.022.692-1.194 1.246-.279.9-1.277 1.46-1.282.72zm103.028-.891c-.17-.27.15-.74.709-1.044 1.085-.59 1.936.042 1.35 1.004-.402.66-1.655.685-2.06.04zm601.966-5.062c-2.047-.89-2.06-.913-.788-1.358.712-.249 1.411-.468 1.554-.487.142-.02.491-.178.776-.353.284-.175.926-.254 1.426-.177 1.75.27.885-.694-.915-1.02-1-.18-1.82-.55-1.822-.823-.005-.655.855-.633 2.16.053.58.306 2.26.674 3.733.817 3.061.297 3.492.491 2.108.95-.54.18-1.49.574-2.114.877-.623.303-1.848.412-2.723.244-1.198-.232-1.588-.119-1.585.458.005.421.37.763.815.76.445-.003.666.23.491.516-.404.665-.605.635-3.116-.457zm21.54.333c-.608-.386-.457-.502.675-.515.842-.011 1.324.202 1.14.503-.393.647-.814.65-1.816.012zm-9.654-2.587c-.261-.416 2.504-.933 6.773-1.266l3.112-.243-2.628.44c-1.446.242-3.099.696-3.673 1.008-1.111.604-3.221.64-3.584.06zm-30.561-.934c-1.93-.984-1.987-1.078-.948-1.55.609-.276 1.529-.321 2.046-.1.517.22 1.231.352 1.587.292.357-.06.65.116.652.39 0 .275.147.868.324 1.319.438 1.12-1.057.977-3.661-.351zm40.844-.948c.171-.174.619-.196.994-.048.415.163.293.287-.311.316-.547.026-.854-.095-.683-.268zm-55.688-2.427c0-.286.36-.522.806-.525.445-.003.666.23.492.516-.175.287-.537.523-.806.525-.269.002-.49-.23-.492-.516zm-640.23 2.613c.644-1.837 1.72-2.957 2.872-2.99.561-.017.521.21-.174.99-.497.555-.775 1.215-.618 1.465.157.25-.38.854-1.194 1.342l-1.479.887zm24.226.985c-.002-.276.347-.505.775-.508.428-.003.78.087.78.199 0 .112-.348.34-.775.508-.427.167-.778.077-.78-.199zm-17.005-1.037c1.13-1.729 2.385-1.83 2.078-.17-.184 1-.562 1.327-1.544 1.334-1.231.008-1.26-.053-.534-1.164zm10.25-.106c-.002-.54 1.627-1.92 2.274-1.925.36-.002.657.346.66.774.003.429-.287.78-.644.783-.358.002-1.018.149-1.469.325-.45.176-.82.196-.82.043zm9.857-.647c-.001-.126.23-.375.515-.553.284-.179.519-.077.52.225.003.302-.23.551-.515.553-.285.002-.52-.1-.52-.225zm-14.536-.681c-.002-.303.23-.551.515-.553.286-.002.52.1.52.225.002.126-.23.375-.515.553-.284.178-.518.077-.52-.225zm-8.624-.711c-.159-.405-.032-1.223.282-1.818.462-.878.419-1.082-.227-1.077-.438.003-.798-.228-.8-.514-.004-.595.317-.63 1.927-.21 1.576.412 2.034 2.088.914 3.342-1.068 1.196-1.703 1.28-2.096.277zm12.872-1.185c-.568-.635-.487-.756.514-.769a11.28 11.28 0 0 0 2.354-.336c.838-.23 1.167-.097 1.17.475.004.438.299.912.656 1.053.358.142-.4.274-1.684.295-1.421.022-2.6-.259-3.01-.718zm5.86.24c.175-.286.655-.523 1.066-.526.411-.003.75.229.751.514.002.286-.477.522-1.065.526-.587.004-.926-.227-.751-.514zm-43.815-.44c-.026-.548.095-.855.268-.684.174.171.195.619.048.995-.163.415-.287.292-.316-.312zm8.77-1.862c-1.374-1.524-1.5-3.161-.243-3.17.407-.003.738-.238.737-.524-.002-.285.463-.522 1.034-.526 1-.007 1.353.824 1.103 2.588-.06.429-.094 1.305-.074 1.947.048 1.571-.97 1.446-2.558-.315zm14.679 1.087c.17-.173.618-.195.994-.047.415.163.293.287-.311.316-.547.026-.855-.095-.683-.268zm-9.174-.879c.17-.453.538-.825.817-.827.682-.004.263 1.178-.511 1.442-.379.129-.496-.108-.306-.615zm-36.446-2.724c-.226-.361-.155-.469.177-.266.307.186.674.045.816-.315.185-.468.271-.478.304-.036.065.893-.85 1.328-1.297.617zm52.978-.284c.175-.287.551-.523.836-.525.286-.002.377.231.202.518-.174.286-.55.523-.836.524-.286.002-.376-.23-.202-.517zm907.626-10.31c-2.663-1.063-5.434-1.905-7.28-2.212-.572-.095-1.157-.233-1.3-.307-.143-.074-1.195-.156-2.337-.183-5.803-.138-7.047-.26-6.8-.665.148-.243-.223-.964-.825-1.601l-1.094-1.159 3.053.256c6.594.554 11.782 1.314 14.008 2.053 1.282.426 4.074.762 6.205.748 4.394-.03 4.988.615 1.817 1.973-1.136.485-2.065 1.175-2.066 1.532 0 .842-.276.806-3.381-.434zm-931.27 5.862c-.003-.536.302-1.233.677-1.55.914-.768 1.878.18 1.538 1.515-.333 1.31-2.205 1.339-2.214.035zm-34.775-.562c-.003-.444.98-1.856 2.185-3.139a318.745 318.745 0 0 0 4.765-5.226c2.406-2.705 3.869-3.608 3.877-2.394.002.286-.215.52-.48.522-.267.002-.644.53-.84 1.174-.194.643-.776 1.778-1.292 2.522-1.099 1.583-.51 2.55 1.544 2.536 1.241-.008 1.25.019.342 1.036-1.15 1.288-2.236 1.36-2.147.144.041-.571-.361-.966-1.085-1.064-.868-.118-1.23.171-1.475 1.177-.23.939-.672 1.336-1.497 1.341-.644.004-1.783.496-2.531 1.093-1.116.89-1.361.94-1.366.278zm31.334-1.764c.044-1.434.438-2.725 1.035-3.395.944-1.056.943-1.08-.024-1.113a13.627 13.627 0 0 1-2.028-.26c-.572-.125-1.857-.26-2.857-.3-.999-.04-2.103-.435-2.454-.877-.793-1.001-.904-3.334-.136-2.866 1.015.618 3.083-.268 3.075-1.317-.01-1.63 1.982-2.628 5.288-2.65 1.649-.011 2.997-.207 2.995-.435-.001-.228.783-.328 1.742-.223 1.463.161 1.806-.005 2.125-1.026.21-.67.338-1.443.285-1.717-.205-1.065 1.507-1.757 2.843-1.149 1.494.681 1.674 1.34.383 1.408-.543.028-.646.15-.258.304 1.046.414.76 1.195-.637 1.736-1.706.662-1.637 1.83.147 2.483 3.808 1.394 3.637 1.285 2.383 1.515-.62.114-1.406.545-1.744.959-.338.413-1.118.754-1.733.759-1.385.009-3.416 1.398-3.41 2.332.01 1.451-1.616 1.323-3.065-.24-1.203-1.3-1.552-1.444-2.046-.842-.922 1.126 3.723 3.265 7.363 3.39.516.017.79.276.609.574-.182.298-.72.436-1.197.306-.476-.13-1.608-.38-2.515-.555-1.476-.286-1.618-.209-1.363.744.195.724-.021 1.19-.679 1.464-.53.22-.961.868-.957 1.438.004.718-.286.99-.941.883-.521-.085-1.252.101-1.624.414-.542.456-.662.11-.605-1.744zm-.535-8.412c.46-.465.726-.953.593-1.084-.363-.359-2.399.86-2.395 1.436.005.761.87.593 1.802-.352zm-6.927 10c-.003-.548.991-.785 1.29-.308.182.289-.034.528-.48.53-.444.004-.809-.097-.81-.223zm920.609-9.063c0-.285.1-.52.225-.52.126-.001.375.23.553.515.178.284.077.518-.225.52-.302.002-.551-.23-.553-.515zm-1.938-.3c.172-.174.62-.195.995-.048.415.163.293.287-.312.316-.547.026-.854-.095-.683-.268zm31.81-2.577c.252-.413.016-.509-.75-.303-.613.165-1.248.09-1.41-.168-.329-.526 2.348-.658 3.62-.18 1.278.48.976 1.235-.499 1.245-.874.006-1.202-.197-.96-.594zm-928.922 5.557c.207-.55-.014-.7-.798-.543-1.58.315-1.346-.028.979-1.436 2.71-1.64 5.133-1.431 4.793.415-.253 1.375-.641 1.552-1.515.69-.418-.413-.87-.268-1.657.53-1.25 1.267-2.219 1.452-1.802.344zM50 422.489c-.004-.652.457-1.48 1.026-1.84.568-.36 1.03-1.084 1.027-1.608-.004-.524.418-1.342.937-1.818 1.132-1.039 3.714-1.177 3.72-.2.006.882-2.348 2.964-3.357 2.971-.426.003-.772.446-.768.984.003.538-.575 1.364-1.285 1.837-1.248.83-1.292.818-1.3-.326zm15.956.743c-.651-.643.288-1.767 1.483-1.775 1.116-.007 1.18.1.605 1.034-.636 1.033-1.486 1.335-2.088.741zm929.882-6.719c-1.298-.968-.673-1.615.859-.89.647.307.87.576.497.598-.373.022-.533.272-.355.556.435.694.198.631-1.001-.264zm49.492-4.778c-1-.245-2.663-.311-3.695-.147-1.41.224-1.954.097-2.193-.512-.182-.465-.931-.807-1.76-.803-2.697.012-5.259-.95-5.115-1.92.102-.69.541-.86 1.894-.732.968.091 1.995.345 2.282.565.287.22 2.392.655 4.677.968 4.122.564 8.571 1.978 8.58 2.726.01.5-2.338.427-4.67-.145zm-981.347 6.35c-.004-.526 2.247-3.367 2.67-3.37.799-.005.458 2.993-.377 3.32-1.016.398-2.29.426-2.293.05zm9.336-.82c-.715-.223-1.008-.432-.652-.463.786-.068.868-1.614.085-1.609-.304.002-.965.228-1.47.502-.968.527-3.162.202-3.166-.468-.002-.218.714-.698 1.59-1.068 1.885-.796 3.26-2.73 3.279-4.618.01-1.002.318-1.401 1.18-1.53.642-.095 1.168.056 1.17.337.002.317.59.284 1.555-.087 1.279-.493 1.7-.451 2.398.238.998.984.57 1.976-.855 1.985-.554.004-1.006.24-1.004.526.002.285-.318.521-.711.524-1.595.01-2.037 1.438-1.21 3.898.867 2.573.678 2.73-2.189 1.833zm965.672-9.849c-.126-.124-1.119-.33-2.206-.458-2.497-.292-2.876-.66-1.302-1.265.868-.333 1.71-.244 2.802.296 1.972.973 1.99.99 1.414 1.352-.264.166-.582.2-.708.075zm-950.893 4.43c.374-1.783 1.236-2.7 1.912-2.033.495.489-1.018 3.714-1.745 3.72-.318.001-.384-.657-.167-1.686zm4.426-.625c-.46-.548-.335-.769.579-1.014 1.573-.423 2.356.439 1.046 1.15-.78.425-1.18.391-1.625-.136zm-12.667-5.76c.356-.147.94-.151 1.297-.01.358.142.067.262-.647.266-.713.005-1.006-.11-.65-.257zm-5.733-2.278c.35-.357.767-.52.928-.36.161.158-.125.45-.635.649-.738.286-.798.227-.293-.289zm1.244-3.006c.335-.545.92-.874 1.297-.732.93.35.872 1.005-.125 1.395-1.434.562-1.798.355-1.172-.663zm955.167-8.362c.356-.146.94-.15 1.298-.009.357.142.067.262-.647.267-.714.005-1.006-.111-.65-.258zM73.173 397.02c-1.039-.633-.272-1.235.812-.638.488.27.672.624.409.79-.263.165-.813.096-1.22-.152zm.515-2.06c-.002-.278.726-.889 1.617-1.357 1.316-.692 1.7-.724 2.046-.172.345.549.763.555 2.174.034 2.117-.781 3.667-.847 3.235-.136-.175.287-.976.526-1.78.53-.805.006-1.751.363-2.104.793-.715.874-5.182 1.14-5.188.308zm15.268-6.337c-.995-.349-.987-.382.164-.757 1.364-.444 1.754-.268 1.233.556-.202.32-.807.407-1.397.2zm-9.483-3.37c.17-.174.618-.195.994-.048.415.163.293.287-.311.316-.547.026-.855-.095-.683-.268zm959.965-8.403c-.466-.553-.409-.789.254-1.048.868-.34 2.286.46 2.292 1.294.01.722-1.885.54-2.546-.246zm-15.115-2.035c-.358-.426-.873-.773-1.144-.77-.27.001-.824-.325-1.229-.725-.405-.4-1.034-.833-1.397-.963-.448-.161-.493-.418-.138-.804 1.288-1.402 8.186 2.016 7.232 3.584-.439.72-2.626.508-3.324-.322zm9.353-3.005c-.698-.254-1.915-.315-2.706-.136-.79.179-1.855.085-2.368-.208-.78-.447-.648-.539.81-.562 1.386-.021 1.676-.198 1.416-.861-.264-.676-.077-.773.985-.514 2.018.492 4.599 2.174 3.807 2.48-.37.145-1.246.055-1.944-.199zm-17.292-.659c.356-.146.94-.15 1.298-.009.357.142.067.262-.647.266-.714.005-1.007-.11-.65-.257zm-917.906 5.735c-.003-.385 4.01-2.375 4.764-2.362.368.006.204.284-.364.618-.569.333-1.34.915-1.715 1.293-.642.647-2.681.99-2.685.451zm-7.216-.784c-.686-.27-1.118-.62-.96-.78.158-.16.952.064 1.766.497 1.636.873 1.14 1.046-.806.283zm933.018-7.774c0-.285.1-.52.225-.52.126-.001.375.23.553.515.178.284.077.518-.225.52-.302.002-.551-.23-.553-.515zm-919.09 4.882c.742-.906 1.041-1.002 1.046-.334 0 .255-.38.613-.847.796-.71.278-.743.202-.199-.462zm894.176-13.376c-1.942-2.324-2.867-4.631-1.993-4.97.916-.356 2.947.526 2.952 1.282 0 .442.781.66 2.314.65 3.109-.02 4.129.988 2.377 2.35-.71.553-1.658 1.36-2.108 1.795-1.212 1.172-1.787.992-3.542-1.107zm-854.562 4.472c-.443-.706.374-3.108.989-2.907.88.286.87 3.303-.01 3.31-.399.001-.839-.18-.98-.403zm812.962-8.506c0-.286.1-.52.226-.52.125-.002.374.23.553.515.178.284.077.518-.226.52-.302.002-.55-.23-.553-.515zm-16.59-2.863c-.917-1.058-1.423-2.008-1.124-2.11.804-.274 3.018 1.605 2.774 2.354-.115.354.16.642.612.64.452-.004.823.227.825.513.007 1.118-1.502.435-3.088-1.397zm5.419.862c-.52-.567-.712-1.033-.426-1.035.286-.002 1.061.46 1.723 1.026.853.73.977 1.032.426 1.035-.427.003-1.203-.459-1.723-1.026zm-795.04 5.335c-.179-.285-.213-.518-.077-.519.136 0 .616-.146 1.066-.322.538-.21.821-.034.825.513.006.916-1.298 1.151-1.815.328zm-9.605-.455c-.002-.285.464-.522 1.035-.526.57-.004 1.04.227 1.041.512.002.286-.464.522-1.034.526-.571.004-1.04-.226-1.042-.512zm817.745-6.045c-.5-.287-1.288-.45-1.752-.362-.598.113-.898-.293-1.029-1.39-.101-.85-.428-1.627-.727-1.724-.907-.296-.612-1.128.403-1.135 1.53-.01 1.766-.684.482-1.385l-1.188-.65 1.142-.025c1.057-.024 5.506 2.551 6.133 3.55.151.24-.739.14-1.977-.223-1.908-.56-2.252-.55-2.248.066.005.4.316.725.697.723.38-.002.693.224.695.504 0 .28.573.648 1.269.818.808.197 1.165.572.989 1.04-.32.853-1.591.937-2.889.193zm21.363-.234a24.7 24.7 0 0 1-.225-1.065c-.148-.753-.04-.818.55-.335.405.331.61.81.454 1.064-.265.437-.69.62-.78.336zm-849.263 4.237c-.546-.87.1-1.162 1.679-.758 1.332.34 1.367.407.419.801-1.432.595-1.701.59-2.098-.043zm16.886-.308c-.006-.911.305-1.048.754-.33.166.264.066.629-.223.81-.29.181-.528-.035-.53-.48zm797.395-6.134c-.813-.837-2.118-1.658-2.9-1.824-1.671-.356-4.934-2.603-4.325-2.979.231-.142 1.658-.07 3.172.16 2.645.403 4.726 1.866 4.781 3.362.011.31.62.833 1.352 1.16.732.328 1.189.83 1.015 1.115-.55.903-1.571.575-3.095-.994zm-795.584 5.313c-.686-.29-.776-.45-.263-.473.428-.018 1.13.19 1.56.464.953.607.134.612-1.297.01zm786.478-5.277c0-.286.522-.52 1.164-.52.944.001 1.02.098.393.51-1.002.656-1.553.66-1.557.01zm-14.593-.135c-.165-.163-2.03-.457-4.145-.654-2.115-.196-3.847-.59-3.85-.876 0-.29 1.774-.587 4.036-.674 3.15-.12 4.103.012 4.334.603.343.874.07 2.039-.375 1.6zm25.467-3.523c0-.258.464-.35 1.036-.205.572.145 1.04.354 1.041.463 0 .11-.465.202-1.036.206-.571.004-1.04-.205-1.041-.464zm-23.907-.426c-.944-.574-.54-.928 1.556-1.362 1.29-.267 1.661-.187 1.495.324-.305.935-2.176 1.571-3.051 1.038zm25.018-3.241c-.63-.84-1.15-2.005-1.153-2.588-.005-.595-.348-1.056-.786-1.053-.428.003-.78-.229-.782-.514 0-.285.58-.523 1.294-.528.915-.006 1.296-.29 1.291-.966-.005-.526.44-1.366.983-1.865.944-.866 1.044-.854 2.165.25 1.385 1.368 1.987 5.053.936 5.73-.517.332-.524.438-.031.44.357.001.65.238.652.523 0 .285-.463.522-1.034.526-.577.004-1.036.353-1.033.785.009 1.276-1.276.895-2.502-.74zm-774.252 3.303c.171-.173.619-.195.994-.047.415.163.293.286-.311.315-.547.027-.855-.094-.683-.268zm761.454-6.363c-.84-.529-1.694-.858-1.897-.73-.203.127-.505-.117-.671-.543-.39-.995.675-1.002 2.594-.017.82.42 1.93.764 2.464.762.805-.003.861.13.33.78-.785.96-.915.948-2.82-.252zm-30.94-3.674c-.007-1.192.182-1.299 2.327-1.313 1.285-.01 2.336.092 2.337.223.005.702-2.421 2.372-3.455 2.38-.934.005-1.202-.28-1.208-1.29zm-712.908 4.21c.171-.173.619-.195.994-.047.415.163.293.286-.311.315-.547.027-.854-.094-.683-.268zm6.34-1.044c1.138-.468 2.535-1.112 3.104-1.43l2.068-1.16c2.89-1.62 7.493-4.79 7.49-5.16 0-.23.708-1.077 1.576-1.88 1.614-1.495 5.139-2.948 5.145-2.122.005.748-5.717 6.229-6.508 6.234-.4.002-1.123.475-1.608 1.049-.485.574-1.312 1.047-1.839 1.05-1.672.012-3.032 1.043-2.704 2.052.257.793-.103.978-2.432 1.25-1.504.176-3.55.466-4.548.644l-1.815.324zm756.095-5.35c-.564-.9.07-1.095.788-.242.413.49.454.788.11.79-.304.002-.708-.244-.898-.547zm-8.555-1.983c0-.286.23-.521.516-.523a.52.52 0 0 1 .522.516c0 .285-.23.52-.516.522a.52.52 0 0 1-.522-.515zm-82.593-1.573c-.495-.309-.204-.453.94-.466.91-.01 1.764.155 1.898.368.346.553-1.98.633-2.838.098zm74.274-.707a.771.771 0 0 1 .757-.784c.464-.003.647.3.469.776-.162.429-.502.782-.757.783-.255.001-.466-.347-.469-.775zm-29.912-.864c-.665-1-.732-1.464-.279-1.924.807-.818 2.951 1.242 2.512 2.412-.448 1.19-1.23 1.02-2.233-.488zm-58.458.338c.35-.144 1.051-.158 1.557-.03.506.129.22.247-.637.263-.856.016-1.27-.088-.92-.233zm63.448-1.111c0-.226.464-.535 1.033-.689.57-.153 1.038-.094 1.04.132 0 .225-.464.535-1.034.688-.57.153-1.037.094-1.039-.131zm-44.381-1.271c-.178-.285-.09-.519.195-.52.285-.003.664.228.843.513.178.284.09.518-.195.52-.285.002-.665-.23-.843-.513zm-611.107-1.35c-.003-.427.203-.779.458-.78.255-.002.6.346.767.773.185.473.006.778-.458.781a.773.773 0 0 1-.767-.773zm602-3.65c.004-.213.222-.738.489-1.166.366-.588.631-.632 1.087-.182.332.327.448.85.258 1.161-.388.639-1.843.787-1.835.188zm74.757-1.618-1.26-.955 1.25-.407a74.517 74.517 0 0 1 1.453-.461c.11-.03.274.587.363 1.371.19 1.672-.102 1.745-1.806.452zm-663.53 4.402c-.177-.285-1.36-.51-2.628-.502-1.361.01-2.306-.223-2.309-.568-.002-.377.571-.473 1.62-.27.894.172 2.938.313 4.544.314h2.919l-1.741.77c-2.07.915-1.995.907-2.404.255zm484.585-3.565c.17-.174.618-.196.994-.048.415.163.293.287-.311.315-.547.027-.855-.094-.683-.268zm-5.854-.714a61.598 61.598 0 0 0-3.608-.714c-2.561-.409-2.631-.773-.153-.79 1.173-.007 2.278.219 2.456.503.179.284 1.011.512 1.85.507.84-.006 1.529.223 1.53.508 0 .286-.055.496-.126.467-.072-.029-.949-.245-1.95-.48zm-490.677 2.802-2.078-.358 2.694-.092c1.48-.05 2.839.141 3.017.425.354.565-.46.57-3.633.025zm477.426-5.28c-.389-.62 1.142-.63 2.595-.017.877.37.78.447-.615.487-.91.026-1.802-.185-1.98-.47zm-9.581-1.539c-3.67-.694-3.682-.948-.035-.679 2.975.22 3.267.163 2.462-.483-1.227-.984-1.153-1.396.25-1.396 1.19 0 3.26.985 2.118 1.008-.338.006-.76.48-.936 1.052-.35 1.13-.45 1.143-3.86.498zm-6.397-1.292c.356-.146.94-.15 1.298-.009.357.142.066.261-.647.266-.714.005-1.007-.11-.65-.257zm59.428-.888c.172-.173.619-.195.995-.047.415.163.293.287-.312.315-.547.027-.854-.094-.683-.268zm-66.967-.123c-.648-.12-1.042-.44-.877-.71.164-.271.497-.373.738-.226.24.147 1.384.298 2.54.335 1.155.038 1.981.265 1.835.505-.27.446-2.123.488-4.236.096zm11.951-.545c.171-.174.619-.195.994-.048.416.163.293.287-.311.316-.547.026-.854-.095-.683-.268zm-451.12 2c-.003-.452.272-.732.612-.62.964.313 1.132 1.43.215 1.436a.824.824 0 0 1-.827-.816zm429.05-2.436c-1.8-.176-2.848-1.16-1.248-1.17 2.335-.016 5.527.68 4.918 1.072-.376.242-.918.406-1.203.365a89.755 89.755 0 0 0-2.467-.267zm5.117-.081c-.146-.233.424-.327 1.266-.21.842.119 1.531.305 1.532.416.005.395-2.538.208-2.798-.206zm-11.395-.883c-.644-.635-.36-1.118.556-.949.5.093 1.26.2 1.688.24.545.049.468.207-.256.523-1.328.582-1.565.604-1.988.186zm-132.027-.12c.172-.173.619-.194.995-.047.415.163.293.287-.312.316-.547.026-.854-.095-.683-.268zm71.858-1.55c.355-.146.94-.15 1.297-.008.358.141.067.26-.647.266-.713.005-1.006-.111-.65-.258zm-264.55.043c-.002-.285.522-.518 1.164-.518.945 0 1.02.097.393.508-1.002.657-1.552.66-1.557.01zm-10.386-.937c-.002-.302.23-.551.516-.553.285-.002.52.1.52.225.001.126-.23.375-.515.553-.284.178-.519.077-.52-.225zm-87.193-.688c0-.112.36-.345.802-.518.46-.18.67-.095.49.2-.302.496-1.289.739-1.292.318zm86.664-.896c.426-.28 1.125-.51 1.553-.514.692-.005.693.051.003.503-.426.28-1.125.511-1.553.514-.692.005-.693-.051-.003-.503zm163.709-1.133c-.519-.827.054-1.144 1.343-.744.897.278.992.456.434.815-.947.609-1.36.592-1.777-.071zm-167.8-.653-1.229-.666 1.648-.374c.907-.205 1.789-.235 1.96-.066.17.168-.079.309-.554.312-1.011.007-1.154.84-.209 1.215.358.141.417.254.132.25-.286-.002-1.072-.305-1.748-.671zm339.058-2.063c-.787-.3-.569-.407.913-.444 1.07-.028 1.947.04 1.947.149.005.462-1.908.66-2.86.295zm-171.903.144c-1.565-.617-1.478-.88.255-.768 3.029.193 3.066.206 2.21.767-.912.599-.948.599-2.465 0zm28.274-.238c.35-.357.768-.52.928-.36.161.158-.125.45-.635.648-.738.287-.798.228-.293-.288zm-31.52-.243a.52.52 0 0 1 .515-.523.52.52 0 0 1 .522.516.52.52 0 0 1-.515.522.52.52 0 0 1-.523-.515zm-119.222.486c.171-.174.619-.195.994-.048.415.163.293.287-.311.316-.547.026-.854-.094-.683-.268zm138.94-.848c0-.125.231-.374.515-.553.285-.178.519-.077.52.226 0 .302-.229.55-.514.553-.286.002-.52-.1-.52-.226zm17.383-.402c2.146-.568 5.964-.655 5.968-.136 0 .234-1.69.454-3.76.487-2.712.043-3.328-.054-2.208-.35zm-96.799-1.43c1.024-.673 8.147-.72 8.563-.058.207.33-1.417.525-4.507.541-3.31.017-4.587-.135-4.056-.484zm94.71-.6c-.847-.329-.636-.476 1.135-.791 1.289-.23 2.558-.168 3.115.15.825.473.771.541-.446.563-.761.014-1.695.128-2.074.253-.38.126-1.158.047-1.73-.175zm18.564.045c.172-.174.619-.195.995-.048.415.163.293.287-.312.316-.547.026-.854-.095-.683-.268zm6.426-.12c-.133-.212.319-.39 1.005-.395.686-.004 1.249.167 1.25.38 0 .215-.45.393-1.004.397-.554.004-1.117-.168-1.25-.381zm-27.977-.285c.356-.146.94-.15 1.297-.009.358.142.067.261-.646.266-.714.005-1.007-.11-.65-.257z" style="fill:#000"/>
</svg>
