<svg viewBox="50 250 1000 267.463" xmlns="http://www.w3.org/2000/svg">
  <path d="M310.872 516.052c0-.777-.24-1.264-.535-1.082-.295.182-.903-.549-1.352-1.624-.474-1.134-1.205-1.954-1.74-1.954-.731 0-.79-.163-.282-.775.494-.595.477-.83-.07-1.014-.561-.19-.537-.455.115-1.248.63-.768.663-1.063.138-1.24-.38-.128-.69-.475-.69-.77 0-.297.245-.388.545-.202.313.193.406-.028.217-.52-.18-.47-.045-.856.302-.856.46 0 .47-.3.04-1.105-.475-.887-.42-1.104.278-1.104.703 0 .737-.142.178-.74-.715-.765-2.103-.08-1.922.947.047.266-.206.59-.561.722-.426.157-.538-.18-.327-.984.175-.672.094-1.09-.182-.928-.275.161-.998.11-1.605-.113-.876-.322-.618-.49 1.242-.808 1.463-.25 2.347-.695 2.347-1.18 0-.43.482-.78 1.072-.78.59 0 1.413-.486 1.828-1.079.745-1.063 3.557-2.514 4.469-2.305.257.059 1.872-.247 3.588-.68 1.716-.433 4.674-.963 6.572-1.177 1.898-.214 3.59-.613 3.76-.887.168-.273.851-.503 1.517-.51.665-.007 2.7-.746 4.522-1.644 1.821-.897 3.732-1.637 4.246-1.643.513-.007 1.087-.261 1.274-.565.188-.304.061-.552-.281-.552-.766 0-.49-2.47.281-2.523.304-.02 1.642-.35 2.973-.731s3.027-.54 3.768-.355c.74.186 2.136.095 3.1-.203.964-.297 3.14-.812 4.834-1.143 4.65-.91 7.133-1.67 7.133-2.184 0-.532-28.322-.16-35.334.464-3.694.328-5.103.238-6.625-.423-1.062-.462-2.056-.876-2.208-.92-.152-.044-1.002-.38-1.89-.746-.887-.367-2.005-.514-2.484-.327-.479.186-7.827.428-16.329.537-8.502.109-16.576.446-17.943.748-1.366.302-5.46.838-9.1 1.19-3.638.353-7.09.896-7.67 1.207-.582.31-2.27.449-3.754.306-1.483-.142-2.83-.042-2.994.223-.164.265-.529.338-.811.164-.283-.175-.514-.055-.514.267 0 .321-.187.535-.414.475-.919-.243-5.66.761-5.66 1.199 0 .539-4.17 1.434-5.747 1.234-.58-.073-1.52.367-2.091.98-.57.612-1.463 1.142-1.982 1.178-.52.036-2.435.12-4.257.185-1.822.065-4.307.405-5.521.756-1.215.35-3.147.777-4.294.948-1.147.17-1.951.528-1.786.795.514.831-.713 1.049-10.305 1.829-.51.041-.882.31-.828.598.054.288-.399.67-1.006.848-.607.179-1.731.752-2.498 1.273-1.003.682-3.094 1.048-7.453 1.303-3.333.196-6.633.33-7.335.298-.702-.032-2.04.337-2.972.819-.963.498-1.843.658-2.036.37-.476-.706-2.42-1.384-1.994-.695.45.726-.088.689-1.558-.108-2.967-1.608-17.012-.386-18.478 1.608-.453.617-.503 1.034-.138 1.155.315.105.572.41.572.68 0 .268-.348.355-.773.192-.424-.163-.936-.031-1.136.293-.536.867 2.773.74 4.558-.173.82-.42 2.61-.945 3.976-1.169 1.366-.224 2.919-.487 3.45-.586.532-.098.966.147.966.544 0 .512.687.67 2.347.54 1.813-.142 2.124-.055 1.368.383-.538.312-.853.768-.701 1.014.327.53-2.76 1.063-8.735 1.509-3.355.25-4.45.15-4.822-.436-.35-.551-.484-.57-.49-.07-.012 1.017-3.33.853-4.52-.223-.555-.503-1.01-.679-1.01-.392 0 .317-1.791.373-4.554.143-2.505-.209-6.418-.516-8.695-.684-2.277-.167-4.957-.593-5.954-.946-.998-.353-2.432-.523-3.188-.379-.756.145-1.53.01-1.722-.3-.214-.347-.07-.392.374-.117.45.278.589.23.368-.127-.415-.673-3.048-1.282-6.165-1.427-1.838-.085-2.218-.301-2.268-1.289-.053-1.06.327-1.23 3.589-1.609 2.006-.232 4.27-.369 5.028-.303l1.38.12-1.464-.797c-2.54-1.38-5.017-1.963-9.853-2.318-2.581-.189-6.308-.75-8.281-1.245-4.54-1.14-20.291-1.228-20.978-.116-.237.382-.722.514-1.08.294-.922-.57-11.082-.762-10.736-.203.323.523.241.532-6.981.75-5.097.156-7.249.344-14.881 1.306-3.48.438-5.515.187-7.504-.926-.833-.467-.654-.732 1.352-1.998 1.618-1.021 3.595-1.622 6.579-2 5.092-.643 9.95-1.454 13.45-2.244 2.094-.473 2.512-.766 2.292-1.604-.157-.603-.587-.904-1.042-.73-.425.164-.773.023-.773-.314 0-.336.434-.615.966-.62.826-.006.846-.085.138-.543-.524-.338-.581-.538-.155-.543.37-.005.53-.382.353-.84-.222-.578.33-1.12 1.812-1.778l2.13-.947-5.394-.333c-2.966-.183-6.88-.307-8.695-.277-1.816.031-3.301.025-3.301-.013s.497-.642 1.104-1.342c.607-.7 1.104-1.105 1.104-.9 0 .206.56.007 1.243-.441.684-.448 3.085-1.1 5.336-1.45 2.251-.349 5.077-.982 6.28-1.406 1.202-.424 3.087-.78 4.187-.791 3.075-.03 10.82-2.044 8.58-2.231-.278-.023-1.003-.157-1.61-.296-.607-.14-1.408-.32-1.778-.402-1.264-.277-1.344-.814-.178-1.185.64-.203 1.813-.97 2.606-1.706.794-.736 1.998-1.338 2.675-1.338.678 0 1.516-.341 1.862-.758.518-.624.063-.824-2.555-1.122-1.751-.2-3.93-.483-4.84-.63-2.168-.35-10.791-.3-11.384.067-.799.493-7.111.726-7.111.262 0-.244.372-.753.828-1.131.455-.378.828-.947.828-1.264 0-.317-.164-.413-.363-.213-.2.2-.697.086-1.104-.252-.41-.34-.741-.38-.741-.087 0 .29-.373.528-.828.528-1.326 0-.963-.591.86-1.398 2.048-.907 1.755-1.287-1.548-2.007-3.014-.656-3.588-1.684-1.428-2.555 2.236-.901 12.74-2.071 18.746-2.088 2.815-.008 5.777-.179 6.582-.381l1.465-.368-1.573-1.286c-.865-.708-1.993-1.296-2.507-1.307-1.308-.028-1.706-.906-1.004-2.218.74-1.385 5.543-3.875 7.473-3.875.813 0 1.284-.238 1.09-.552-.188-.304-.797-.552-1.354-.552-.935 0-1.975-1.378-1.77-2.346.208-.984-8.552.116-9.285 1.166-.56.802-14.657 2.898-16.043 2.385l-1.32-.488 1.284-.687c.706-.378 5.293-1.356 10.193-2.173 8.967-1.494 11.149-2.55 5.273-2.55-1.805 0-3.466-.315-4.006-.76-.767-.633-1.829-.65-6.301-.104-8.225 1.004-13.005 1.694-14.126 2.039-.742.228-.966.064-.828-.607.201-.978 1.91-2.126 4.587-3.083 2.305-.823.872-1.549-2.075-1.05-1.278.215-3.44.567-4.807.78l-2.485.39 2.07-1.984c1.14-1.092 2.07-2.073 2.07-2.182 0-.108-1.54-.371-3.423-.584-4.451-.504-6.834-1.752-6.803-3.565.016-.956 3.588-2.238 6.911-2.481 1.368-.1 4.475-.577 6.904-1.06 2.43-.482 6.156-.988 8.282-1.125 2.126-.137 5.356-.51 7.177-.83 11.313-1.986 13.859-2.475 14.347-2.755.3-.172-.57-.584-1.933-.915-1.37-.334-2.477-.927-2.477-1.329 0-.929 5.565-2.947 10.615-3.85 2.456-.438 4.274-1.091 4.87-1.749.532-.588 2.38-1.33 4.208-1.69 4.149-.817 4.037-1.59-.47-3.256-.967-.358-1.646-.937-1.51-1.288.312-.8 2.871-2.019 4.237-2.019.565 0 .873-.248.686-.552-.188-.304-2.19-.552-4.45-.552-3.722 0-5.217-.565-3.418-1.29 1.608-.65-6.449-.298-10.428.454-4.956.937-7.652.545-7.652-1.113 0-.764 1.442-1.767 5.419-3.77 3.746-1.886 5.195-2.873 4.692-3.197-.953-.616-.012-1.246 3.69-2.469 5.227-1.726 9.373-4.62 8.83-6.161-.373-1.053 1.664-1.627 10.08-2.842 4.184-.604 8.373-1.48 9.31-1.948.937-.467 2.921-.996 4.41-1.174 4.101-.492 11.95-2.478 13.178-3.334.6-.418 1.842-.778 2.76-.799.92-.021 2.17-.252 2.776-.513.88-.378.655-.491-1.104-.556-4.705-.173-7.202-.637-7.826-1.454-.426-.558-1.092-.73-1.933-.498-1.103.303-1.146.267-.306-.26.537-.336 1.406-.54 1.932-.453.526.086 1.29-.053 1.699-.309.44-.275 1.299-.167 2.104.264 1.061.568 1.592.584 2.406.076.661-.413 1.168-.453 1.38-.111.183.297 1.747.55 3.475.56 1.728.01 3.763.375 4.522.809 1.654.945 2.209 1.014 2.209.276 0-.304-.388-.552-.861-.552s-.725-.22-.558-.49c.166-.269-.218-.625-.854-.791-.636-.167-1.048-.63-.916-1.03.243-.737 2.716-1.169 10.366-1.81 6.91-.58 8.833-.892 8.833-1.434 0-.285-.373-.518-.828-.518-.46 0-.828-.491-.828-1.105 0-.81.368-1.104 1.38-1.104 1.588 0 1.859-.85.393-1.233-.543-.142-3.338-.126-6.211.036-8.368.473-11.715.315-13.465-.632-.89-.481-1.776-.776-1.97-.656-.195.12-.252-.48-.126-1.336.273-1.865-.503-2.156-6.172-2.312-3.392-.093-3.656-.177-2.477-.788 1.94-1.005 9.055-2.448 13.298-2.696 2.169-.127 4.217-.58 4.954-1.096 1.568-1.099 2.513-1.113 3.574-.052.477.477 1.806.823 3.135.816 4.092-.021 19.358-1.574 21.431-2.18 1.936-.566 1.995-.657 1.586-2.468-.257-1.14-.2-2.105.147-2.451.394-.394.377-.806-.054-1.326-1.32-1.589.359-1.918 8.416-1.65 6.26.208 8.213.094 9.483-.554 1.344-.685 7.403-1.63 11.537-1.8.607-.025 2.346-.267 3.865-.539l2.76-.493-2.484-.402c-1.367-.22-5.466-.275-9.11-.12-3.643.155-8.86.249-11.593.208-2.733-.04-8.075.331-11.87.826-7.51.979-15.255 1.663-18.59 1.643-1.162-.007-2.27.204-2.46.47-.19.265-1.122.513-2.07.552-.948.039-1.724.276-1.724.528 0 .251-.559.3-1.242.107-.972-.273-1.062-.223-.414.23.714.5.695.582-.138.589-.531.005-.966.285-.966.624 0 .378-.525.272-1.361-.276-1.511-.99-2.174-1.146-1.714-.402.166.269-.192.618-.796.776-.628.164-1.098.014-1.098-.351 0-.37-.872-.639-2.07-.639-1.316 0-2.024.242-1.941.664.089.457-.506.583-1.909.403-2.298-.294-4.565-1.58-4.578-2.598-.006-.434-.2-.38-.544.151-.415.643-.537.48-.543-.726-.011-1.991.899-3.69 1.976-3.69.462 0 .687-.249.5-.553-.188-.303.108-.57.657-.594 1.82-.077 2.975-.411 4.205-1.217 1.103-.723 3.695-.445 3.695.396 0 .152-.333.149-.74-.008-.407-.156-1.09.148-1.518.676-.67.826-.67.893.006.486.603-.363.694-.239.395.54-.232.606-.103 1.193.32 1.463 1.057.67 1.946.544.985-.14-.623-.444-.303-.516 1.293-.294 1.172.163 2.571.013 3.13-.335.763-.478 1.205-.468 1.817.04.652.541.891.482 1.237-.309.235-.54.388-1.167.34-1.394-.048-.228.265-.414.695-.414.43 0 .877-.284.992-.632.116-.347.94-.709 1.83-.804.891-.095 1.898-.552 2.237-1.016.34-.464.818-.661 1.064-.438.246.223.292-.03.1-.56-.426-1.19.63-1.301 1.085-.115.29.754.446.744 1.363-.086.979-.885 1.037-.879 1.045.115.007.88.095.917.543.223.798-1.234.684-1.503-.793-1.874-.938-.235-1.32-.69-1.259-1.5.098-1.29 2.02-2.254 4.236-2.123 2.066.12 3.89-.59 3.89-1.516 0-.596.548-.77 2.07-.66 2.225.163 5.968-.459 7.315-1.214.668-.375.615-.473-.276-.508-.608-.023-2.347-.159-3.865-.301-4.695-.44-10.94-.427-13.192.029-1.546.313-2.042.26-1.765-.187.237-.385.088-.509-.391-.325-.454.174-1.187-.331-1.77-1.22-.71-1.086-.804-1.581-.328-1.74.447-.15.34-.479-.33-1.003-.907-.712-.848-.755.661-.493.911.158 1.346.141.967-.038-1.399-.659-.629-1.337 1.518-1.337 1.394 0 2.211.254 2.216.69.006.508.134.492.483-.059.299-.47.604-.54.822-.187.37.6 1.074.553 2.8-.186.591-.253 1.892-.477 2.89-.497 2.288-.047 3.03-1.417.768-1.417-.895 0-1.718-.36-1.898-.829-.214-.558.027-.828.742-.828.582 0 1.258-.31 1.5-.69.634-.99 2.884-2.162 3.463-1.804.27.167.647.052.838-.257.19-.309 1.033-.561 1.87-.561.838 0 2.873-.404 4.523-.897 2.603-.778 2.837-.957 1.773-1.356-.674-.252-5.283-.426-10.244-.384-4.96.041-9.343-.126-9.74-.371-.411-.254-.884-.183-1.1.165-.443.718-17.605 1.262-18.032.572-.15-.243-.658-.293-1.129-.113-.58.223-.657.453-.237.712.341.211-.135.384-1.057.384-.923 0-1.678-.238-1.678-.528 0-.29-.38-.213-.842.17-.463.385-1.018.522-1.234.307-.216-.216.225-.863.98-1.437l1.372-1.045-1.38.266c-1.21.232-1.244.2-.277-.26 1.593-.756 4.21-.678 5.743.172 1.495.829 3.367.556 3.367-.49 0-.483 1.09-.7 3.588-.714 2.252-.012 3.589.206 3.589.587 0 .333.31.2.69-.298.498-.654 1.993-1.003 5.383-1.26 2.58-.194 6.26-.704 8.177-1.132 1.917-.429 4.277-.803 5.245-.832.968-.03 3.002-.393 4.52-.807 2.589-.707 2.297-.735-4.692-.453-4.1.166-7.826.305-8.282.31-.455.005-6.17.592-12.697 1.304-6.529.711-13.646 1.37-15.817 1.462-2.17.093-3.833.355-3.694.583.14.228-.818.415-2.126.416-1.308 0-4.615.363-7.348.802-4.686.755-15.71 1.533-14.212 1.003.381-.135.553-.472.381-.75-.172-.278.386-.517 1.239-.531.853-.014 2.42-.498 3.483-1.074 1.063-.577 2.429-1.28 3.036-1.563 1.996-.93 34.558-6.317 42.235-6.987 2.277-.198 8.86-.853 14.63-1.454 5.769-.602 13.384-1.335 16.921-1.63 3.538-.294 7.628-.895 9.089-1.335 1.919-.578 2.762-.628 3.037-.183.348.564 6.157.41 13.187-.351 1.063-.115 4.417-.364 7.453-.554 5.449-.34 13.75-1.486 18.396-2.538 1.312-.297 2.618-.396 2.902-.22.285.175 4.131-.229 8.548-.898 6.535-.99 8.266-1.09 9.294-.54 1.034.553 2.358.46 7.286-.511 8.203-1.617 18.907-3.718 24.24-4.76 2.43-.474 5.959-1.214 7.843-1.645 1.885-.43 4.245-.782 5.245-.78 1 0 2.937-.355 4.303-.792 2.303-.737 7.018-1.555 19.6-3.401 6.463-.948 7.765-1.167 14.353-2.413a584.773 584.773 0 0 1 11.042-1.954l7.177-1.185c6.446-1.066 7.674-1.046 8.956.144.692.642 1.257 1.45 1.257 1.794 0 .345.187.598.415.562.227-.036.981-.036 1.675 0 1.055.054 1.171.234.71 1.097-.676 1.263-.135 1.944.876 1.104 1.139-.945.88-.095-.43 1.411-.687.79-2.067 1.499-3.337 1.713-1.854.314-2.065.486-1.472 1.201.891 1.074.139 1.14 35.517-3.14 2.429-.294 6.776-.654 9.661-.8 2.885-.145 8.102-.526 11.594-.845 3.492-.32 8.088-.68 10.213-.8 2.126-.12 4.847-.476 6.048-.79 1.2-.315 5.964-.588 10.586-.607 4.621-.018 8.732-.144 9.134-.28.994-.333 13.93-1.011 17.009-.89 1.361.053 2.855.44 3.32.86 1.04.942 3.69 1.036 16.012.571 5.665-.214 10.867-.7 12.575-1.176 2.23-.621 5.926-.791 15.735-.724 7.051.05 18.783-.099 26.07-.328 14.769-.464 13.98-.47 29.26.194 9.895.43 15.603.447 24.292.076 1.519-.065 2.326-.232 1.795-.37-.532-.14-.966-.513-.966-.83 0-.381 1.55-.468 4.554-.256 2.505.177 10.02.574 16.7.881 6.68.308 15.252.815 19.048 1.126 15.248 1.252 21.064 1.693 28.984 2.198 19.807 1.265 30.248 1.769 41.13 1.985 5.01.1 11.221.35 13.802.558 2.58.206 6.432.353 8.557.326 2.126-.027 6.35.195 9.386.494 3.036.298 12.87.652 21.853.786 8.983.134 17.43.485 18.77.781 1.342.296 4.39.673 6.776.837 2.386.165 5.119.427 6.073.583 3.265.534 8.361.897 15.814 1.127 6.563.202 12.94.687 22.36 1.701 1.517.163 3.63.366 4.692.451 1.063.085 3.795.314 6.073.509 2.277.194 6.128.506 8.556.692 2.43.185 4.54.414 4.693.507.152.094 1.69.32 3.417.504 1.726.184 3.503.474 3.948.644.445.171 3.007.385 5.693.475 7.38.248 7.37.247 7.37 1.14 0 .455.263.827.584.827.322 0 .406-.29.186-.645-.272-.44-.093-.529.565-.276.53.203 1.511.37 2.181.37.822 0 1.245.358 1.3 1.104.1 1.32-.2 1.383-1.307.276-1.155-1.156-2.448-1.07-2.06.138.192.594.132.728-.155.349-.318-.42-1.873-.5-4.883-.248-5.18.433-9.092.314-16.286-.496a732.744 732.744 0 0 0-8.281-.888c-1.67-.163-3.327-.391-3.681-.507-.355-.116-.79.166-.966.626-.238.62-.762.74-2.021.464-1.978-.434-3.249-.6-8.515-1.106-2.125-.205-4.013-.464-4.194-.575-.387-.238-7.772-.277-17.889-.095-6.419.116-10.945-.2-14.322-1-1.903-.45-15.214-.645-15.214-.223 0 .218 1.677.575 3.726.794 2.05.22 4.224.497 4.831.617 4.26.84 15.669 1.782 24.844 2.05 2.125.063 4.127.282 4.448.488.534.342 17.44 1.66 18.346 1.43.216-.054 2.256.075 4.534.287 3.52.329 12.512.99 14.768 1.086.816.034.912.747.163 1.21-.537.332-4.699.408-8.465.156-1.15-.078-2.293-.468-2.54-.867-.333-.541-1.282-.631-3.705-.353-1.792.206-3.424.473-3.627.594-.203.12-.747-.157-1.207-.618-.46-.46-.97-.625-1.13-.365-.312.505-11.455.29-14.684-.283-1.063-.188-2.936-.394-4.163-.456-1.227-.063-2.78-.408-3.45-.767-.976-.522-1.22-.505-1.22.084 0 .434-.739.797-1.795.882-4.365.352-10.475.319-15.32-.084-3.485-.29-4.972-.253-4.433.108 2.176 1.458-1.906 2.176-8.265 1.455-5.637-.64-6.645-.673-9.08-.303-1.258.19-3.02.15-3.918-.09-2.364-.634-14.654-1.756-20.127-1.838-2.58-.038-6.307-.24-8.281-.448-1.974-.207-5.949-.504-8.833-.66-2.885-.156-9.717-.649-15.183-1.095-5.465-.447-13.595-.98-18.065-1.183-7.286-.333-8.165-.276-8.481.548-.301.784-1.26.916-6.502.896-3.382-.012-7.268.178-8.634.425l-2.484.447 4.14.616c2.278.339 5.01.609 6.073.6 1.063-.008 5.41.37 9.662.84 4.25.47 12.325 1.133 17.942 1.472 5.618.339 10.766.735 11.442.88.675.146 6.265.506 12.422.802 11.065.531 18.818.965 24.72 1.382 1.67.118 7.399.467 12.73.774 5.333.308 10.053.67 10.49.805.438.135 1.292.434 1.9.664.607.23 2.059.486 3.226.57 1.167.085 2.41.548 2.762 1.03.509.694 1.947.904 6.987 1.017 3.491.079 6.596.296 6.9.482.303.187 2.415.486 4.692.664 10.886.852 21.77 1.543 26.776 1.702 3.036.096 9.496.609 14.354 1.139 4.858.53 11.07 1.046 13.802 1.147 18.914.698 34.02 1.576 41.958 2.44 2.733.298 7.523.7 10.645.896 3.122.195 5.807.567 5.967.827.16.26-.53.492-1.535.517a86.448 86.448 0 0 0-3.385.158c-.858.062-1.667-.062-1.799-.275-.132-.214-1.158-.135-2.28.174-1.139.315-3.637.403-5.654.2-1.988-.201-12.559-.462-23.49-.581-10.931-.12-23.974-.377-28.984-.573-8.93-.35-11.461-.136-5.603.473 1.625.17 3.075.428 3.222.575.394.393-1.625 1.367-3.3 1.592-1.951.261-2.567.96-.898 1.02.734.027 4.564.28 8.511.563 3.947.283 11.711.661 17.253.84 9.11.295 10.075.42 10.075 1.294 0 1.215 2.223 1.502 15.617 2.018 5.401.208 9.95.588 10.108.844.159.257 1.377.466 2.707.466 4.536 0 3.265 1.525-2.307 2.767-1.572.35-3.684.591-4.693.535-6.724-.372-4.96.715 2.584 1.592 3.036.354 7.26.763 9.385.91 2.126.147 5.976.515 8.557.818 2.581.303 7.799.714 11.594.914 4.674.247 7.08.598 7.453 1.088.306.4 2.276.884 4.417 1.083 2.125.197 4.113.662 4.417 1.033.303.371 2.366.842 4.584 1.047 2.217.205 4.589.737 5.27 1.183.78.511 3.167.9 6.457 1.054 7.093.33 12.65.952 12.959 1.45.324.524-4.51 1.273-5.253.814-.305-.189-.554-.107-.554.18 0 .288.87.687 1.932.886 2.099.394 2.495 1.08.967 1.673-1.804.7.72 1.807 6.396 2.807 4.767.84 7.78 1.877 5.584 1.923-2.064.043 1.122 1.016 4.439 1.355 1.969.202 3.869.606 4.222.9.353.292 2.213.785 4.133 1.094 5.336.86 5.278 1.55-.165 1.978-2.034.16-3.893.633-4.453 1.134-.784.702-1.743.786-5.244.459-7.12-.665-8.528-.535-9.597.88-.523.694-.843 1.435-.712 1.647.131.213 1.913.56 3.96.773 2.046.213 3.969.581 4.272.82.304.238 1.733.609 3.175.824 3.958.589 3.146 1.369-1.426 1.369-2.227 0-4.237.186-4.467.414-.23.228-2.545.414-5.146.414-3.288 0-4.8.21-4.965.69-.162.473.43.691 1.88.693 1.164.001 2.986.231 4.048.51 1.063.278 4.036.663 6.606.855 2.57.192 4.953.582 5.295.866.343.284.768.372.944.195.177-.177.9-.115 1.606.137.991.354.403.539-2.58.81-3.522.32-7.538 1.127-9.662 1.939-1.348.515.748 1.082 7.039 1.902 3.112.406 5.659.885 5.659 1.065 0 .18 1.614.225 3.588.1 2.884-.184 3.589-.07 3.589.578 0 1-1.748 2.637-2.804 2.625-.65-.007-.642-.1.043-.543.704-.456.681-.537-.156-.544-.54-.005-1.131.377-1.312.848-.28.73-1.278.814-6.746.568-6.85-.308-8.535.058-7.272 1.578 2.114 2.548 10.734 5.279 16.66 5.279 3.58 0 5.45.67 5.45 1.952 0 .641-.882.806-4.278.795-2.353-.007-5.272-.275-6.487-.595-1.214-.32-6.937-.694-12.717-.831-10.221-.243-10.511-.22-10.592.86-.08 1.061.593 1.826 1.778 2.018.304.049 2.685.491 5.293.982 8.533 1.608 16.11 2.588 23.864 3.085 7.185.461 9.635 1.094 8.892 2.295-.17.274-.545.352-.835.172-.29-.179-.46.003-.376.405.084.405-.278.698-.809.656-.528-.042-.84.117-.695.353.146.237-.578.588-1.609.781-2.228.418-2.756 1.413-1.615 3.043.608.868.673 1.385.24 1.908-.712.857-.247 1.444 1.143 1.444.557 0 1.012.104 1.012.23 0 .128.165.661.367 1.187.336.877-.034.925-4.555.588-2.707-.201-5.853-.513-6.992-.694-1.647-.26-2.07-.152-2.07.533 0 .474-.4 1.085-.89 1.36-1.264.707-.505 3.888 1.08 4.527 1.133.457 1.138.483.086.554-1.104.074-1.104.074 0 .548 1.077.463-.427.66-6.073.799-2.355.057-4.14.8-4.14 1.723 0 .493-.572.793-1.519.798-.835.005-2.083.159-2.773.344-1.177.315-1.194.382-.276 1.079.538.408 1.659.75 2.49.76.83.01 3.149.887 5.152 1.95 2.02 1.072 4.446 1.932 5.448 1.932 3.345 0 8.564.703 8.307 1.12-.14.226.167.378.684.336.516-.041 1.028.353 1.136.876.251 1.215-3.009 3.309-4.69 3.013-.673-.118-1.313.056-1.424.387-.26.78-6.703 1.002-9.28.318-1.095-.29-6.747-.595-12.56-.678-9.829-.139-12.727.143-9.052.88.835.168 2.636.558 4.002.867 1.367.31 3.54.573 4.831.587 1.29.013 2.347.272 2.347.576 0 .303.389.552.864.552s1.374.273 1.998.606c1.12.6 1.119.614-.175 1.259-2.264 1.129-1.563 2.194 2.244 3.404 1.952.621 3.667 1.49 3.809 1.933.142.441.478.947.746 1.123.845.554-.166 2.258-1.122 1.89-.483-.185-.725-.184-.54.003.187.186-.287.965-1.052 1.73-1.007 1.007-2.045 1.417-3.754 1.483-1.3.05-2.263.254-2.14.453.123.198-2.154.239-5.06.09-4.225-.216-5.47-.103-6.21.567-1.028.929-6.45 1.312-9.279.655-1.08-.25-1.868-.173-2.102.207-.207.334-.962.607-1.678.607-1.661 0-3.05.53-3.05 1.164 0 .27.36.493.801.493.44 0 1.012.376 1.27.837.29.52 2.448 1.222 5.686 1.852 6.378 1.241 11.074 3.138 10.63 4.295a.856.856 0 0 1-1.096.507c-.432-.166-.647-.077-.477.197.17.275-.343 1.273-1.139 2.22-1.065 1.266-1.74 1.627-2.557 1.367-.615-.195-.971-.128-.8.15.172.277-.553.528-1.609.558-1.056.03-3.664.482-5.795 1.004l-3.875.95 1.233 1.312c.679.722 1.463 1.313 1.744 1.313.28 0 1.363.405 2.405.9 1.817.861 1.86.95 1.056 2.179-.529.807-.634 1.407-.284 1.623.305.189.395.6.2.916-.228.37-.525.307-.837-.176-.313-.486-.628-.551-.897-.186-.227.31-1.159.923-2.07 1.362l-1.656.799 1.747.188c1.892.203 2.903 1.62 1.532 2.146-.463.177-.98.186-1.148.018-.167-.168-1.132.16-2.142.727-1.011.568-2.782 1.21-3.936 1.426-1.154.216-2.433.728-2.842 1.137-.968.968-1.347.947-6.477-.365-4.604-1.178-5.902-1.068-7.79.659-1.066.974-1.496 1.022-4.38.488-3.784-.7-10.913-.789-10.507-.132.156.253 2.096.769 4.311 1.146 5.644.963 6.279 1.17 5.352 1.742-1.606.993 5.587 3.336 12.617 4.11 1.898.21 3.572.576 3.719.814.147.238-.254 1.095-.89 1.905-1.07 1.36-1.09 1.546-.27 2.454.49.54.89 1.119.89 1.285 0 .682-9.348-.3-12.422-1.305-4.419-1.445-13.367-2.5-14.194-1.673-.437.438-.441.813-.014 1.328.578.696 1.463.993 8.825 2.966 2.297.616 3.451 1.203 3.451 1.756 0 .7-.651.773-4.096.46-2.625-.237-4.223-.165-4.45.2-.194.315-.048.572.324.572s.548.128.391.285c-.37.37-8.189-1.27-8.966-1.881-.612-.48-8.674-1.722-10.393-1.6-.531.037-.966.378-.966.758s-.129 1.026-.286 1.435c-.271.707 6.471 2.137 18.09 3.836 1.745.255 4.073.84 5.174 1.3 1.1.46 2.777.837 3.727.839 2.5.005 6.092 1.097 5.512 1.678-.27.268-3.631.559-7.472.645-3.84.087-6.941.2-6.89.252.05.051 1.318.575 2.819 1.165 2.613 1.026 2.675 1.1 1.481 1.739-.935.5-1.934.52-3.999.076-3.36-.72-3.802-.73-3.802-.082 0 .28.742.672 1.65.87 3.018.664 2.364 1.383-1.257 1.383-2.107 0-4.238.35-5.273.866-1.047.523-2.222.713-2.959.479-1.575-.5-27.496-.69-27.193-.2.642 1.039-6.6 1.034-12.78-.01-12.515-2.113-23.163-3.314-30.032-3.387-3.795-.04-9.51-.415-12.697-.832-3.189-.418-8.869-1.015-12.623-1.328-3.753-.313-6.983-.665-7.177-.782-.193-.117-2.215-.37-4.492-.565-2.277-.194-5.01-.457-6.073-.586-2.212-.267-12.285-.829-19.599-1.092-5.29-.191-13.33-.699-18.77-1.186-1.823-.163-8.903-.403-15.735-.532-6.832-.13-14.906-.44-17.943-.688-3.036-.249-11.434-.428-18.661-.398-10.93.046-13.23.192-13.665.869-.443.69-.598.697-1.019.043-.33-.513-1.04-.661-2.128-.444-.9.18-1.902.056-2.235-.278-.333-.332-1.425-.656-2.427-.72-1.003-.064-2.32-.264-2.927-.444-3.309-.98-6.756-1.264-8.145-.673-1.114.475-3.897-.086-3.512-.708.141-.23-2.52-.483-5.913-.565-9.138-.22-10.085-.32-11.12-1.178-.84-.698-.924-.666-.758.29.127.728-.08 1.01-.64.878-.456-.108-1.388-.201-2.07-.207-.684-.006-1.243-.202-1.243-.435 0-.233-.4-.578-.89-.765-.646-.248-.799-.105-.558.521.228.595.119.728-.353.429-.376-.24-3.044-.513-5.928-.608-6.067-.2-5.165-.198-33.677-.097-11.994.042-23.343-.103-25.22-.322-1.878-.22-3.832-.239-4.343-.043-.94.36-18.974 1.073-24.515.968-4.334-.082-9.248 2.466-6.515 3.377.408.136.126.526-.69.957-.758.4-1.516.936-1.685 1.193-.61.926-5.297 1.443-6.628.73-.84-.448-3.062-.61-6.558-.475-2.908.112-12.462.335-21.23.495-8.768.16-16.545.442-17.282.628-.738.185-3.872.374-6.965.42-3.093.047-6.12.364-6.728.706-1.087.61-6.207 1.613-7.064 1.382-1.056-.283-3.018-.212-4.806.175-1.063.23-2.43.377-3.036.326-.608-.051-1.601-.137-2.209-.19-.607-.054-3.464.194-6.349.55-2.884.357-6.319.644-7.631.638-1.313-.006-2.68.223-3.037.51-.357.288-1.457.696-2.444.907-1.468.314-1.794.214-1.794-.55 0-.829-.457-.89-4.003-.544-2.2.214-7.977.447-12.835.517-4.859.07-10.172.42-11.808.776-1.635.357-3.094.649-3.242.649-.147 0 .041.372.42.828.377.455 1.526.828 2.551.828 1.026 0 1.865.104 1.865.23 0 .128.15.625.335 1.105.46 1.198-1.095 1.139-2.321-.088-.695-.695-1.025-.77-1.191-.273-.126.38-.457.549-.735.377-.277-.172-.505-.111-.505.135 0 .245-.559.477-1.242.514-.683.037-4.472.349-8.419.693-3.947.343-11.897.724-17.667.846-5.769.121-11.11.357-11.87.523-2.571.564-16.713 1.873-24.29 2.247-14.043.695-24.689 2.703-26.884 5.072-.686.74-1.896 1.339-2.765 1.367-7.144.232-17.065.976-21.42 1.606a159.14 159.14 0 0 1-7.102.818c-2.084.187-5.037.576-6.562.865-1.525.289-2.863.525-2.973.525-.11 0-.201-.635-.201-1.412zm0-5.024c0-.604-.244-.649-1.083-.2-.648.347-.955.916-.764 1.414.246.643.495.689 1.083.2.42-.348.764-.985.764-1.414zm93.026-8.21c2.16-.776 2.105-.787-2.484-.518-10.51.617-13.802.929-13.802 1.31 0 .72 13.963.04 16.286-.793zm-256.442-6.668c0-.12-.373-.217-.828-.217-.456 0-.828.24-.828.535 0 .294.372.392.828.217.455-.175.828-.415.828-.535zm40.026-1.873c.193-.312-.26-.552-1.04-.552-.758 0-1.533.248-1.72.552-.193.312.259.552 1.038.552.76 0 1.534-.248 1.722-.552zm-26.224-2.825c0-.57-.661-.623-1.887-.152-1.386.531-1.014 1.194.507.904.759-.145 1.38-.484 1.38-.752zm312.388-.09c1.884-.524 2.142-.726 1.214-.946-1.473-.35-19.038.389-28.452 1.195-2.558.22 17.197.754 21.255.576 1.974-.087 4.666-.458 5.983-.825zm19.137-1.699c.607-.143-.51-.24-2.484-.216-4.711.059-6.576.566-3.589.976 1.215.167 2.83.123 3.589-.098a62.69 62.69 0 0 1 2.484-.662zm-352.321.162c1.137-.033 1.13-.062-.147-.572-1.505-.601-2.797-.301-2.797.65 0 .345.393.477.874.292.48-.184 1.412-.35 2.07-.37zm360.615-.621c.147-.148-.835-.31-2.184-.361-1.349-.051-2.624.185-2.834.524-.268.434.381.541 2.184.361 1.41-.14 2.686-.376 2.834-.524zm431.715-6.52c.212-.343-.67-.528-2.313-.487-2.357.058-2.47.112-1 .486 2.417.615 2.934.615 3.313 0zm-850.93-8.107c-.399-.16-.875-.14-1.058.044-.184.183.142.314.724.29.643-.027.774-.158.334-.334zm6.521-.727c1.11-.355 1.164-.445.276-.458-.607-.01-1.6.197-2.208.458-1.407.605.044.605 1.932 0zm7.408.217c.48-.184.873-.782.873-1.328 0-.845-.347-.949-2.346-.699-2.537.317-4.192 1.258-2.213 1.258.65 0 1.335.248 1.523.552.393.635.932.69 2.163.217zm896.902-9.602c0-.304-.434-.549-.966-.544-.825.007-.846.086-.138.544 1.042.673 1.104.673 1.104 0zm-883.227-22.46c-.399-.16-.875-.14-1.058.043-.184.183.142.314.724.29.643-.027.774-.158.334-.334zm-4.52-1.612c0-.9-1.536-1-3.553-.234-2.196.835-1.675 1.423 1.068 1.205 1.667-.133 2.485-.452 2.485-.97zm10.254.399c-.551-.892-2.525-1.12-2.525-.291 0 .465.567.776 1.413.776.777 0 1.277-.218 1.112-.485zm-4.182-.619c.616-.398.298-.537-1.242-.544-1.138-.005-2.07.24-2.07.544 0 .703 2.224.703 3.312 0zm920.321-64.594a.554.554 0 0 0-.552-.552.554.554 0 0 0-.552.552c0 .304.248.553.552.553a.554.554 0 0 0 .552-.553zm4.003-10.303c-.38-.153-1.001-.153-1.38 0-.38.153-.07.279.69.279.759 0 1.07-.126.69-.279zm-8.282-6.649c-.683-.131-1.8-.131-2.484 0-.683.132-.124.24 1.242.24 1.367 0 1.926-.108 1.242-.24zm-25.533-4.456c0-.237-2.05-.725-4.555-1.085s-5.153-.827-5.883-1.037c-.825-.238-1.2-.176-.991.163.186.3 2.522.863 5.193 1.249 2.67.386 5.104.78 5.407.877l.69.219c.077.024.139-.15.139-.386zm-805.212-5.091c.986-.424.945-.48-.381-.514-.817-.021-1.64.21-1.827.514-.408.659.674.659 2.208 0zm801.347-3.235c0-.26-2.493-.758-5.54-1.104-6.864-.78-8.097-.796-7.395-.095.294.295 3.263.757 6.597 1.027 3.334.27 6.124.527 6.2.569.076.042.138-.136.138-.397zm-832.32-6.611c.156-.253-.078-.46-.52-.46s-.804.207-.804.46.234.46.52.46c.286 0 .647-.207.804-.46zm73.863-1.021c-.399-.16-.875-.14-1.058.043-.184.184.142.314.724.29.644-.026.774-.157.334-.333zm-85.676-.727c0-.304-.435-.548-.966-.544-.826.007-.846.086-.138.544 1.042.673 1.104.673 1.104 0zm2.208-.86c0-.135-.248-.244-.552-.244-.304 0-.552.263-.552.584 0 .322.248.431.552.244.304-.188.552-.451.552-.585zm31.469-3.845c.759-.212 3.12-.593 5.245-.846 2.125-.254 4.734-.724 5.796-1.045 1.063-.32 1.933-.563 1.933-.537 0 .211 3.781-.97 5.659-1.768 2.848-1.21 3.028-2.14.414-2.14-1.35 0-1.933-.25-1.933-.829 0-.849 2.471-1.185 6.573-.893 1.787.127 6.885-.824 8.052-1.503.872-.506-1.914-1.078-5.549-1.137-2.364-.04-4.379.35-6.867 1.325-1.937.759-4.034 1.384-4.66 1.388-.906.007-.974.112-.335.516.44.279 1 .385 1.242.235.242-.15.44-.037.44.25 0 .494-1.208.843-5.425 1.567-1.01.173-1.97.665-2.135 1.092-.244.635-.456.648-1.165.073-.726-.59-.814-.563-.542.165.238.637.006.845-.863.778-.653-.05-2.012.133-3.02.409-1.27.347-2.074.3-2.622-.156-.444-.369-.79-.417-.79-.11 0 .608-4.207 2.35-5.678 2.35-.52 0-.947.34-.947.755 0 .562.74.715 2.898.6 1.594-.084 3.52-.327 4.279-.539zm22.71-20.022c-.398-.133-.986.021-1.307.342-.41.41-.194.482.724.242.747-.196.997-.446.584-.584zm666.839-2.187c0-.228-.755-.467-1.676-.532-.959-.067-1.535.11-1.347.414.385.623 3.025.726 3.023.118zm-665.258-3.478 1.38-.043-1.287-.516c-1.455-.583-3.957-.134-3.957.71 0 .308.555.408 1.242.224.683-.183 1.863-.352 2.622-.375zm660.842.12c0-.254-.372-.46-.828-.46-.455 0-.828.206-.828.46 0 .252.373.46.828.46.456 0 .828-.208.828-.46zm2.312.082c-.398-.16-.874-.14-1.058.044-.183.183.143.314.725.29.643-.027.774-.158.333-.334zm-653.665-1.104c-.398-.16-.874-.14-1.058.044-.183.183.143.314.725.29.643-.027.774-.158.333-.334zm-61.936-.727a.554.554 0 0 0-.552-.552.554.554 0 0 0-.553.552.554.554 0 0 0 1.104 0zm14.354-1.448c0-.618-1.037-.076-1.334.698-.29.758-.21.792.493.208.462-.383.84-.791.84-.906zm5.52.068c0-.456-.097-.828-.216-.828-.12 0-.36.372-.535.828-.175.455-.077.828.217.828s.535-.373.535-.828zm722.78-18.872c-.4-.16-.875-.14-1.059.043-.183.184.143.314.725.29.643-.026.774-.157.333-.333zm-508.32-11.179a.6.6 0 0 0-.185-.824c-.277-.172-.645.06-.82.513-.343.895.487 1.151 1.006.311zM131.337 510.977c-.318-.38-.361-.697-.096-.706.265-.01.017-.287-.55-.617-1.457-.846-.167-1.572 2.688-1.512 1.49.032 1.85.164 1.104.406-1.052.342-1.836 1.748-.966 1.732 1.62-.03 2.792-.751 2.539-1.565-.247-.795-.18-.788.513.054.943 1.145 5.144 1.355 5.507.276.185-.548.41-.544 1.09.018 1.076.887 1.71 3.042.797 2.705-.356-.131-.566-.573-.468-.982.125-.52-.128-.466-.843.181-.816.738-2 .902-5.88.813-3.084-.071-5.068-.364-5.435-.802zm-7.579-1.216c-.735-.455-.381-1.682.485-1.682.63 0 1.183 1.559.666 1.878-.229.142-.747.053-1.15-.196zm11.681-4.442c-.61-.978-.547-1.114.558-1.189.685-.046 1.619-.124 2.074-.174 1.473-.16 1.75.344.779 1.417-1.227 1.356-2.543 1.335-3.41-.054zm334.434-4.108c0-.134.248-.397.552-.585.303-.188.552-.078.552.243 0 .322-.249.585-.552.585-.304 0-.552-.11-.552-.243zm6.477-.378c.375-.377.82-.546.99-.377.17.17-.136.48-.68.686-.787.3-.85.237-.31-.309zm-296.32-1.52c0-.266.383-.802.851-1.19.662-.55 1-.56 1.514-.045.515.514.479.777-.162 1.182-1.04.658-2.203.686-2.203.053zm623.3-5.036c0-.304.358-.552.796-.552.437 0 .949.248 1.136.552.188.304-.17.552-.795.552s-1.137-.248-1.137-.552zm-9.385-.586c0-.629 1.483-.693 1.861-.08.149.24-.209.473-.795.517-.587.044-1.066-.153-1.066-.437zM246.44 492.8c-.497-1.295.26-1.485 2.168-.544.996.49 1.562.929 1.258.975-2.327.35-3.167.244-3.426-.431zm477.388-1.283c0-.304.11-.553.244-.553s.397.249.585.553c.187.303.078.552-.244.552-.321 0-.585-.249-.585-.552zm-7.959-.478c-.238-.385-.283-.85-.101-1.031.494-.494 1.033.232.766 1.033-.187.56-.317.56-.665-.003zm2.025.112c-1.13-.456-.783-1.211.414-.899.607.16 1.104.509 1.104.777 0 .526-.43.56-1.518.122zm264.677-2.763c-.635-.635-.402-1.288.46-1.288a.83.83 0 0 1 .828.828c0 .862-.653 1.095-1.288.46zm-685.155-3.382c-.149-.24.215-.474.807-.519.593-.044.934.153.758.438-.391.633-1.198.675-1.565.081zm4.976-.948c.174-.453.724-.842 1.223-.865.499-.024 2.025-.155 3.392-.291 1.791-.18 2.253-.093 1.656.31-.683.46-.691.56-.046.567.43.005.627.163.438.352-.19.19-1.837.436-3.661.547-2.764.169-3.265.065-3.002-.62zM77.09 482.72c-.408-.66.63-1.315 1.366-.86.617.381.212 1.374-.561 1.374-.268 0-.63-.231-.805-.514zm5.221-14.36c0-.285.246-.67.546-.856.313-.194.405.028.217.52-.367.956-.763 1.13-.763.337zm4.049-.284c0-.442.21-.673.469-.514.258.16.326.522.151.804-.446.723-.62.641-.62-.29zm962.095-72.07c-.456-.295-.58-.536-.276-.536.303 0 .924.241 1.38.535.455.295.58.536.276.536-.304 0-.925-.241-1.38-.536zm-907.071-40.972c0-.24.497-.435 1.104-.435.607 0 1.104.233 1.104.518 0 .285-.497.48-1.104.435-.607-.046-1.104-.28-1.104-.518zm23.12-8.108-1.295-1.048 3.303-.439c1.818-.241 4.608-.453 6.202-.47 1.594-.017 2.898-.2 2.898-.407 0-.43 3.29.427 3.803.99.186.205-.428.227-1.364.05-1.049-.2-2.322.003-3.313.527-.885.467-2.914.874-4.508.904-1.594.03-2.898.253-2.898.497 0 .792-1.501.471-2.829-.604zm-6.96.163c.183-.184.66-.203 1.058-.044.44.176.31.307-.334.334-.581.024-.908-.107-.724-.29zm-10.044-7.626c-.023-.582.107-.908.29-.725.184.184.203.66.044 1.059-.176.44-.307.31-.334-.334zm15.078-4.64c.154-.25-.228-.89-.85-1.421-1.11-.952-1.074-.993 2.287-2.583 4.048-1.915 4.421-1.958 4.421-.511 0 .68-.37 1.107-.966 1.112-.783.007-.818.102-.185.503.43.272 1.237.407 1.794.3.557-.108 1.013.057 1.013.367s-.807.518-1.794.464c-.987-.054-2.291-.069-2.898-.033-.92.053-.966.153-.276.6.707.457.687.536-.139.543-.53.005-.966.257-.966.56 0 .304-.387.552-.86.552-.474 0-.735-.204-.58-.453zm7.06-4.455c-.556-.343-.534-.574.103-1.102.893-.741 1.605-.094.99.9-.219.355-.701.444-1.094.202zm-19.145-23.248c-.187-.303.032-.552.487-.552.456 0 .982.249 1.17.552.187.304-.032.552-.487.552-.456 0-.982-.248-1.17-.552zm11.308-2.472c.795-.958 1.114-1.057 1.114-.347 0 .27-.408.65-.906.84-.758.291-.792.21-.208-.493zm780.257-8.909c.647-.647 4.182-1.154 4.895-.702.41.26.498.501.195.536-2.972.34-5.342.418-5.09.166zm-3.351-.681c-.46-.291-.116-.452.966-.452.923 0 1.678.207 1.678.46 0 .588-1.714.583-2.644-.009zm-14.195-.705c-2.363-.529-8.1-.908-18.82-1.245-3.672-.115-7.207-.493-7.856-.84-.707-.379-3.18-.571-6.16-.48-2.74.084-4.981.096-4.981.027 0-.192 3.212-1.81 3.593-1.81.185 0 .183.249-.005.552-.199.322.363.552 1.348.552.929 0 1.689-.248 1.689-.552 0-.303.263-.552.584-.552.322 0 .399.31.17.69-.306.51-.207.545.382.131.438-.307 1.293-.53 1.9-.495.607.034 2.423.1 4.035.145 1.612.045 2.816.268 2.675.495-.141.228 1.273.378 3.142.334 1.869-.045 3.833.15 4.364.433.645.343.966.314.966-.09 0-.332.3-.418.668-.191.367.227 2.79.48 5.383.563 2.593.083 4.715.18 4.715.216 0 .036 1.242.146 2.76.244 1.519.099 2.823.234 2.899.301.13.115.698.282 1.656.487.44.094-2.152 1.698-2.622 1.623-.152-.024-1.27-.266-2.485-.538zm-22.36-2.76c0-.266-.481-.483-1.07-.483-.59 0-1.207.217-1.37.483-.165.266.317.483 1.07.483.754 0 1.37-.217 1.37-.483zm29.532-1.596c-.191-.309-.578-.419-.861-.244-.283.175-.514.07-.514-.234 0-1.07.89-1.086 1.55-.03.367.588.556 1.069.42 1.069-.137 0-.405-.253-.595-.561zm-11.819-2.154c-.581-.582-1.173-.943-1.314-.802-.14.141-1.465.34-2.944.441-2.561.177-5.737-.96-4.932-1.766.645-.645 4.457-.494 5.29.21.853.72 2.406.743 3.102.047.586-.586 3.402-.458 3.792.173.53.858-.258 2.755-1.144 2.755-.435 0-1.268-.476-1.85-1.058zm5.699.421c-.236-.38-.153-.488.205-.267.33.204.755.118.946-.19.514-.833 1.202-.68 1.202.266 0 .973-1.781 1.117-2.353.191zm-645.458-4.113c.184-.183.66-.203 1.058-.043.44.176.31.307-.333.333-.582.024-.908-.106-.725-.29zm111.371-15.677c0-.303.11-.552.244-.552.133 0 .397.249.584.552.188.304.078.553-.243.553-.322 0-.585-.249-.585-.553zm12.874.056c-.892-.654-.678-1.595.303-1.339.626.164 1.027-.061 1.085-.608.05-.478.134-1.242.184-1.697.05-.456.548-.86 1.104-.897.557-.038 1.199-.12 1.427-.183.227-.063 1.159-.315 2.07-.56 2.026-.544 3.126-1.357 2.722-2.011-.167-.27.188-.49.788-.49.6 0 1.217.31 1.37.69.195.48.42.51.737.098.81-1.052 2.5-1.381 3.392-.66.716.58.783.566.392-.083-.36-.596-.241-.695.491-.415.53.204 1.3.37 1.71.37.41 0 .895.472 1.078 1.048.214.673.687.954 1.325.788 1.41-.369 1.264-1.734-.157-1.473-1.123.207-1.124.2-.046-.313.607-.288 1.945-.542 2.973-.563 1.028-.021 3.388-.282 5.245-.58 4.812-.772 16.91-2.125 22.423-2.507a508.14 508.14 0 0 0 7.177-.544c2.878-.254 8.561-.658 16.01-1.138a548.57 548.57 0 0 0 8.833-.642c4.744-.402 12.211-.432 13.25-.053.456.166 1.884.493 3.175.726 1.29.233 2.346.607 2.346.83 0 .224-.614 1.02-1.365 1.771-1.11 1.111-1.881 1.355-4.143 1.31-1.652-.032-2.702.173-2.592.505.103.308 2.1.58 4.437.605 3.672.039 6.117.753 5.282 1.543-.373.353-7.692.702-7.69.366 0-.164-1.677-.22-3.727-.126-2.05.095-5.153-.053-6.895-.329s-3.285-.384-3.43-.24c-.143.144-1.327.314-2.629.378s-3.054.309-3.893.543c-.907.254-1.81.191-2.227-.155-.385-.32-3.103-.64-6.039-.71-3.634-.086-5.224-.317-4.982-.721.195-.327-.067-.252-.582.166-.645.523-1.638.648-3.183.4-1.475-.235-2.126-.164-1.897.207.391.632.318.644-4.684.779-1.974.053-4.148.291-4.831.53-.683.239-1.242.231-1.242-.017s-.621-.451-1.38-.451c-.76 0-1.38.186-1.38.414 0 .228-.388.414-.861.414-.474 0-.731-.21-.573-.466.383-.62-5.288.29-5.7.915-.753 1.143-11.085 2.302-11.085 1.243a.588.588 0 0 0-.585-.588c-.322 0-.442.231-.267.514.5.808-.77 1.306-1.593.624-.55-.458-.81-.43-1.017.11-.178.465-1.087.678-2.548.596-1.25-.07-2.272.105-2.272.389 0 .913-2.836.313-3.387-.716-.293-.548-.773-.847-1.066-.666-.293.181-.407.535-.252.786.156.25-.08.595-.525.766-.444.17-.956.068-1.139-.227-.202-.328-.91-.215-1.812.288-1.698.946-6.98 1.951-7.653 1.457zm-7.905-2.507c0-.97.331-1.113.804-.347.175.283.065.67-.243.86-.309.191-.561-.04-.561-.513zm2.08-.954c.321-.32.91-.475 1.308-.342.413.138.163.388-.584.583-.918.24-1.133.169-.724-.241zm190.182-1.4c-.683-.132-1.242-.43-1.242-.661 0-.676 2.4-.309 2.637.403.119.356.133.613.031.572-.1-.042-.743-.183-1.426-.315zm-11.455-1.267c1.517-.653 2.39-.653 1.38 0-.456.294-1.2.521-1.656.504-.546-.02-.452-.192.276-.504zm3.344.051c-.17-.275.188-.37.795-.212 1.29.337 1.453.713.31.713-.438 0-.935-.226-1.105-.501zm-71.073-1.25c-.869-.873-.474-.933 6.35-.975 4-.024 7.828-.15 8.505-.281.677-.131 1.36-.03 1.517.225.158.255 1.047.41 1.976.346 2.512-.173 2.524.63.013.87-1.188.113-2.041.015-1.897-.219.453-.733-.397-.46-1.262.404-.94.94-3.271 1.109-3.787.275-.227-.368-.705-.36-1.424.025-1.222.654-2.373.21-1.81-.7.245-.397.109-.435-.406-.112-.426.268-2.142.62-3.812.78-2.39.231-3.234.096-3.963-.637zm44.265.646c0-.303.11-.552.244-.552s.397.249.584.552c.188.304.078.552-.243.552-.322 0-.585-.248-.585-.552zm-22.083-1.104c-.498-.321-.566-.538-.17-.543.36-.005.81.24.998.543.424.686.233.686-.828 0zm215.634-.075c.286-.462-1.817-1.006-2.243-.58-.594.594-3.048.706-3.048.14 0-.351-1.57-.436-4.279-.23-3.32.25-4.711.121-6.21-.578-1.063-.496-1.514-.787-1.002-.648s1.008.037 1.104-.227c.095-.264.546-.56 1.002-.659.455-.098 1.01-.428 1.233-.731.224-.304.41-.008.415.657.008 1.143.091 1.166 1.526.416 1.362-.711 1.597-.694 2.283.171.727.917.748.917.431 0-.257-.746-.028-.966 1.003-.966.734 0 1.588.435 1.898.966.312.536.57.66.58.276.017-.723 1.672-.996 1.672-.276 0 .228 1.878.4 4.174.382 2.295-.017 4.298.169 4.45.414.15.246.807.446 1.457.446.945 0 1.044.138.492.69-.691.691-7.356 1.017-6.938.34zm9.063-.017c0-.253.187-.477.414-.497.228-.02 1.21-.141 2.18-.268 2.185-.286 2.963.661.862 1.048-2.078.382-3.456.27-3.456-.283zm-39.75-1.84c0-.304-.93-.552-2.07-.552-1.138 0-2.253.248-2.476.552-.27.368-.409.368-.415 0-.012-.692-3.32-.855-3.32-.164 0 .278-.226.366-.502.195-.525-.325-5.382-.847-10.54-1.132-1.67-.093-3.036-.224-3.036-.292 0-.37-7.264-.376-7.729-.006-.83.66-6.35 1.12-6.35.53 0-.282-.372-.511-.827-.511-.456 0-.828.24-.828.533 0 .332-3.889.434-10.352.271-5.693-.144-10.95-.258-11.683-.255-.733.005-2.161-.224-3.175-.503-1.108-.306-1.842-.308-1.842-.005 0 .501-1.931.42-2.455-.104-.151-.15-2.663-.186-5.583-.078-3.519.13-5.571-.022-6.088-.451-.608-.505-.782-.48-.789.11-.006.479-.158.545-.414.18-.244-.345-3.384-.603-7.859-.645-4.099-.037-16.52-.21-27.604-.384-11.083-.174-25.306-.349-31.607-.39-6.3-.04-11.456-.228-11.457-.418 0-.19-1.367-.346-3.036-.346-1.67 0-3.035.187-3.035.414 0 .228-.263.414-.585.414-.321 0-.43-.248-.243-.552.187-.303-.046-.552-.52-.552-.473 0-.86-.248-.86-.552 0-.303-.264-.552-.585-.552-.322 0-.431.249-.244.552.202.326-.406.549-1.485.544-1.383-.007-1.626-.139-.999-.544.612-.395.637-.537.099-.543-.562-.007-.54-.2.098-.837.456-.455 1.343-.828 1.972-.828s1.144-.265 1.144-.59c0-.349.477-.437 1.173-.216.79.25 1.05.172.795-.239-.207-.336-.23-.611-.051-.611.18 0 .515.51.746 1.135l.42 1.136 1.456-1.146c.998-.784 1.577-.95 1.84-.524.272.44.518.403.846-.128.377-.609 4.164-.745 20.22-.729 10.867.012 24.23.18 29.695.376 5.466.195 14.534.498 20.151.674 20.284.636 25.51.867 25.964 1.148 1.015.628 5.464 1.184 6.138.768.415-.256.898-.165 1.146.217.32.494.567.451.973-.167.299-.455.547-.58.552-.276.006.349 3.42.528 9.256.485 9.223-.066 24.98.825 24.982 1.413 0 .17 1.926.282 4.278.248 4.033-.058 13.321.697 14.968 1.218.608.192.62.398.06 1.072-.563.679-.55.789.076.592.423-.134 1.462-.395 2.309-.581.95-.209 1.418-.597 1.222-1.013-.176-.37-.03-.285.324.19.52.7 1.23.785 3.709.449 1.743-.237 3.483-.193 4.034.102.532.285 1.667.552 2.522.593 1.432.07 1.45.095.223.326-1.03.194-1.156.363-.552.745.853.54.136.608-7.64.72-2.712.04-4.554-.157-4.554-.486zm-160.455-4.966c-.174-.453-.539-.687-.81-.519-.78.482-.577 1.344.316 1.344.493 0 .687-.323.494-.825zm-32.199 1.888c.568-1.062.535-1.183-.247-.883-.78.3-.814.178-.253-.87l.652-1.22.55 1.232c.63 1.412 1.77 1.617 2.236.402.175-.455.118-.828-.125-.828-.244 0-.443-.375-.443-.835 0-.679.499-.768 2.669-.48 1.822.241 2.668.156 2.668-.27 0-.346.873-.623 1.965-.623 1.288 0 1.835.209 1.59.607-.267.432-.041.428.783-.013.962-.515 1.103-.477.835.221-.177.463-.544.841-.816.841-.27 0-.493.249-.493.552 0 1.151.998.486 1.657-1.104.768-1.854.788-1.864 2.172-1.124.698.374.913.957.723 1.956-.15.782-.055 1.35.21 1.261.266-.088.607.082.76.379.163.319-1.15.578-3.213.633-3.189.086-3.54-.02-4.091-1.23-.594-1.304-2.634-1.876-2.634-.738 0 .321.245.433.546.247.308-.19.408.021.23.485-.184.48-.678.683-1.188.487-.568-.218-.737-.115-.484.295.444.718-1.39 1.249-3.52 1.018-.76-.083-1.835.07-2.389.34-.903.44-.94.364-.35-.738zm15.103-2.075c.157-.253-.066-.46-.495-.46s-.652.207-.495.46c.156.253.379.46.495.46.116 0 .339-.207.495-.46zm-22.54 2.18c-.166-.27.193-.62.798-.778.733-.191.988-.581.763-1.167-.185-.483-.104-.879.182-.879.757 0 .635 1.804-.178 2.616-.824.824-1.156.868-1.565.207zm3.386-1.536c.155-.405.353-.736.44-.736.087 0 .285.331.44.736.156.405-.042.736-.44.736-.397 0-.596-.33-.44-.736zm2.129-1.546c.59-.446 1.616-.819 2.281-.828 1.317-.02 2.156.818 1.331 1.327-.283.175-.609.033-.725-.317-.16-.477-.505-.477-1.391-.005-1.697.909-2.765.78-1.496-.179zm-7.336-.075c.183-.184.66-.204 1.058-.044.44.176.31.307-.334.334-.581.023-.908-.107-.724-.29zm29.11-.219c-.707-.457-.687-.536.139-.544.531-.005.966.24.966.544 0 .673-.062.673-1.104 0zm-2.964-.84c-.264-.687-.122-.734.769-.258 1.28.685 1.4 1.098.322 1.098-.423 0-.914-.378-1.091-.84z" style="fill:#000"/>
</svg>
